<svg xmlns="http://www.w3.org/2000/svg" viewBox="0 0 440.23 38.7"><defs><style>.cls-1{fill:#006838;}.cls-2{fill:#378440;}.cls-3{fill:#3a833f;}.cls-4{fill:#33a949;}.cls-5{fill:#37ad49;}.cls-6{fill:#39b04a;}.cls-7{fill:#2f9345;}.cls-8{fill:#3bb44a;}.cls-9{fill:#368941;}.cls-10{fill:#358d43;}.cls-11{fill:#2d9646;}.cls-12{fill:#40b449;}.cls-13{fill:#309c47;}.cls-14{fill:#31a048;}.cls-15{fill:#31a349;}.cls-16{fill:#348941;}.cls-17{fill:#2fa449;}.cls-18{fill:#358b42;}.cls-19{fill:#39833f;}.cls-20{fill:#189747;}.cls-21{fill:#348f43;}.cls-22{fill:#319345;}.cls-23{fill:#0fa049;}.cls-24{fill:#319f48;}.cls-25{fill:#3bb049;}.cls-26{fill:#339044;}.cls-27{fill:#359044;}.cls-28{fill:#349646;}.cls-29{fill:#34aa49;}.cls-30{fill:#2f9947;}.cls-31{fill:#309b47;}.cls-32{fill:#259a47;}.cls-33{fill:#309445;}.cls-34{fill:#f4f9f4;}.cls-35{fill:#3b8941;}.cls-36{fill:#388941;}.cls-37{fill:#438a40;}.cls-38{fill:#339946;}.cls-39{fill:#3b9c46;}.cls-40{fill:#56944e;}.cls-41{fill:#a2cc85;}.cls-42{fill:#3d833e;}.cls-43{fill:#6ea265;}.cls-44{fill:#71a368;}.cls-45{fill:#a0c39b;}.cls-46{fill:#f7fbf8;}.cls-47{fill:#93b88c;}.cls-48{fill:#d4e4d1;}.cls-49{fill:#d7e8cf;}.cls-50{fill:#c9dfba;}.cls-51{fill:#a7cf90;}.cls-52{fill:#76bc51;}.cls-53{fill:#a3cc89;}.cls-54{fill:#349144;}.cls-55{fill:#edf3ed;}.cls-56{fill:#a3c997;}.cls-57{fill:#d9e8d5;}.cls-58{fill:#e8eee5;}.cls-59{fill:#e9efe6;}.cls-60{fill:#ecf1eb;}.cls-61{fill:#f4f9f5;}.cls-62{fill:#e6ece4;}.cls-63{fill:#9cc396;}</style></defs><g id="Layer_2" data-name="Layer 2"><g id="Layer_1-2" data-name="Layer 1"><path class="cls-1" d="M64.87,30.42c0,3.3.84,5.88,4.5,5.88v1.5H52.21V36.3c3.66,0,4.5-2.58,4.5-5.88V7.5c0-3.3-.84-5.82-4.5-5.82V.18H69.37v1.5c-3.66,0-4.5,2.58-4.5,5.88Z"/><path class="cls-1" d="M109.33,22.08v1.56c-2.94,0-2.82,3.78-2.82,5.76v6.72c-4.44,2.34-10,2.58-14.76,2.58-10.86,0-21-8.94-21-19.74C70.75,6.78,82.09.12,92.23,0a51.21,51.21,0,0,1,13.62,2l-.12,12h-1.56c-1.26-5.1-5.34-12.48-11-12.48-8.58,0-12.84,10.14-12.84,17.52,0,7.62,4,18.12,12.42,18.12a7.73,7.73,0,0,0,5.58-1.92V29.4c0-3.24-1.14-5.76-4.44-5.76V22.08Z"/><path class="cls-1" d="M145.75,30.42c0,3.3.84,5.82,4.5,5.82V37.8H137.59V33.06c-2.22,3.36-6.54,5.1-10.86,5.1-6.42,0-12.84-3.78-12.84-11.76V7.5c0-3.3-.84-5.82-4.5-5.82V.18h17.16v1.5c-3.66,0-4.5,2.58-4.5,5.88V26.28c0,6.42,3.12,8.82,6.48,8.82a10.18,10.18,0,0,0,9.06-6.66V7.5c0-3.3-.84-5.82-4.5-5.82V.18h17.16v1.5c-3.66,0-4.5,2.58-4.5,5.88Z"/><path class="cls-1" d="M191.35,34.08a3.84,3.84,0,0,0,3.9,2.22v1.5H178V36.3c2.58,0,3.66-.9,3.66-2.52A7.22,7.22,0,0,0,181,31L178.75,26a10.92,10.92,0,0,0-1.8,4,12.33,12.33,0,0,0-8.16-3.18,12.54,12.54,0,0,0-6.18,1.74l-1.08,2.7c-1.26,3.36,1.38,5,5,5v1.5H153V36.3a5,5,0,0,0,4.92-3.18L169.15,4.44c-.9-1.74-2-2.76-4.08-2.76V.18h17.16v1.5c-4,.24-4.14,2.7-2.82,5.7ZM170.77,8l-7.14,18.18a15.26,15.26,0,0,1,9.9-4,10.87,10.87,0,0,1,3.78.6Z"/><path class="cls-1" d="M236.35,1.68c-3.66,0-5.4,2.52-5.4,5.88V30.42c0,3.36,1.74,5.88,5.4,5.88v1.5H224.59L204.79,9.36V30.42c0,3.36,1.74,5.88,5.4,5.88v1.5H196.63V36.3c3.66,0,5.4-2.46,5.4-5.82V7.56c0-3.36-1.74-5.88-5.4-5.88V.18h11.82l19.74,28.44v-21c0-3.36-1.74-5.94-5.4-5.94V.18h13.56Z"/><path class="cls-1" d="M277.45,34.08a3.84,3.84,0,0,0,3.9,2.22v1.5H264.13V36.3c2.58,0,3.66-.9,3.66-2.52a7.22,7.22,0,0,0-.72-2.82L264.85,26a10.92,10.92,0,0,0-1.8,4,12.33,12.33,0,0,0-8.16-3.18,12.54,12.54,0,0,0-6.18,1.74l-1.08,2.7c-1.26,3.36,1.38,5,5,5v1.5H239.05V36.3A5,5,0,0,0,244,33.12L255.25,4.44c-.9-1.74-2-2.76-4.08-2.76V.18h17.16v1.5c-4,.24-4.14,2.7-2.82,5.7ZM256.87,8l-7.14,18.18a15.26,15.26,0,0,1,9.9-4,10.87,10.87,0,0,1,3.78.6Z"/><path class="cls-1" d="M330.85,30.42c0,3.3.78,5.88,4.44,5.88v1.5H318.13V36.3c3.66,0,4.5-2.52,4.5-5.82V21.42a18.27,18.27,0,0,1-8.52,2.1,13.2,13.2,0,0,1-8.7-3.06v10c0,3.3.84,5.88,4.5,5.88v1.5H292.69V36.3c3.66,0,4.5-2.52,4.5-5.82V7.62c0-3.42-.84-5.82-4.5-6V.18h17.16v1.5c-3.66.18-4.44,2.52-4.44,5.88V18.12a10.24,10.24,0,0,0,4.14-4.32,12.29,12.29,0,0,0,10.2,5.58,12.6,12.6,0,0,0,2.88-.36V7.62c0-3.36-.84-5.76-4.5-5.94V.18h17.16v1.5c-3.66.18-4.44,2.52-4.44,5.88Z"/><path class="cls-1" d="M350.59,30.42c0,3.3.84,5.88,4.5,5.88v1.5H337.93V36.3c3.66,0,4.5-2.58,4.5-5.88V7.5c0-3.3-.84-5.82-4.5-5.82V.18h17.16v1.5c-3.66,0-4.5,2.58-4.5,5.88Z"/><path class="cls-1" d="M402,.18v1.5c-2.58,0-4.68,2.1-5.94,4.8L381.19,37.8H378L362.35,4.5a4.31,4.31,0,0,0-4-2.82V.18h17.16v1.5c-3.36,0-4,3.06-3.06,5l10.08,21.42,9.72-20.46c1.74-3.78-.9-5.94-3.84-5.94V.18Z"/><path class="cls-1" d="M417,30.42c0,2.82,1.74,4.62,4.38,4.62h9.6c3.42,0,5.88-2,5.88-5.4h1.56V37.8H404.23V36.3c3.54,0,4.44-2.82,4.44-5.82V7.62c0-3.36-1.08-5.94-4.44-5.94V.18h34.14V8.34h-1.56c0-3.54-2.64-5.4-5.88-5.4h-9.54C418,2.94,417,4.68,417,7.56V18.42a9.25,9.25,0,0,0,4.74-4.56c4.32,6.42,12.24,6.84,18.24,2.94l.3.6C434.47,23.94,423.19,26,417,20Z"/><path class="cls-2" d="M27.55,34.35a15.94,15.94,0,0,1-7,3.13A17.17,17.17,0,0,1,1.35,27.15c-.05-.13-.18-.27-.07-.47.23.1.26.34.34.52a15.73,15.73,0,0,0,9.56,8.6A15.1,15.1,0,0,0,25.87,33c.25-.19.49-.39.73-.59.45-.28.64-.2.65.33a1.28,1.28,0,0,0,.21.71A.91.91,0,0,1,27.55,34.35Z"/><path class="cls-2" d="M20.24,9.84a2.43,2.43,0,0,0-.83.39c-.3.27-.64.12-.93,0s-.57-.33-.52-.75a4.23,4.23,0,0,1,.19-1.38c.27-.54,0-1,0-1.55s-.25.06-.41,0,0-.24.06-.36c.09-.29.08-.25-.2-.38s-.24-.45-.23-.62c0-.45-.4-.71-.36-1.16,0-.21-.2.12-.34,0,.34-.37-.2-.53-.21-.86a3,3,0,0,0-.34-1.27.55.55,0,0,1,.34-.77C17.06,1,17.69.53,18.37.94c.13.48.26,1,.38,1.45,0,.18.09.33-.07.47a.88.88,0,0,1-.28,0l-.09,0h0c.14.06.29,0,.43,0a.5.5,0,0,1,.25.42,2.25,2.25,0,0,0,.24,1c.05.08,0,.16-.07.22-.25.06-.12.16,0,.26.37.32.25.81.43,1.19.43.89.43,1.91.89,2.79.07.14-.17.42.19.52.08,0,0,.15-.05.21A2.66,2.66,0,0,1,20.24,9.84Z"/><path class="cls-3" d="M.29,17.76a12.31,12.31,0,0,1,1.38-4.23,15.77,15.77,0,0,1,12.45-8.7,14.88,14.88,0,0,1,1.77-.09c.25,0,.78.87.65,1.08s-.29.07-.43.07A16,16,0,0,0,.51,17.47c0,.13-.09.27-.13.4S.23,17.87.29,17.76Z"/><path class="cls-4" d="M33.62,25.61a5.75,5.75,0,0,1-.53,1.56c-.12,0-.16-.06-.19-.14a19.41,19.41,0,0,1-.84-3,10.68,10.68,0,0,1-.44-1.59,17.5,17.5,0,0,0-.64-5,1.57,1.57,0,0,0-.19-.36c-.1-.18-.3-.39-.27-.54.14-.71-.46-.94-.79-1.34-.2-.24-.19.08-.28.1a.29.29,0,0,1-.11-.33,1.77,1.77,0,0,0-.26-1.62s-.07-.1,0-.14c.2-.41-.26-.66-.25-1A8.72,8.72,0,0,0,28.5,11s-.06-.08-.1-.12a1.3,1.3,0,0,1-.19-.37c-.21-.6-.11-.79.49-1a.82.82,0,0,1,.49,0c.17.1.19.28.22.45A14.77,14.77,0,0,0,30,12.1c.17.58.2,1.18.38,1.77.35,1.12.74,2.25,1,3.39.34,1.53.81,3,1.29,4.51a15.76,15.76,0,0,0,.9,3.08A1.6,1.6,0,0,1,33.62,25.61Z"/><path class="cls-5" d="M33.62,25.61a23.13,23.13,0,0,1-.85-2.95c-.09-.68-.44-1.29-.6-2s-.45-1.26-.59-1.9c-.24-1.12-.57-2.2-.9-3.29A12.93,12.93,0,0,1,30,13.13c-.13-1.22-.78-2.29-.79-3.51a.19.19,0,0,1,.26,0,1.16,1.16,0,0,0,.36.3.58.58,0,0,1,.29.22,1.42,1.42,0,0,1,.07.22,11.76,11.76,0,0,1,.72,2.46c.18.65.36,1.3.53,2,.49,1.86,1.14,3.67,1.55,5.56.11.51.33,1,.46,1.49a10.13,10.13,0,0,1,.35,1.52.73.73,0,0,0,.23.46A6.4,6.4,0,0,1,33.62,25.61Z"/><path class="cls-6" d="M34,23.82c-.47.06-.39-.39-.39-.56a8.43,8.43,0,0,0-.55-2.17c-.31-1-.54-2.08-.85-3.11-.17-.59-.36-1.17-.58-1.74a15.54,15.54,0,0,0-.41-1.63c-.26-.53-.09-1.23-.59-1.68.28-.32-.07-.58-.08-.87s-.23-.64-.18-1-.4-.38-.35-.71c.51.07.67.51.92.85a.51.51,0,0,1,.09.26,2.32,2.32,0,0,0,.07.46,2.72,2.72,0,0,1,0,.28c0-.07,0-.16.08-.2.63.12.63.68.65,1.1a6,6,0,0,0,.58,2,11,11,0,0,1,.46,2,3.33,3.33,0,0,0,.5,1.39.65.65,0,0,1,.15.44,4,4,0,0,0,.61,2.15c.13.29,0,.61.07.92A5.73,5.73,0,0,1,34,23.82Z"/><path class="cls-7" d="M23,3.15a.22.22,0,0,0,0,.08c.07.28-.15.56,0,.85s.43,0,.64.1.23.15.11.31l-.25.06c-.37,0-.41.21-.17.47a3.4,3.4,0,0,1,.66,1.84.85.85,0,0,1-.12.49.51.51,0,0,1-.29.1,2,2,0,0,0-.54.06,2.12,2.12,0,0,1-.44.06c-.13-.22-.13-.22.13-.4a1.08,1.08,0,0,1-.44-.89A.78.78,0,0,0,22,5.63,4.15,4.15,0,0,0,21.29,4c-.17-.12.24-.29-.05-.4a2.65,2.65,0,0,0-.16-.7c0-.23-.34-.41-.14-.7.06-.09,0-.19-.11-.27-.24-.25-.18-.45.14-.58.13.05.22.17.41.16s.54-.34.5.2h.89c-.11.25-.39.2-.5.42.25.08.52-.06.84.14l-.65.2A1.76,1.76,0,0,0,23,3.15Z"/><path class="cls-8" d="M34.25,22c-.06-.05-.19-.12-.18-.14.23-.79-.4-1.32-.57-2a1.2,1.2,0,0,1-.09-.61.78.78,0,0,0-.1-.68,6.11,6.11,0,0,1-.68-2.37,4.91,4.91,0,0,0-.55-1.6,9,9,0,0,1-.44-2,.73.73,0,0,0-.43-.54.27.27,0,0,1-.15-.13A1.06,1.06,0,0,0,31,11.5a.23.23,0,0,0-.12-.22c0-.23-.16-.39-.23-.6.29-.51,0-1-.12-1.46,0-.08-.1-.14-.05-.24l.71,0c.11,0,.17,0,.19.17s-.05.17-.16.18c-.21.38.29.32.34.54a.12.12,0,0,1,0,.08c0,.1-.11.24,0,.29a1,1,0,0,1,.34,1,.52.52,0,0,0,.1.35,4.83,4.83,0,0,1,.81,2.3c.29.95.6,1.89.82,2.85.09.41.49.78.29,1.29a.46.46,0,0,0,.29.54A12.34,12.34,0,0,1,34.25,22Z"/><path class="cls-9" d="M20.24,9.84l.35-.45c-.35-.07-.35-.07-.46-.58l.28.11c0-.06,0-.11,0-.12a1.46,1.46,0,0,1-.48-1.18A15.67,15.67,0,0,0,19.43,6c-.09-.4-.22-.79-.34-1.19.36-.21.71,0,1.07,0a1.75,1.75,0,0,1,.76,1.31c.29,1.1.64,2.2.84,3.33.06.32,0,.66.31.94s0,.42-.24.47l-.7-1c-.2-.29-.41-.49-.7-.09C20.4,9.82,20.31,9.82,20.24,9.84Z"/><path class="cls-10" d="M21.83,10.87c.51-.23.11-.51,0-.61s-.24-.16-.13-.4,0-.67-.13-.94c-.37-1.1-.48-2.26-.94-3.33-.1-.24-.25-.44-.35-.68.32-.34.65-.19.94,0a1.39,1.39,0,0,1,.63,1.19,3.91,3.91,0,0,0,.28,1.55,4.69,4.69,0,0,1,.38,2,.23.23,0,0,1-.28,0c.19.13.41,0,.61,0a.4.4,0,0,1,.39.41,1.05,1.05,0,0,0,.13.49,8.45,8.45,0,0,1,.19,1.12c-.35.38-.8,0-1.18.18-.2-.09-.14-.25-.11-.4C22.33,11.14,21.85,11.15,21.83,10.87Z"/><path class="cls-11" d="M26,12c-.6,0-1.24.25-1.79-.2a1.33,1.33,0,0,0-.13-1.32,2.35,2.35,0,0,1-.33-1.14c0-.65-.34-1.22-.37-1.86a.29.29,0,0,1,.19-.13c.19,0,.37-.09.56,0s0,0,0,0c1.3.9,1.33,1,1.25,2.52,0,.2,0,.39,0,.57,0-.08,0-.18,0-.27.22-.17.34,0,.41.16.19.5.24,1,.39,1.56C26.24,12.08,26.11,12.1,26,12Z"/><path class="cls-12" d="M34.13,18.6c-.08,0-.06.23-.22,0s0-.56-.35-.7c0,0,0,0,0,0,.73-.33-.29-.32-.12-.63.32-.56-.23-1-.37-1.48a7.71,7.71,0,0,1-.37-1.28c0-.85-.6-1.54-.54-2.37,0-.06.11-.11,0-.16-.56-.26-.52-.72-.39-1.21.06-.23-.18-.23-.28-.31-.26-.22-.28-.39,0-.54a.66.66,0,0,1,.62.32.44.44,0,0,0,.23.3l.1,0a.68.68,0,0,0,.43.69c-.09.17-.46.09-.4.24a1.12,1.12,0,0,0,.73.71c0,.21-.23.06-.29.18s.24.17.3.33l-.25,0c.12.57.71,1,.42,1.68a.77.77,0,0,0,.58.84c-.11.13-.31,0-.34.31s.2.28.33.38c-.11.17-.28.05-.4.19.3.11.54.25-.21.55.82-.1.4.22.46.33a3.85,3.85,0,0,1,.25,1A4.4,4.4,0,0,1,34.13,18.6Z"/><path class="cls-13" d="M26,12c.43-.13,0-.29,0-.43a4.91,4.91,0,0,0-.25-1.29c0-.07-.16-.11-.24-.17a3.15,3.15,0,0,1-.09-1.33,1.7,1.7,0,0,0-.45-1.28,10.8,10.8,0,0,1-.3-1.37,1.86,1.86,0,0,1,1-.62c.07.27-.44.25-.24.56a.61.61,0,0,1,.42.6A2.89,2.89,0,0,0,26.16,8c0,.08.11.16.1.24-.07,1.18.78,2.14.8,3.31,0,.34.28.6.31.93s0,.5-.48.36A2.84,2.84,0,0,1,26,12Z"/><path class="cls-14" d="M26.89,12.87c.4,0,.54-.19.3-.58A2.67,2.67,0,0,1,26.87,11c-.05-.55-.44-1-.56-1.48a5.23,5.23,0,0,0-.51-2c-.31-.44,0-1-.44-1.45.21,0,.39-.18.64-.11l-.25.35c.31,0,.52-.26.83-.14l-.21.3A1.81,1.81,0,0,1,27,7.93a3.05,3.05,0,0,0,.51,1.72c.34.45.14,1,.29,1.56-.21.65-.12,1.34-.28,2A1,1,0,0,1,26.89,12.87Z"/><path class="cls-15" d="M31.62,22.46c.05.05.14.08.15.13.06.39.28.74.34,1.09a26.17,26.17,0,0,0,1,3.49,6.74,6.74,0,0,1-.73,1.56,1,1,0,0,1-.41-.68,12.53,12.53,0,0,0-.82-2.76C31.36,24.36,31.46,23.41,31.62,22.46Z"/><path class="cls-16" d="M19.06,4.52c.33-.24-.09-.39-.12-.55-.09-.34,0-.71-.16-1l0,0a.74.74,0,0,1,.21,0,1.13,1.13,0,0,0-.26,0,.14.14,0,0,1-.11-.07,4.1,4.1,0,0,0-.4-1.58c-.1-.2.09-.19.1-.29.42.11.82-.21,1.24-.09,0,.2.4.35.1.6-.17.07-.37,0-.53.18.12.16.31.1.46.17a8.5,8.5,0,0,1,.37,1c-.08.39.52.66.2,1.09,0,0,0,.05.07.06.62.23.24.51,0,.79C19.89,4.74,19.43,4.91,19.06,4.52Z"/><path class="cls-17" d="M28.45,10.86c.1,0,.29,0,.26.11-.14.42.16.72.23,1.07s-.14.56.28.66c0,0,0,.16,0,.24s-.08.26,0,.3c.67.6.37,1.34.3,2-.06.3-.29.35-.54.37a.88.88,0,0,1-.29-.74,1.78,1.78,0,0,0-.32-1.07,3.14,3.14,0,0,1-.39-1.25,2.06,2.06,0,0,0-.21-.48A1.31,1.31,0,0,1,28.45,10.86Z"/><path class="cls-18" d="M27.55,34.35c-.06-.37,0-.78-.36-1.07a.47.47,0,0,1-.06-.43c.1-.45-.1-.6-.53-.47l1.49-1.55c.28,0,.36.19.39.39.09.6.24,1.19.37,1.78a.47.47,0,0,1-.15.41A6.06,6.06,0,0,1,27.55,34.35Z"/><path class="cls-17" d="M27.67,11.1a1.57,1.57,0,0,1-.13-.85c0-.12,0-.21-.06-.31-.46-.5-.43-1.19-.64-1.79a3.74,3.74,0,0,1,0-1.11c-.48.08-.27-.39-.45-.54.19.15.3-.13.45-.1s.53-.21.37.27c-.07.18.1.13.17.12a1.08,1.08,0,0,1,.5-.09c.11.24-.81.31-.1.64,0,.09-.08.22,0,.23.4.2.3.64.44,1a2.47,2.47,0,0,1,0,1.18,2.08,2.08,0,0,0-.09.6C28.09,10.63,28.05,11,27.67,11.1Z"/><path class="cls-19" d="M13,13.92a10.68,10.68,0,0,1,1.1-.33,5.09,5.09,0,0,0,3-1.65.72.72,0,0,1,.65-.25c.6,0,1.21,0,1.82,0s.56,0,.93.54a15.51,15.51,0,0,1-2.25.09,1.14,1.14,0,0,0-.78.21c-1.25,1-2.81,1.19-4.32,1.48C13.06,14.07,13,14,13,13.92Z"/><path class="cls-20" d="M29.63,28.69l.66-1.21c.28-.13.34.14.38.27a16.44,16.44,0,0,1,.67,2.66,5.92,5.92,0,0,1-1,1.26,8.56,8.56,0,0,1-.58-2.25C29.78,29.19,29.56,29,29.63,28.69Z"/><path class="cls-21" d="M19.7,1.38c.16-.21-.37-.3-.09-.53.41.29,1,.14,1.36.54-.1.18-.4.38,0,.54a.29.29,0,0,1,.11.16c-.35.32.11.58.06.87-.27.43-.23.65.13.71.09,0,.18-.15.26,0s0,.17-.12.19-.13.09-.14.18c-.15.39-.38.66-.85.57,0-.06-.13-.12-.12-.17.06-.33.07-.33-.31-.47.15-.18.36-.36.05-.57s-.12-.45-.21-.67-.18-.55-.27-.82c0-.1,0-.21.08-.23C20,1.58,19.65,1.46,19.7,1.38Z"/><path class="cls-22" d="M23.38,7.53A4.5,4.5,0,0,1,23.77,9a7.65,7.65,0,0,0,.58,2.06c.06.31.09.57-.17.77l-.67-.11a1.57,1.57,0,0,1-.24-1.05c-.23-.41.19-.67.23-1.06a.44.44,0,0,1-.47,0,2.25,2.25,0,0,1-.35-1.57c.07-.22-.21-.39,0-.58l.48-.06A.33.33,0,0,1,23.38,7.53Z"/><path class="cls-7" d="M29.63,28.69a8.12,8.12,0,0,1,.51,2.08c0,.29.37.54.24.9a2.89,2.89,0,0,1-.63.72c-.41-.26-.73-.57-.6-1.11.05-.23-.17-.33-.19-.52s0-.66-.05-1Z"/><path class="cls-23" d="M27.78,12.13c.45.24.24.72.34,1.07a1.87,1.87,0,0,0,.34.59c.36.54.23,1.16.4,1.73a.78.78,0,0,0,.05.14,1.5,1.5,0,0,1-1.56.42c.39-.43.38-.43.18-1.12-.07-.24-.3-.49-.08-.77.56-.1.27-.44.19-.71C27.6,13,27.36,12.54,27.78,12.13Z"/><path class="cls-24" d="M31.13,25.29c.46.29.47.81.59,1.26a11.85,11.85,0,0,0,.64,2.18,4.09,4.09,0,0,1-.62,1.07A11.25,11.25,0,0,1,31.15,28a9.61,9.61,0,0,0-.44-1.41Z"/><path class="cls-25" d="M30.48,9c.44.41.31,1,.48,1.51,0,.1-.15.17-.27.17-.33,0-.43-.3-.61-.51L29.75,10a1.76,1.76,0,0,0-.24-.3.37.37,0,0,0-.14-.22.38.38,0,0,1-.11-.24c0-.5-.3-.94-.35-1.44.28-.17.25-.13.49,0s.47,0,.64.25c0,0,.16,0,.16.07.1.37.1.37.43.4Z"/><path class="cls-26" d="M28.91,29.78c.14,0,.11.09.13.2.05.38-.12.81.26,1.11a.19.19,0,0,1,.06.13c-.4.57.25.78.39,1.17a6,6,0,0,1-1.05,1c.2-.33-.06-.64-.14-.9-.16-.56,0-1.23-.47-1.68Z"/><path class="cls-27" d="M25.14,15.13c-.75,0-1.17.51-1.66.95-.22-.21.06-.5-.12-.72.16-.2.51-.35.44-.57s-.53-.07-.76-.25a.52.52,0,0,0,.13-.62h0c.22,0,.59.27.64-.05s-.26-.59-.66-.59l-.2,0c.38-.63.62-.6,1.21.13a1.56,1.56,0,0,1,.27.6c0,.2.1.45.29.51S25.14,14.85,25.14,15.13Z"/><path class="cls-28" d="M26.72,16.39l-.79.38c-.3.17-.56.36-.46.81-.48-.17-.34-.45-.23-.71a2.11,2.11,0,0,1,.93-1c.5-.27.16-.39,0-.55a1.17,1.17,0,0,0-.32-.15c.1-.46-.24-.79-.34-1.19s-.33-.53-.05-.81c.42,0,.48.44.73.64a.58.58,0,0,1,.29.34c.25.56.22,1.18.44,1.74C27,16.08,26.83,16.24,26.72,16.39Z"/><path class="cls-29" d="M28.91,7.84a2,2,0,0,1,.39,1.48,4.4,4.4,0,0,0-1.22.32,5,5,0,0,0-.17-1.73c0-.2-.27-.18-.38-.31l.23-.26a2.33,2.33,0,0,1,.95-.23c-.16.24,0,.51-.07.76C28.62,7.92,28.81,7.83,28.91,7.84Z"/><path class="cls-30" d="M24.62,6.16c.4.34.25.83.32,1.26a.55.55,0,0,1-.6.09c-.14-.16-.39-.08-.55-.22a2.69,2.69,0,0,0-.55-2c-.08-.11,0-.19,0-.28h1.65c-.39.14-.64.22-.88.33s-.3.09-.17.29.19.08.3,0a1.26,1.26,0,0,1,.6-.21c-.11.25-.46.31-.41.61C24.37,6.16,24.52,6.16,24.62,6.16Z"/><path class="cls-31" d="M30.71,26.55a.85.85,0,0,1,.45.71c0,.9.61,1.65.58,2.54a1.66,1.66,0,0,1-.4.61,11.67,11.67,0,0,1-.62-2.19,1,1,0,0,0-.43-.74Z"/><path class="cls-32" d="M26.72,16.39a1.23,1.23,0,0,0,0-.94c-.22-.53-.11-1.16-.49-1.64l1.26.38a2.83,2.83,0,0,0,.29,1c.21.68.24.67-.39.9Z"/><path class="cls-33" d="M25.46,13.17a2.21,2.21,0,0,0,.53,1.4.38.38,0,0,1-.14.6,2.13,2.13,0,0,0-.71,0c0-.12-.44,0-.13-.28,0,0,.08-.09,0-.1-.79-.15-.61-.87-.8-1.36.35.29.68.4,1-.11A.21.21,0,0,1,25.46,13.17Z"/><path class="cls-34" d="M28.08,9.64a1,1,0,0,1,1.22-.32l.15.19c-.23.14-.51,0-.75.09-.52.12-.58.43-.36.87a2.5,2.5,0,0,1,.11.39,2.32,2.32,0,0,0-.67,1.27,3.25,3.25,0,0,0-.14,1.35l-.14-.28a4.28,4.28,0,0,1,.17-2.1A2.9,2.9,0,0,0,28.08,9.64Z"/><path class="cls-35" d="M23.36,15.36c.52.16,0,.5.12.72a3.56,3.56,0,0,0-1.21,1.84c-.49-.52-.28-1.22.59-1.93a.59.59,0,0,0,.3-.43A.27.27,0,0,1,23.36,15.36Z"/><path class="cls-36" d="M23.17,13.92c0,.24.29.15.37.38-.34-.21-.27.24-.5.24s-.44-.25-.69-.33-.61-.15-.68.31c-.23-.17-.42-.4-.23-.62s.45-.48.85-.25A1.15,1.15,0,0,0,23.17,13.92Z"/><path class="cls-37" d="M22.22,11.5c.19.09,0,.29.11.4A3.22,3.22,0,0,1,21,12a.43.43,0,0,1-.44-.41c0-.21.26-.22.44-.3.45-.18.65.19,1,.28a.24.24,0,0,0,.21-.09Z"/><path class="cls-38" d="M22.94,4.08a.66.66,0,0,1,0-.85,2.42,2.42,0,0,1,1.78.85c-.59-.07-1-.31-1.44-.31C23.1,3.77,22.87,3.74,22.94,4.08Z"/><path class="cls-38" d="M23,3.15l-.32.16c.05-.27,0-.48-.23-.6-.1,0-.07-.14,0-.19.16.27.46.14.68.24s.4.1.54.36Z"/><path class="cls-39" d="M23.69,4.49l-.11-.31a2.29,2.29,0,0,1,1.4.31Z"/><path class="cls-12" d="M31.56,9.85c-.51-.2-.51-.2-.34-.54.16.12.23.33.47.37C31.73,9.69,31.64,9.82,31.56,9.85Z"/><path class="cls-40" d="M13,13.92l.12.1a1.76,1.76,0,0,1-.75.17A1,1,0,0,1,13,13.92Z"/><path class="cls-41" d="M32.37,10.55c-.11,0-.26,0-.33,0s.09-.16.1-.26C32.36,10.24,32.36,10.4,32.37,10.55Z"/><path class="cls-42" d="M.29,17.76l.09.11-.1.52a.08.08,0,0,1-.11,0A1.13,1.13,0,0,1,.29,17.76Z"/><path class="cls-43" d="M11.83,14.29a.64.64,0,0,1,.44-.13C12.17,14.39,12,14.32,11.83,14.29Z"/><path class="cls-44" d="M.17,18.39H.28a.51.51,0,0,1-.13.38C0,18.63.08,18.51.17,18.39Z"/><path class="cls-27" d="M23.16,15.56c0,.23,0,.41-.3.43Z"/><path class="cls-45" d="M0,19.65v-.38A.27.27,0,0,1,0,19.65Z"/><path class="cls-10" d="M22.12,11.51c0,.08,0,.21-.05.22s-.12-.06-.16-.13A.23.23,0,0,1,22.12,11.51Z"/><path class="cls-46" d="M20.45,4.58A1.76,1.76,0,0,0,21.3,4a1,1,0,0,1,.15,0c.22.54.66,1,.59,1.65.16.54.14.62-.2.94-.14-.12-.06-.29-.11-.43-.19-1-.66-1.43-1.49-1.25l-1.15-.08c-.18,0-.25-.13-.32-.26l.29-.05A4.06,4.06,0,0,0,20.45,4.58Z"/><path class="cls-47" d="M18.17,2.91c-.12,0-.32,0-.26-.1s.3-.08.46,0C18.33,2.91,18.22,2.86,18.17,2.91Z"/><path class="cls-48" d="M18.17,2.91l.2-.09h.3l.1,0s.05,0,0,.05,0,0,0,0v0Z"/><path class="cls-49" d="M28.7,9.6c.24-.17.5-.06.75-.09.09.05.09.13.09.21s-.06,0-.09,0a.17.17,0,0,0-.23-.1Z"/><path class="cls-50" d="M30.08,10.15l.61.51a.61.61,0,0,1,.19.62,2.32,2.32,0,0,0-.82-.94Z"/><path class="cls-51" d="M29.45,9.72h.09a.34.34,0,0,1,.21.32A.48.48,0,0,1,29.45,9.72Z"/><path class="cls-52" d="M31.1,11.92l.11.1v.3h-.06L31,11.91C31,11.86,31.07,11.87,31.1,11.92Z"/><path class="cls-53" d="M31.1,11.92H31c0-.14-.12-.27,0-.41C31.14,11.61,31.1,11.77,31.1,11.92Z"/><path class="cls-54" d="M21.73,6.16l.16.46.15-1c.11,0,.22-.2.25.1.06.52,0,1.1.53,1.41-.05.19-.48,0-.27.36.05,0,.08,0,.09,0s.31.23.17.54c-.24.52.24,1,.25,1.5-.13.17-.32.11-.49.1a.19.19,0,0,1-.13-.1,18.71,18.71,0,0,0-.56-2C21.73,7.16,21.45,6.66,21.73,6.16Z"/><path class="cls-55" d="M21.3,3.67,21,4a1.55,1.55,0,0,1-.17-.89c0-.29.16-.18.3-.1A.85.85,0,0,1,21.3,3.67Z"/><path class="cls-56" d="M23.38,7.53l-.23,0c-.06-.06-.17,0-.21-.1a.87.87,0,0,1,.55-.08s0,0,0,.07l0,0Z"/><path class="cls-57" d="M23.48,7.43a.38.38,0,0,1,0-.1l.3,0c.19,0,.39,0,.55.12a.19.19,0,0,1-.26,0Z"/><path class="cls-58" d="M22.94,7.41l.21.1-.51,0a.13.13,0,0,0-.09,0C22.63,7.31,22.81,7.43,22.94,7.41Z"/><path class="cls-59" d="M22.54,9.64l.52,0c.27.09.38-.18.6-.26.11.52-.44.84-.39,1.33-.3-.1-.21-.37-.2-.56s-.12-.31-.33-.3C22.69,9.74,22.5,9.82,22.54,9.64Z"/><path class="cls-60" d="M22.54,9.64l.2.17a2.67,2.67,0,0,1-.4,0c-.07,0-.18-.07-.13-.16s.15,0,.23-.06Z"/><path class="cls-61" d="M24.08,7.43l.26,0h.6a1,1,0,0,1,.54,1.07c0,.55,0,1.1,0,1.65l-.09.71h-.14a15.48,15.48,0,0,1,0-1.67,1.23,1.23,0,0,0-.66-1.33A2.91,2.91,0,0,1,24.08,7.43Z"/><path class="cls-62" d="M19.7,1.38c.53.29-.09.33-.11.5a.83.83,0,0,1-.71-.25A1.3,1.3,0,0,1,19.7,1.38Z"/><path class="cls-63" d="M18.77,2.92a.11.11,0,0,0,0-.08c.15,0,.31,0,.45,0A.78.78,0,0,1,18.77,2.92Z"/></g></g></svg>