<svg xmlns="http://www.w3.org/2000/svg" viewBox="0 0 440.59 40.8"><defs><style>.cls-1{fill:#fff;}.cls-2{fill:#fcfdfe;}.cls-3{fill:#f2f6f7;}.cls-4{fill:#cee1e6;}.cls-5{fill:#6ba8b9;}.cls-6{fill:#dae8ec;}.cls-7{fill:#e8f0f2;}.cls-8{fill:#b0d1d9;}.cls-9{fill:#6da9ba;}.cls-10{fill:#5d9cb0;}.cls-11{fill:#d2e6ea;}.cls-12{fill:#4b98ab;}.cls-13{fill:#2f8099;}.cls-14{fill:#2d819a;}.cls-15{fill:#297f98;}.cls-16{fill:#b8d6de;}.cls-17{fill:#63a4b6;}.cls-18{fill:#39879e;}.cls-19{fill:#93c0cd;}.cls-20{fill:#418aa1;}.cls-21{fill:#c3dde3;}.cls-22{fill:#4a95aa;}.cls-23{fill:#2a819a;}.cls-24{fill:#b8d7dd;}.cls-25{fill:#88bac8;}.cls-26{fill:#257e97;}.cls-27{fill:#5aa1b3;}.cls-28{fill:#cbe2e7;}.cls-29{fill:#4e92a7;}.cls-30{fill:#4796aa;}</style></defs><g id="Layer_2" data-name="Layer 2"><g id="Layer_1-2" data-name="Layer 1"><path class="cls-1" d="M65.23,32.52c0,3.3.84,5.88,4.5,5.88v1.5H52.57V38.4c3.66,0,4.5-2.58,4.5-5.88V9.6c0-3.3-.84-5.82-4.5-5.82V2.28H69.73v1.5c-3.66,0-4.5,2.58-4.5,5.88Z"/><path class="cls-1" d="M109.69,24.18v1.56c-2.94,0-2.82,3.78-2.82,5.76v6.72c-4.44,2.34-10,2.58-14.76,2.58-10.86,0-21-8.94-21-19.74,0-12.18,11.34-18.84,21.48-19a51.21,51.21,0,0,1,13.62,2l-.12,12h-1.56c-1.26-5.1-5.34-12.48-11-12.48C85,3.66,80.71,13.8,80.71,21.18c0,7.62,4,18.12,12.42,18.12a7.73,7.73,0,0,0,5.58-1.92V31.5c0-3.24-1.14-5.76-4.44-5.76V24.18Z"/><path class="cls-1" d="M146.11,32.52c0,3.3.84,5.82,4.5,5.82V39.9H138V35.16c-2.22,3.36-6.54,5.1-10.86,5.1-6.42,0-12.84-3.78-12.84-11.76V9.6c0-3.3-.84-5.82-4.5-5.82V2.28h17.16v1.5c-3.66,0-4.5,2.58-4.5,5.88V28.38c0,6.42,3.12,8.82,6.48,8.82A10.18,10.18,0,0,0,138,30.54V9.6c0-3.3-.84-5.82-4.5-5.82V2.28h17.16v1.5c-3.66,0-4.5,2.58-4.5,5.88Z"/><path class="cls-1" d="M191.71,36.18a3.84,3.84,0,0,0,3.9,2.22v1.5H178.39V38.4c2.58,0,3.66-.9,3.66-2.52a7.22,7.22,0,0,0-.72-2.82l-2.22-4.92a10.92,10.92,0,0,0-1.8,4A12.33,12.33,0,0,0,169.15,29,12.54,12.54,0,0,0,163,30.72l-1.08,2.7c-1.26,3.36,1.38,5,5,5v1.5H153.31V38.4a5,5,0,0,0,4.92-3.18L169.51,6.54c-.9-1.74-2-2.76-4.08-2.76V2.28h17.16v1.5c-4,.24-4.14,2.7-2.82,5.7Zm-20.58-26.1L164,28.26a15.26,15.26,0,0,1,9.9-4,10.87,10.87,0,0,1,3.78.6Z"/><path class="cls-1" d="M236.71,3.78c-3.66,0-5.4,2.52-5.4,5.88V32.52c0,3.36,1.74,5.88,5.4,5.88v1.5H225l-19.8-28.44V32.52c0,3.36,1.74,5.88,5.4,5.88v1.5H197V38.4c3.66,0,5.4-2.46,5.4-5.82V9.66c0-3.36-1.74-5.88-5.4-5.88V2.28h11.82l19.74,28.44v-21c0-3.36-1.74-5.94-5.4-5.94V2.28h13.56Z"/><path class="cls-1" d="M277.81,36.18a3.84,3.84,0,0,0,3.9,2.22v1.5H264.49V38.4c2.58,0,3.66-.9,3.66-2.52a7.22,7.22,0,0,0-.72-2.82l-2.22-4.92a10.92,10.92,0,0,0-1.8,4A12.33,12.33,0,0,0,255.25,29a12.54,12.54,0,0,0-6.18,1.74L248,33.42c-1.26,3.36,1.38,5,5,5v1.5H239.41V38.4a5,5,0,0,0,4.92-3.18L255.61,6.54c-.9-1.74-2-2.76-4.08-2.76V2.28h17.16v1.5c-4,.24-4.14,2.7-2.82,5.7Zm-20.58-26.1-7.14,18.18a15.26,15.26,0,0,1,9.9-4,10.87,10.87,0,0,1,3.78.6Z"/><path class="cls-1" d="M331.21,32.52c0,3.3.78,5.88,4.44,5.88v1.5H318.49V38.4c3.66,0,4.5-2.52,4.5-5.82V23.52a18.27,18.27,0,0,1-8.52,2.1,13.2,13.2,0,0,1-8.7-3.06v10c0,3.3.84,5.88,4.5,5.88v1.5H293.05V38.4c3.66,0,4.5-2.52,4.5-5.82V9.72c0-3.42-.84-5.82-4.5-6V2.28h17.16v1.5c-3.66.18-4.44,2.52-4.44,5.88V20.22a10.24,10.24,0,0,0,4.14-4.32,12.29,12.29,0,0,0,10.2,5.58,12.6,12.6,0,0,0,2.88-.36V9.72c0-3.36-.84-5.76-4.5-5.94V2.28h17.16v1.5C332,4,331.21,6.3,331.21,9.66Z"/><path class="cls-1" d="M351,32.52c0,3.3.84,5.88,4.5,5.88v1.5H338.29V38.4c3.66,0,4.5-2.58,4.5-5.88V9.6c0-3.3-.84-5.82-4.5-5.82V2.28h17.16v1.5c-3.66,0-4.5,2.58-4.5,5.88Z"/><path class="cls-1" d="M402.31,2.28v1.5c-2.58,0-4.68,2.1-5.94,4.8L381.55,39.9h-3.24L362.71,6.6a4.31,4.31,0,0,0-4-2.82V2.28h17.16v1.5c-3.36,0-4,3.06-3.06,5l10.08,21.42,9.72-20.46c1.74-3.78-.9-5.94-3.84-5.94V2.28Z"/><path class="cls-1" d="M417.31,32.52c0,2.82,1.74,4.62,4.38,4.62h9.6c3.42,0,5.88-2,5.88-5.4h1.56V39.9H404.59V38.4c3.54,0,4.44-2.82,4.44-5.82V9.72c0-3.36-1.08-5.94-4.44-5.94V2.28h34.14v8.16h-1.56c0-3.54-2.64-5.4-5.88-5.4h-9.54c-3.36,0-4.44,1.74-4.44,4.62V20.52A9.25,9.25,0,0,0,422.05,16c4.32,6.42,12.24,6.84,18.24,2.94l.3.6c-5.76,6.54-17,8.58-23.28,2.58Z"/><path class="cls-1" d="M2.63,29.78a17.32,17.32,0,0,0,10.82,8c8.83,2.13,18.52-4.1,20.14-13a12.83,12.83,0,0,0-.85-7.75,2.94,2.94,0,0,1-.12-.59c-.15-.77-.73-1.05-1.34-.6-.94.7-2.2.41-3.16,1.06-.4.26-.87.41-1,1-.39-.64.07-1,.46-1.43.21-.22.74-.35.51-.75A1.11,1.11,0,0,0,27,15.34c-1.21.09-1.84,1-2.55,1.81a6.3,6.3,0,0,0-.69,1.13c-.27-.7-.27-.7,1.76-3.44-.91.3-1.44-1-2.36-.25a.46.46,0,0,1-.21-.15A.32.32,0,0,1,23,14a.77.77,0,0,1,1-.2,2,2,0,0,0,1.46.23c.09-.61-.5-.49-.79-.72.36-.59.71-.53,1.11-.07s.65.74,1.15.16c.25-.3.56-.2.77.09a2.2,2.2,0,0,0,1.22.68c.76.28,1,0,.63-.68a2.76,2.76,0,0,1,0-1.37c.05-.59.46-1,.59-1.61,0-.14,0-.29-.09-.41a.91.91,0,0,1,.06.4c-.09.44-.38.8-.5,1.24s-.09,1-.27,1.55A1.33,1.33,0,0,1,29,13.1c-1.53-1.41-3.34-1.41-5.23-1.12a6.93,6.93,0,0,1-.91,0c-.31,0-.63.05-.8-.27a.38.38,0,0,1,.06-.36.89.89,0,0,1,.94-.11c.22.11.41.25.66.1.05-.29-.23-.38-.36-.55-1-1.34-1-1.34-2.55-.71A1.09,1.09,0,0,1,19.25,9c0-.83.57-1.66.13-2.46-.6-1.07-.74-2.36-1.61-3.29.12-.34-.21-.55-.23-.85a2.78,2.78,0,0,0,0-.5c-.1-.5-.68-1-.08-1.47A3,3,0,0,1,19.26,0a12.78,12.78,0,0,1,4.49,1c.28.1.43.06.52.49.15.73,1.06.88,1.53,1.43.16.19.49.24.52.57-.27.18-.53.06-.8,0a1.15,1.15,0,0,0-.37,0c.39-.09.78.27,1.16,0,.11.23.51.54-.16.55a2.45,2.45,0,0,0-1.38.28c.63.38,1.21.1,1.73.23,0,0,0,0,.05.08l-.23.13c-.26.11-.25.25,0,.4-.05.16-.18.36-.12.46s.28.06.39,0a.68.68,0,0,1,1.13,0,1.18,1.18,0,0,0,1,.38c.29,0,.44.48.92.82s1.12,0,1.33.74c.73-.29,1.06.23,1.43.69s.53.68,1,.59c.26.22,0,.7.44.83.5.56,1.15.94,1.07,1.95,0,.45.5,1.06.65,1.7a35.82,35.82,0,0,1,1.12,9c-.13,7.84-5.95,14.83-13.9,16.78a18.42,18.42,0,0,1-20.14-8.5c-.1-.17-.17-.36-.26-.55S2.44,29.75,2.63,29.78Z"/><path class="cls-2" d="M.79,16.44A16.51,16.51,0,0,1,11.64,5.1a14.39,14.39,0,0,1,5.08-.86c.45,0,.74.06.91.57s.08.69-.5.7C9.34,5.76,4,9.55,1,16.7.77,16.72.71,16.63.79,16.44Z"/><path class="cls-3" d="M15.1,13.7A6.61,6.61,0,0,0,18.34,12c.66-.69,3.09-.43,3.61.29a1.65,1.65,0,0,1-1.07.11,4.53,4.53,0,0,0-3.13.87,4.65,4.65,0,0,1-2.41.67C15.13,14,15.09,13.88,15.1,13.7Z"/><path class="cls-4" d="M2.63,29.78,2.42,30a6.4,6.4,0,0,1-.94-1.93L1.69,28Z"/><path class="cls-5" d="M29.36,13.27c.06-.56-.18-1.16.18-1.69.2.08.08.32.21.43l-.21,1.46Z"/><path class="cls-6" d="M15.1,13.7l.24.19-1.49.43C14.26,13.76,14.73,13.84,15.1,13.7Z"/><path class="cls-7" d="M.79,16.44,1,16.7l-.3,1A1.19,1.19,0,0,1,.79,16.44Z"/><path class="cls-8" d="M33.88,9.59c-.58-.05-.39-.5-.44-.83C34.12,8.75,33.62,9.37,33.88,9.59Z"/><path class="cls-9" d="M.37,19.13.12,20.42c-.14-.6-.22-1,.11-1.26C.27,19.08.31,19.06.37,19.13Z"/><path class="cls-10" d="M26.29,5.12c-.24-.1-.46.31-.74,0a.76.76,0,0,1,.77-.41Z"/><path class="cls-11" d="M.37,19.13l-.14,0a1.38,1.38,0,0,1,.33-1.25Z"/><path class="cls-12" d="M17.54,2.44c.09.28.63.44.23.85C17.66,3,17.3,2.81,17.54,2.44Z"/><path class="cls-13" d="M21.82,4.11c.47,0,.71-.49,1.17-.62.32.71.91,1.35.41,2.4-.27-.91-.61-1.62-1.58-1.61-.07,0-.09-.08-.07-.11A.1.1,0,0,1,21.82,4.11Z"/><path class="cls-14" d="M29.75,12c-.19-.08-.17-.27-.21-.43A2.84,2.84,0,0,1,30,10.4a.21.21,0,0,1,.35,0C30.47,11.06,29.81,11.43,29.75,12Z"/><path class="cls-15" d="M26.51,7.1a.72.72,0,0,1,.63.41c.09.25.15.48-.25.46l-1-.83A.55.55,0,0,1,26.51,7.1Z"/><path class="cls-16" d="M26.51,7.1l-.6,0C25.36,7,24.79,7.49,24,7A5,5,0,0,1,26.51,7.1Z"/><path class="cls-17" d="M26.89,8c.22-.08.23-.27.25-.46.38.52.15,1.1.16,1.65-.06.11-.12.11-.2,0C26.87,8.81,27,8.37,26.89,8Z"/><path class="cls-18" d="M21.82,4.11v.17a1.44,1.44,0,0,1-1.41-.17Z"/><path class="cls-19" d="M24.7,9.78c-.28-.1-.68.17-.92-.32a2.21,2.21,0,0,1,1.14,0,.32.32,0,0,1,0,.37A.17.17,0,0,1,24.7,9.78Z"/><path class="cls-20" d="M20.33.9c.26-.17.52-.31.81-.13,0,0,.05.19,0,.23C20.85,1.28,20.58,1.21,20.33.9Z"/><path class="cls-21" d="M32.85,11l-.73-.79C32.57,10.19,32.83,10.43,32.85,11Z"/><path class="cls-22" d="M26.31,3.45a1.64,1.64,0,0,1-1.67,0c.24-.23.59,0,.84-.18l.84.18Z"/><path class="cls-23" d="M22.51,2.28c.37.35.46.61.09.92C22.32,2.93,22.36,2.64,22.51,2.28Z"/><path class="cls-24" d="M19,2a1.68,1.68,0,0,1,1.34.37A2.33,2.33,0,0,1,19,2Z"/><path class="cls-25" d="M27.1,9.18l.2,0a2.94,2.94,0,0,1-.08,1.31A2.62,2.62,0,0,1,27.1,9.18Z"/><path class="cls-26" d="M24.85,9.77c0-.12,0-.23.07-.35s.31-.07.33,0c.15.25-.11.39-.19.59C24.88,10,24.79,10,24.85,9.77Z"/><path class="cls-27" d="M24.85,9.77l.21.21c0,.19,0,.5-.27.43s-.11-.4-.09-.63A.38.38,0,0,0,24.85,9.77Z"/><path class="cls-28" d="M19,2a.94.94,0,0,1-.65-.28c.37-.25.5,0,.66.27Z"/><path class="cls-29" d="M25.48,3.29c-.23.27-.56.14-.84.18C24.81,2.91,25.19,3.31,25.48,3.29Z"/><path class="cls-30" d="M30.34,10.4H30V9.75l.13,0Z"/></g></g></svg>