<svg xmlns="http://www.w3.org/2000/svg" viewBox="0 0 34.33 37.04"><defs><style>.cls-1{fill:#378440;}.cls-2{fill:#3a833f;}.cls-3{fill:#33a949;}.cls-4{fill:#37ad49;}.cls-5{fill:#39b04a;}.cls-6{fill:#2f9345;}.cls-7{fill:#3bb44a;}.cls-8{fill:#368941;}.cls-9{fill:#358d43;}.cls-10{fill:#2d9646;}.cls-11{fill:#40b449;}.cls-12{fill:#309c47;}.cls-13{fill:#31a048;}.cls-14{fill:#31a349;}.cls-15{fill:#348941;}.cls-16{fill:#2fa449;}.cls-17{fill:#358b42;}.cls-18{fill:#39833f;}.cls-19{fill:#189747;}.cls-20{fill:#348f43;}.cls-21{fill:#319345;}.cls-22{fill:#0fa049;}.cls-23{fill:#319f48;}.cls-24{fill:#3bb049;}.cls-25{fill:#339044;}.cls-26{fill:#359044;}.cls-27{fill:#349646;}.cls-28{fill:#34aa49;}.cls-29{fill:#2f9947;}.cls-30{fill:#309b47;}.cls-31{fill:#259a47;}.cls-32{fill:#309445;}.cls-33{fill:#f4f9f4;}.cls-34{fill:#3b8941;}.cls-35{fill:#388941;}.cls-36{fill:#438a40;}.cls-37{fill:#339946;}.cls-38{fill:#3b9c46;}.cls-39{fill:#56944e;}.cls-40{fill:#a2cc85;}.cls-41{fill:#3d833e;}.cls-42{fill:#6ea265;}.cls-43{fill:#71a368;}.cls-44{fill:#a0c39b;}.cls-45{fill:#f7fbf8;}.cls-46{fill:#93b88c;}.cls-47{fill:#d4e4d1;}.cls-48{fill:#d7e8cf;}.cls-49{fill:#c9dfba;}.cls-50{fill:#a7cf90;}.cls-51{fill:#76bc51;}.cls-52{fill:#a3cc89;}.cls-53{fill:#349144;}.cls-54{fill:#edf3ed;}.cls-55{fill:#a3c997;}.cls-56{fill:#d9e8d5;}.cls-57{fill:#e8eee5;}.cls-58{fill:#e9efe6;}.cls-59{fill:#ecf1eb;}.cls-60{fill:#f4f9f5;}.cls-61{fill:#e6ece4;}.cls-62{fill:#9cc396;}</style></defs><g id="Layer_2" data-name="Layer 2"><g id="Layer_1-2" data-name="Layer 1"><path class="cls-1" d="M27.55,33.59a15.92,15.92,0,0,1-7,3.12A17.14,17.14,0,0,1,1.35,26.38c-.05-.13-.18-.26-.07-.47.23.1.26.34.34.52A15.75,15.75,0,0,0,11.18,35a15.12,15.12,0,0,0,14.69-2.83l.73-.59c.45-.29.64-.21.65.32a1.29,1.29,0,0,0,.21.72A.91.91,0,0,1,27.55,33.59Z"/><path class="cls-1" d="M20.24,9.07a2.63,2.63,0,0,0-.83.39c-.3.27-.64.12-.93,0s-.57-.32-.52-.75a4.23,4.23,0,0,1,.19-1.38c.27-.53,0-1,0-1.55,0-.36-.25.06-.41,0s0-.24.06-.36c.09-.29.08-.25-.2-.37s-.24-.46-.23-.62c0-.45-.4-.72-.36-1.17,0-.21-.2.12-.34,0,.34-.36-.2-.53-.21-.85a3,3,0,0,0-.34-1.27.56.56,0,0,1,.34-.78c.63-.13,1.26-.57,1.94-.16.13.49.26,1,.38,1.45,0,.19.09.33-.07.47a.88.88,0,0,1-.28,0l-.09,0s0,0,0,0a2.08,2.08,0,0,0,.43,0,.53.53,0,0,1,.25.43,2.21,2.21,0,0,0,.24,1,.17.17,0,0,1-.07.22c-.25.07-.12.17,0,.26.37.32.25.81.43,1.19.43.89.43,1.91.89,2.79.07.14-.17.42.19.52.08,0,0,.15-.05.22A2.59,2.59,0,0,1,20.24,9.07Z"/><path class="cls-2" d="M.29,17a12.31,12.31,0,0,1,1.38-4.23A15.75,15.75,0,0,1,14.12,4.07,17.34,17.34,0,0,1,15.89,4c.25,0,.78.87.65,1.08s-.29.07-.43.07A16,16,0,0,0,9.62,6.41,15.74,15.74,0,0,0,.51,16.71c0,.13-.09.26-.13.39S.23,17.1.29,17Z"/><path class="cls-3" d="M33.62,24.85a5.69,5.69,0,0,1-.53,1.55c-.12,0-.16-.06-.19-.14a19.41,19.41,0,0,1-.84-3,10.89,10.89,0,0,1-.44-1.58,17.41,17.41,0,0,0-.64-5,1.39,1.39,0,0,0-.19-.36c-.1-.19-.3-.39-.27-.55.14-.71-.46-.94-.79-1.34-.2-.23-.19.08-.28.1a.29.29,0,0,1-.11-.33,1.75,1.75,0,0,0-.26-1.61s-.07-.11,0-.15c.2-.41-.26-.65-.25-1a8,8,0,0,0-.28-1.15c0-.05-.06-.09-.1-.13a1.24,1.24,0,0,1-.19-.36c-.21-.6-.11-.8.49-1a.82.82,0,0,1,.49,0,.58.58,0,0,1,.22.46,15.14,15.14,0,0,0,.57,2.1c.17.57.2,1.18.38,1.76.35,1.13.74,2.25,1,3.4.34,1.53.81,3,1.29,4.5a15.76,15.76,0,0,0,.9,3.08A1.65,1.65,0,0,1,33.62,24.85Z"/><path class="cls-4" d="M33.62,24.85a23.61,23.61,0,0,1-.85-3,19.43,19.43,0,0,0-.6-2c-.15-.65-.45-1.26-.59-1.91-.24-1.11-.57-2.2-.9-3.28A13,13,0,0,1,30,12.36c-.13-1.21-.78-2.28-.79-3.51a.2.2,0,0,1,.26,0,.94.94,0,0,0,.36.3.55.55,0,0,1,.29.23,1.29,1.29,0,0,1,.07.21,11.76,11.76,0,0,1,.72,2.46c.18.66.36,1.31.53,2,.49,1.86,1.14,3.68,1.55,5.56.11.51.33,1,.46,1.5a9.59,9.59,0,0,1,.35,1.52.78.78,0,0,0,.23.46A6.57,6.57,0,0,1,33.62,24.85Z"/><path class="cls-5" d="M34,23.06c-.47.05-.39-.4-.39-.57a8.54,8.54,0,0,0-.55-2.17c-.31-1-.54-2.08-.85-3.11-.17-.58-.36-1.17-.58-1.74a14.77,14.77,0,0,0-.41-1.62c-.26-.54-.09-1.23-.59-1.69.28-.32-.07-.58-.08-.87s-.23-.63-.18-1-.4-.39-.35-.71c.51.06.67.5.92.85a.48.48,0,0,1,.09.26,2.44,2.44,0,0,0,.07.46,2.44,2.44,0,0,1,0,.27c0-.07,0-.15.08-.2.63.12.63.69.65,1.1a5.86,5.86,0,0,0,.58,2,11.15,11.15,0,0,1,.46,2,3.32,3.32,0,0,0,.5,1.4.63.63,0,0,1,.15.43,4,4,0,0,0,.61,2.16c.13.28,0,.61.07.91A5.76,5.76,0,0,1,34,23.06Z"/><path class="cls-6" d="M23,2.38a.22.22,0,0,0,0,.08c.07.29-.15.56,0,.85s.43,0,.64.1.23.16.11.32l-.25,0c-.37.05-.41.21-.17.48.28.59.74,1.11.66,1.83a.83.83,0,0,1-.12.49.51.51,0,0,1-.29.1,2.48,2.48,0,0,0-.54.06,1.62,1.62,0,0,1-.44.07c-.13-.22-.13-.22.13-.4a1.11,1.11,0,0,1-.44-.9A.8.8,0,0,0,22,4.86a4.11,4.11,0,0,0-.67-1.58c-.17-.12.24-.3-.05-.41a2.84,2.84,0,0,0-.16-.7c0-.23-.34-.41-.14-.7.06-.09,0-.18-.11-.26C20.59,1,20.65.76,21,.62c.13.06.22.18.41.16s.54-.34.5.21h.89c-.11.26-.39.21-.5.42.25.09.52-.06.84.14l-.65.21A1.82,1.82,0,0,0,23,2.38Z"/><path class="cls-7" d="M34.25,21.21c-.06-.05-.19-.11-.18-.14.23-.78-.4-1.31-.57-2a1.18,1.18,0,0,1-.09-.61.76.76,0,0,0-.1-.67,6.21,6.21,0,0,1-.68-2.38,5,5,0,0,0-.55-1.6,8.87,8.87,0,0,1-.44-2,.71.71,0,0,0-.43-.54.37.37,0,0,1-.15-.13,1.08,1.08,0,0,0-.06-.4.21.21,0,0,0-.12-.21c0-.23-.16-.4-.23-.6.29-.52,0-1-.12-1.47,0-.08-.1-.14-.05-.23l.71,0c.11,0,.17,0,.19.18s-.05.17-.16.17c-.21.38.29.32.34.54a.18.18,0,0,1,0,.09c0,.09-.11.23,0,.29a1,1,0,0,1,.34,1,.51.51,0,0,0,.1.34,4.87,4.87,0,0,1,.81,2.31c.29.94.6,1.89.82,2.84.09.41.49.78.29,1.29a.48.48,0,0,0,.29.55A12.28,12.28,0,0,1,34.25,21.21Z"/><path class="cls-8" d="M20.24,9.07l.35-.45c-.35-.06-.35-.06-.46-.58l.28.11c0-.05,0-.1,0-.11a1.48,1.48,0,0,1-.48-1.19,16.47,16.47,0,0,0-.48-1.6c-.09-.4-.22-.79-.34-1.19.36-.21.71,0,1.07,0a1.77,1.77,0,0,1,.76,1.31c.29,1.11.64,2.2.84,3.33.06.33,0,.67.31,1s0,.42-.24.46c-.24-.33-.47-.67-.7-1s-.41-.49-.7-.08C20.4,9.05,20.31,9.05,20.24,9.07Z"/><path class="cls-9" d="M21.83,10.1c.51-.23.11-.5,0-.6s-.24-.17-.13-.4,0-.67-.13-.95c-.37-1.09-.48-2.26-.94-3.32-.1-.24-.25-.45-.35-.69.32-.34.65-.19.94,0a1.36,1.36,0,0,1,.63,1.19,3.94,3.94,0,0,0,.28,1.55,4.65,4.65,0,0,1,.38,1.95.22.22,0,0,1-.28,0c.19.13.41,0,.61,0a.4.4,0,0,1,.39.4,1.05,1.05,0,0,0,.13.49A8.6,8.6,0,0,1,23.51,11c-.35.37-.8,0-1.18.18-.2-.1-.14-.26-.11-.41C22.33,10.37,21.85,10.38,21.83,10.1Z"/><path class="cls-10" d="M26,11.26c-.6,0-1.24.25-1.79-.2a1.33,1.33,0,0,0-.13-1.32,2.28,2.28,0,0,1-.33-1.13c0-.65-.34-1.23-.37-1.87a.29.29,0,0,1,.19-.13c.19,0,.37-.09.56,0s0,0,0,0c1.3.89,1.33.94,1.25,2.52,0,.19,0,.38,0,.57,0-.09,0-.19,0-.27.22-.17.34,0,.41.15.19.51.24,1,.39,1.56C26.24,11.31,26.11,11.34,26,11.26Z"/><path class="cls-11" d="M34.13,17.84c-.08,0-.06.23-.22,0s0-.56-.35-.69c0,0,0-.05,0-.05.73-.32-.29-.32-.12-.63.32-.55-.23-1-.37-1.48a7.45,7.45,0,0,1-.37-1.28c0-.85-.6-1.54-.54-2.37,0-.05.11-.11,0-.16-.56-.26-.52-.72-.39-1.21.06-.23-.18-.22-.28-.31-.26-.21-.28-.38,0-.53a.63.63,0,0,1,.62.32.42.42,0,0,0,.23.29l.1,0a.7.7,0,0,0,.43.7c-.09.16-.46.08-.4.24a1.09,1.09,0,0,0,.73.7c0,.21-.23.07-.29.18s.24.18.3.33L33,12c.12.56.71,1,.42,1.68a.76.76,0,0,0,.58.83c-.11.13-.31,0-.34.32s.2.28.33.38c-.11.16-.28,0-.4.18.3.11.54.25-.21.56.82-.1.4.21.46.33a3.69,3.69,0,0,1,.25,1A4.57,4.57,0,0,1,34.13,17.84Z"/><path class="cls-12" d="M26,11.26c.43-.12,0-.29,0-.43a4.84,4.84,0,0,0-.25-1.28c0-.08-.16-.12-.24-.17a3.16,3.16,0,0,1-.09-1.33,1.74,1.74,0,0,0-.45-1.29,10.44,10.44,0,0,1-.3-1.37,1.92,1.92,0,0,1,1-.62c.07.27-.44.25-.24.56a.62.62,0,0,1,.42.61,2.89,2.89,0,0,0,.38,1.32c0,.08.11.16.1.24-.07,1.19.78,2.15.8,3.31,0,.34.28.6.31.94s0,.5-.48.35A2.73,2.73,0,0,1,26,11.26Z"/><path class="cls-13" d="M26.89,12.1c.4,0,.54-.19.3-.58a2.64,2.64,0,0,1-.32-1.28c-.05-.55-.44-1-.56-1.48a5.18,5.18,0,0,0-.51-2c-.31-.44,0-1-.44-1.46.21,0,.39-.18.64-.11l-.25.35c.31,0,.52-.26.83-.13l-.21.29A1.85,1.85,0,0,1,27,7.17a3,3,0,0,0,.51,1.71c.34.45.14,1,.29,1.56-.21.65-.12,1.34-.28,2A1,1,0,0,1,26.89,12.1Z"/><path class="cls-14" d="M31.62,21.7c.05,0,.14.08.15.12.06.39.28.74.34,1.09a26.17,26.17,0,0,0,1,3.49A6.74,6.74,0,0,1,32.36,28a.94.94,0,0,1-.41-.68,12.69,12.69,0,0,0-.82-2.76C31.36,23.59,31.46,22.64,31.62,21.7Z"/><path class="cls-15" d="M19.06,3.75c.33-.23-.09-.39-.12-.55-.09-.34,0-.71-.16-1l0-.05a.74.74,0,0,1,.21,0h-.26A.12.12,0,0,1,18.67,2a4.14,4.14,0,0,0-.4-1.58c-.1-.19.09-.19.1-.29.42.12.82-.2,1.24-.08,0,.19.4.34.1.59-.17.07-.37,0-.53.18.12.17.31.11.46.18A8.33,8.33,0,0,1,20,2c-.08.39.52.66.2,1.1,0,0,0,0,.07.06.62.23.24.51,0,.78C19.89,4,19.43,4.14,19.06,3.75Z"/><path class="cls-16" d="M28.45,10.09c.1,0,.29.05.26.12-.14.41.16.71.23,1.06s-.14.57.28.66c0,0,0,.16,0,.24s-.08.26,0,.3c.67.6.37,1.34.3,2-.06.3-.29.36-.54.38a.9.9,0,0,1-.29-.75,1.8,1.8,0,0,0-.32-1.07,3,3,0,0,1-.39-1.25c0-.18-.15-.31-.21-.47A1.34,1.34,0,0,1,28.45,10.09Z"/><path class="cls-17" d="M27.55,33.59c-.06-.38,0-.79-.36-1.08-.09-.07-.1-.25-.06-.43.1-.45-.1-.6-.53-.46l1.49-1.56c.28,0,.36.2.39.4.09.59.24,1.18.37,1.77a.49.49,0,0,1-.15.42A6.47,6.47,0,0,1,27.55,33.59Z"/><path class="cls-16" d="M27.67,10.33a1.52,1.52,0,0,1-.13-.84c0-.13,0-.21-.06-.31-.46-.51-.43-1.2-.64-1.8a3.74,3.74,0,0,1,0-1.11c-.48.08-.27-.39-.45-.54.19.15.3-.12.45-.1s.53-.21.37.27c-.07.19.1.14.17.12s.32-.13.5-.08c.11.23-.81.3-.1.63,0,.09-.08.22,0,.24.4.2.3.63.44,1a2.52,2.52,0,0,1,0,1.19,2,2,0,0,0-.09.6C28.09,9.87,28.05,10.2,27.67,10.33Z"/><path class="cls-18" d="M13,13.15a10.63,10.63,0,0,1,1.1-.32,5,5,0,0,0,3-1.66.78.78,0,0,1,.65-.25c.6,0,1.21,0,1.82,0s.56,0,.93.55a14.19,14.19,0,0,1-2.25.08,1.21,1.21,0,0,0-.78.22c-1.25,1-2.81,1.18-4.32,1.48C13.06,13.3,13,13.25,13,13.15Z"/><path class="cls-19" d="M29.63,27.93l.66-1.21c.28-.13.34.13.38.27a16.19,16.19,0,0,1,.67,2.66,6.18,6.18,0,0,1-1,1.26,8.77,8.77,0,0,1-.58-2.25C29.78,28.43,29.56,28.2,29.63,27.93Z"/><path class="cls-20" d="M19.7.61c.16-.2-.37-.3-.09-.52.41.28,1,.13,1.36.53-.1.19-.4.38,0,.54a.29.29,0,0,1,.11.16c-.35.32.11.58.06.88-.27.42-.23.65.13.7.09,0,.18-.15.26,0s0,.17-.12.19-.13.1-.14.19c-.15.38-.38.65-.85.56,0-.06-.13-.12-.12-.17.06-.32.07-.32-.31-.46.15-.18.36-.36.05-.58s-.12-.44-.21-.66-.18-.55-.27-.83c0-.09,0-.2.08-.22C20,.81,19.65.7,19.7.61Z"/><path class="cls-21" d="M23.38,6.76a4.57,4.57,0,0,1,.39,1.47,7.71,7.71,0,0,0,.58,2.07c.06.3.09.57-.17.76l-.67-.1a1.59,1.59,0,0,1-.24-1.06c-.23-.41.19-.67.23-1.06a.45.45,0,0,1-.47,0,2.28,2.28,0,0,1-.35-1.58c.07-.21-.21-.38,0-.58a2.61,2.61,0,0,0,.48,0A.28.28,0,0,1,23.38,6.76Z"/><path class="cls-6" d="M29.63,27.93A8,8,0,0,1,30.14,30c0,.29.37.54.24.91a2.85,2.85,0,0,1-.63.71c-.41-.26-.73-.57-.6-1.11.05-.22-.17-.33-.19-.52s0-.65-.05-1Z"/><path class="cls-22" d="M27.78,11.36c.45.24.24.72.34,1.08a1.81,1.81,0,0,0,.34.58c.36.54.23,1.16.4,1.73a.88.88,0,0,0,.05.15,1.49,1.49,0,0,1-1.56.41c.39-.43.38-.42.18-1.11-.07-.25-.3-.49-.08-.77.56-.11.27-.44.19-.72C27.6,12.25,27.36,11.77,27.78,11.36Z"/><path class="cls-23" d="M31.13,24.52c.46.3.47.81.59,1.26A11.85,11.85,0,0,0,32.36,28,3.94,3.94,0,0,1,31.74,29a11.25,11.25,0,0,1-.59-1.84,9.61,9.61,0,0,0-.44-1.41Z"/><path class="cls-24" d="M30.48,8.22c.44.41.31,1,.48,1.5,0,.11-.15.17-.27.18-.33,0-.43-.31-.61-.51l-.33-.12a1.76,1.76,0,0,0-.24-.3.38.38,0,0,0-.14-.21.41.41,0,0,1-.11-.25c0-.5-.3-.94-.35-1.43.28-.17.25-.13.49,0s.47,0,.64.25c0,0,.16,0,.16.06.1.37.1.37.43.41Z"/><path class="cls-25" d="M28.91,29c.14,0,.11.1.13.21.05.37-.12.8.26,1.1a.22.22,0,0,1,.06.14c-.4.56.25.78.39,1.16a6,6,0,0,1-1.05,1c.2-.33-.06-.65-.14-.91-.16-.56,0-1.22-.47-1.68Z"/><path class="cls-26" d="M25.14,14.36c-.75,0-1.17.52-1.66,1-.22-.21.06-.5-.12-.72.16-.19.51-.34.44-.57s-.53-.06-.76-.25a.52.52,0,0,0,.13-.62h0c.22,0,.59.27.64-.05s-.26-.58-.66-.59l-.2,0c.38-.62.62-.59,1.21.13a1.63,1.63,0,0,1,.27.6c0,.2.1.45.29.52S25.14,14.08,25.14,14.36Z"/><path class="cls-27" d="M26.72,15.63c-.27.12-.53.24-.79.38s-.56.36-.46.8c-.48-.17-.34-.45-.23-.71a2.09,2.09,0,0,1,.93-1c.5-.27.16-.39,0-.55a.94.94,0,0,0-.32-.15c.1-.46-.24-.8-.34-1.2s-.33-.52-.05-.81c.42,0,.48.44.73.64a.59.59,0,0,1,.29.35c.25.55.22,1.17.44,1.73C27,15.31,26.83,15.48,26.72,15.63Z"/><path class="cls-28" d="M28.91,7.08a2,2,0,0,1,.39,1.47,4.4,4.4,0,0,0-1.22.32,5,5,0,0,0-.17-1.72c0-.21-.27-.19-.38-.32l.23-.26a2.33,2.33,0,0,1,.95-.23c-.16.25,0,.51-.07.77C28.62,7.16,28.81,7.06,28.91,7.08Z"/><path class="cls-29" d="M24.62,5.39c.4.35.25.83.32,1.26a.57.57,0,0,1-.6.1c-.14-.17-.39-.09-.55-.22a2.68,2.68,0,0,0-.55-2c-.08-.12,0-.19,0-.28h1.65c-.39.14-.64.22-.88.32s-.3.09-.17.29.19.08.3,0a1.38,1.38,0,0,1,.6-.21c-.11.26-.46.32-.41.62C24.37,5.4,24.52,5.39,24.62,5.39Z"/><path class="cls-30" d="M30.71,25.78a.86.86,0,0,1,.45.72c0,.9.61,1.64.58,2.53a1.7,1.7,0,0,1-.4.62,11.89,11.89,0,0,1-.62-2.19,1,1,0,0,0-.43-.74Z"/><path class="cls-31" d="M26.72,15.63a1.26,1.26,0,0,0,0-1c-.22-.52-.11-1.15-.49-1.64l1.26.39a2.78,2.78,0,0,0,.29,1c.21.69.24.68-.39.9Z"/><path class="cls-32" d="M25.46,12.4A2.22,2.22,0,0,0,26,13.81a.38.38,0,0,1-.14.6,2.43,2.43,0,0,0-.71-.05c0-.12-.44,0-.13-.27,0,0,.08-.09,0-.11-.79-.14-.61-.86-.8-1.36.35.29.68.41,1-.1A.21.21,0,0,1,25.46,12.4Z"/><path class="cls-33" d="M28.08,8.87a1,1,0,0,1,1.22-.32l.15.19c-.23.14-.51,0-.75.1-.52.12-.58.42-.36.86a2.5,2.5,0,0,1,.11.39,2.32,2.32,0,0,0-.67,1.27,3.27,3.27,0,0,0-.14,1.35l-.14-.28a4.29,4.29,0,0,1,.17-2.1A2.87,2.87,0,0,0,28.08,8.87Z"/><path class="cls-34" d="M23.36,14.59c.52.17,0,.5.12.72a3.56,3.56,0,0,0-1.21,1.84c-.49-.51-.28-1.21.59-1.92a.63.63,0,0,0,.3-.43A.27.27,0,0,1,23.36,14.59Z"/><path class="cls-35" d="M23.17,13.15c0,.24.29.15.37.39-.34-.22-.27.24-.5.23s-.44-.24-.69-.33-.61-.15-.68.32c-.23-.18-.42-.41-.23-.62s.45-.49.85-.25A1.15,1.15,0,0,0,23.17,13.15Z"/><path class="cls-36" d="M22.22,10.73c.19.1,0,.3.11.41a3.39,3.39,0,0,1-1.38.13.44.44,0,0,1-.44-.42c0-.21.26-.22.44-.29.45-.19.65.19,1,.27a.24.24,0,0,0,.21-.08Z"/><path class="cls-37" d="M22.94,3.31a.66.66,0,0,1,0-.85,2.44,2.44,0,0,1,1.78.86c-.59-.08-1-.32-1.44-.32C23.1,3,22.87,3,22.94,3.31Z"/><path class="cls-37" d="M23,2.38l-.32.16c.05-.27,0-.48-.23-.6-.1-.05-.07-.14,0-.18.16.26.46.13.68.23s.4.11.54.36Z"/><path class="cls-38" d="M23.69,3.73l-.11-.32a2.31,2.31,0,0,1,1.4.32Z"/><path class="cls-11" d="M31.56,9.08c-.51-.2-.51-.2-.34-.54.16.12.23.34.47.38C31.73,8.92,31.64,9.05,31.56,9.08Z"/><path class="cls-39" d="M13,13.15l.12.11a1.76,1.76,0,0,1-.75.16A1,1,0,0,1,13,13.15Z"/><path class="cls-40" d="M32.37,9.78c-.11,0-.26,0-.33,0s.09-.15.1-.25C32.36,9.47,32.36,9.63,32.37,9.78Z"/><path class="cls-41" d="M.29,17l.09.11-.1.52a.07.07,0,0,1-.11,0A1.18,1.18,0,0,1,.29,17Z"/><path class="cls-42" d="M11.83,13.53a.7.7,0,0,1,.44-.14C12.17,13.62,12,13.55,11.83,13.53Z"/><path class="cls-43" d="M.17,17.63H.28A.51.51,0,0,1,.15,18C0,17.86.08,17.74.17,17.63Z"/><path class="cls-26" d="M23.16,14.8c0,.22,0,.4-.3.43Z"/><path class="cls-44" d="M0,18.88V18.5A.27.27,0,0,1,0,18.88Z"/><path class="cls-9" d="M22.12,10.75c0,.07,0,.2-.05.22s-.12-.07-.16-.14A.2.2,0,0,1,22.12,10.75Z"/><path class="cls-45" d="M20.45,3.81a1.74,1.74,0,0,0,.85-.56.5.5,0,0,1,.15,0c.22.54.66,1,.59,1.65.16.54.14.62-.2.94-.14-.11-.06-.29-.11-.42-.19-1-.66-1.43-1.49-1.26l-1.15-.08c-.18,0-.25-.12-.32-.26l.29,0A3.61,3.61,0,0,0,20.45,3.81Z"/><path class="cls-46" d="M18.17,2.15c-.12,0-.32,0-.26-.11s.3-.07.46,0C18.33,2.14,18.22,2.09,18.17,2.15Z"/><path class="cls-47" d="M18.17,2.15l.2-.09.3,0,.1,0s.05,0,0,0a.05.05,0,0,1,0,0v0Z"/><path class="cls-48" d="M28.7,8.84c.24-.17.5-.06.75-.1.09,0,.09.13.09.22s-.06,0-.09,0a.19.19,0,0,0-.23-.1Z"/><path class="cls-49" d="M30.08,9.39l.61.51a.6.6,0,0,1,.19.62,2.26,2.26,0,0,0-.82-.94Z"/><path class="cls-50" d="M29.45,9h.09a.33.33,0,0,1,.21.31C29.61,9.2,29.48,9.12,29.45,9Z"/><path class="cls-51" d="M31.1,11.15l.11.11v.29l-.06,0L31,11.14S31.07,11.1,31.1,11.15Z"/><path class="cls-52" d="M31.1,11.15H31c0-.13-.12-.27,0-.41C31.14,10.85,31.1,11,31.1,11.15Z"/><path class="cls-53" d="M21.73,5.4l.16.45.15-1c.11,0,.22-.19.25.1.06.52,0,1.1.53,1.41-.05.19-.48,0-.27.37q.07-.06.09,0c.14.15.31.24.17.54-.24.52.24,1,.25,1.51-.13.16-.32.11-.49.1a.24.24,0,0,1-.13-.11,18.54,18.54,0,0,0-.56-2C21.73,6.39,21.45,5.89,21.73,5.4Z"/><path class="cls-54" d="M21.3,2.9,21,3.19a1.56,1.56,0,0,1-.17-.89c0-.3.16-.18.3-.1A.82.82,0,0,1,21.3,2.9Z"/><path class="cls-55" d="M23.38,6.76l-.23,0c-.06,0-.17,0-.21-.1a.87.87,0,0,1,.55-.07s0,0,0,.06l0,0Z"/><path class="cls-56" d="M23.48,6.66a.28.28,0,0,1,0-.09l.3,0c.19,0,.39,0,.55.11a.19.19,0,0,1-.26,0Z"/><path class="cls-57" d="M22.94,6.64l.21.1-.51,0a.12.12,0,0,0-.09,0C22.63,6.54,22.81,6.67,22.94,6.64Z"/><path class="cls-58" d="M22.54,8.87l.52,0c.27.08.38-.19.6-.27.11.53-.44.84-.39,1.33-.3-.1-.21-.37-.2-.56S23,9,22.74,9C22.69,9,22.5,9.06,22.54,8.87Z"/><path class="cls-59" d="M22.54,8.87l.2.17a1.79,1.79,0,0,1-.4,0c-.07,0-.18-.07-.13-.16s.15,0,.23-.06Z"/><path class="cls-60" d="M24.08,6.67l.26,0h.6a1,1,0,0,1,.54,1.07c0,.55,0,1.1,0,1.66l-.09.71h-.14a15.48,15.48,0,0,1,0-1.67,1.22,1.22,0,0,0-.66-1.32A4.15,4.15,0,0,1,24.08,6.67Z"/><path class="cls-61" d="M19.7.61c.53.29-.09.33-.11.5a.8.8,0,0,1-.71-.25A1.3,1.3,0,0,1,19.7.61Z"/><path class="cls-62" d="M18.77,2.15a.09.09,0,0,0,0-.07c.15,0,.31-.06.45,0A.77.77,0,0,1,18.77,2.15Z"/></g></g></svg>