<svg xmlns="http://www.w3.org/2000/svg" viewBox="0 0 634.09 161.74"><defs><style>.cls-1{fill:#ca64ea;}.cls-2{fill:#ae4bd5;}.cls-3{fill:#9332bf;}.cls-4{fill:#7719aa;}.cls-5{opacity:0.1;}.cls-5,.cls-6,.cls-7{isolation:isolate;}.cls-6{opacity:0.2;}.cls-7{opacity:0.3;}.cls-8{fill:#fff;}.cls-9{fill:none;}</style></defs><g id="Layer_2" data-name="Layer 2"><g id="Layer_1-2" data-name="Layer 1"><path class="cls-1" d="M47.17,10.11H155a6.74,6.74,0,0,1,6.74,6.74h0v128a6.74,6.74,0,0,1-6.74,6.74H47.17a6.74,6.74,0,0,1-6.74-6.74h0v-128a6.74,6.74,0,0,1,6.74-6.74Z"/><path class="cls-1" d="M161.74,16.85A6.74,6.74,0,0,0,155,10.11H47.17a6.74,6.74,0,0,0-6.74,6.74v128a6.74,6.74,0,0,0,6.74,6.74h79.19L161.74,45.49Z"/><path class="cls-2" d="M161.74,45.49H126.36V80.87L144.05,97l17.69-16.15Z"/><path class="cls-3" d="M161.74,80.87H126.36v35.38l17.69,17.16,17.69-17.16Z"/><path class="cls-4" d="M126.36,116.25h35.38v28.64a6.74,6.74,0,0,1-6.74,6.74H126.36Z"/><path class="cls-5" d="M84.24,35.38H40.43v96H84.24A6.76,6.76,0,0,0,91,124.67V42.12A6.76,6.76,0,0,0,84.24,35.38Z"/><path class="cls-6" d="M79.19,40.43H40.43v96H79.19a6.75,6.75,0,0,0,6.73-6.73V47.17A6.77,6.77,0,0,0,79.19,40.43Z"/><path class="cls-7" d="M79.19,40.43H40.43v85.93H79.19a6.75,6.75,0,0,0,6.73-6.74V47.17A6.77,6.77,0,0,0,79.19,40.43Z"/><path class="cls-6" d="M74.13,40.43H40.43v85.93h33.7a6.76,6.76,0,0,0,6.74-6.74V47.17A6.77,6.77,0,0,0,74.13,40.43Z"/><path class="cls-4" d="M6.74,40.43H74.13a6.74,6.74,0,0,1,6.74,6.74h0v67.39a6.74,6.74,0,0,1-6.74,6.74H6.74A6.74,6.74,0,0,1,0,114.56H0V47.17a6.74,6.74,0,0,1,6.74-6.74Z"/><path class="cls-8" d="M20.22,55.6H31l18.48,34c1,1.47,1.68,2.65,2.17,3.54h.13a46.83,46.83,0,0,1-.3-6.7V55.6h9.18v50.54H50.57L31.3,72.63a25.21,25.21,0,0,1-2-3.47h-.17a67.07,67.07,0,0,1,.28,7.36v29.62H20.22Z"/><path class="cls-9" d="M0,0H161.74V161.74H0Z"/><path d="M232.54,60.66q-5.59,3-13.92,3-10.77,0-17.23-6.92t-6.47-18.18q0-12.09,7.28-19.55t18.45-7.45a29.47,29.47,0,0,1,11.89,2.08v6.29a24.07,24.07,0,0,0-12-3q-8.67,0-14.08,5.8t-5.39,15.5q0,9.21,5,14.68a17.2,17.2,0,0,0,13.24,5.46,24.86,24.86,0,0,0,13.15-3.37Z"/><path d="M257.08,63.61q-8,0-12.75-5t-4.76-13.38q0-9.07,5-14.17t13.39-5.09q8.06,0,12.57,4.95T275,44.63q0,8.61-4.87,13.8T257.08,63.61Zm.42-32.83a11,11,0,0,0-8.79,3.78q-3.24,3.78-3.24,10.42,0,6.41,3.27,10.09a11.12,11.12,0,0,0,8.76,3.69q5.58,0,8.59-3.62t3-10.3q0-6.75-3-10.41T257.5,30.78Z"/><path d="M290,62.77h-5.76V9.47H290Z"/><path d="M307.42,62.77h-5.77V9.47h5.77Z"/><path d="M344.86,62.77H339.1V57.14H339a12.06,12.06,0,0,1-11.08,6.47q-5.37,0-8.42-2.84a9.86,9.86,0,0,1-3-7.56q0-10.1,11.88-11.75L339.1,40q0-9.16-7.42-9.17a17.67,17.67,0,0,0-11.74,4.43V29.3a22.26,22.26,0,0,1,12.23-3.37q12.69,0,12.69,13.43ZM339.1,44.56l-8.69,1.19a14.08,14.08,0,0,0-6,2q-2,1.42-2,5a5.47,5.47,0,0,0,1.88,4.3,7.27,7.27,0,0,0,5,1.67,9.25,9.25,0,0,0,7.08-3,10.77,10.77,0,0,0,2.8-7.62Z"/><path d="M361.63,57.57h-.14v5.2h-5.77V9.47h5.77V33.1h.14a13.65,13.65,0,0,1,12.45-7.17q6.92,0,10.84,4.83t3.92,13q0,9-4.39,14.47t-12,5.43A11.84,11.84,0,0,1,361.63,57.57Zm-.14-14.52v5a10.72,10.72,0,0,0,2.9,7.58,10.35,10.35,0,0,0,15.58-.9q3-4,3-11.14,0-6-2.78-9.42a9.17,9.17,0,0,0-7.52-3.41,10.19,10.19,0,0,0-8.09,3.5A12.83,12.83,0,0,0,361.49,43.05Z"/><path d="M413.1,63.61q-8,0-12.74-5t-4.77-13.38q0-9.07,5-14.17t13.39-5.09q8.06,0,12.57,4.95T431,44.63q0,8.61-4.87,13.8T413.1,63.61Zm.42-32.83a11,11,0,0,0-8.79,3.78Q401.51,38.34,401.5,45q0,6.41,3.27,10.09a11.11,11.11,0,0,0,8.75,3.69q5.6,0,8.6-3.62t3-10.3q0-6.75-3-10.41T413.52,30.78Z"/><path d="M459,32.61a7,7,0,0,0-4.36-1.16,7.37,7.37,0,0,0-6.17,3.48Q446,38.41,446,44.42V62.77h-5.77v-36H446v7.42h.14a12.58,12.58,0,0,1,3.76-5.93,8.61,8.61,0,0,1,5.66-2.12,9.32,9.32,0,0,1,3.44.49Z"/><path d="M491,62.77h-5.76V57.14h-.14a12.06,12.06,0,0,1-11.08,6.47c-3.59,0-6.39-1-8.42-2.84a9.86,9.86,0,0,1-3-7.56q0-10.1,11.88-11.75L485.28,40q0-9.16-7.42-9.17a17.67,17.67,0,0,0-11.74,4.43V29.3a22.26,22.26,0,0,1,12.23-3.37Q491,25.93,491,39.36Zm-5.76-18.21-8.69,1.19a14.08,14.08,0,0,0-6,2q-2,1.42-2,5a5.47,5.47,0,0,0,1.88,4.3,7.27,7.27,0,0,0,5,1.67,9.25,9.25,0,0,0,7.08-3,10.77,10.77,0,0,0,2.8-7.62Z"/><path d="M518.6,62.42a11.12,11.12,0,0,1-5.38,1.12q-9.45,0-9.45-10.54V31.69h-6.19V26.77h6.19V18l5.76-1.86V26.77h9.07v4.92h-9.07V52q0,3.62,1.23,5.16a4.89,4.89,0,0,0,4.08,1.55,6.07,6.07,0,0,0,3.76-1.19Z"/><path d="M554.67,46.21H529.26q.13,6,3.23,9.28A11.15,11.15,0,0,0,541,58.76a17.66,17.66,0,0,0,11.18-4v5.42q-4.75,3.45-12.55,3.44-7.64,0-12-4.9t-4.36-13.8q0-8.4,4.76-13.69a15.27,15.27,0,0,1,11.83-5.29q7.07,0,10.94,4.57t3.86,12.69Zm-5.9-4.89q0-5-2.41-7.77a8.2,8.2,0,0,0-6.59-2.77,9.31,9.31,0,0,0-6.93,2.92,13.15,13.15,0,0,0-3.51,7.62Z"/><path d="M586.07,17.63a3.65,3.65,0,0,1-2.64-1.06,3.57,3.57,0,0,1-1.09-2.67,3.69,3.69,0,0,1,3.73-3.76,3.75,3.75,0,0,1,2.69,1.07,3.59,3.59,0,0,1,1.11,2.69,3.57,3.57,0,0,1-1.11,2.64A3.69,3.69,0,0,1,586.07,17.63Zm2.81,45.14h-5.76v-36h5.76Z"/><path d="M630.44,62.77h-5.77V42.24q0-11.46-8.37-11.46A9.07,9.07,0,0,0,609.15,34a12,12,0,0,0-2.83,8.21V62.77h-5.77v-36h5.77v6h.14a13,13,0,0,1,11.81-6.82q5.91,0,9,3.81t3.13,11Z"/><path d="M214.15,148.82a11.12,11.12,0,0,1-5.38,1.12q-9.45,0-9.46-10.54V118.09h-6.18v-4.92h6.18v-8.79l5.77-1.86v10.65h9.07v4.92h-9.07v20.29q0,3.62,1.23,5.16a4.89,4.89,0,0,0,4.08,1.55,6.09,6.09,0,0,0,3.76-1.19Z"/><path d="M251.73,149.17H246V128.43q0-11.25-8.37-11.25a9.11,9.11,0,0,0-7.1,3.25,12.13,12.13,0,0,0-2.88,8.35v20.39h-5.77V95.87h5.77v23.28h.14a13.08,13.08,0,0,1,11.81-6.82q12.17,0,12.16,14.66Z"/><path d="M291.53,132.61H266.11q.13,6,3.24,9.28a11.13,11.13,0,0,0,8.5,3.27,17.62,17.62,0,0,0,11.18-4v5.42Q284.29,150,276.48,150q-7.62,0-12-4.9t-4.35-13.8q0-8.4,4.76-13.69a15.26,15.26,0,0,1,11.83-5.29q7.06,0,10.93,4.57t3.87,12.69Zm-5.91-4.89q0-5-2.4-7.77a8.22,8.22,0,0,0-6.6-2.77,9.29,9.29,0,0,0-6.92,2.92,13.23,13.23,0,0,0-3.52,7.62Z"/><path d="M361.39,149.17h-7.25L328.2,109a16.64,16.64,0,0,1-1.62-3.17h-.21a51.62,51.62,0,0,1,.28,6.93v36.42h-5.91V98.76h7.67l25.24,39.55c1.06,1.64,1.74,2.76,2,3.37h.14a54,54,0,0,1-.35-7.42V98.76h5.91Z"/><path d="M388.88,150q-8,0-12.75-5t-4.76-13.38q0-9.07,5-14.17t13.39-5.09q8.05,0,12.57,5T406.81,131q0,8.61-4.87,13.8T388.88,150Zm.42-32.83a11,11,0,0,0-8.79,3.78q-3.24,3.78-3.23,10.42,0,6.41,3.27,10.09a11.09,11.09,0,0,0,8.75,3.69q5.59,0,8.59-3.62t3-10.3q0-6.75-3-10.41T389.3,117.18Z"/><path d="M432.72,148.82a11.14,11.14,0,0,1-5.38,1.12q-9.46,0-9.46-10.54V118.09h-6.19v-4.92h6.19v-8.79l5.77-1.86v10.65h9.07v4.92h-9.07v20.29q0,3.62,1.23,5.16a4.89,4.89,0,0,0,4.08,1.55,6.11,6.11,0,0,0,3.76-1.19Z"/><path d="M468.79,132.61H443.37q.13,6,3.23,9.28a11.16,11.16,0,0,0,8.51,3.27,17.64,17.64,0,0,0,11.18-4v5.42Q461.55,150,453.74,150q-7.64,0-12-4.9t-4.36-13.8q0-8.4,4.77-13.69A15.26,15.26,0,0,1,454,112.33q7.06,0,10.93,4.57t3.87,12.69Zm-5.91-4.89q0-5-2.41-7.77a8.2,8.2,0,0,0-6.59-2.77A9.27,9.27,0,0,0,447,120.1a13.16,13.16,0,0,0-3.52,7.62Z"/><path d="M483.41,144h-.14v5.2h-5.76V95.87h5.76V119.5h.14a13.65,13.65,0,0,1,12.45-7.17q6.92,0,10.84,4.83t3.92,13q0,9-4.39,14.47t-12,5.43A11.85,11.85,0,0,1,483.41,144Zm-.14-14.52v5a10.72,10.72,0,0,0,2.9,7.58,10.35,10.35,0,0,0,15.58-.9q3-4,3-11.14,0-6-2.78-9.42a9.17,9.17,0,0,0-7.52-3.41,10.19,10.19,0,0,0-8.09,3.5A12.83,12.83,0,0,0,483.27,129.45Z"/><path d="M534.88,150q-8,0-12.74-5t-4.77-13.38q0-9.07,5-14.17t13.39-5.09q8.06,0,12.57,5T552.81,131q0,8.61-4.87,13.8T534.88,150Zm.42-32.83a11,11,0,0,0-8.79,3.78q-3.22,3.78-3.23,10.42,0,6.41,3.27,10.09a11.11,11.11,0,0,0,8.75,3.69q5.6,0,8.6-3.62t3-10.3q0-6.75-3-10.41T535.3,117.18Z"/><path d="M577.07,150q-8,0-12.75-5t-4.76-13.38q0-9.07,5-14.17t13.39-5.09q8.05,0,12.57,5T595,131q0,8.61-4.87,13.8T577.07,150Zm.42-32.83A11,11,0,0,0,568.7,121q-3.24,3.78-3.23,10.42,0,6.41,3.27,10.09a11.1,11.1,0,0,0,8.75,3.69q5.6,0,8.6-3.62t3-10.3q0-6.75-3-10.41T577.49,117.18Z"/><path d="M634.09,149.17H626l-15.89-17.3H610v17.3h-5.76V95.87H610v33.79h.15l15.11-16.49h7.56l-16.7,17.37Z"/></g></g></svg>