<svg xmlns="http://www.w3.org/2000/svg" viewBox="0 0 388.01 38.7"><defs><style>.cls-1{fill:#fff;}</style></defs><title>Asset 1</title><g id="Layer_2" data-name="Layer 2"><g id="Layer_1-2" data-name="Layer 1"><path class="cls-1" d="M12.66,30.42c0,3.3.84,5.88,4.5,5.88v1.5H0V36.3c3.66,0,4.5-2.58,4.5-5.88V7.5c0-3.3-.84-5.82-4.5-5.82V.18H17.16v1.5c-3.66,0-4.5,2.58-4.5,5.88Z"/><path class="cls-1" d="M57.12,22.08v1.56c-2.94,0-2.82,3.78-2.82,5.76v6.72c-4.44,2.34-10,2.58-14.76,2.58-10.86,0-21-8.94-21-19.74C18.54,6.78,29.88.12,40,0A51.21,51.21,0,0,1,53.64,2l-.12,12H52C50.7,8.94,46.62,1.56,41,1.56c-8.58,0-12.84,10.14-12.84,17.52,0,7.62,4,18.12,12.42,18.12a7.73,7.73,0,0,0,5.58-1.92V29.4c0-3.24-1.14-5.76-4.44-5.76V22.08Z"/><path class="cls-1" d="M93.54,30.42c0,3.3.84,5.82,4.5,5.82V37.8H85.38V33.06c-2.22,3.36-6.54,5.1-10.86,5.1-6.42,0-12.84-3.78-12.84-11.76V7.5c0-3.3-.84-5.82-4.5-5.82V.18H74.34v1.5c-3.66,0-4.5,2.58-4.5,5.88V26.28c0,6.42,3.12,8.82,6.48,8.82a10.18,10.18,0,0,0,9.06-6.66V7.5c0-3.3-.84-5.82-4.5-5.82V.18H98v1.5c-3.66,0-4.5,2.58-4.5,5.88Z"/><path class="cls-1" d="M139.14,34.08A3.84,3.84,0,0,0,143,36.3v1.5H125.82V36.3c2.58,0,3.66-.9,3.66-2.52a7.22,7.22,0,0,0-.72-2.82L126.54,26a10.92,10.92,0,0,0-1.8,4,12.33,12.33,0,0,0-8.16-3.18,12.54,12.54,0,0,0-6.18,1.74l-1.08,2.7c-1.26,3.36,1.38,5,5,5v1.5H100.74V36.3a5,5,0,0,0,4.92-3.18L116.94,4.44c-.9-1.74-2-2.76-4.08-2.76V.18H130v1.5c-4,.24-4.14,2.7-2.82,5.7ZM118.56,8l-7.14,18.18a15.26,15.26,0,0,1,9.9-4,10.87,10.87,0,0,1,3.78.6Z"/><path class="cls-1" d="M184.14,1.68c-3.66,0-5.4,2.52-5.4,5.88V30.42c0,3.36,1.74,5.88,5.4,5.88v1.5H172.38L152.58,9.36V30.42c0,3.36,1.74,5.88,5.4,5.88v1.5H144.42V36.3c3.66,0,5.4-2.46,5.4-5.82V7.56c0-3.36-1.74-5.88-5.4-5.88V.18h11.82L176,28.62v-21c0-3.36-1.74-5.94-5.4-5.94V.18h13.56Z"/><path class="cls-1" d="M225.24,34.08a3.84,3.84,0,0,0,3.9,2.22v1.5H211.92V36.3c2.58,0,3.66-.9,3.66-2.52a7.22,7.22,0,0,0-.72-2.82L212.64,26a10.92,10.92,0,0,0-1.8,4,12.33,12.33,0,0,0-8.16-3.18,12.54,12.54,0,0,0-6.18,1.74l-1.08,2.7c-1.26,3.36,1.38,5,5,5v1.5H186.84V36.3a5,5,0,0,0,4.92-3.18L203,4.44c-.9-1.74-2-2.76-4.08-2.76V.18h17.16v1.5c-4,.24-4.14,2.7-2.82,5.7ZM204.66,8l-7.14,18.18a15.26,15.26,0,0,1,9.9-4,10.87,10.87,0,0,1,3.78.6Z"/><path class="cls-1" d="M278.64,30.42c0,3.3.78,5.88,4.44,5.88v1.5H265.92V36.3c3.66,0,4.5-2.52,4.5-5.82V21.42a18.27,18.27,0,0,1-8.52,2.1,13.2,13.2,0,0,1-8.7-3.06v10c0,3.3.84,5.88,4.5,5.88v1.5H240.48V36.3c3.66,0,4.5-2.52,4.5-5.82V7.62c0-3.42-.84-5.82-4.5-6V.18h17.16v1.5c-3.66.18-4.44,2.52-4.44,5.88V18.12a10.24,10.24,0,0,0,4.14-4.32,12.29,12.29,0,0,0,10.2,5.58,12.6,12.6,0,0,0,2.88-.36V7.62c0-3.36-.84-5.76-4.5-5.94V.18h17.16v1.5c-3.66.18-4.44,2.52-4.44,5.88Z"/><path class="cls-1" d="M298.38,30.42c0,3.3.84,5.88,4.5,5.88v1.5H285.72V36.3c3.66,0,4.5-2.58,4.5-5.88V7.5c0-3.3-.84-5.82-4.5-5.82V.18h17.16v1.5c-3.66,0-4.5,2.58-4.5,5.88Z"/><path class="cls-1" d="M349.73.18v1.5c-2.58,0-4.68,2.1-5.94,4.8L329,37.8h-3.25L310.14,4.5a4.31,4.31,0,0,0-4-2.82V.18h17.16v1.5c-3.36,0-4,3.06-3.06,5L330.3,28.08,340,7.62c1.73-3.78-.91-5.94-3.84-5.94V.18Z"/><path class="cls-1" d="M364.73,30.42c0,2.82,1.75,4.62,4.38,4.62h9.6c3.42,0,5.88-2,5.88-5.4h1.56V37.8H352V36.3c3.54,0,4.44-2.82,4.44-5.82V7.62c0-3.36-1.08-5.94-4.44-5.94V.18h34.13V8.34h-1.56c0-3.54-2.64-5.4-5.88-5.4h-9.54c-3.36,0-4.44,1.74-4.44,4.62V18.42a9.27,9.27,0,0,0,4.75-4.56c4.31,6.42,12.23,6.84,18.23,2.94l.3.6C382.25,23.94,371,26,364.73,20Z"/></g></g></svg>