<svg xmlns="http://www.w3.org/2000/svg" xmlns:xlink="http://www.w3.org/1999/xlink" viewBox="0 0 65.94 65.94"><defs><style>.cls-1{fill:#fff;}.cls-1,.cls-3,.cls-4{fill-rule:evenodd;}.cls-2{mask:url(#mask);}.cls-3{fill:#1784dd;}.cls-4{fill:#009e5a;}</style><mask id="mask" x="0" y="0" width="65.94" height="39.2" maskUnits="userSpaceOnUse"><g id="b"><path id="a" class="cls-1" d="M0,0H65.94V39.2H0Z"/></g></mask></defs><g id="Layer_2" data-name="Layer 2"><g id="Layer_1-2" data-name="Layer 1"><g class="cls-2"><path class="cls-3" d="M14.06,24.6c5.38-2.28,11.21-3.15,17.22-3.5.54,0,7.4-.44,10.25-.76a38.55,38.55,0,0,0,15.85-5C62,12.6,64.79,9.05,65.94,4.72V0H14.66A14.67,14.67,0,0,0,0,14.67V39.2C2,33,7.07,27.56,14.06,24.6"/></g><path class="cls-4" d="M36.33,45a4.62,4.62,0,0,0-3-.84H29.8v6.48h3.53a4.62,4.62,0,0,0,3-.85,3,3,0,0,0,1-2.41,2.88,2.88,0,0,0-1-2.39"/><path class="cls-4" d="M55,57.42a9.47,9.47,0,0,1-3.66.69A9.08,9.08,0,0,1,46.92,57a8.06,8.06,0,0,1-3.11-3,8.75,8.75,0,0,1,0-8.6,8,8,0,0,1,3.13-3,9.28,9.28,0,0,1,4.45-1.09,9.39,9.39,0,0,1,3.65.7,7.54,7.54,0,0,1,2.79,2l-1.95,1.84A5.67,5.67,0,0,0,51.53,44a6.11,6.11,0,0,0-3,.73,5.38,5.38,0,0,0-2.07,2,5.94,5.94,0,0,0-.74,3,5.8,5.8,0,0,0,.75,3,5.18,5.18,0,0,0,2.07,2,6.06,6.06,0,0,0,3,.73,5.63,5.63,0,0,0,4.34-1.93l2,1.86a7.49,7.49,0,0,1-2.8,2Zm-17.6.5-3.33-4.77a4.85,4.85,0,0,1-.63,0H29.81v4.74h-3V41.65h6.69a9,9,0,0,1,3.69.7,5.37,5.37,0,0,1,2.41,2,5.7,5.7,0,0,1,.84,3.09,5.49,5.49,0,0,1-.9,3.16,5.36,5.36,0,0,1-2.56,2l3.75,5.34ZM21.53,58l-1.62-3.75H11.82L10.23,58H7.13l7.28-16.18h3L24.67,58ZM51.89,25.77c-5.38,2.28-11.22,3.15-17.22,3.5-.55,0-7.4.44-10.26.76A38.4,38.4,0,0,0,8.56,35Q1.72,39.16,0,45.64v20.3H51.28A14.66,14.66,0,0,0,65.94,51.28V11.16c-2,6.18-7.06,11.65-14,14.61Z"/><path class="cls-4" d="M12.84,51.85h6.08l-3.05-7.07Z"/></g></g></svg>