<?xml version="1.0" encoding="UTF-8" standalone="no"?>
<!DOCTYPE svg PUBLIC "-//W3C//DTD SVG 1.1//EN" "http://www.w3.org/Graphics/SVG/1.1/DTD/svg11.dtd">
<svg width="100%" height="100%" viewBox="0 0 2585 2590" version="1.1" xmlns="http://www.w3.org/2000/svg" xmlns:xlink="http://www.w3.org/1999/xlink" xml:space="preserve" xmlns:serif="http://www.serif.com/" style="fill-rule:evenodd;clip-rule:evenodd;stroke-linejoin:round;stroke-miterlimit:1.41421;">
    <g transform="matrix(3.125,0,0,3.125,0,0)">
        <g transform="matrix(4.16667,0,0,4.16667,0,-0.59166)">
            <path d="M177.581,33.104C177.901,39.951 172.473,44.185 168.366,48.208L126.257,83.648C122.472,87.172 117.004,90.085 114.873,95.366C112.082,102.344 111.042,110.098 109.841,117.805C109.158,123.361 103.965,128.193 99.137,130.234C95.381,131.547 90.877,130.928 86.781,131.246L72.101,131.344C70.864,131.609 69.787,132.291 69.145,133.299L68.601,134.756C67.029,134.988 67.548,133.615 67.325,132.65C67.368,129.424 68.085,126.051 70.468,124.148C71.736,122.855 73.525,122.543 75.304,122.254L96.707,121.943C97.899,121.894 98.862,121.178 99.672,120.551L100.54,118.896C102.251,108.228 103.234,97.183 108.526,88.121C113.45,82.372 119.657,78.415 125.14,73.357C137.842,62.57 151.007,51.606 163.554,40.662C167.107,37.305 170.863,32.872 171.739,27.558L172.204,26.135C175.024,27.093 177.396,29.905 177.581,33.104Z" style="fill:rgb(13,94,171);fill-rule:nonzero;"/>
            <path d="M189.924,45.136C190.556,51.787 185.337,54.94 181.18,59.055L164.001,73.812L133.457,99.746C129.125,104.629 128.904,111.549 127.796,117.805C127.979,119.844 130.034,120.674 129.632,122.81L125.385,130.467C125.617,133.514 129.343,131.748 130.546,133.656C130.584,134.752 129.854,136.119 130.72,137.033C131.314,138.082 133.769,136.676 132.483,138.355C132.133,138.631 132.265,139.31 132.369,139.676C132.879,140.346 133.828,140.406 133.914,141.404C133.457,142.684 133.457,144.463 134.22,145.564C139.518,151.346 148.64,144.187 154.165,149.615C155.558,150.848 155.519,153.139 155.149,154.861C152.199,163.51 134.739,164.148 140.712,176.416C141.752,178.42 144.074,179.777 146.396,179.934C148.364,180.25 149.875,179.422 151.51,178.924C152.02,178.924 152.06,179.422 152.271,179.699L152.271,180.029C147.222,183.623 140.712,188.908 134.005,185.076C130.67,182.943 128.938,178.566 129.764,174.32C131.813,167.531 139.623,165.799 143.528,160.103C144.431,158.449 144.266,156.291 143.303,154.625C142.059,152.398 139.172,151.801 136.649,151.346C132.453,151.252 126.027,153.902 124.162,148.978C123.617,147.1 125.526,143.785 122.523,143.353C122.113,142.826 121.159,142.357 121.655,141.504C121.797,141.008 122.654,140.947 122.212,140.307C121.616,140.135 120.824,140.273 120.343,139.762C118.639,137.9 123.335,135.885 120.155,134.611C118.542,134.391 116.361,135.584 115.319,133.746C114.813,132.025 116.102,130.791 116.739,129.385C117.816,126.971 120.968,125.373 120.155,122.254L118.594,119.613C119.056,113.432 120.102,107.394 121.655,101.57C123.752,95.099 129.998,91.49 134.78,87.043L160.396,65.387L178.533,49.426C181.679,46.508 184.42,43.224 184.313,38.802C185.274,38.477 185.917,39.636 186.755,39.996C188.259,41.725 189.557,42.952 189.924,45.136Z" style="fill:rgb(13,94,171);fill-rule:nonzero;"/>
            <path d="M183.045,77.409C179.672,82.791 174.027,86.843 169.014,91.099L149.318,107.605C145.705,110.869 144.751,116.529 146.396,120.941C146.581,123.178 144.852,124.59 144.309,126.555C144.364,127.137 144.48,127.879 145.077,128.051C145.898,128.375 147.136,127.957 147.594,129.047C147.714,130.202 147.188,131.437 148.459,131.885C148.962,132.168 149.718,131.283 149.77,132.201C149.458,132.711 149.237,133.197 149.318,133.84C149.963,134.988 151.368,134.355 151.95,135.307C152.199,136.637 152.199,138.351 153.699,138.908C158.806,139.762 162.678,136.303 167.284,135.307C174.58,133.023 181.636,135.881 188.146,137.818C191.387,138.396 194.992,138.205 198.226,137.818L198.455,138.029C194.309,143.09 189.202,148.012 181.949,147.516C174.339,147.234 169.43,140.135 161.269,141.504C155.744,142.601 150.233,145.92 144.309,143.689C142.796,142.461 142.164,140.273 142.751,138.115C142.465,136.803 139.296,136.48 141.267,134.756C140.66,134.355 139.623,134.756 139.296,133.84C138.834,132.791 140.114,131.246 138.739,130.557C137.513,130.375 135.928,131.06 135.01,130.019C134.51,129.385 134.6,128.506 134.784,127.738C135.659,125.642 138.024,123.99 137.513,121.498C135.928,119.998 136.454,117.471 136.649,115.381C137.554,110.549 137.923,105.447 142.42,102.242L166.637,81.779C171.739,76.911 178.043,73.757 181.732,67.342C183.638,69.977 184.549,74.238 183.045,77.409Z" style="fill:rgb(13,94,171);fill-rule:nonzero;"/>
            <path d="M108.988,149.06C115.865,151.976 123.073,154.861 129.211,158.914C130.724,160.141 132.099,162.008 131.817,164.275C129.712,172.98 117.595,173.908 119.376,184.174C119.922,187.994 122.422,191.334 126.163,192.381C127.857,192.869 130.123,192.869 131.817,192.381C132.099,193.053 133.28,193.689 131.946,194.142C126.983,197.318 120.606,200.889 114.544,197.84C111.583,196.476 109.839,193.269 109.069,190.189C107.841,180.879 116.503,177.949 120.891,171.723C121.552,170.49 121.87,169.025 121.552,167.57C120.703,165.832 119.477,164.76 117.816,163.734C101.499,154.59 83.767,148.418 65.546,143.689C62.528,143.4 57.839,141.639 55.831,145.15L55.831,145.314C54.2,145.66 54.826,143.689 54.826,142.822C55.338,139.859 57.064,137.449 59.848,136.246C64.582,134.846 69.6,136.525 74.196,137.348C85.989,140.668 97.727,144.381 108.988,149.06Z" style="fill:rgb(13,94,171);fill-rule:nonzero;"/>
            <path d="M101.879,187.875C101.868,187.342 101.773,187.303 100.893,187.309C98.301,187.357 97.257,188.576 97.322,191.482C97.392,194.447 98.482,195.549 101.066,195.494C101.939,195.475 102.031,195.414 102.031,195.148L101.879,187.875ZM105.073,187.146C103.608,187.267 103.553,187.309 103.503,187.684C103.443,188.144 103.469,189.228 103.514,191.314C103.574,193.385 103.583,194.467 103.643,194.937C103.709,195.305 103.776,195.346 105.237,195.41L105.248,195.986L100.631,196.072C98.74,196.121 97.843,195.725 96.964,194.908C96.155,194.195 95.592,193.023 95.568,191.508C95.534,189.139 96.957,186.744 100.637,186.67L105.044,186.582L105.073,187.146Z" style="fill:rgb(13,94,171);fill-rule:nonzero;"/>
            <path d="M94.726,187.283C93.457,187.271 93.396,187.309 93.321,187.684C93.235,188.131 93.117,189.199 92.956,191.314C92.791,193.377 92.689,194.432 92.707,194.908C92.724,195.279 92.775,195.32 94.019,195.523L93.978,196.098L88.917,195.666C88.148,195.596 87.38,195.609 86.811,195.664C86.841,195.002 86.841,193.455 86.786,193.078L87.38,193.027C87.597,194.805 87.864,195.023 89.746,195.166L90.952,195.267C91.106,195.279 91.192,195.215 91.22,195.023L91.482,191.955C91.493,191.775 91.46,191.719 91.061,191.676L90.674,191.658C89.23,191.516 89.11,191.75 88.891,192.682L88.313,192.637C88.369,192.191 88.433,191.764 88.483,191.121C88.526,190.576 88.539,189.984 88.56,189.594L89.176,189.644C89.176,190.637 89.332,190.873 90.369,190.959L91.306,191.049C91.46,191.057 91.55,191.002 91.564,190.82L91.858,187.394C91.888,187.211 91.797,187.127 91.632,187.127L89.351,186.922C88.272,186.822 87.952,187.103 87.617,187.963L87.232,188.861L86.628,188.639C86.872,187.916 87.14,186.67 87.219,186.08L94.769,186.723L94.726,187.283Z" style="fill:rgb(13,94,171);fill-rule:nonzero;"/>
            <path d="M82.183,190.293C81.956,190.232 81.771,190.185 81.552,190.15C80.222,189.918 78.955,189.918 78.624,191.689C78.312,193.35 79.345,193.791 80.79,194.064C81.406,194.172 81.466,194.101 81.526,193.859L82.183,190.293ZM86.048,186.545C84.675,186.391 84.598,186.41 84.482,186.756C84.345,187.195 84.134,188.275 83.756,190.32C83.382,192.381 83.18,193.434 83.15,193.902C83.15,194.264 83.207,194.316 84.543,194.682L84.439,195.238L79.571,194.336C78.563,194.142 77.835,193.75 77.365,193.17C76.95,192.685 76.769,192.057 76.883,191.365C77.255,189.504 79.003,189.008 81.372,189.443C81.726,189.516 82.108,189.619 82.304,189.648L82.884,186.473C82.955,186.109 82.828,186.045 81.32,185.658L81.406,185.101L86.143,185.98L86.048,186.545Z" style="fill:rgb(13,94,171);fill-rule:nonzero;"/>
            <path d="M72.363,186.891C72.257,186.861 72.207,186.891 72.198,186.924C72.182,186.984 72.187,187.142 72.187,187.238L72.524,190.834L74.75,187.875C74.797,187.797 74.857,187.744 74.871,187.689C74.883,187.625 74.84,187.594 74.75,187.555L72.363,186.891ZM78.845,185.297C77.788,185.078 77.526,185.353 76.793,186.32L72.969,191.338C72.331,192.176 72.164,192.398 71.897,192.842L71.205,192.639C71.258,192.223 71.205,191.43 71.16,190.971L70.348,183.963C70.257,183.017 70.198,182.85 69.108,182.56L69.269,181.996L73.706,183.258L73.544,183.795C72.236,183.482 72.09,183.582 72.002,183.91C71.927,184.176 72.078,185.785 72.101,185.949C72.127,186.021 72.182,186.07 72.243,186.105C72.572,186.23 73.216,186.443 74.507,186.803C75.338,187.037 75.39,186.984 75.582,186.756C76.123,186.045 76.522,185.408 76.563,185.289C76.679,184.877 76.554,184.756 75.345,184.307L75.515,183.754L78.989,184.756L78.845,185.297Z" style="fill:rgb(13,94,171);fill-rule:nonzero;"/>
            <path d="M64.206,185.734C64.283,185.504 64.283,185.428 63.513,185.101C61.674,184.346 60.871,185.258 60.587,185.965C60.162,186.982 60.648,188.006 61.964,188.564C62.833,188.908 62.893,188.906 63.028,188.582L64.206,185.734ZM68.798,182.43C67.531,182.019 67.454,182.025 67.28,182.35C67.029,182.748 66.646,183.74 65.855,185.67C65.052,187.619 64.652,188.607 64.532,189.059C64.42,189.414 64.487,189.484 65.656,190.082L65.439,190.611L60.813,188.715C59.85,188.312 59.408,187.976 59.069,187.428C58.708,186.891 58.652,186.215 58.972,185.467C59.705,183.629 61.844,184.125 61.885,184.019C61.907,183.963 61.907,183.85 61.851,183.644L60.961,180.144C60.747,179.248 60.656,179.09 60.081,178.842L60.28,178.314L62.34,179.168L63.409,184.18C63.46,184.346 63.529,184.41 64.046,184.605C64.532,184.807 64.573,184.816 64.627,184.691C65.546,182.447 65.683,182.094 65.776,181.728C65.89,181.387 65.834,181.303 64.652,180.721L64.874,180.191L69.022,181.894L68.798,182.43Z" style="fill:rgb(13,94,171);fill-rule:nonzero;"/>
            <path d="M59.279,178.369C57.949,177.773 57.859,177.773 57.635,178.078C57.494,178.314 57.249,178.725 56.881,179.422L54.02,184.928L55.392,185.65C55.798,185.865 56.155,185.605 57.354,184.471L57.859,184.879C57.494,185.293 57.064,185.918 56.452,187.014C56.23,186.846 56.029,186.713 55.79,186.553C55.578,186.412 55.363,186.262 55.118,186.16L50.993,184.016C50.494,183.76 50.008,183.572 49.527,183.402C50.053,182.279 50.327,181.568 50.466,181.033L51.079,181.195C50.846,182.846 50.835,183.289 51.249,183.508L52.621,184.215L55.5,178.705C55.859,178 56.061,177.562 56.174,177.307C56.276,176.951 56.23,176.887 54.998,176.135L55.257,175.627L59.543,177.85L59.279,178.369Z" style="fill:rgb(13,94,171);fill-rule:nonzero;"/>
            <path d="M53.102,175.277C51.847,174.529 51.764,174.529 51.512,174.789C51.216,175.146 50.606,176.045 49.428,177.758C48.252,179.476 47.65,180.375 47.418,180.777C47.263,181.123 47.293,181.191 48.445,182.094L48.125,182.56L45.131,180.517C45.153,180.432 45.244,180.277 45.287,180.144L47.215,172.957L47.188,172.937L40.8,177.562L37.837,175.547L38.179,175.06C39.436,175.814 39.511,175.83 39.756,175.547C40.048,175.191 40.68,174.291 41.842,172.564C43.022,170.855 43.647,169.957 43.847,169.543C44.038,169.225 43.993,169.144 42.841,168.238L43.142,167.762L47.035,170.424L46.721,170.896C45.502,170.184 45.383,170.184 45.203,170.459L40.972,176.654L40.972,176.656L47.579,171.892C47.768,171.752 47.951,171.627 48.15,171.451L48.982,172.023C48.932,172.142 48.842,172.353 48.786,172.574L46.655,180.537L46.662,180.56L50.214,175.383C50.451,175.043 50.726,174.502 50.821,174.305C50.977,173.978 50.952,173.912 49.929,173.092L50.25,172.625L53.448,174.789L53.102,175.277Z" style="fill:rgb(13,94,171);fill-rule:nonzero;"/>
            <path d="M42.704,167.982C41.707,167.217 41.621,167.217 41.346,167.457C40.981,167.762 40.293,168.584 38.927,170.158C37.542,171.738 36.83,172.551 36.568,172.92C36.368,173.232 36.383,173.297 37.277,174.201L36.881,174.631L33.062,171.277C32.477,170.795 31.845,170.338 31.367,170.039C31.802,169.537 32.701,168.279 32.875,167.949L33.376,168.238C32.514,169.818 32.615,170.141 34.033,171.387L34.944,172.18C35.077,172.285 35.165,172.273 35.311,172.139L37.327,169.826C37.447,169.687 37.461,169.607 37.141,169.355L36.881,169.107C35.777,168.139 35.545,168.25 34.826,168.875L34.368,168.49C34.679,168.168 34.965,167.877 35.408,167.367C35.777,166.965 36.149,166.478 36.383,166.187L36.851,166.584C36.254,167.377 36.237,167.662 37.041,168.355L37.724,168.984C37.853,169.076 37.958,169.107 38.079,168.957L40.34,166.373C40.474,166.248 40.448,166.123 40.335,166.002L38.585,164.502C37.778,163.781 37.361,163.828 36.581,164.314L35.777,164.84L35.401,164.275C36.009,163.828 36.969,162.978 37.393,162.559L43.086,167.547L42.704,167.982Z" style="fill:rgb(13,94,171);fill-rule:nonzero;"/>
            <path d="M36.237,162.34C35.286,161.457 35.202,161.435 34.905,161.646C34.536,161.93 33.732,162.66 32.198,164.084C30.679,165.498 29.872,166.242 29.582,166.592C29.33,166.871 29.362,166.969 30.174,167.982L29.761,168.355L27.858,166.328C27.927,166.168 27.965,165.918 28.032,165.617L29.697,158.312L29.682,158.299L28.146,159.723C26.625,161.144 25.83,161.869 25.525,162.23C25.291,162.51 25.299,162.621 26.234,163.734L25.811,164.123L23.209,161.336L23.634,160.941C24.487,161.857 24.627,161.889 25.185,161.435C25.742,160.955 26.374,160.398 26.915,159.918C28.83,158.121 30.434,156.609 31.161,155.807L31.829,156.531C31.431,157.658 31.179,158.553 30.935,159.775L29.71,165.404L29.727,165.418L31.716,163.572C33.251,162.156 34.037,161.435 34.359,161.064C34.585,160.769 34.57,160.693 33.513,159.42L33.947,159.035L36.654,161.959L36.237,162.34Z" style="fill:rgb(13,94,171);fill-rule:nonzero;"/>
            <path d="M28.293,153.434C27.334,152.312 27.265,152.293 26.945,152.463C26.703,152.609 26.307,152.875 25.675,153.35L20.693,157.09L21.619,158.32C21.892,158.685 22.322,158.607 23.918,158.117L24.186,158.685C23.675,158.914 23.013,159.299 21.991,159.99C21.847,159.764 21.731,159.516 21.6,159.299C21.456,159.084 21.305,158.85 21.149,158.644L18.383,154.939C18.023,154.475 17.674,154.092 17.305,153.746C18.283,152.965 18.852,152.437 19.2,152.027L19.664,152.437C18.734,153.836 18.553,154.203 18.818,154.59L19.746,155.822L24.734,152.098C25.36,151.621 25.731,151.305 25.937,151.135C26.198,150.869 26.198,150.793 25.389,149.56L25.856,149.223L28.744,153.074L28.293,153.434Z" style="fill:rgb(13,94,171);fill-rule:nonzero;"/>
            <path d="M19.535,139.721C18.877,138.447 17.064,138 14.512,139.359C11.966,140.707 11.315,142.435 11.994,143.725C12.668,144.988 14.467,145.43 17.019,144.082C19.576,142.744 20.216,140.994 19.535,139.721ZM11.424,144.019C10.25,141.807 11.094,139.178 13.696,137.818C16.297,136.435 18.942,137.205 20.122,139.404C21.284,141.623 20.426,144.26 17.84,145.65C15.238,147.008 12.572,146.226 11.424,144.019Z" style="fill:rgb(13,94,171);fill-rule:nonzero;"/>
            <path d="M16.974,135.014C16.422,133.889 16.377,133.85 16.007,133.945C15.556,134.045 14.561,134.467 12.636,135.254C10.683,136.025 9.695,136.435 9.27,136.676C8.943,136.848 8.937,136.912 9.308,138.111L8.806,138.314L6.891,133.615C6.601,132.9 6.23,132.201 5.961,131.728C6.541,131.482 7.936,130.771 8.241,130.545L8.552,131.027C7.072,132.055 7.012,132.381 7.725,134.123L8.169,135.254C8.234,135.4 8.337,135.443 8.522,135.375L11.369,134.23C11.519,134.16 11.575,134.096 11.424,133.738L11.283,133.367C10.733,132.029 10.49,132.029 9.558,132.26L9.33,131.705C9.741,131.547 10.146,131.416 10.742,131.168C11.279,130.961 11.814,130.736 12.155,130.58L12.387,131.133C11.504,131.562 11.369,131.824 11.745,132.791L12.11,133.652C12.155,133.807 12.241,133.871 12.437,133.795L15.456,132.566C15.801,132.441 15.791,132.32 15.316,130.881L15.835,130.672L17.52,134.785L16.974,135.014Z" style="fill:rgb(13,94,171);fill-rule:nonzero;"/>
            <path d="M12.677,123.709C12.276,122.373 12.205,122.324 11.831,122.363C11.392,122.414 10.332,122.66 8.296,123.133C6.255,123.609 5.229,123.867 4.778,124.014C4.431,124.144 4.397,124.228 4.651,125.594L4.06,125.715L3,121.178L3.564,121.031C3.965,122.363 4.019,122.434 4.397,122.373C4.666,122.363 5.462,122.185 6.099,122.045L6.966,121.844C7.369,121.744 7.394,121.701 7.319,121.351L6.511,117.892C6.429,117.557 6.361,117.537 5.981,117.623L5.097,117.816C4.481,117.984 3.695,118.174 3.435,118.256C3.063,118.398 3.056,118.475 3.274,119.838L2.73,119.971L1.643,115.437L2.221,115.287C2.626,116.605 2.676,116.695 3.031,116.635C3.512,116.588 4.567,116.33 6.593,115.867C8.625,115.385 9.673,115.144 10.117,114.98C10.466,114.85 10.49,114.771 10.267,113.41L10.823,113.279L11.88,117.834L11.324,117.973C10.918,116.635 10.873,116.57 10.507,116.619C10.117,116.65 9.042,116.894 7.496,117.267C7.113,117.353 7.068,117.4 7.152,117.744L7.959,121.203C8.035,121.551 8.09,121.582 8.488,121.49C10.015,121.137 11.087,120.865 11.453,120.734C11.805,120.605 11.831,120.512 11.599,119.146L12.176,119.019L13.234,123.592L12.677,123.709Z" style="fill:rgb(13,94,171);fill-rule:nonzero;"/>
            <path d="M10.26,112.967C10.004,111.728 9.961,111.682 9.583,111.682C9.113,111.695 8.049,111.807 5.978,112.047C3.905,112.309 2.827,112.424 2.382,112.545C2.025,112.625 1.98,112.684 2.051,113.951L1.466,114.019L0.857,108.98C0.775,108.209 0.596,107.439 0.461,106.92C1.097,106.814 2.623,106.5 2.977,106.379L3.147,106.92C1.45,107.516 1.297,107.797 1.534,109.672L1.668,110.891C1.69,111.057 1.793,111.121 1.98,111.105L5.033,110.728C5.226,110.705 5.263,110.674 5.226,110.273L5.177,109.906C5.003,108.455 4.751,108.369 3.783,108.353L3.722,107.785C4.169,107.726 4.578,107.711 5.244,107.625C5.781,107.566 6.391,107.467 6.76,107.396L6.816,107.998C5.854,108.209 5.65,108.424 5.774,109.451L5.888,110.379C5.91,110.549 5.97,110.613 6.161,110.605L9.558,110.187C9.738,110.168 9.82,110.088 9.809,109.918L9.541,107.625C9.403,106.555 9.083,106.318 8.157,106.139L7.203,105.971L7.302,105.322C8.049,105.406 9.33,105.426 9.931,105.371L10.823,112.875L10.26,112.967Z" style="fill:rgb(13,94,171);fill-rule:nonzero;"/>
            <path d="M5.824,98.973C5.824,98.854 5.79,98.807 5.759,98.807C5.677,98.807 5.538,98.863 5.45,98.893L2.109,100.232L5.579,101.525C5.669,101.561 5.759,101.58 5.809,101.58C5.854,101.58 5.871,101.51 5.871,101.424L5.824,98.973ZM9.222,104.689C9.128,103.644 8.808,103.465 7.639,103.033L1.763,100.818C0.766,100.442 0.51,100.329 0.005,100.207L0,99.495C0.406,99.439 1.149,99.164 1.583,98.973L8.071,96.182C8.932,95.83 9.089,95.731 9.064,94.597L9.63,94.593L9.704,99.198L9.128,99.198C9.064,97.845 8.926,97.746 8.583,97.746C8.301,97.746 6.816,98.352 6.67,98.446C6.597,98.492 6.561,98.537 6.541,98.618C6.522,98.949 6.511,99.635 6.522,101.002C6.541,101.849 6.61,101.886 6.898,101.999C7.725,102.322 8.458,102.512 8.583,102.512C8.989,102.494 9.089,102.355 9.166,101.074L9.725,101.063L9.8,104.676L9.222,104.689Z" style="fill:rgb(13,94,171);fill-rule:nonzero;"/>
            <path d="M9.124,94.27C9.124,92.978 9.107,92.892 8.728,92.844C8.286,92.758 7.208,92.672 5.132,92.472C3.061,92.291 1.98,92.201 1.503,92.212C1.136,92.212 1.093,92.291 0.886,93.555L0.295,93.505L0.687,89.189L1.244,89.227C1.239,90.527 1.267,90.597 1.643,90.667C1.931,90.723 2.726,90.803 3.362,90.873L8.722,91.333C9.197,91.365 9.297,91.243 9.349,90.844L9.463,89.299C9.583,87.997 9.204,87.754 7.399,86.843L7.632,86.25C8.09,86.452 9.673,86.783 10.335,86.866L9.695,94.303L9.124,94.27Z" style="fill:rgb(13,94,171);fill-rule:nonzero;"/>
            <path d="M10.004,85.38C10.155,83.926 10.14,83.858 9.768,83.745C9.508,83.663 9.042,83.557 8.264,83.418L2.125,82.361L1.89,83.895C1.793,84.361 2.141,84.606 3.593,85.408L3.364,86.012C2.857,85.806 2.116,85.591 0.913,85.328C0.986,85.068 1.063,84.821 1.123,84.551C1.198,84.302 1.244,84.044 1.299,83.79L2.079,79.212C2.184,78.646 2.229,78.12 2.229,77.637C3.435,77.798 4.225,77.83 4.758,77.813L4.801,78.444C3.158,78.732 2.737,78.831 2.653,79.287L2.39,80.827L8.531,81.89C9.297,82.019 9.781,82.071 10.049,82.08C10.418,82.105 10.486,82.035 10.823,80.621L11.388,80.716L10.546,85.468L10.004,85.38Z" style="fill:rgb(13,94,171);fill-rule:nonzero;"/>
            <path d="M11.044,78.932C11.324,77.588 11.313,77.488 10.971,77.349C10.533,77.169 9.498,76.876 7.496,76.296C5.478,75.742 4.445,75.447 3.994,75.364C3.613,75.307 3.559,75.372 3.083,76.677L2.537,76.511L3.808,72.029L4.361,72.18C4.08,73.529 4.105,73.624 4.445,73.757C4.707,73.868 5.478,74.109 6.101,74.29L6.966,74.539C7.328,74.641 7.394,74.62 7.503,74.281L8.47,70.869C8.548,70.521 8.531,70.47 8.14,70.364L7.254,70.117C6.666,69.932 5.875,69.752 5.598,69.683C5.229,69.623 5.154,69.703 4.692,71.003L4.144,70.839L5.417,66.349L5.97,66.499C5.695,67.868 5.708,67.943 6.049,68.083C6.497,68.255 7.525,68.549 9.53,69.127C11.543,69.683 12.566,69.977 13.039,70.063C13.399,70.117 13.451,70.063 13.932,68.76L14.482,68.901L13.218,73.417L12.647,73.256C12.939,71.913 12.914,71.812 12.572,71.682C12.226,71.526 11.163,71.213 9.648,70.781C9.263,70.681 9.204,70.719 9.102,71.021L8.131,74.455C8.035,74.786 8.076,74.846 8.47,74.962C9.981,75.381 11.044,75.665 11.424,75.742C11.784,75.802 11.846,75.724 12.325,74.435L12.858,74.586L11.585,79.083L11.044,78.932Z" style="fill:rgb(13,94,171);fill-rule:nonzero;"/>
            <path d="M17.148,60.81C17.37,60.39 17.4,59.811 17.275,59.145C16.127,59.45 13.78,59.638 12.699,59.641C12.722,60.63 13.012,61.255 13.87,61.661C14.824,62.119 16.587,62.022 17.148,60.81ZM12.155,58.322C12.222,57.615 11.68,57.035 11.184,56.809C10.718,56.584 10.02,56.558 9.741,57.137C9.56,57.545 9.669,58.052 10.316,58.349C10.667,58.533 11.304,58.599 12.155,58.322ZM19.875,55.475C20.002,56.324 19.96,57.104 19.664,57.697C19.377,58.303 18.877,58.623 17.873,58.972C18.126,59.882 18.16,60.834 17.681,61.846C16.888,63.53 15.219,63.874 13.96,63.262C12.783,62.699 12.201,61.661 12.147,59.71C10.708,59.826 10.215,59.788 9.77,59.577C8.967,59.186 8.47,58.322 9.107,56.965C9.655,55.803 10.533,55.261 11.556,55.757C12.546,56.238 12.733,57.235 12.699,58.232C14.147,58.146 15.515,58.021 16.888,57.817C16.587,57.035 16.007,56.224 15.58,56.028C15.219,55.851 14.963,55.972 14.652,56.483L14.147,56.232L15.466,53.415L16.007,53.656C15.694,54.303 15.726,54.89 16.338,55.667C16.648,56.052 17.11,56.78 17.501,57.667C18.625,57.42 18.929,57.28 19.178,56.763C19.37,56.378 19.377,55.873 19.305,55.185L19.875,55.475Z" style="fill:rgb(13,94,171);fill-rule:nonzero;"/>
            <path d="M22.152,51.445C22.878,50.262 22.884,50.178 22.603,49.918C22.257,49.615 21.378,49.005 19.656,47.81C17.966,46.602 17.069,45.99 16.673,45.771C16.338,45.584 16.247,45.625 15.393,46.704L14.918,46.368L17.599,42.547L18.061,42.866C17.348,44.061 17.335,44.155 17.61,44.396C17.842,44.588 18.482,45.068 19.024,45.44L19.742,45.945C20.043,46.162 20.132,46.162 20.343,45.891L22.384,42.987C22.573,42.686 22.569,42.633 22.223,42.398L21.479,41.876C20.97,41.5 20.295,41.079 20.036,40.922C19.715,40.767 19.636,40.802 18.764,41.865L18.306,41.545L20.97,37.724L21.456,38.035C20.743,39.219 20.743,39.313 21.001,39.55C21.348,39.872 22.223,40.481 23.957,41.681C25.652,42.884 26.535,43.498 26.943,43.722C27.276,43.911 27.355,43.865 28.217,42.778L28.698,43.109L26.023,46.94L25.536,46.609C26.252,45.436 26.277,45.329 25.998,45.099C25.693,44.862 24.798,44.203 23.495,43.299C23.183,43.059 23.11,43.064 22.915,43.354L20.874,46.265C20.673,46.549 20.693,46.609 21.031,46.839C22.317,47.757 23.235,48.371 23.561,48.557C23.885,48.727 23.978,48.693 24.855,47.61L25.299,47.952L22.618,51.776L22.152,51.445Z" style="fill:rgb(13,94,171);fill-rule:nonzero;"/>
            <path d="M21.998,36.442L25.138,32.983L25.559,33.357C24.705,34.444 24.678,34.526 24.911,34.827C25.235,35.158 26.021,35.889 28.558,38.166C29.362,38.891 30.814,39.77 32.224,38.241C33.807,36.471 33.141,35.459 31.085,33.583C29.442,32.099 28.638,31.39 28.257,31.108C27.965,30.908 27.881,30.917 26.829,31.95L26.408,31.549L29.009,28.686L29.442,29.044C28.585,30.14 28.558,30.233 28.803,30.521C29.122,30.849 29.92,31.574 32.086,33.549C33.661,34.956 34.931,36.496 32.627,39.038C31.216,40.61 29.356,40.982 27.484,39.294C24.984,37.044 24.186,36.322 23.806,36.06C23.495,35.839 23.426,35.865 22.422,36.823L21.998,36.442Z" style="fill:rgb(13,94,171);fill-rule:nonzero;"/>
            <path d="M35.397,34.681C36.46,33.658 36.469,33.574 36.274,33.271C36.009,32.872 35.322,32.049 33.954,30.487C32.581,28.897 31.886,28.081 31.532,27.769C31.254,27.514 31.179,27.529 30.013,28.41L29.641,27.977L32.4,25.593C32.468,25.664 32.589,25.765 32.718,25.845L39.161,29.567L39.196,29.544L36.375,22.173L39.078,19.852L39.458,20.284C38.416,21.307 38.364,21.401 38.589,21.704C38.849,22.083 39.547,22.894 40.901,24.489C42.279,26.063 42.977,26.89 43.335,27.202C43.593,27.462 43.672,27.447 44.857,26.547L45.226,26.985L41.664,30.054L41.277,29.624C42.29,28.627 42.313,28.515 42.104,28.265L37.221,22.566L37.187,22.6L40.109,30.176C40.188,30.397 40.263,30.636 40.388,30.849L39.617,31.518C39.515,31.42 39.316,31.307 39.125,31.192L31.992,27.071L31.953,27.097L36.043,31.83C36.33,32.165 36.774,32.571 36.929,32.711C37.221,32.951 37.277,32.932 38.334,32.165L38.71,32.58L35.788,35.102L35.397,34.681Z" style="fill:rgb(13,94,171);fill-rule:nonzero;"/>
            <path d="M48.511,20.284C48.61,20.214 48.625,20.157 48.599,20.119C48.569,20.069 48.431,19.983 48.376,19.924L45.459,17.794L46.195,21.433C46.229,21.528 46.236,21.593 46.27,21.644C46.296,21.693 46.386,21.668 46.436,21.618L48.511,20.284ZM45.459,26.19C46.296,25.555 46.27,25.181 46.03,23.977L44.771,17.807C44.571,16.769 44.508,16.505 44.358,15.989L44.936,15.633C45.244,15.946 45.853,16.419 46.234,16.675L52.045,20.69C52.817,21.236 52.982,21.311 53.925,20.682L54.237,21.163L50.38,23.677L50.053,23.179C51.177,22.405 51.199,22.25 50.993,21.962C50.866,21.728 49.544,20.791 49.392,20.69C49.317,20.669 49.263,20.669 49.183,20.701C48.896,20.866 48.294,21.202 47.151,21.943C46.436,22.396 46.447,22.491 46.49,22.8C46.687,23.677 46.868,24.375 46.966,24.495C47.188,24.841 47.362,24.841 48.485,24.201L48.796,24.712L45.763,26.665L45.459,26.19Z" style="fill:rgb(13,94,171);fill-rule:nonzero;"/>
            <path d="M54.332,20.469C55.463,19.803 55.517,19.724 55.367,19.378C55.218,18.946 54.735,17.979 53.802,16.103C52.887,14.238 52.402,13.276 52.135,12.881C51.944,12.565 51.847,12.565 50.658,13.059L50.406,12.548L52.903,11.314C53.043,11.4 53.268,11.527 53.519,11.686L60.05,15.341L60.081,15.337L59.148,13.457C58.22,11.592 57.739,10.629 57.474,10.231C57.293,9.912 57.202,9.912 55.839,10.478L55.584,9.972L59.008,8.272L59.259,8.779C58.129,9.34 58.07,9.472 58.357,10.152C58.645,10.79 58.987,11.568 59.309,12.217C60.482,14.563 61.464,16.531 62.046,17.464L61.155,17.893C60.201,17.171 59.399,16.694 58.297,16.127L53.249,13.332L53.222,13.36L54.441,15.799C55.367,17.657 55.854,18.635 56.099,19.027C56.301,19.337 56.389,19.337 57.9,18.696L58.151,19.206L54.576,20.976L54.332,20.469Z" style="fill:rgb(13,94,171);fill-rule:nonzero;"/>
            <path d="M68.476,11.388C69.364,12.799 70.382,13.626 71.759,13.201C73.186,12.769 73.641,11.723 73.394,10.915C73.134,10.058 72.391,9.972 71.375,9.941L70.266,9.912C67.731,9.877 67.219,9.144 66.908,8.137C66.397,6.464 67.43,4.93 69.416,4.317C70.402,3.997 71.295,3.896 72.037,3.851C72.078,3.997 72.131,4.233 72.202,4.427C72.397,5.039 72.612,5.651 72.878,6.272L72.271,6.464C71.559,4.938 70.617,4.624 69.371,5.005C68.266,5.354 67.638,6.321 67.875,7.136C68.055,7.707 68.463,8.006 69.521,8.058L71.897,8.147C73.426,8.208 74.183,8.745 74.559,9.972C75.098,11.706 74.006,13.201 71.91,13.854C70.964,14.144 69.865,14.058 68.943,14.333C68.723,13.678 68.266,12.519 67.905,11.706L68.476,11.388Z" style="fill:rgb(13,94,171);fill-rule:nonzero;"/>
            <path d="M75.942,11.778C77.145,11.434 77.186,11.375 77.173,11.02C77.134,10.543 76.885,9.493 76.477,7.447C76.06,5.402 75.833,4.35 75.682,3.911C75.562,3.555 75.491,3.531 74.258,3.682L74.146,3.14L79.109,2.098C79.857,1.941 80.615,1.7 81.12,1.512C81.259,2.151 81.726,3.617 81.896,3.967L81.356,4.162C80.615,2.538 80.308,2.425 78.459,2.815L77.266,3.056C77.113,3.099 77.036,3.184 77.084,3.376L77.714,6.369C77.745,6.558 77.788,6.599 78.166,6.539L78.559,6.464C80.001,6.171 80.033,5.927 79.966,4.949L80.544,4.835C80.624,5.261 80.693,5.696 80.815,6.324C80.946,6.869 81.085,7.447 81.169,7.809L80.593,7.941C80.308,7.009 80.093,6.809 79.039,7.039L78.131,7.205C77.972,7.254 77.906,7.327 77.947,7.506L78.638,10.865C78.677,11.044 78.774,11.104 78.944,11.061L81.191,10.61C82.269,10.374 82.469,10.043 82.557,9.119L82.643,8.147L83.3,8.183C83.3,8.94 83.372,10.224 83.472,10.795L76.06,12.348L75.942,11.778Z" style="fill:rgb(13,94,171);fill-rule:nonzero;"/>
            <path d="M87.112,4.899C87.14,5.148 87.185,5.2 88.057,5.121C90.143,4.93 90.429,3.746 90.358,2.994C90.234,1.881 89.308,1.215 87.828,1.351C86.845,1.444 86.781,1.496 86.816,1.827L87.112,4.899ZM84.489,9.987C85.842,9.764 85.918,9.703 85.918,9.332C85.926,8.881 85.835,7.796 85.617,5.72C85.417,3.641 85.312,2.579 85.215,2.113C85.131,1.752 85.06,1.72 83.67,1.761L83.612,1.2L88.805,0.68C89.879,0.577 90.449,0.663 91.042,0.989C91.611,1.294 91.998,1.851 92.084,2.663C92.275,4.624 90.087,5.189 90.087,5.306C90.094,5.392 90.143,5.451 90.309,5.641L92.814,8.298C93.428,8.971 93.596,9.085 94.268,9.024L94.314,9.587L92.015,9.817L88.599,5.884C88.483,5.763 88.384,5.752 87.797,5.793C87.271,5.857 87.215,5.881 87.221,6.02C87.466,8.43 87.527,8.813 87.591,9.175C87.672,9.542 87.752,9.576 89.14,9.52L89.187,10.102L84.543,10.55L84.489,9.987Z" style="fill:rgb(13,94,171);fill-rule:nonzero;"/>
            <path d="M92.515,0.312L97.132,0.237L97.145,0.809L96.509,0.813C95.882,0.835 95.757,1.028 95.757,1.24C95.772,1.522 96.464,3.27 97.175,5.071L98.205,7.615L99.234,4.885C99.803,3.335 100.484,1.522 100.484,1.148C100.484,0.778 100.27,0.767 99.07,0.778L99.051,0.198L102.691,0.142L102.71,0.719L102.315,0.719C101.698,0.744 101.453,0.998 100.833,2.613C98.756,8.058 98.531,8.684 98.325,9.858L97.437,9.858C97.306,8.93 94.937,3.507 94.239,2.057C93.682,0.907 93.598,0.894 92.524,0.88L92.515,0.312Z" style="fill:rgb(13,94,171);fill-rule:nonzero;"/>
            <path d="M102.994,9.162C104.455,9.175 104.541,9.144 104.611,8.784C104.691,8.324 104.786,7.254 104.942,5.181C105.119,3.099 105.209,2.027 105.189,1.552C105.179,1.2 105.098,1.143 103.643,0.921L103.703,0.349L108.526,0.74L108.466,1.311C107.014,1.29 106.921,1.32 106.867,1.681C106.758,2.151 106.668,3.211 106.513,5.301C106.35,7.381 106.251,8.459 106.276,8.904C106.276,9.282 106.367,9.332 107.807,9.542L107.776,10.118L102.942,9.737L102.994,9.162Z" style="fill:rgb(13,94,171);fill-rule:nonzero;"/>
            <path d="M117.421,9.422C116.041,10.761 114.793,11.37 112.929,11.085C110.793,10.73 108.726,8.885 109.278,5.522C109.671,3.064 111.604,0.88 114.905,1.419C115.771,1.56 116.89,1.952 117.659,2.302C117.571,3.034 117.552,4.276 117.58,4.899L116.914,4.938C116.699,3.29 116.022,2.274 114.508,2.027C112.829,1.75 111.433,3.184 111.024,5.737C110.591,8.44 111.805,10.052 113.36,10.294C114.784,10.515 115.951,9.974 116.89,8.96L117.421,9.422Z" style="fill:rgb(13,94,171);fill-rule:nonzero;"/>
            <path d="M117.526,11.061C118.764,11.306 118.832,11.28 118.97,10.934C119.124,10.503 119.436,9.472 119.962,7.447C120.517,5.422 120.783,4.398 120.864,3.929C120.914,3.56 120.864,3.505 119.666,3.084L119.82,2.518L124.715,3.851C125.46,4.058 126.249,4.186 126.794,4.246C126.64,4.885 126.373,6.407 126.352,6.783L125.782,6.729C125.862,4.938 125.641,4.688 123.832,4.203L122.658,3.896C122.489,3.851 122.384,3.911 122.339,4.092L121.541,7.057C121.501,7.216 121.505,7.306 121.883,7.404L122.271,7.506C123.671,7.888 123.832,7.685 124.199,6.79L124.783,6.953C124.648,7.381 124.504,7.767 124.348,8.414C124.199,8.94 124.065,9.522 123.986,9.903L123.392,9.757C123.576,8.779 123.475,8.5 122.443,8.242L121.541,7.976C121.399,7.941 121.286,7.976 121.234,8.167L120.343,11.486C120.309,11.658 120.343,11.742 120.517,11.792L122.744,12.389C123.795,12.681 124.139,12.444 124.638,11.676L125.14,10.847L125.696,11.194C125.354,11.848 124.86,13.042 124.681,13.597L117.36,11.622L117.526,11.061Z" style="fill:rgb(13,94,171);fill-rule:nonzero;"/>
            <path d="M127.761,11.316C127.587,12.971 127.893,14.245 129.246,14.761C130.636,15.291 131.633,14.735 131.927,13.944C132.258,13.11 131.712,12.584 130.935,11.946L130.058,11.241C128.088,9.66 128.129,8.784 128.5,7.787C129.13,6.147 130.894,5.565 132.831,6.298C133.798,6.64 134.58,7.114 135.171,7.506C135.126,7.675 135.027,7.907 134.954,8.079C134.727,8.689 134.559,9.302 134.354,9.948L133.751,9.733C134.129,8.088 133.57,7.271 132.369,6.829C131.266,6.407 130.173,6.772 129.877,7.596C129.673,8.156 129.821,8.638 130.629,9.302L132.449,10.829C133.613,11.821 133.884,12.698 133.431,13.914C132.791,15.638 131.016,16.138 128.964,15.366C128.037,15.031 127.22,14.258 126.321,13.933C126.554,13.271 126.904,12.093 127.114,11.216L127.761,11.316Z" style="fill:rgb(13,94,171);fill-rule:nonzero;"/>
            <path d="M138.664,13.201C139.146,13.422 139.328,13.987 139.097,14.464C138.864,14.934 138.314,15.13 137.848,14.89C137.373,14.671 137.176,14.123 137.421,13.656C137.614,13.171 138.194,12.975 138.664,13.201Z" style="fill:rgb(13,94,171);fill-rule:nonzero;"/>
            <path d="M143.021,10.906L147.057,13.25L146.756,13.733C145.507,13.137 145.451,13.137 145.206,13.432C144.932,13.811 144.395,14.739 142.656,17.674C142.139,18.596 141.548,20.214 143.367,21.27C145.394,22.45 146.266,21.614 147.673,19.206C148.79,17.307 149.323,16.363 149.529,15.946C149.658,15.611 149.628,15.525 148.401,14.709L148.691,14.209L152.07,16.189L151.768,16.671C150.53,16.062 150.446,16.05 150.217,16.354C149.933,16.73 149.392,17.643 147.909,20.175C146.848,21.994 145.598,23.548 142.656,21.833C140.821,20.769 140.08,19.027 141.342,16.855C143.047,13.948 143.582,13.012 143.763,12.58C143.931,12.238 143.868,12.174 142.744,11.391L143.021,10.906Z" style="fill:rgb(13,94,171);fill-rule:nonzero;"/>
            <path d="M150.326,22.69C149.703,24.231 149.662,25.548 150.801,26.409C152.02,27.277 153.123,27.046 153.628,26.36C154.165,25.642 153.774,24.987 153.194,24.158L152.563,23.258C151.098,21.172 151.368,20.364 152.02,19.498C153.048,18.099 154.906,18.003 156.587,19.238C157.403,19.856 158.037,20.501 158.505,21.056C158.406,21.193 158.245,21.382 158.14,21.528C157.753,22.058 157.403,22.604 157.044,23.176L156.531,22.8C157.343,21.317 157.031,20.37 155.996,19.623C155.038,18.927 153.895,18.991 153.388,19.668C153.042,20.157 153.042,20.682 153.628,21.528L154.963,23.503C155.824,24.77 155.839,25.698 155.076,26.731C154.011,28.18 152.146,28.206 150.387,26.917C149.578,26.31 149.014,25.387 148.231,24.815C148.62,24.231 149.297,23.197 149.718,22.396L150.326,22.69Z" style="fill:rgb(13,94,171);fill-rule:nonzero;"/>
            <path d="M160.888,30.276C160.979,30.365 161.027,30.356 161.064,30.341C161.122,30.276 161.174,30.126 161.199,30.064L162.512,26.697L159.203,28.341C159.113,28.386 159.042,28.421 159.004,28.455C158.978,28.507 158.993,28.582 159.068,28.627L160.888,30.276ZM154.41,28.826C155.227,29.481 155.583,29.357 156.688,28.826L162.332,26.059C163.294,25.567 163.535,25.458 163.981,25.181L164.497,25.657C164.261,26.01 163.956,26.727 163.801,27.177L161.38,33.826C161.054,34.711 161.027,34.852 161.87,35.624L161.494,36.034L158.084,32.951L158.458,32.519C159.504,33.391 159.679,33.391 159.901,33.123C160.076,32.924 160.658,31.42 160.714,31.252C160.727,31.162 160.707,31.112 160.658,31.042C160.422,30.786 159.93,30.305 158.939,29.398C158.306,28.826 158.234,28.842 157.96,28.981C157.147,29.374 156.522,29.753 156.43,29.855C156.155,30.161 156.202,30.326 157.083,31.273L156.688,31.69L154.015,29.252L154.41,28.826Z" style="fill:rgb(13,94,171);fill-rule:nonzero;"/>
        </g>
    </g>
</svg>
