<svg xmlns="http://www.w3.org/2000/svg" xmlns:xlink="http://www.w3.org/1999/xlink" viewBox="0 0 522.24 522.83"><defs><style>.cls-1{fill:none;}.cls-2{fill:#d3b34e;}.cls-3{fill:url(#radial-gradient);}.cls-4{fill:url(#radial-gradient-2);}.cls-5{fill:url(#radial-gradient-3);}.cls-6{fill:url(#radial-gradient-4);}.cls-7{fill:url(#radial-gradient-5);}.cls-8{fill:url(#radial-gradient-6);}.cls-9{fill:url(#radial-gradient-7);}.cls-10{fill:url(#radial-gradient-8);}.cls-11{fill:url(#radial-gradient-9);}.cls-12{fill:url(#radial-gradient-10);}.cls-13{fill:url(#radial-gradient-11);}.cls-14{fill:url(#radial-gradient-12);}.cls-15{fill:url(#radial-gradient-13);}.cls-16{fill:url(#radial-gradient-14);}.cls-17{fill:url(#radial-gradient-15);}.cls-18{fill:url(#radial-gradient-16);}.cls-19{fill:url(#radial-gradient-17);}.cls-20{fill:url(#radial-gradient-18);}.cls-21{fill:url(#radial-gradient-19);}.cls-22{fill:url(#radial-gradient-20);}.cls-23{fill:url(#radial-gradient-21);}.cls-24{fill:url(#radial-gradient-22);}.cls-25{fill:url(#radial-gradient-23);}.cls-26{fill:url(#radial-gradient-24);}.cls-27{fill:url(#radial-gradient-25);}.cls-28{fill:url(#radial-gradient-26);}.cls-29{fill:url(#radial-gradient-27);}.cls-30{fill:url(#radial-gradient-28);}.cls-31{fill:url(#radial-gradient-29);}.cls-32{fill:url(#radial-gradient-30);}.cls-33{fill:url(#radial-gradient-31);}.cls-34{fill:url(#radial-gradient-32);}.cls-35{fill:url(#radial-gradient-33);}.cls-36{fill:url(#radial-gradient-34);}.cls-37{fill:url(#radial-gradient-35);}.cls-38{fill:url(#radial-gradient-36);}.cls-39{fill:url(#radial-gradient-37);}.cls-40{fill:url(#radial-gradient-38);}.cls-41{fill:url(#radial-gradient-39);}.cls-42{fill:url(#radial-gradient-40);}.cls-43{fill:url(#radial-gradient-41);}.cls-44{fill:url(#radial-gradient-42);}.cls-45{fill:url(#radial-gradient-43);}.cls-46{fill:url(#radial-gradient-44);}.cls-47{fill:url(#radial-gradient-45);}.cls-48{fill:url(#radial-gradient-46);}.cls-49{fill:url(#radial-gradient-47);}.cls-50{fill:url(#radial-gradient-48);}.cls-51{fill:url(#radial-gradient-49);}.cls-52{fill:url(#radial-gradient-50);}.cls-53{fill:url(#radial-gradient-51);}.cls-54{fill:url(#radial-gradient-52);}.cls-55{fill:url(#radial-gradient-53);}.cls-56{fill:url(#radial-gradient-54);}.cls-57{fill:url(#radial-gradient-55);}.cls-58{fill:url(#radial-gradient-56);}.cls-59{fill:url(#radial-gradient-57);}.cls-60{fill:url(#radial-gradient-58);}.cls-61{fill:url(#radial-gradient-59);}.cls-62{fill:url(#radial-gradient-60);}.cls-63{fill:url(#radial-gradient-61);}.cls-64{fill:url(#radial-gradient-62);}.cls-65{fill:url(#radial-gradient-63);}.cls-66{fill:url(#radial-gradient-64);}.cls-67{fill:url(#radial-gradient-65);}.cls-68{fill:url(#radial-gradient-66);}.cls-69{fill:url(#radial-gradient-67);}.cls-70{fill:url(#radial-gradient-68);}.cls-71{fill:url(#radial-gradient-69);}.cls-72{fill:url(#radial-gradient-70);}.cls-73{fill:url(#radial-gradient-71);}.cls-74{fill:url(#radial-gradient-72);}.cls-75{fill:url(#radial-gradient-73);}.cls-76{fill:url(#radial-gradient-74);}.cls-77{fill:url(#radial-gradient-75);}.cls-78{fill:url(#radial-gradient-76);}.cls-79{fill:url(#radial-gradient-77);}.cls-80{fill:url(#radial-gradient-78);}.cls-81{fill:url(#radial-gradient-79);}.cls-82{fill:url(#radial-gradient-80);}.cls-83{fill:url(#radial-gradient-81);}.cls-84{fill:url(#radial-gradient-82);}.cls-85{fill:url(#radial-gradient-83);}.cls-86{fill:url(#radial-gradient-84);}.cls-87{fill:url(#radial-gradient-85);}.cls-88{fill:url(#radial-gradient-86);}.cls-89{fill:url(#radial-gradient-87);}.cls-90{fill:url(#radial-gradient-88);}.cls-91{fill:url(#radial-gradient-89);}.cls-92{fill:url(#radial-gradient-90);}.cls-93{fill:url(#radial-gradient-91);}.cls-94{fill:url(#radial-gradient-92);}.cls-95{fill:url(#radial-gradient-93);}.cls-96{fill:url(#radial-gradient-94);}.cls-97{fill:url(#radial-gradient-95);}.cls-98{fill:url(#radial-gradient-96);}.cls-99{fill:url(#radial-gradient-97);}.cls-100{fill:url(#radial-gradient-98);}.cls-101{fill:url(#radial-gradient-99);}.cls-102{fill:url(#radial-gradient-100);}.cls-103{fill:url(#radial-gradient-101);}.cls-104{fill:url(#radial-gradient-102);}.cls-105{fill:url(#radial-gradient-103);}.cls-106{fill:url(#radial-gradient-104);}.cls-107{fill:url(#radial-gradient-105);}.cls-108{fill:url(#radial-gradient-106);}.cls-109{fill:url(#radial-gradient-107);}.cls-110{fill:url(#radial-gradient-108);}.cls-111{fill:url(#radial-gradient-109);}.cls-112{fill:url(#radial-gradient-110);}.cls-113{fill:url(#radial-gradient-111);}.cls-114{fill:url(#radial-gradient-112);}.cls-115{fill:url(#radial-gradient-113);}.cls-116,.cls-119{fill:#fff;}.cls-116{stroke:#c4a006;stroke-width:0.95px;}.cls-117{fill:#005699;}.cls-117,.cls-118{stroke:#dbe0ee;stroke-width:0.15px;}.cls-118{fill:#99add2;}.cls-119{stroke:#005699;stroke-width:2px;}</style><radialGradient id="radial-gradient" cx="107.26" cy="46.53" r="523.52" gradientUnits="userSpaceOnUse"><stop offset="0" stop-color="#e7d298"/><stop offset="1" stop-color="#c4a006"/></radialGradient><radialGradient id="radial-gradient-2" cx="107.25" cy="46.55" r="523.48" xlink:href="#radial-gradient"/><radialGradient id="radial-gradient-3" cx="107.25" cy="46.56" r="523.46" xlink:href="#radial-gradient"/><radialGradient id="radial-gradient-4" cx="107.25" cy="46.55" r="523.48" xlink:href="#radial-gradient"/><radialGradient id="radial-gradient-5" cx="107.26" cy="46.54" r="523.49" xlink:href="#radial-gradient"/><radialGradient id="radial-gradient-6" cx="107.25" cy="46.53" r="523.5" xlink:href="#radial-gradient"/><radialGradient id="radial-gradient-7" cx="107.25" cy="46.53" r="523.5" xlink:href="#radial-gradient"/><radialGradient id="radial-gradient-8" cx="107.27" cy="46.56" r="523.46" xlink:href="#radial-gradient"/><radialGradient id="radial-gradient-9" cx="107.25" cy="46.55" r="523.48" gradientUnits="userSpaceOnUse"><stop offset="0" stop-color="#efe0ba"/><stop offset="1" stop-color="#c4a006"/></radialGradient><radialGradient id="radial-gradient-10" cx="107.22" cy="46.54" r="523.51" xlink:href="#radial-gradient-9"/><radialGradient id="radial-gradient-11" cx="107.25" cy="46.55" r="523.48" xlink:href="#radial-gradient"/><radialGradient id="radial-gradient-12" cx="107.26" cy="46.55" r="523.48" xlink:href="#radial-gradient-9"/><radialGradient id="radial-gradient-13" cx="107.25" cy="46.56" r="523.46" xlink:href="#radial-gradient"/><radialGradient id="radial-gradient-14" cx="107.25" cy="46.55" r="523.48" xlink:href="#radial-gradient-9"/><radialGradient id="radial-gradient-15" cx="107.25" cy="46.56" r="523.46" xlink:href="#radial-gradient"/><radialGradient id="radial-gradient-16" cx="107.25" cy="46.55" r="523.48" xlink:href="#radial-gradient-9"/><radialGradient id="radial-gradient-17" cx="107.25" cy="46.55" r="523.49" xlink:href="#radial-gradient"/><radialGradient id="radial-gradient-18" cx="107.25" cy="46.55" r="523.49" xlink:href="#radial-gradient-9"/><radialGradient id="radial-gradient-19" cx="107.25" cy="46.55" r="523.48" xlink:href="#radial-gradient"/><radialGradient id="radial-gradient-20" cx="107.25" cy="46.55" r="523.48" xlink:href="#radial-gradient-9"/><radialGradient id="radial-gradient-21" cx="107.26" cy="46.61" r="523.37" xlink:href="#radial-gradient"/><radialGradient id="radial-gradient-22" cx="107.26" cy="46.61" r="523.4" xlink:href="#radial-gradient"/><radialGradient id="radial-gradient-23" cx="107.26" cy="46.61" r="523.39" xlink:href="#radial-gradient-9"/><radialGradient id="radial-gradient-24" cx="107.26" cy="46.53" r="523.49" xlink:href="#radial-gradient"/><radialGradient id="radial-gradient-25" cx="107.25" cy="46.55" r="523.48" xlink:href="#radial-gradient-9"/><radialGradient id="radial-gradient-26" cx="107.26" cy="46.47" r="523.56" xlink:href="#radial-gradient"/><radialGradient id="radial-gradient-27" cx="107.25" cy="46.49" r="523.55" xlink:href="#radial-gradient-9"/><radialGradient id="radial-gradient-28" cx="107.25" cy="46.53" r="523.5" xlink:href="#radial-gradient"/><radialGradient id="radial-gradient-29" cx="107.25" cy="46.55" r="523.48" xlink:href="#radial-gradient-9"/><radialGradient id="radial-gradient-30" cx="107.25" cy="46.53" r="523.5" xlink:href="#radial-gradient"/><radialGradient id="radial-gradient-31" cx="107.25" cy="46.55" r="523.48" xlink:href="#radial-gradient-9"/><radialGradient id="radial-gradient-32" cx="107.25" cy="46.53" r="523.5" xlink:href="#radial-gradient"/><radialGradient id="radial-gradient-33" cx="107.25" cy="46.55" r="523.48" xlink:href="#radial-gradient-9"/><radialGradient id="radial-gradient-34" cx="107.25" cy="46.53" r="523.5" xlink:href="#radial-gradient"/><radialGradient id="radial-gradient-35" cx="107.25" cy="46.55" r="523.48" xlink:href="#radial-gradient-9"/><radialGradient id="radial-gradient-36" cx="107.23" cy="46.56" r="523.49" xlink:href="#radial-gradient"/><radialGradient id="radial-gradient-37" cx="107.22" cy="46.55" r="523.51" xlink:href="#radial-gradient-9"/><radialGradient id="radial-gradient-38" cx="107.25" cy="46.55" r="523.49" xlink:href="#radial-gradient"/><radialGradient id="radial-gradient-39" cx="107.25" cy="46.54" r="523.49" xlink:href="#radial-gradient"/><radialGradient id="radial-gradient-40" cx="107.25" cy="46.54" r="523.5" xlink:href="#radial-gradient"/><radialGradient id="radial-gradient-41" cx="107.25" cy="46.55" r="523.48" xlink:href="#radial-gradient"/><radialGradient id="radial-gradient-42" cx="107.29" cy="46.56" r="523.44" xlink:href="#radial-gradient"/><radialGradient id="radial-gradient-43" cx="107.23" cy="46.54" r="523.5" xlink:href="#radial-gradient"/><radialGradient id="radial-gradient-44" cx="107.26" cy="46.54" r="523.46" xlink:href="#radial-gradient"/><radialGradient id="radial-gradient-45" cx="107.26" cy="46.54" r="523.48" xlink:href="#radial-gradient"/><radialGradient id="radial-gradient-46" cx="107.22" cy="46.52" r="523.57" xlink:href="#radial-gradient"/><radialGradient id="radial-gradient-47" cx="107.21" cy="46.52" r="523.59" xlink:href="#radial-gradient"/><radialGradient id="radial-gradient-48" cx="107.25" cy="46.55" r="523.48" xlink:href="#radial-gradient"/><radialGradient id="radial-gradient-49" cx="107.25" cy="46.55" r="523.5" xlink:href="#radial-gradient"/><radialGradient id="radial-gradient-50" cx="107.25" cy="46.55" r="523.47" xlink:href="#radial-gradient-9"/><radialGradient id="radial-gradient-51" cx="107.15" cy="46.57" r="523.5" xlink:href="#radial-gradient-9"/><radialGradient id="radial-gradient-52" cx="107.02" cy="46.56" r="523.83" xlink:href="#radial-gradient-9"/><radialGradient id="radial-gradient-53" cx="107.29" cy="46.56" r="523.34" xlink:href="#radial-gradient-9"/><radialGradient id="radial-gradient-54" cx="107.25" cy="46.55" r="523.48" xlink:href="#radial-gradient-9"/><radialGradient id="radial-gradient-55" cx="107.25" cy="46.55" r="523.48" xlink:href="#radial-gradient"/><radialGradient id="radial-gradient-56" cx="107.25" cy="46.55" r="523.48" xlink:href="#radial-gradient-9"/><radialGradient id="radial-gradient-57" cx="107.26" cy="46.55" r="523.48" xlink:href="#radial-gradient"/><radialGradient id="radial-gradient-58" cx="107.26" cy="46.55" r="523.47" xlink:href="#radial-gradient-9"/><radialGradient id="radial-gradient-59" cx="107.25" cy="46.54" r="523.49" xlink:href="#radial-gradient"/><radialGradient id="radial-gradient-60" cx="107.25" cy="46.55" r="523.48" xlink:href="#radial-gradient-9"/><radialGradient id="radial-gradient-61" cx="107.25" cy="46.54" r="523.49" xlink:href="#radial-gradient"/><radialGradient id="radial-gradient-62" cx="107.25" cy="46.55" r="523.48" xlink:href="#radial-gradient-9"/><radialGradient id="radial-gradient-63" cx="107.26" cy="46.54" r="523.5" xlink:href="#radial-gradient"/><radialGradient id="radial-gradient-64" cx="107.25" cy="46.55" r="523.48" xlink:href="#radial-gradient-9"/><radialGradient id="radial-gradient-65" cx="107.25" cy="46.54" r="523.5" xlink:href="#radial-gradient"/><radialGradient id="radial-gradient-66" cx="107.25" cy="46.55" r="523.48" xlink:href="#radial-gradient-9"/><radialGradient id="radial-gradient-67" cx="107.27" cy="46.54" r="523.48" xlink:href="#radial-gradient"/><radialGradient id="radial-gradient-68" cx="107.27" cy="46.54" r="523.48" xlink:href="#radial-gradient"/><radialGradient id="radial-gradient-69" cx="107.27" cy="46.55" r="523.47" xlink:href="#radial-gradient-9"/><radialGradient id="radial-gradient-70" cx="107.25" cy="46.53" r="523.52" xlink:href="#radial-gradient"/><radialGradient id="radial-gradient-71" cx="107.25" cy="46.55" r="523.48" xlink:href="#radial-gradient-9"/><radialGradient id="radial-gradient-72" cx="107.25" cy="46.53" r="523.53" xlink:href="#radial-gradient"/><radialGradient id="radial-gradient-73" cx="107.25" cy="46.55" r="523.49" xlink:href="#radial-gradient-9"/><radialGradient id="radial-gradient-74" cx="107.25" cy="46.55" r="523.48" xlink:href="#radial-gradient"/><radialGradient id="radial-gradient-75" cx="107.25" cy="46.55" r="523.48" xlink:href="#radial-gradient-9"/><radialGradient id="radial-gradient-76" cx="107.26" cy="46.51" r="523.56" xlink:href="#radial-gradient"/><radialGradient id="radial-gradient-77" cx="107.26" cy="46.53" r="523.52" xlink:href="#radial-gradient"/><radialGradient id="radial-gradient-78" cx="107.26" cy="46.53" r="523.52" xlink:href="#radial-gradient-9"/><radialGradient id="radial-gradient-79" cx="107.2" cy="46.56" r="523.53" xlink:href="#radial-gradient"/><radialGradient id="radial-gradient-80" cx="107.18" cy="46.55" r="523.55" xlink:href="#radial-gradient-9"/><radialGradient id="radial-gradient-81" cx="107.23" cy="46.55" r="523.51" xlink:href="#radial-gradient"/><radialGradient id="radial-gradient-82" cx="107.25" cy="46.55" r="523.48" xlink:href="#radial-gradient-9"/><radialGradient id="radial-gradient-83" cx="107.23" cy="46.54" r="523.51" xlink:href="#radial-gradient"/><radialGradient id="radial-gradient-84" cx="107.25" cy="46.55" r="523.49" xlink:href="#radial-gradient-9"/><radialGradient id="radial-gradient-85" cx="107.22" cy="46.54" r="523.53" xlink:href="#radial-gradient"/><radialGradient id="radial-gradient-86" cx="107.21" cy="46.55" r="523.55" xlink:href="#radial-gradient-9"/><radialGradient id="radial-gradient-87" cx="107.27" cy="46.54" r="523.46" xlink:href="#radial-gradient"/><radialGradient id="radial-gradient-88" cx="107.26" cy="46.55" r="523.47" xlink:href="#radial-gradient-9"/><radialGradient id="radial-gradient-89" cx="105.54" cy="46.57" r="526.79" xlink:href="#radial-gradient"/><radialGradient id="radial-gradient-90" cx="105.53" cy="46.57" r="526.79" xlink:href="#radial-gradient-9"/><radialGradient id="radial-gradient-91" cx="107.25" cy="46.54" r="523.49" xlink:href="#radial-gradient"/><radialGradient id="radial-gradient-92" cx="107.25" cy="46.55" r="523.48" xlink:href="#radial-gradient-9"/><radialGradient id="radial-gradient-93" cx="107.26" cy="46.54" r="523.48" xlink:href="#radial-gradient"/><radialGradient id="radial-gradient-94" cx="107.25" cy="46.55" r="523.48" xlink:href="#radial-gradient-9"/><radialGradient id="radial-gradient-95" cx="107.25" cy="46.53" r="523.49" xlink:href="#radial-gradient"/><radialGradient id="radial-gradient-96" cx="107.24" cy="46.53" r="523.51" xlink:href="#radial-gradient"/><radialGradient id="radial-gradient-97" cx="107.24" cy="46.54" r="523.51" xlink:href="#radial-gradient-9"/><radialGradient id="radial-gradient-98" cx="107.25" cy="46.55" r="523.5" xlink:href="#radial-gradient"/><radialGradient id="radial-gradient-99" cx="107.25" cy="46.55" r="523.48" xlink:href="#radial-gradient-9"/><radialGradient id="radial-gradient-100" cx="107.25" cy="46.54" r="523.49" xlink:href="#radial-gradient"/><radialGradient id="radial-gradient-101" cx="107.26" cy="46.55" r="523.47" xlink:href="#radial-gradient-9"/><radialGradient id="radial-gradient-102" cx="107.39" cy="46.54" r="523.23" xlink:href="#radial-gradient"/><radialGradient id="radial-gradient-103" cx="107.4" cy="46.55" r="523.21" xlink:href="#radial-gradient-9"/><radialGradient id="radial-gradient-104" cx="107.27" cy="46.54" r="523.47" xlink:href="#radial-gradient"/><radialGradient id="radial-gradient-105" cx="107.26" cy="46.54" r="523.49" xlink:href="#radial-gradient"/><radialGradient id="radial-gradient-106" cx="107.26" cy="46.54" r="523.46" xlink:href="#radial-gradient-9"/><radialGradient id="radial-gradient-107" cx="107.25" cy="46.54" r="523.51" xlink:href="#radial-gradient"/><radialGradient id="radial-gradient-108" cx="107.25" cy="46.55" r="523.48" xlink:href="#radial-gradient-9"/><radialGradient id="radial-gradient-109" cx="107.25" cy="46.55" r="523.51" xlink:href="#radial-gradient"/><radialGradient id="radial-gradient-110" cx="107.25" cy="46.55" r="523.48" xlink:href="#radial-gradient-9"/><radialGradient id="radial-gradient-111" cx="107.27" cy="46.55" r="523.41" xlink:href="#radial-gradient"/><radialGradient id="radial-gradient-112" cx="107.27" cy="46.55" r="523.43" xlink:href="#radial-gradient"/><radialGradient id="radial-gradient-113" cx="107.27" cy="46.55" r="523.41" xlink:href="#radial-gradient-9"/></defs><g id="Layer_2" data-name="Layer 2"><g id="Layer_1-2" data-name="Layer 1"><path class="cls-1" d="M348.82,431.15c1.76,5.45,3.12,12.48,8.75,14.9L361,447c7-1.83,13.17-5.76,18.95-9.5,5.85-4.75,13.38-10.95,15.15-17.9.19-5.16-3.86-8.54-7.62-11.61a199.26,199.26,0,0,0-42.46-22.82l-.71.47C343.38,401,346.51,415.88,348.82,431.15Z"/><path class="cls-1" d="M443.08,319.13c5.1,2.61,11,6.63,16.72,4.36l3.12-1.79c3.1-5.3,4.71-11.2,6-17,.06-.48.14-1,.18-1.44.79-7.68,2.2-18.47-1.76-25.13-3.5-3.78-8.77-3.31-13.6-2.83-1.84.32-3.67.68-5.5,1.05a285.63,285.63,0,0,1-30.75,23.36C425.5,306.72,434.37,312.72,443.08,319.13Z"/><path class="cls-1" d="M406.78,385c3.71,4.37,7.66,10.36,13.79,10.42l3.56-.45c5.39-4.08,9.4-9.56,13.09-14.88.11-.22.24-.42.36-.63,3.67-6.8,9.09-16.23,8-23.9-1.78-4.83-6.83-6.41-11.47-7.82a200.15,200.15,0,0,0-47.6-4.82c-.4.62-.8,1.24-1.22,1.85C390.23,359.24,398.81,371.81,406.78,385Z"/><path class="cls-1" d="M112.88,304.91c-4.43,4.18-8.42,9.11-12.72,13.93-1.39,4.67-9.54,9.07-4.16,14a145.75,145.75,0,0,0,34.76,1.83,149.44,149.44,0,0,1-11.54-26C117.09,307.45,115,306.19,112.88,304.91Z"/><path class="cls-1" d="M353.47,379c6.8,4,14.86,6.27,22.91,9.1,4.85-.51,12,5.33,14.56-1.53a145.15,145.15,0,0,0-11.85-33.3A150.67,150.67,0,0,1,353.47,379Z"/><path class="cls-1" d="M243.79,409.94c2,7.61,6.05,14.83,9.73,22.46,3.78,3.07,4.73,12.29,11.37,9.23A145.31,145.31,0,0,0,280,409.75a149.74,149.74,0,0,1-18.93,1.19A152.43,152.43,0,0,1,243.79,409.94Z"/><path class="cls-1" d="M143.74,354.05c-3.9,6.72-6.11,14.62-8.88,22.52.51,4.85-5.33,12,1.53,14.56a145.41,145.41,0,0,0,32.94-11.67A150.44,150.44,0,0,1,143.74,354.05Z"/><path class="cls-1" d="M202.68,443.12c-2.62,5.09-6.62,11-4.36,16.71l1.78,3.11c6.7,3.93,14.37,5.46,21.5,7,7.44.77,16.88,1.59,22.91-2,3.79-3.5,3.31-8.76,2.84-13.59a200.26,200.26,0,0,0-13.81-45.95l-2.09-.4C220.06,418.09,211.77,430.77,202.68,443.12Z"/><path class="cls-1" d="M71.12,276.22c-5.71-.48-12.73-1.9-17.11,2.37l-2.2,2.83c-1.15,8.37.75,16.72,2.12,24.43,2.07,6.74,4.88,14.47,10,18.26,4.69,2.16,9.37-.29,13.65-2.58a201.72,201.72,0,0,0,27.91-21.33,287.33,287.33,0,0,1-30.62-23.09Z"/><path class="cls-1" d="M91.4,348.12c-5.45,1.75-12.48,3.11-14.9,8.74l-.94,3.47c2,7.78,6.64,14.51,10.72,20.84,4.63,5.69,10.53,12.49,17.1,14.15,5.15.21,8.54-3.85,11.61-7.6a199.93,199.93,0,0,0,22.62-42c-.48-.7-1-1.41-1.42-2.12C121.13,342.76,106.43,345.83,91.4,348.12Z"/><path class="cls-1" d="M126.91,312.94a143.77,143.77,0,0,0,268.41,0,285.12,285.12,0,0,1-268.41,0Z"/><path class="cls-1" d="M277.23,451.71c-.48,5.7-1.91,12.72,2.37,17.1l2.83,2.2c7.27,1,14.53-.3,21.37-1.56,7.25-2.15,16.69-5,21-10.79,2.17-4.68-.3-9.37-2.58-13.64a200.79,200.79,0,0,0-30.41-37.24l-1.39.28C283.72,421.79,280.9,436.75,277.23,451.71Z"/><path class="cls-1" d="M138,407c-4.37,3.71-10.34,7.67-10.42,13.79l.45,3.55c4.93,6.51,11.87,11,18.12,15.33,6.25,3.33,13.79,6.87,20.12,5.95,4.84-1.79,6.42-6.82,7.81-11.47a198.93,198.93,0,0,0,4.83-47.81l-1.09-.71C163.5,390.59,151,399.08,138,407Z"/><path class="cls-1" d="M391.84,334c7.74,1.07,15.94.07,24.35-.4,4.28-2.32,13.16.33,12.86-7a147.1,147.1,0,0,0-19.12-22.11c-2.29,1.41-4.59,2.79-6.92,4.13A149,149,0,0,1,391.84,334Z"/><path class="cls-1" d="M188.16,416.22c2.33,4.29-.32,13.16,7,12.87a146,146,0,0,0,26.09-23.54,148.22,148.22,0,0,1-33.47-13.81C186.68,399.52,187.69,407.76,188.16,416.22Z"/><path class="cls-1" d="M319.54,422.38c4.68,1.4,9.08,9.55,14,4.18a145,145,0,0,0,1.81-35.34,148.53,148.53,0,0,1-33.46,14.08C306.65,411.61,313.21,416.73,319.54,422.38Z"/><path class="cls-2" d="M51.34,296.33c.37,1.74.78,3.5,1.31,5.25.4,1.34.83,2.78,1.28,4.27-1.37-7.71-3.27-16.06-2.12-24.43l2.2-2.83c4.38-4.27,11.4-2.85,17.11-2.37l3.71.89a287,287,0,0,1-37.52-39.3l-.42.95C28.13,252,14.53,255.35.06,254.88,0,259.14,0,264.25,0,267.79c16.22-.94,33,4.62,40.4,21.23q2.26,5.89,4.2,11.92c-.14-1.27-.3-2.55-.49-3.83Z"/><path class="cls-2" d="M81.15,374.46c1,1.46,2.06,2.92,3.21,4.34l1.92,2.37c-4.08-6.33-8.68-13.06-10.72-20.84l.94-3.47c2.42-5.63,9.45-7,14.9-8.74,15-2.29,29.73-5.36,44.79-4.52q-2.87-4.35-5.43-8.9A145.75,145.75,0,0,1,96,332.87c-5.38-5,2.77-9.36,4.16-14,4.3-4.82,8.29-9.75,12.72-13.93-2.51-1.53-5-3.11-7.43-4.71a201.72,201.72,0,0,1-27.91,21.33c-4.28,2.29-9,4.74-13.65,2.58-5.08-3.79-7.89-11.52-10-18.26.16.91.32,1.8.46,2.68l-7,2.06c-.82-3.26-1.76-6.47-2.78-9.65a191.19,191.19,0,0,1,.85,25.66c-3,15.63-14.31,23.9-27.87,29,1.58,4,3.53,8.69,4.89,12,14.63-7.08,32.22-8.35,45.45,4.15q4.68,4.92,9,10.13-1.06-2-2.2-3.9Z"/><path class="cls-3" d="M54.39,308.53c-.14-.88-.3-1.77-.46-2.68-.45-1.49-.88-2.93-1.28-4.27-.53-1.75-.94-3.51-1.31-5.25l-7.23.78c.19,1.28.35,2.56.49,3.83,1,3.18,2,6.39,2.78,9.65Z"/><path class="cls-2" d="M54.39,308.53c-.14-.88-.3-1.77-.46-2.68-.45-1.49-.88-2.93-1.28-4.27-.53-1.75-.94-3.51-1.31-5.25l-7.23.78c.19,1.28.35,2.56.49,3.83,1,3.18,2,6.39,2.78,9.65Z"/><path class="cls-2" d="M137.72,434.83c1.51,1,3,1.91,4.65,2.78,1.18.63,2.44,1.33,3.76,2-6.25-4.35-13.19-8.82-18.12-15.33l-.45-3.55c.08-6.12,6.05-10.08,10.42-13.79,13.06-7.89,25.52-16.38,39.82-21.37q-4.35-2.93-8.47-6.14a145.41,145.41,0,0,1-32.94,11.67c-6.86-2.52-1-9.71-1.53-14.56,2.77-7.9,5-15.8,8.88-22.52q-3.21-4.05-6.13-8.33a199.93,199.93,0,0,1-22.62,42c-3.07,3.75-6.46,7.81-11.61,7.6-6.57-1.66-12.47-8.46-17.1-14.15.7,1.08,1.38,2.16,2,3.22L82.63,389c-1.82-2.45-3.72-4.81-5.66-7.13A196.87,196.87,0,0,1,87.3,404.69c3.19,15.59-4.09,27.54-14.66,37.45,3,3.05,6.59,6.66,9.09,9.17,10.8-12.14,26.58-20,43.58-13.56q5.69,2.53,11.24,5.38-1.67-1.35-3.39-2.64Z"/><path class="cls-4" d="M88.32,384.39c-.66-1.06-1.34-2.14-2-3.22l-1.92-2.37c-1.15-1.42-2.21-2.88-3.21-4.34l-6.38,3.48q1.14,1.94,2.2,3.9c1.94,2.32,3.84,4.68,5.66,7.13Z"/><path class="cls-2" d="M88.32,384.39c-.66-1.06-1.34-2.14-2-3.22l-1.92-2.37c-1.15-1.42-2.21-2.88-3.21-4.34l-6.38,3.48q1.14,1.94,2.2,3.9c1.94,2.32,3.84,4.68,5.66,7.13Z"/><path class="cls-2" d="M214,468.9c1.76.32,3.53.61,5.35.8l2.21.23c-7.13-1.53-14.8-3.06-21.5-7l-1.78-3.11c-2.26-5.68,1.74-11.62,4.36-16.71,9.09-12.35,17.38-25,28.77-35.13q-5.17-1-10.21-2.44a146,146,0,0,1-26.09,23.54c-7.31.29-4.66-8.58-7-12.87-.47-8.46-1.48-16.7-.39-24.48q-4.53-2.57-8.88-5.43a198.93,198.93,0,0,1-4.83,47.81c-1.39,4.65-3,9.68-7.81,11.47-6.33.92-13.87-2.62-20.12-5.95,1,.68,1.94,1.35,2.87,2l-3.5,6.4c-2.94-1.76-5.93-3.39-8.95-4.94A193.26,193.26,0,0,1,155,460.4c8.92,13.18,6.78,27,.79,40.2,3.92,1.7,8.64,3.65,11.92,5,5.33-15.36,16.88-28.69,35.07-29.21,4.65.13,9.3.36,13.94.79q-2.33-.7-4.69-1.32Z"/><path class="cls-5" d="M149,441.67c-.93-.68-1.89-1.35-2.87-2-1.32-.7-2.58-1.4-3.76-2-1.62-.87-3.14-1.81-4.65-2.78l-4.56,5.66q1.72,1.29,3.39,2.64c3,1.55,6,3.18,8.95,4.94Z"/><path class="cls-2" d="M149,441.67c-.93-.68-1.89-1.35-2.87-2-1.32-.7-2.58-1.4-3.76-2-1.62-.87-3.14-1.81-4.65-2.78l-4.56,5.66q1.72,1.29,3.39,2.64c3,1.55,6,3.18,8.95,4.94Z"/><path class="cls-2" d="M297,471.21c1.75-.37,3.5-.78,5.26-1.31l1.51-.45C297,470.71,289.7,472,282.43,471l-2.83-2.2c-4.28-4.38-2.85-11.4-2.37-17.1,3.67-15,6.49-29.92,13.21-43.65q-5.15,1-10.4,1.69a145.31,145.31,0,0,1-15.15,31.88c-6.64,3.06-7.59-6.16-11.37-9.23-3.68-7.63-7.76-14.85-9.73-22.46q-5.17-.6-10.25-1.55a200.26,200.26,0,0,1,13.81,45.95c.47,4.83,1,10.09-2.84,13.59-6,3.59-15.47,2.77-22.91,2,1.55.33,3.06.67,4.54,1l-.78,7.26c-2.89-.43-5.78-.76-8.67-1a194.62,194.62,0,0,1,23.07,8.73c13.28,8.77,16.59,22.37,16.12,36.85,4.27.06,9.38.06,12.92.06-.95-16.23,4.62-33,21.22-40.41,4.4-1.68,8.83-3.23,13.33-4.63-1.84.18-3.69.39-5.54.65Z"/><path class="cls-6" d="M226.14,471c-1.48-.35-3-.69-4.54-1l-2.21-.23c-1.82-.19-3.59-.48-5.35-.8l-2,7q2.37.61,4.69,1.32c2.89.26,5.78.59,8.67,1Z"/><path class="cls-2" d="M226.14,471c-1.48-.35-3-.69-4.54-1l-2.21-.23c-1.82-.19-3.59-.48-5.35-.8l-2,7q2.37.61,4.69,1.32c2.89.26,5.78.59,8.67,1Z"/><path class="cls-2" d="M374.27,441.83c1.46-1,2.93-2.06,4.34-3.22L380,437.5c-5.78,3.74-11.93,7.67-18.95,9.5l-3.47-.95c-5.63-2.42-7-9.45-8.75-14.9-2.31-15.27-5.44-30.19-4.47-45.51-2.92,2-5.91,3.83-9,5.58a145,145,0,0,1-1.81,35.34c-4.95,5.37-9.35-2.78-14-4.18-6.33-5.65-12.89-10.77-17.62-17.08q-5,1.41-10.09,2.48A200.79,200.79,0,0,1,322.24,445c2.28,4.27,4.75,9,2.58,13.64-4.33,5.79-13.77,8.64-21,10.79,2-.36,3.88-.72,5.75-1l2.05,7c-2.78.7-5.52,1.5-8.25,2.35a200.25,200.25,0,0,1,24-.69c15.62,3,23.88,14.31,29,27.88,4-1.58,8.69-3.55,11.95-4.9-7.07-14.63-8.34-32.22,4.15-45.46,3.35-3.16,6.78-6.23,10.33-9.19-1.67.89-3.34,1.81-5,2.78Z"/><path class="cls-7" d="M309.55,468.43c-1.87.3-3.79.66-5.75,1l-1.51.45c-1.76.53-3.51.94-5.26,1.31l.78,7.23c1.85-.26,3.7-.47,5.54-.65,2.73-.85,5.47-1.65,8.25-2.35Z"/><path class="cls-2" d="M309.55,468.43c-1.87.3-3.79.66-5.75,1l-1.51.45c-1.76.53-3.51.94-5.26,1.31l.78,7.23c1.85-.26,3.7-.47,5.54-.65,2.73-.85,5.47-1.65,8.25-2.35Z"/><path class="cls-2" d="M434.8,384.09c.83-1.31,1.64-2.64,2.42-4-3.69,5.32-7.7,10.8-13.09,14.88l-3.56.45c-6.13-.06-10.08-6.05-13.79-10.42-8-13.18-16.55-25.75-21.51-40.23q-2.94,4.38-6.18,8.53a145.15,145.15,0,0,1,11.85,33.3c-2.52,6.86-9.71,1-14.56,1.53-8.05-2.83-16.11-5.06-22.91-9.1q-4.1,3.21-8.41,6.15A199.26,199.26,0,0,1,387.52,408c3.76,3.07,7.81,6.45,7.62,11.61-1.77,6.95-9.3,13.15-15.15,17.9,1.73-1.13,3.43-2.23,5.11-3.26l4.57,5.69c-2.38,1.77-4.67,3.62-6.93,5.5a198.79,198.79,0,0,1,21.76-9.75c15.58-3.19,27.54,4.08,37.45,14.66,3.05-3,6.67-6.6,9.18-9.1-12.15-10.8-20.05-26.57-13.57-43.58,2.12-4.73,4.37-9.4,6.83-14-1.35,1.62-2.67,3.26-3.95,4.95Z"/><path class="cls-8" d="M385.1,434.24c-1.68,1-3.38,2.13-5.11,3.26l-1.38,1.11c-1.41,1.16-2.88,2.22-4.34,3.22l3.49,6.38c1.64-1,3.31-1.89,5-2.78,2.26-1.88,4.55-3.73,6.93-5.5Z"/><path class="cls-2" d="M385.1,434.24c-1.68,1-3.38,2.13-5.11,3.26l-1.38,1.11c-1.41,1.16-2.88,2.22-4.34,3.22l3.49,6.38c1.64-1,3.31-1.89,5-2.78,2.26-1.88,4.55-3.73,6.93-5.5Z"/><path class="cls-2" d="M468.31,308.63c.24-1.28.44-2.59.61-3.9-1.29,5.77-2.9,11.67-6,17l-3.12,1.79c-5.68,2.27-11.62-1.75-16.72-4.36-8.71-6.41-17.58-12.41-25.59-19.39-2.5,1.64-5,3.25-7.56,4.81a147.1,147.1,0,0,1,19.12,22.11c.3,7.31-8.58,4.66-12.86,7-8.41.47-16.61,1.47-24.35.4q-2.52,4.54-5.35,8.87a200.15,200.15,0,0,1,47.6,4.82c4.64,1.41,9.69,3,11.47,7.82,1.11,7.67-4.31,17.1-8,23.9-.12.21-.25.41-.36.63,1.44-2.1,2.84-4.16,4.26-6.11l6.4,3.5c-1.22,2-2.37,4.12-3.49,6.21a201.87,201.87,0,0,1,16-16.85c13.18-8.91,27-6.77,40.2-.8,1.68-3.92,3.64-8.62,5-11.92-15.35-5.31-28.68-16.87-29.22-35.05.15-5.11.42-10.22.93-15.32-.72,2.28-1.4,4.6-2,6.94Z"/><path class="cls-9" d="M441.48,374c-1.42,1.95-2.82,4-4.26,6.11-.78,1.37-1.59,2.7-2.42,4l5.64,4.54c1.28-1.69,2.6-3.33,3.95-4.95,1.12-2.09,2.27-4.16,3.49-6.21Z"/><path class="cls-2" d="M441.48,374c-1.42,1.95-2.82,4-4.26,6.11-.78,1.37-1.59,2.7-2.42,4l5.64,4.54c1.28-1.69,2.6-3.33,3.95-4.95,1.12-2.09,2.27-4.16,3.49-6.21Z"/><path class="cls-2" d="M484.78,238a287.16,287.16,0,0,1-36.54,38.39c1.83-.37,3.66-.73,5.5-1.05,4.83-.48,10.1-.95,13.6,2.83,4,6.66,2.55,17.45,1.76,25.13,0,.48-.12,1-.18,1.44.7-3.1,1.3-6.16,2-9.06l7.25.78c-.36,2.43-.65,4.86-.89,7.29a202.49,202.49,0,0,1,8.06-20.82c8.76-13.28,22.35-16.6,36.83-16.12.07-4.27.07-9.38.07-12.93C507.89,254.72,493.16,250.45,484.78,238Z"/><path class="cls-10" d="M470.92,295.67c-.7,2.9-1.3,6-2,9.06-.17,1.31-.37,2.62-.61,3.9l7,2.05c.6-2.34,1.28-4.66,2-6.94.24-2.43.53-4.86.89-7.29Z"/><path class="cls-2" d="M470.92,295.67c-.7,2.9-1.3,6-2,9.06-.17,1.31-.37,2.62-.61,3.9l7,2.05c.6-2.34,1.28-4.66,2-6.94.24-2.43.53-4.86.89-7.29Z"/><path class="cls-11" d="M395.32,312.94a143.77,143.77,0,0,1-268.41,0c-2.58-1.39-5.15-2.8-7.69-4.26a149.44,149.44,0,0,0,11.54,26c.68-.05,1.35-.08,2-.14l-.61-1.2a3.48,3.48,0,0,1,.43.22,25.81,25.81,0,0,0,5,10.09l-1.41-.07c.47.71.94,1.42,1.42,2.12l.51-1.26a3.35,3.35,0,0,0-.45-.93l.48-.25a25.14,25.14,0,0,0,6.28,9.93.46.46,0,0,0,.07.07.1.1,0,0,1,0,0c-.08-.07-.16-.16-.24-.22-.18.31-.35.64-.53.95a150.44,150.44,0,0,0,25.59,25.41c.56-.29,1.13-.55,1.7-.84l-1-.89.48,0a29.26,29.26,0,0,0,2.39,2.84,27.23,27.23,0,0,0,5.62,4.3c-.13-.11-.26-.2-.38-.29l.34-.41a25.09,25.09,0,0,0,9.6,6.76l.09,0,0,0-.3-.09c0,.26-.06.53-.1.8a148.22,148.22,0,0,0,33.47,13.81l1.12-1.28-1.28-.43c.15,0,.3-.11.45-.14a26.15,26.15,0,0,0,10.68,3.61c-.25.23-.5.46-.76.68l2.09.4c-.14-.32-.27-.66-.42-1-.34-.19,10.56,1.74,10.45,1.74.07.27.15.52.22.79a152.43,152.43,0,0,0,17.32,1A149.74,149.74,0,0,0,280,409.75c.16-.49.33-1,.49-1.47,0,0,8-.31,10.27-1-.13.25-.24.5-.36.75l1.39-.28c-.24-.23-.46-.46-.7-.68a3.05,3.05,0,0,0-1,.06l-.07-.54a25.21,25.21,0,0,0,11.58-2s.05,0,.09,0h0c-.09.05-.21.09-.29.14.14.2.31.39.46.58a148.53,148.53,0,0,0,33.46-14.08c0-.48-.06-1-.1-1.45l-1.22.6c.08-.14.14-.29.23-.43a28.24,28.24,0,0,0,3.53-1.13,26.8,26.8,0,0,0,6.57-3.87c0,.24,0,.47,0,.7l.71-.47-.79-.32a3.57,3.57,0,0,0-.92.44l-.26-.47a25.1,25.1,0,0,0,9.92-6.26.44.44,0,0,0,.07-.09h0a2.12,2.12,0,0,0-.2.24l.55.31a150.67,150.67,0,0,0,25.62-25.73c-.22-.45-.43-.9-.66-1.34l-.89,1c0-.16,0-.32,0-.48a28.06,28.06,0,0,0,2.82-2.4A27,27,0,0,0,385,344c.08.26.18.51.26.76.42-.61.82-1.23,1.22-1.85h-1.22a3.88,3.88,0,0,0-.68.75l-.42-.33a25.18,25.18,0,0,0,6.77-9.59.38.38,0,0,0,0-.1l0,0-.11.3c.31.05.63.07.94.11A149,149,0,0,0,403,308.68C400.47,310.14,397.9,311.56,395.32,312.94Z"/><path class="cls-12" d="M178.82,385.24l-1,.36,1.09.71c0-.33,0-.66,0-1Z"/><path class="cls-13" d="M133.75,337.12a27.37,27.37,0,0,1-1.14-3.54,3.48,3.48,0,0,0-.43-.22l.61,1.2c-.68.06-1.35.09-2,.14q2.56,4.55,5.43,8.9l1.41.07A27.13,27.13,0,0,1,133.75,337.12Z"/><path class="cls-14" d="M133.75,337.12a27.37,27.37,0,0,1-1.14-3.54,3.48,3.48,0,0,0-.43-.22l.61,1.2c-.68.06-1.35.09-2,.14q2.56,4.55,5.43,8.9l1.41.07A27.13,27.13,0,0,1,133.75,337.12Z"/><path class="cls-15" d="M178.5,384.91a27.23,27.23,0,0,1-5.62-4.3,29.26,29.26,0,0,1-2.39-2.84l-.48,0,1,.89c-.57.29-1.14.55-1.7.84q4.13,3.21,8.47,6.14l1-.36C178.71,385.12,178.61,385,178.5,384.91Z"/><path class="cls-16" d="M178.5,384.91a27.23,27.23,0,0,1-5.62-4.3,29.26,29.26,0,0,1-2.39-2.84l-.48,0,1,.89c-.57.29-1.14.55-1.7.84q4.13,3.21,8.47,6.14l1-.36C178.71,385.12,178.61,385,178.5,384.91Z"/><path class="cls-17" d="M144.51,353.32a.1.1,0,0,0,0,0,.46.46,0,0,1-.07-.07,25.14,25.14,0,0,1-6.28-9.93l-.48.25a3.35,3.35,0,0,1,.45.93l-.51,1.26q2.92,4.27,6.13,8.33c.18-.31.35-.64.53-.95C144.35,353.16,144.43,353.25,144.51,353.32Z"/><path class="cls-18" d="M144.51,353.32a.1.1,0,0,0,0,0,.46.46,0,0,1-.07-.07,25.14,25.14,0,0,1-6.28-9.93l-.48.25a3.35,3.35,0,0,1,.45.93l-.51,1.26q2.92,4.27,6.13,8.33c.18-.31.35-.64.53-.95C144.35,353.16,144.43,353.25,144.51,353.32Z"/><path class="cls-19" d="M224.84,405.39a27,27,0,0,1-3.31-1.69c-.15,0-.3.1-.45.14l1.28.43-1.12,1.28q5,1.4,10.21,2.44c.26-.22.51-.45.76-.68A27.08,27.08,0,0,1,224.84,405.39Z"/><path class="cls-20" d="M224.84,405.39a27,27,0,0,1-3.31-1.69c-.15,0-.3.1-.45.14l1.28.43-1.12,1.28q5,1.4,10.21,2.44c.26-.22.51-.45.76-.68A27.08,27.08,0,0,1,224.84,405.39Z"/><path class="cls-21" d="M188.17,391l0,0-.09,0a25.09,25.09,0,0,1-9.6-6.76l-.34.41c.12.09.25.18.38.29l.46.28-.14.05.06.07c0,.34,0,.67,0,1q4.35,2.87,8.88,5.43c0-.27.06-.54.1-.8Z"/><path class="cls-22" d="M188.17,391l0,0-.09,0a25.09,25.09,0,0,1-9.6-6.76l-.34.41c.12.09.25.18.38.29l.46.28-.14.05.06.07c0,.34,0,.67,0,1q4.35,2.87,8.88,5.43c0-.27.06-.54.1-.8Z"/><path class="cls-23" d="M178.82,385.24l.14-.05-.46-.28C178.61,385,178.71,385.12,178.82,385.24Z"/><path class="cls-24" d="M178.82,385.24l.14-.05-.46-.28C178.61,385,178.71,385.12,178.82,385.24Z"/><path class="cls-25" d="M178.82,385.24l.14-.05-.46-.28C178.61,385,178.71,385.12,178.82,385.24Z"/><path class="cls-26" d="M280.53,408.28c-.16.5-.33,1-.49,1.47q5.25-.66,10.4-1.69c.12-.25.23-.5.36-.75C288.52,408,280.53,408.28,280.53,408.28Z"/><path class="cls-27" d="M280.53,408.28c-.16.5-.33,1-.49,1.47q5.25-.66,10.4-1.69c.12-.25.23-.5.36-.75C288.52,408,280.53,408.28,280.53,408.28Z"/><path class="cls-28" d="M233.12,407.41c.15.32.28.66.42,1q5.07.94,10.25,1.55c-.07-.27-.15-.52-.22-.79C243.68,409.15,232.78,407.22,233.12,407.41Z"/><path class="cls-29" d="M233.12,407.41c.15.32.28.66.42,1q5.07.94,10.25,1.55c-.07-.27-.15-.52-.22-.79C243.68,409.15,232.78,407.22,233.12,407.41Z"/><path class="cls-30" d="M337.82,388.81a28.24,28.24,0,0,1-3.53,1.13c-.09.14-.15.29-.23.43l1.22-.6c0,.49.06,1,.1,1.45,3.06-1.75,6.05-3.62,9-5.58,0-.23,0-.46,0-.7A26.8,26.8,0,0,1,337.82,388.81Z"/><path class="cls-31" d="M337.82,388.81a28.24,28.24,0,0,1-3.53,1.13c-.09.14-.15.29-.23.43l1.22-.6c0,.49.06,1,.1,1.45,3.06-1.75,6.05-3.62,9-5.58,0-.23,0-.46,0-.7A26.8,26.8,0,0,1,337.82,388.81Z"/><path class="cls-32" d="M301.75,404.58h0s0,0-.09,0a25.21,25.21,0,0,1-11.58,2l.07.54a3.05,3.05,0,0,1,1-.06c.24.22.46.45.7.68q5.1-1.06,10.09-2.48c-.15-.19-.32-.38-.46-.58C301.54,404.67,301.66,404.63,301.75,404.58Z"/><path class="cls-33" d="M301.75,404.58h0s0,0-.09,0a25.21,25.21,0,0,1-11.58,2l.07.54a3.05,3.05,0,0,1,1-.06c.24.22.46.45.7.68q5.1-1.06,10.09-2.48c-.15-.19-.32-.38-.46-.58C301.54,404.67,301.66,404.63,301.75,404.58Z"/><path class="cls-34" d="M380.41,350.09a28.06,28.06,0,0,1-2.82,2.4c0,.16,0,.32,0,.48l.89-1c.23.44.44.89.66,1.34q3.24-4.16,6.18-8.53c-.08-.25-.18-.5-.26-.76A27,27,0,0,1,380.41,350.09Z"/><path class="cls-35" d="M380.41,350.09a28.06,28.06,0,0,1-2.82,2.4c0,.16,0,.32,0,.48l.89-1c.23.44.44.89.66,1.34q3.24-4.16,6.18-8.53c-.08-.25-.18-.5-.26-.76A27,27,0,0,1,380.41,350.09Z"/><path class="cls-36" d="M353.12,378.47h0a.44.44,0,0,1-.07.09,25.1,25.1,0,0,1-9.92,6.26l.26.47a3.57,3.57,0,0,1,.92-.44l.79.32q4.32-2.94,8.41-6.15l-.55-.31A2.12,2.12,0,0,1,353.12,378.47Z"/><path class="cls-37" d="M353.12,378.47h0a.44.44,0,0,1-.07.09,25.1,25.1,0,0,1-9.92,6.26l.26.47a3.57,3.57,0,0,1,.92-.44l.79.32q4.32-2.94,8.41-6.15l-.55-.31A2.12,2.12,0,0,1,353.12,378.47Z"/><path class="cls-38" d="M391,333.63l0,0a.38.38,0,0,1,0,.1,25.18,25.18,0,0,1-6.77,9.59l.42.33a3.88,3.88,0,0,1,.68-.75h1.22q2.82-4.34,5.35-8.87c-.31,0-.63-.06-.94-.11Z"/><path class="cls-39" d="M391,333.63l0,0a.38.38,0,0,1,0,.1,25.18,25.18,0,0,1-6.77,9.59l.42.33a3.88,3.88,0,0,1,.68-.75h1.22q2.82-4.34,5.35-8.87c-.31,0-.63-.06-.94-.11Z"/><path class="cls-1" d="M106.31,187.71c-4.28,2.32-13.16-.32-12.85,7a144.88,144.88,0,0,0,23.68,26.25,148.63,148.63,0,0,1,14-33.57C123.29,186.19,114.92,187.23,106.31,187.71Z"/><path class="cls-1" d="M386,131.11a145,145,0,0,0-33.51,12,150.11,150.11,0,0,1,25.9,25.6c4.07-6.83,6.3-14.92,9.13-23C387,140.81,392.87,133.64,386,131.11Z"/><path class="cls-1" d="M394.84,101.49l-.46-3.56C388.92,90.71,381,86,374.25,81.18c-5.75-2.92-12.26-5.57-17.83-4.76-4.84,1.79-6.42,6.83-7.82,11.48a199.49,199.49,0,0,0-4.81,48.8c0,.07.1.11.15.17,14.59-4.94,27.22-13.59,40.48-21.6C388.8,111.56,394.77,107.61,394.84,101.49Z"/><path class="cls-1" d="M117,301.4a52.35,52.35,0,0,0-4.12,3.51c2.09,1.28,4.21,2.54,6.34,3.77Q118,305.08,117,301.4Z"/><path class="cls-1" d="M334.51,131s0,0,0,0l.29.11c1.29-8,.2-16.54-.28-25.29-2.33-4.29.32-13.16-7-12.86a145.07,145.07,0,0,0-26.77,24.28,148.9,148.9,0,0,1,41.45,18.56,26.13,26.13,0,0,0-7.61-4.73A.21.21,0,0,0,334.51,131Z"/><path class="cls-1" d="M421.83,203.16c1.38-4.67,9.54-9.06,4.16-14a146,146,0,0,0-35-1.82,148.44,148.44,0,0,1,14,33.28C411.19,215.87,416.24,209.41,421.83,203.16Z"/><path class="cls-1" d="M458.1,197.89c-4.69-2.15-9.38.29-13.65,2.59a199.71,199.71,0,0,0-37,30.17c.12.58.24,1.16.35,1.75,13.64,6.6,28.47,9.4,43.28,13.06,5.73.46,12.74,1.89,17.12-2.38l2.19-2.84c1-7.34-.32-14.67-1.59-21.57C466.68,211.45,463.82,202.17,458.1,197.89Z"/><path class="cls-1" d="M430.59,173.89c5.45-1.76,12.48-3.12,14.9-8.74l.95-3.47c-2.16-8.28-7.23-15.34-11.48-22-4.44-5.35-9.91-11.22-15.94-12.75-5.15-.19-8.55,3.86-11.61,7.61a200,200,0,0,0-22.83,42.53l.91,1.34C400.65,179.28,415.45,176.19,430.59,173.89Z"/><path class="cls-1" d="M131.15,136.51A145.1,145.1,0,0,0,143,169.77,150.38,150.38,0,0,1,168.51,144c-6.79-4-14.8-6.22-22.81-9C140.86,135.49,133.67,129.65,131.15,136.51Z"/><path class="cls-1" d="M203.72,100.08c-4.67-1.38-9.08-9.53-14-4.16a145,145,0,0,0-1.8,35.11,149,149,0,0,1,33.52-13.8C216.66,110.9,210.08,105.76,203.72,100.08Z"/><path class="cls-1" d="M115.29,138.1c-3.7-4.37-7.65-10.34-13.77-10.42l-3.56.45c-6.6,5-11.11,12.06-15.51,18.39-3.19,6.08-6.39,13.23-5.51,19.28,1.78,4.83,6.83,6.41,11.48,7.81a199.78,199.78,0,0,0,48.29,4.83l.09-.14C131.84,163.84,123.26,151.27,115.29,138.1Z"/><path class="cls-1" d="M174.43,91.32c-1.74-5.46-3.12-12.48-8.73-14.9l-3.46-.93c-7.87,2-14.63,6.7-21,10.81C135.52,91,128.62,96.89,127,103.5c-.21,5.15,3.86,8.54,7.61,11.62a201.31,201.31,0,0,0,42.31,22.75c.68-.47,1.37-.92,2.06-1.38C179.84,121.3,176.74,106.48,174.43,91.32Z"/><path class="cls-1" d="M403,308.68c2.33-1.34,4.63-2.72,6.92-4.13q-2.18-2.06-4.46-4C404.72,303.27,403.91,306,403,308.68Z"/><path class="cls-1" d="M246.18,71.13c.47-5.72,1.89-12.74-2.38-17.11L241,51.81c-8.44-1.16-16.86.78-24.63,2.15-6.64,2.06-14.16,4.87-17.89,9.85-2.15,4.69.3,9.37,2.58,13.65a201.19,201.19,0,0,0,30.54,37.36l1.5-.29C239.71,100.86,242.52,86,246.18,71.13Z"/><path class="cls-1" d="M258.51,81.2a145,145,0,0,0-15.11,31.74,150.62,150.62,0,0,1,36.25.09c-2-7.66-6.07-14.93-9.77-22.61C266.09,87.34,265.15,78.13,258.51,81.2Z"/><path class="cls-1" d="M320,78.9c2.63-5.09,6.63-11,4.36-16.72l-1.79-3.11a51.4,51.4,0,0,0-13.7-5.23c-1.6-.28-3.2-.54-4.85-.71-7.68-.79-18.48-2.2-25.13,1.76-3.78,3.5-3.31,8.77-2.83,13.59A199.12,199.12,0,0,0,290,114.68q3.22.63,6.39,1.4a27.69,27.69,0,0,0-5.9-1.37C302.26,104.51,310.7,91.53,320,78.9Z"/><path class="cls-1" d="M407.86,290.25a101.45,101.45,0,0,0,9.63,9.49,285.63,285.63,0,0,0,30.75-23.36A198.07,198.07,0,0,0,408.09,289C408,289.43,407.94,289.84,407.86,290.25Z"/><path class="cls-1" d="M261.11,117.69a143.8,143.8,0,0,0-134.2,195.25,285.12,285.12,0,0,0,268.41,0A143.8,143.8,0,0,0,261.11,117.69Z"/><path class="cls-1" d="M79.42,202.22c-5.1-2.63-11-6.62-16.72-4.36l-3.11,1.79c-3.54,6-5.13,12.84-6.53,19.34-.79,7.63-2,18,1.83,24.51,3.5,3.79,8.77,3.32,13.59,2.84a199.81,199.81,0,0,0,45.9-13.79c.1-.47.18-1,.28-1.42C104.54,219.67,91.81,211.35,79.42,202.22Z"/><path class="cls-1" d="M409.63,278.8c7.51-2,14.64-6,22.17-9.64,3.09-3.79,12.3-4.73,9.24-11.37a146.61,146.61,0,0,0-31.55-15.05,151.2,151.2,0,0,1,.14,36.06Z"/><path class="cls-1" d="M112.74,242.82c-7.56,2-14.74,6-22.32,9.69-3.08,3.78-12.29,4.74-9.21,11.37a144.36,144.36,0,0,0,31.4,15,150.4,150.4,0,0,1,.13-36.05Z"/><path class="cls-1" d="M114.58,291.32c-.14-.72-.28-1.44-.41-2.16-12.43-6-25.84-8.82-39.34-12.05a287.33,287.33,0,0,0,30.62,23.09Q110.16,295.91,114.58,291.32Z"/><path class="cls-2" d="M147.82,81.27c-1.48,1-2.94,2-4.35,3.21l-2.23,1.82c6.37-4.11,13.13-8.77,21-10.81l3.46.93c5.61,2.42,7,9.44,8.73,14.9,2.31,15.16,5.41,30,4.5,45.17q4.37-2.88,8.95-5.46a145,145,0,0,1,1.8-35.11c5-5.37,9.37,2.78,14,4.16,6.36,5.68,12.94,10.82,17.68,17.15q5-1.38,10.16-2.41A201.19,201.19,0,0,1,201,77.46c-2.28-4.28-4.73-9-2.58-13.65,3.73-5,11.25-7.79,17.89-9.85-.83.15-1.66.3-2.48.43l-2-7c3.37-.85,6.69-1.82,10-2.88a192,192,0,0,1-25.82.87c-15.63-3-23.89-14.31-29-27.86-4,1.57-8.68,3.53-11.95,4.88,7.08,14.63,8.34,32.22-4.15,45.45-3.35,3.17-6.78,6.25-10.33,9.21,1.28-.7,2.55-1.41,3.81-2.15Z"/><path class="cls-2" d="M87.71,137.27c-1,1.5-1.91,3-2.78,4.63-.77,1.43-1.63,3-2.48,4.62,4.4-6.33,8.91-13.39,15.51-18.39l3.56-.45c6.12.08,10.07,6,13.77,10.42,8,13.17,16.55,25.74,21.51,40.2q2.94-4.38,6.17-8.53a145.1,145.1,0,0,1-11.82-33.26c2.52-6.86,9.71-1,14.55-1.52,8,2.8,16,5,22.81,9q4.06-3.21,8.36-6.14a201.31,201.31,0,0,1-42.31-22.75c-3.75-3.08-7.82-6.47-7.61-11.62,1.67-6.61,8.57-12.55,14.29-17.2-1,.66-2.06,1.31-3.08,1.94l-4.58-5.68c2.38-1.77,4.68-3.62,6.94-5.51a193.47,193.47,0,0,1-22.94,10.36C102,90.61,90,83.33,80.13,72.76c-3.06,3-6.67,6.59-9.17,9.1,12.14,10.8,20,26.56,13.56,43.58-1.58,3.54-3.24,7.06-5,10.53.86-1.07,1.71-2.15,2.54-3.26Z"/><path class="cls-40" d="M138.16,88.24c1-.63,2-1.28,3.08-1.94l2.23-1.82c1.41-1.16,2.87-2.2,4.35-3.21l-3.49-6.37c-1.26.74-2.53,1.45-3.81,2.15-2.26,1.89-4.56,3.74-6.94,5.51Z"/><path class="cls-2" d="M138.16,88.24c1-.63,2-1.28,3.08-1.94l2.23-1.82c1.41-1.16,2.87-2.2,4.35-3.21l-3.49-6.37c-1.26.74-2.53,1.45-3.81,2.15-2.26,1.89-4.56,3.74-6.94,5.51Z"/><path class="cls-2" d="M62.7,197.86c5.69-2.26,11.62,1.73,16.72,4.36,12.39,9.13,25.12,17.45,35.24,28.91q1.07-5.17,2.48-10.2a144.88,144.88,0,0,1-23.68-26.25c-.31-7.29,8.57-4.65,12.85-7,8.61-.48,17-1.52,24.88-.35q2.61-4.56,5.52-8.92a199.78,199.78,0,0,1-48.29-4.83c-4.65-1.4-9.7-3-11.48-7.81-.88-6.05,2.32-13.2,5.51-19.28-.61.88-1.23,1.75-1.84,2.6l-6.41-3.49c1.9-3.17,3.65-6.39,5.31-9.66a192.28,192.28,0,0,1-17.38,18.55c-13.18,8.91-27,6.77-40.2.79-1.69,3.92-3.64,8.64-5,11.92,15.35,5.33,28.69,16.87,29.21,35.07-.13,4.82-.38,9.65-.84,14.47.59-1.91,1.15-3.83,1.65-5.78l7,2c-.33,1.75-.62,3.53-.8,5.35,0,.2-.05.41-.07.61,1.4-6.5,3-13.32,6.53-19.34Z"/><path class="cls-41" d="M80.61,149.12c.61-.85,1.23-1.72,1.84-2.6.85-1.63,1.71-3.19,2.48-4.62.87-1.6,1.81-3.13,2.78-4.63l-5.66-4.56c-.83,1.11-1.68,2.19-2.54,3.26-1.66,3.27-3.41,6.49-5.31,9.66Z"/><path class="cls-2" d="M80.61,149.12c.61-.85,1.23-1.72,1.84-2.6.85-1.63,1.71-3.19,2.48-4.62.87-1.6,1.81-3.13,2.78-4.63l-5.66-4.56c-.83,1.11-1.68,2.19-2.54,3.26-1.66,3.27-3.41,6.49-5.31,9.66Z"/><path class="cls-2" d="M74.83,277.11c13.5,3.23,26.91,6.08,39.34,12.05q-1-5.09-1.56-10.29a144.36,144.36,0,0,1-31.4-15c-3.08-6.63,6.13-7.59,9.21-11.37,7.58-3.66,14.76-7.7,22.32-9.69q.65-5.19,1.64-10.27a199.81,199.81,0,0,1-45.9,13.79c-4.82.48-10.09.95-13.59-2.84C51,237,52.27,226.62,53.06,219c-.49,2.29-1,4.54-1.48,6.69l-7.25-.78q.6-4.07,1-8.13a198.53,198.53,0,0,1-8,21A287,287,0,0,0,74.83,277.11Z"/><path class="cls-42" d="M53.93,213l-7-2c-.5,1.95-1.06,3.87-1.65,5.78q-.37,4.06-1,8.13l7.25.78c.52-2.15,1-4.4,1.48-6.69,0-.2,0-.41.07-.61C53.31,216.56,53.6,214.78,53.93,213Z"/><path class="cls-2" d="M53.93,213l-7-2c-.5,1.95-1.06,3.87-1.65,5.78q-.37,4.06-1,8.13l7.25.78c.52-2.15,1-4.4,1.48-6.69,0-.2,0-.41.07-.61C53.31,216.56,53.6,214.78,53.93,213Z"/><path class="cls-43" d="M114.58,291.32q-4.41,4.59-9.13,8.88c2.45,1.6,4.92,3.18,7.43,4.71A52.35,52.35,0,0,1,117,301.4C116.09,298.08,115.27,294.72,114.58,291.32Z"/><path class="cls-44" d="M407.86,290.25q-1,5.19-2.39,10.27,2.28,2,4.46,4c2.55-1.56,5.06-3.17,7.56-4.81A101.45,101.45,0,0,1,407.86,290.25Z"/><path class="cls-2" d="M477.23,219.43c.18,1.82.38,3.65.64,5.47l-7.22.77c-.37-1.74-.78-3.5-1.3-5.24l-.53-1.76c1.27,6.9,2.62,14.23,1.59,21.57l-2.19,2.84c-4.38,4.27-11.39,2.84-17.12,2.38-14.81-3.66-29.64-6.46-43.28-13.06q1,5.11,1.67,10.34A146.61,146.61,0,0,1,441,257.79c3.06,6.64-6.15,7.58-9.24,11.37-7.53,3.63-14.66,7.65-22.17,9.64Q409,284,408.09,289a198.07,198.07,0,0,1,40.15-12.64A287.16,287.16,0,0,0,484.78,238a35.51,35.51,0,0,1-3-5.34C480.16,228.29,478.62,223.89,477.23,219.43Z"/><path class="cls-2" d="M441.25,147.78c-1-1.46-2.06-2.93-3.21-4.34-1-1.18-2-2.47-3.08-3.78,4.25,6.68,9.32,13.74,11.48,22l-.95,3.47c-2.42,5.62-9.45,7-14.9,8.74-15.14,2.3-29.94,5.39-45.1,4.5q2.91,4.35,5.53,8.92a146,146,0,0,1,35,1.82c5.38,5-2.78,9.36-4.16,14-5.59,6.25-10.64,12.71-16.83,17.43q1.41,5,2.47,10.06a199.71,199.71,0,0,1,37-30.17c4.27-2.3,9-4.74,13.65-2.59,5.72,4.28,8.58,13.56,10.72,20.78-.34-1.88-.69-3.73-1-5.54l7-2c.71,2.82,1.52,5.59,2.38,8.35a195.13,195.13,0,0,1-.69-24c3-15.63,14.3-23.89,27.86-29-1.58-4-3.53-8.69-4.89-12-14.62,7.09-32.21,8.36-45.45-4.14q-4.21-4.47-8.23-9.16c.59,1.06,1.19,2.11,1.81,3.16Z"/><path class="cls-45" d="M467.85,213.13c.28,1.81.63,3.66,1,5.54l.53,1.76c.52,1.74.93,3.5,1.3,5.24l7.22-.77c-.26-1.82-.46-3.65-.64-5.47-.86-2.76-1.67-5.53-2.38-8.35Z"/><path class="cls-2" d="M467.85,213.13c.28,1.81.63,3.66,1,5.54l.53,1.76c.52,1.74.93,3.5,1.3,5.24l7.22-.77c-.26-1.82-.46-3.65-.64-5.47-.86-2.76-1.67-5.53-2.38-8.35Z"/><path class="cls-2" d="M385,87.19c-1.5-1-3-1.91-4.63-2.78-1.86-1-3.91-2.13-6.07-3.23C381,86,388.92,90.71,394.38,97.93l.46,3.56c-.07,6.12-6,10.07-10.42,13.78-13.26,8-25.89,16.66-40.48,21.6.05,0,.08.09.13.13q4.32,2.88,8.43,6.07a145,145,0,0,1,33.51-12c6.86,2.53,1,9.7,1.52,14.57-2.83,8.07-5.06,16.16-9.13,23,2.16,2.71,4.21,5.51,6.18,8.38a200,200,0,0,1,22.83-42.53c3.06-3.75,6.46-7.8,11.61-7.61,6,1.53,11.5,7.4,15.94,12.75-.44-.69-.87-1.37-1.28-2l5.68-4.57c2.07,2.78,4.24,5.47,6.47,8.1a191.76,191.76,0,0,1-10.72-23.58C431.93,102,439.19,90,449.76,80.1c-3-3-6.59-6.67-9.1-9.18-10.8,12.15-26.57,20-43.58,13.57q-4.87-2.17-9.66-4.57c.69.54,1.38,1.09,2.09,1.62Z"/><path class="cls-46" d="M433.68,137.61c.41.68.84,1.36,1.28,2,1.09,1.31,2.12,2.6,3.08,3.78,1.15,1.41,2.2,2.88,3.21,4.34l6.39-3.48c-.62-1.05-1.22-2.1-1.81-3.16-2.23-2.63-4.4-5.32-6.47-8.1Z"/><path class="cls-2" d="M433.68,137.61c.41.68.84,1.36,1.28,2,1.09,1.31,2.12,2.6,3.08,3.78,1.15,1.41,2.2,2.88,3.21,4.34l6.39-3.48c-.62-1.05-1.22-2.1-1.81-3.16-2.23-2.63-4.4-5.32-6.47-8.1Z"/><path class="cls-2" d="M309.36,53.92l-.5-.08a51.4,51.4,0,0,1,13.7,5.23l1.79,3.11c2.27,5.69-1.73,11.63-4.36,16.72-9.29,12.63-17.73,25.61-29.53,35.81a27.69,27.69,0,0,1,5.9,1.37q2.22.54,4.41,1.14a145.07,145.07,0,0,1,26.77-24.28c7.29-.3,4.64,8.57,7,12.86.48,8.75,1.57,17.26.28,25.29l-.29-.11s0,0,0,0a.21.21,0,0,1,.1,0,26.13,26.13,0,0,1,7.61,4.73l1.67,1.1h.05c-.05-.06-.1-.1-.15-.17a199.49,199.49,0,0,1,4.81-48.8c1.4-4.65,3-9.69,7.82-11.48,5.57-.81,12.08,1.84,17.83,4.76l-.86-.61,3.51-6.4c3.45,2.07,7,4,10.52,5.75a189.41,189.41,0,0,1-19.72-18.3c-8.91-13.19-6.78-27-.8-40.2-3.92-1.69-8.64-3.65-11.91-5-5.33,15.35-16.88,28.69-35.07,29.22-5.55-.16-11.09-.47-16.63-1.06,2.66.87,5.37,1.68,8.12,2.38Z"/><path class="cls-47" d="M373.39,80.57l.86.61c2.16,1.1,4.21,2.23,6.07,3.23,1.59.87,3.13,1.81,4.63,2.78l4.56-5.65c-.71-.53-1.4-1.08-2.09-1.62-3.56-1.79-7.07-3.68-10.52-5.75Z"/><path class="cls-2" d="M373.39,80.57l.86.61c2.16,1.1,4.21,2.23,6.07,3.23,1.59.87,3.13,1.81,4.63,2.78l4.56-5.65c-.71-.53-1.4-1.08-2.09-1.62-3.56-1.79-7.07-3.68-10.52-5.75Z"/><path class="cls-48" d="M343.94,136.87h-.05l.18.12C344,137,344,136.91,343.94,136.87Z"/><path class="cls-49" d="M343.94,136.87h-.05l.18.12C344,137,344,136.91,343.94,136.87Z"/><path class="cls-2" d="M226.23,51.26c-1.74.37-3.5.78-5.25,1.31-1.45.43-3,.89-4.65,1.39,7.77-1.37,16.19-3.31,24.63-2.15L243.8,54c4.27,4.37,2.85,11.39,2.38,17.11-3.66,14.86-6.47,29.73-13.12,43.4q5.12-1,10.34-1.59A145,145,0,0,1,258.51,81.2c6.64-3.07,7.58,6.14,11.37,9.22,3.7,7.68,7.81,15,9.77,22.61,3.47.43,6.92,1,10.32,1.65a199.12,199.12,0,0,1-13.92-46.2c-.48-4.82-.95-10.09,2.83-13.59,6.65-4,17.45-2.55,25.13-1.76,1.65.17,3.25.43,4.85.71-4.21-1.05-8.41-1.83-12.33-2.77l.79-7.26c2,.3,4,.54,6,.76-7.06-2.31-13.76-5.07-19.65-7.67C270.35,28.13,267,14.54,267.51.06,263.25,0,258.14,0,254.59,0c.95,16.22-4.62,33-21.21,40.41-3.84,1.46-7.7,2.83-11.61,4.09,1.23-.14,2.45-.29,3.68-.47Z"/><path class="cls-50" d="M213.85,54.39c.82-.13,1.65-.28,2.48-.43,1.63-.5,3.2-1,4.65-1.39,1.75-.53,3.51-.94,5.25-1.31L225.45,44c-1.23.18-2.45.33-3.68.47-3.28,1.06-6.6,2-10,2.88Z"/><path class="cls-2" d="M213.85,54.39c.82-.13,1.65-.28,2.48-.43,1.63-.5,3.2-1,4.65-1.39,1.75-.53,3.51-.94,5.25-1.31L225.45,44c-1.23.18-2.45.33-3.68.47-3.28,1.06-6.6,2-10,2.88Z"/><path class="cls-51" d="M296.53,51.07c3.92.94,8.12,1.72,12.33,2.77l.5.08,2.05-7c-2.75-.7-5.46-1.51-8.12-2.38-2-.22-4-.46-6-.76Z"/><path class="cls-2" d="M296.53,51.07c3.92.94,8.12,1.72,12.33,2.77l.5.08,2.05-7c-2.75-.7-5.46-1.51-8.12-2.38-2-.22-4-.46-6-.76Z"/><path class="cls-52" d="M115.46,290.42a3.38,3.38,0,0,0,0-.64l-1.28-.62c.13.72.27,1.44.41,2.16C114.87,291,115.17,290.72,115.46,290.42Z"/><path class="cls-53" d="M136.8,178.3l-.09.14h.14A.78.78,0,0,0,136.8,178.3Z"/><path class="cls-54" d="M384.51,178.33l1,.06-.91-1.34-.3.73A3,3,0,0,0,384.51,178.33Z"/><path class="cls-55" d="M232.65,115.39l.41-.86-1.5.29.57.56A3,3,0,0,0,232.65,115.39Z"/><path class="cls-56" d="M114.45,278.17c.1.14.21.25.31.38a25.44,25.44,0,0,0,.64,10.86v0l.53-.05a25.13,25.13,0,0,0,2,11.56.12.12,0,0,0,0,.09.43.43,0,0,1,0,.05c0-.09-.08-.2-.14-.29-.28.2-.55.43-.83.65q1,3.68,2.22,7.28c2.54,1.46,5.11,2.87,7.69,4.26a143.73,143.73,0,1,1,268.41,0c2.58-1.38,5.15-2.8,7.69-4.26.9-2.69,1.71-5.41,2.46-8.16-.41-.36-.81-.72-1.23-1.07l-.43,1.29c-.05-.16-.1-.31-.14-.47a27.58,27.58,0,0,0,1.69-3.3,26.72,26.72,0,0,0,1.92-7.37l.58.65c.08-.41.16-.82.23-1.23l-1.28.54a2.9,2.9,0,0,0-.34,1l-.52-.15a25.1,25.1,0,0,0,2.59-11.46s0-.07,0-.11l0,0c0,.1,0,.22,0,.31.36-.09.71-.2,1.07-.3a151.2,151.2,0,0,0-.14-36.06c-.6-.2-1.19-.41-1.8-.6l.1,1.35c-.11-.13-.21-.24-.31-.37a25.94,25.94,0,0,0-.75-11.25c.36.19.73.35,1.09.53-.11-.59-.23-1.17-.35-1.75l-.93.94a3.08,3.08,0,0,0,0,1l-.53.06a25.39,25.39,0,0,0-2-11.57.88.88,0,0,0-.06-.1l0,0c.05.09.09.2.13.28.29-.21.57-.44.85-.66a148.44,148.44,0,0,0-14-33.28c-.61,0-1.21.07-1.81.12l.6,1.23-.43-.23a25,25,0,0,0-4.7-9.71l-.42.23A25.3,25.3,0,0,0,378,169s-.05,0-.08-.07v0l.24.21c.1-.15.18-.32.27-.47a150.11,150.11,0,0,0-25.9-25.6l-1.12.55,1,.9c-.15,0-.31,0-.48-.06a29.22,29.22,0,0,0-2.4-2.82,26.66,26.66,0,0,0-5.13-4l-.17.2c-.2-.23-.42-.45-.63-.68l-.14-.09h.05c-.41-.43-.83-.85-1.27-1.25a148.9,148.9,0,0,0-41.45-18.56c-.15.17-.31.34-.46.52l1.29.44-.46.14a28.36,28.36,0,0,0-3.3-1.69c-.5-.21-1-.38-1.48-.55q-3.17-.77-6.39-1.4c.1.25.2.49.31.74a2.9,2.9,0,0,0,1,.34l-.15.52a25.22,25.22,0,0,0-11.46-2.58.19.19,0,0,0-.11,0l0,0a1.67,1.67,0,0,1,.31,0c-.05-.22-.12-.42-.17-.64a150.62,150.62,0,0,0-36.25-.09c-.18.53-.37,1.06-.54,1.6l1.36-.09c-.13.09-.26.21-.38.31a25.86,25.86,0,0,0-3.69-.31,27.23,27.23,0,0,0-7,.91l.06.5a25.25,25.25,0,0,0-11.59,2l-.08,0h0l.29-.14-.41-.52A149,149,0,0,0,187.88,131c0,.56.06,1.12.11,1.68l1.21-.61c-.08.15-.14.29-.22.44a25.4,25.4,0,0,0-3.54,1.13,26.84,26.84,0,0,0-6.57,3.86c0-.35,0-.69.06-1-.69.46-1.38.91-2.06,1.38l.94.37a4,4,0,0,0,.93-.44l.26.47a25.05,25.05,0,0,0-9.94,6.29s0,0-.06.06h0l.22-.22c-.22-.14-.45-.26-.67-.39A150.38,150.38,0,0,0,143,169.77l.68,1.38.9-1c0,.16,0,.32-.05.48a29.31,29.31,0,0,0-2.83,2.4,27.2,27.2,0,0,0-3.74,4.66l.4.33a25.15,25.15,0,0,0-6.77,9.61s0,.06,0,.09h0l.1-.3-.41,0a148.63,148.63,0,0,0-14,33.57c.38.32.74.66,1.12,1l.43-1.29c0,.15.11.3.15.45a28.66,28.66,0,0,0-1.7,3.32,26.68,26.68,0,0,0-1.91,7.37l-.57-.63c-.1.47-.18,1-.28,1.42l1-.44a2.82,2.82,0,0,0,.34-1l.52.15a25.24,25.24,0,0,0-2.58,11.47s0,.06,0,.09l0,0c0-.1,0-.22,0-.32l-.93.26a150.4,150.4,0,0,0-.13,36.05c.64.22,1.28.45,1.93.65Z"/><path class="cls-57" d="M178.87,137.53a26.84,26.84,0,0,1,6.57-3.86,25.4,25.4,0,0,1,3.54-1.13c.08-.15.14-.29.22-.44l-1.21.61c-.05-.56-.08-1.12-.11-1.68q-4.59,2.58-8.95,5.46C178.91,136.84,178.9,137.18,178.87,137.53Z"/><path class="cls-58" d="M178.87,137.53a26.84,26.84,0,0,1,6.57-3.86,25.4,25.4,0,0,1,3.54-1.13c.08-.15.14-.29.22-.44l-1.21.61c-.05-.56-.08-1.12-.11-1.68q-4.59,2.58-8.95,5.46C178.91,136.84,178.9,137.18,178.87,137.53Z"/><path class="cls-59" d="M232.65,115.39a3,3,0,0,1-.52,0l-.57-.56q-5.15,1-10.16,2.41l.41.52-.29.14h0l.08,0a25.25,25.25,0,0,1,11.59-2l-.06-.5-.57.14A.54.54,0,0,1,232.65,115.39Z"/><path class="cls-60" d="M232.65,115.39a3,3,0,0,1-.52,0l-.57-.56q-5.15,1-10.16,2.41l.41.52-.29.14h0l.08,0a25.25,25.25,0,0,1,11.59-2l-.06-.5-.57.14A.54.54,0,0,1,232.65,115.39Z"/><path class="cls-61" d="M136.85,178.44h.37a3.07,3.07,0,0,0,.69-.77h0a27.2,27.2,0,0,1,3.74-4.66,29.31,29.31,0,0,1,2.83-2.4c0-.16,0-.32.05-.48l-.9,1-.68-1.38q-3.22,4.14-6.17,8.53A.78.78,0,0,1,136.85,178.44Z"/><path class="cls-62" d="M136.85,178.44h.37a3.07,3.07,0,0,0,.69-.77h0a27.2,27.2,0,0,1,3.74-4.66,29.31,29.31,0,0,1,2.83-2.4c0-.16,0-.32.05-.48l-.9,1-.68-1.38q-3.22,4.14-6.17,8.53A.78.78,0,0,1,136.85,178.44Z"/><path class="cls-63" d="M169.18,144.4l-.22.22h0s0-.05.06-.06a25.05,25.05,0,0,1,9.94-6.29l-.26-.47a4,4,0,0,1-.93.44l-.94-.37q-4.29,2.92-8.36,6.14C168.73,144.14,169,144.26,169.18,144.4Z"/><path class="cls-64" d="M169.18,144.4l-.22.22h0s0-.05.06-.06a25.05,25.05,0,0,1,9.94-6.29l-.26-.47a4,4,0,0,1-.93.44l-.94-.37q-4.29,2.92-8.36,6.14C168.73,144.14,169,144.26,169.18,144.4Z"/><path class="cls-65" d="M115.23,231.76a26.68,26.68,0,0,1,1.91-7.37,28.66,28.66,0,0,1,1.7-3.32c0-.15-.1-.3-.15-.45l-.43,1.29c-.38-.32-.74-.66-1.12-1q-1.41,5-2.48,10.2Z"/><path class="cls-66" d="M115.23,231.76a26.68,26.68,0,0,1,1.91-7.37,28.66,28.66,0,0,1,1.7-3.32c0-.15-.1-.3-.15-.45l-.43,1.29c-.38-.32-.74-.66-1.12-1q-1.41,5-2.48,10.2Z"/><path class="cls-67" d="M136.85,178.44h-.14q-2.91,4.35-5.52,8.92l.41,0-.1.3h0s0-.07,0-.09a25.15,25.15,0,0,1,6.77-9.61l-.4-.33c-.3.47-.59,1-.85,1.42C137,178.87,136.93,178.65,136.85,178.44Z"/><path class="cls-68" d="M136.85,178.44h-.14q-2.91,4.35-5.52,8.92l.41,0-.1.3h0s0-.07,0-.09a25.15,25.15,0,0,1,6.77-9.61l-.4-.33c-.3.47-.59,1-.85,1.42C137,178.87,136.93,178.65,136.85,178.44Z"/><path class="cls-69" d="M137.22,178.43h-.37c.08.21.16.43.23.65.26-.47.55-1,.85-1.42h0A3.07,3.07,0,0,1,137.22,178.43Z"/><path class="cls-70" d="M137.22,178.43h-.37c.08.21.16.43.23.65.26-.47.55-1,.85-1.42h0A3.07,3.07,0,0,1,137.22,178.43Z"/><path class="cls-71" d="M137.22,178.43h-.37c.08.21.16.43.23.65.26-.47.55-1,.85-1.42h0A3.07,3.07,0,0,1,137.22,178.43Z"/><path class="cls-72" d="M113.68,242.88l0,0s0-.06,0-.09a25.24,25.24,0,0,1,2.58-11.47l-.52-.15a2.82,2.82,0,0,1-.34,1l-1,.44q-1,5.08-1.64,10.27l.93-.26C113.68,242.66,113.68,242.78,113.68,242.88Z"/><path class="cls-73" d="M113.68,242.88l0,0s0-.06,0-.09a25.24,25.24,0,0,1,2.58-11.47l-.52-.15a2.82,2.82,0,0,1-.34,1l-1,.44q-1,5.08-1.64,10.27l.93-.26C113.68,242.66,113.68,242.78,113.68,242.88Z"/><path class="cls-74" d="M115.4,289.41a25.44,25.44,0,0,1-.64-10.86c-.1-.13-.21-.24-.31-.38l.09,1.35c-.65-.2-1.29-.43-1.93-.65q.6,5.2,1.56,10.29l1.28.62A2.35,2.35,0,0,0,115.4,289.41Z"/><path class="cls-75" d="M115.4,289.41a25.44,25.44,0,0,1-.64-10.86c-.1-.13-.21-.24-.31-.38l.09,1.35c-.65-.2-1.29-.43-1.93-.65q.6,5.2,1.56,10.29l1.28.62A2.35,2.35,0,0,0,115.4,289.41Z"/><path class="cls-76" d="M118,301a.43.43,0,0,0,0-.05.12.12,0,0,1,0-.09,25.13,25.13,0,0,1-2-11.56l-.53.05v0c0,.13.07.27.1.39l0,0a3.38,3.38,0,0,1,0,.64c-.29.3-.59.59-.88.9.69,3.4,1.51,6.76,2.42,10.08.28-.22.55-.45.83-.65C117.89,300.84,117.92,301,118,301Z"/><path class="cls-77" d="M118,301a.43.43,0,0,0,0-.05.12.12,0,0,1,0-.09,25.13,25.13,0,0,1-2-11.56l-.53.05v0c0,.13.07.27.1.39l0,0a3.38,3.38,0,0,1,0,.64c-.29.3-.59.59-.88.9.69,3.4,1.51,6.76,2.42,10.08.28-.22.55-.45.83-.65C117.89,300.84,117.92,301,118,301Z"/><path class="cls-78" d="M115.4,289.41a2.35,2.35,0,0,1,0,.37l0,0C115.47,289.68,115.44,289.54,115.4,289.41Z"/><path class="cls-79" d="M115.4,289.41a2.35,2.35,0,0,1,0,.37l0,0C115.47,289.68,115.44,289.54,115.4,289.41Z"/><path class="cls-80" d="M115.4,289.41a2.35,2.35,0,0,1,0,.37l0,0C115.47,289.68,115.44,289.54,115.4,289.41Z"/><path class="cls-81" d="M405.36,297a27.58,27.58,0,0,1-1.69,3.3c0,.16.09.31.14.47l.43-1.29c.42.35.82.71,1.23,1.07q1.36-5.07,2.39-10.27l-.58-.65A26.72,26.72,0,0,1,405.36,297Z"/><path class="cls-82" d="M405.36,297a27.58,27.58,0,0,1-1.69,3.3c0,.16.09.31.14.47l.43-1.29c.42.35.82.71,1.23,1.07q1.36-5.07,2.39-10.27l-.58-.65A26.72,26.72,0,0,1,405.36,297Z"/><path class="cls-83" d="M408.55,278.79l0,0s0,.07,0,.11A25.1,25.1,0,0,1,406,290.38l.52.15a2.9,2.9,0,0,1,.34-1l1.28-.54q.95-5.06,1.54-10.22c-.36.1-.71.21-1.07.3C408.56,279,408.56,278.89,408.55,278.79Z"/><path class="cls-84" d="M408.55,278.79l0,0s0,.07,0,.11A25.1,25.1,0,0,1,406,290.38l.52.15a2.9,2.9,0,0,1,.34-1l1.28-.54q.95-5.06,1.54-10.22c-.36.1-.71.21-1.07.3C408.56,279,408.56,278.89,408.55,278.79Z"/><path class="cls-85" d="M407.78,239.42a27.44,27.44,0,0,1-.3,3.7c.1.13.2.24.31.37l-.1-1.35c.61.19,1.2.4,1.8.6q-.66-5.22-1.67-10.34c-.36-.18-.73-.34-1.09-.53A27.49,27.49,0,0,1,407.78,239.42Z"/><path class="cls-86" d="M407.78,239.42a27.44,27.44,0,0,1-.3,3.7c.1.13.2.24.31.37l-.1-1.35c.61.19,1.2.4,1.8.6q-.66-5.22-1.67-10.34c-.36-.18-.73-.34-1.09-.53A27.49,27.49,0,0,1,407.78,239.42Z"/><path class="cls-87" d="M384.51,178.33a4.07,4.07,0,0,0,.21.37l0,0a25,25,0,0,1,4.7,9.71l.43.23-.6-1.23c.6-.05,1.2-.08,1.81-.12q-2.62-4.56-5.53-8.92Z"/><path class="cls-88" d="M384.51,178.33a4.07,4.07,0,0,0,.21.37l0,0a25,25,0,0,1,4.7,9.71l.43.23-.6-1.23c.6-.05,1.2-.08,1.81-.12q-2.62-4.56-5.53-8.92Z"/><path class="cls-89" d="M404.15,221.25c0-.08-.08-.19-.13-.28l0,0a.88.88,0,0,1,.06.1,25.39,25.39,0,0,1,2,11.57l.53-.06a3.08,3.08,0,0,1,0-1l.93-.94q-1.07-5.1-2.47-10.06C404.72,220.81,404.44,221,404.15,221.25Z"/><path class="cls-90" d="M404.15,221.25c0-.08-.08-.19-.13-.28l0,0a.88.88,0,0,1,.06.1,25.39,25.39,0,0,1,2,11.57l.53-.06a3.08,3.08,0,0,1,0-1l.93-.94q-1.07-5.1-2.47-10.06C404.72,220.81,404.44,221,404.15,221.25Z"/><path class="cls-91" d="M343.44,137l.14.09-.09-.1Z"/><path class="cls-92" d="M343.44,137l.14.09-.09-.1Z"/><path class="cls-93" d="M384.51,178.33a3,3,0,0,1-.23-.55l.3-.73c-2-2.87-4-5.67-6.18-8.38-.09.15-.17.32-.27.47l-.24-.21v0s.06,0,.08.07a25.3,25.3,0,0,1,6.29,9.91l.42-.23c-.1-.13-.19-.27-.29-.39Z"/><path class="cls-94" d="M384.51,178.33a3,3,0,0,1-.23-.55l.3-.73c-2-2.87-4-5.67-6.18-8.38-.09.15-.17.32-.27.47l-.24-.21v0s.06,0,.08.07a25.3,25.3,0,0,1,6.29,9.91l.42-.23c-.1-.13-.19-.27-.29-.39Z"/><path class="cls-95" d="M344.55,137.4l-.17.21a26.66,26.66,0,0,1,5.13,4,29.22,29.22,0,0,1,2.4,2.82c.17,0,.33,0,.48.06l-1-.9,1.12-.55q-4.11-3.18-8.43-6.07A3.51,3.51,0,0,0,344.55,137.4Z"/><path class="cls-96" d="M344.55,137.4l-.17.21a26.66,26.66,0,0,1,5.13,4,29.22,29.22,0,0,1,2.4,2.82c.17,0,.33,0,.48.06l-1-.9,1.12-.55q-4.11-3.18-8.43-6.07A3.51,3.51,0,0,0,344.55,137.4Z"/><path class="cls-97" d="M384.51,178.33h-.12c.1.12.19.26.29.39l0,0A4.07,4.07,0,0,1,384.51,178.33Z"/><path class="cls-98" d="M384.51,178.33h-.12c.1.12.19.26.29.39l0,0A4.07,4.07,0,0,1,384.51,178.33Z"/><path class="cls-99" d="M384.51,178.33h-.12c.1.12.19.26.29.39l0,0A4.07,4.07,0,0,1,384.51,178.33Z"/><path class="cls-100" d="M297.84,116.63a28.36,28.36,0,0,1,3.3,1.69l.46-.14-1.29-.44c.15-.18.31-.35.46-.52q-2.19-.6-4.41-1.14C296.85,116.25,297.34,116.42,297.84,116.63Z"/><path class="cls-101" d="M297.84,116.63a28.36,28.36,0,0,1,3.3,1.69l.46-.14-1.29-.44c.15-.18.31-.35.46-.52q-2.19-.6-4.41-1.14C296.85,116.25,297.34,116.42,297.84,116.63Z"/><path class="cls-102" d="M344.21,137.81l.17-.2c-.27-.16-.53-.33-.8-.48C343.79,137.36,344,137.58,344.21,137.81Z"/><path class="cls-103" d="M344.21,137.81l.17-.2c-.27-.16-.53-.33-.8-.48C343.79,137.36,344,137.58,344.21,137.81Z"/><path class="cls-104" d="M342.22,135.78c.44.4.86.82,1.27,1.25l.4-.15Z"/><path class="cls-105" d="M342.22,135.78c.44.4.86.82,1.27,1.25l.4-.15Z"/><path class="cls-106" d="M344.07,137l-.18-.12-.4.15.09.1c.27.15.53.32.8.48l.17-.21A3.51,3.51,0,0,1,344.07,137Z"/><path class="cls-107" d="M344.07,137l-.18-.12-.4.15.09.1c.27.15.53.32.8.48l.17-.21A3.51,3.51,0,0,1,344.07,137Z"/><path class="cls-108" d="M344.07,137l-.18-.12-.4.15.09.1c.27.15.53.32.8.48l.17-.21A3.51,3.51,0,0,1,344.07,137Z"/><path class="cls-109" d="M279.82,113.67a1.67,1.67,0,0,0-.31,0l0,0a.19.19,0,0,1,.11,0,25.22,25.22,0,0,1,11.46,2.58l.15-.52a2.9,2.9,0,0,1-1-.34c-.11-.25-.21-.49-.31-.74-3.4-.66-6.85-1.22-10.32-1.65C279.7,113.25,279.77,113.45,279.82,113.67Z"/><path class="cls-110" d="M279.82,113.67a1.67,1.67,0,0,0-.31,0l0,0a.19.19,0,0,1,.11,0,25.22,25.22,0,0,1,11.46,2.58l.15-.52a2.9,2.9,0,0,1-1-.34c-.11-.25-.21-.49-.31-.74-3.4-.66-6.85-1.22-10.32-1.65C279.7,113.25,279.77,113.45,279.82,113.67Z"/><path class="cls-111" d="M232.65,115.39a3,3,0,0,0,.52-.07v0a27.23,27.23,0,0,1,7-.91,25.86,25.86,0,0,1,3.69.31c.12-.1.25-.22.38-.31l-1.36.09c.17-.54.36-1.07.54-1.6q-5.22.61-10.34,1.59Z"/><path class="cls-112" d="M232.65,115.39a3,3,0,0,0,.52-.07v0a27.23,27.23,0,0,1,7-.91,25.86,25.86,0,0,1,3.69.31c.12-.1.25-.22.38-.31l-1.36.09c.17-.54.36-1.07.54-1.6q-5.22.61-10.34,1.59Z"/><path class="cls-113" d="M232.65,115.39a.54.54,0,0,0-.05.11l.57-.14v0A3,3,0,0,1,232.65,115.39Z"/><path class="cls-114" d="M232.65,115.39a.54.54,0,0,0-.05.11l.57-.14v0A3,3,0,0,1,232.65,115.39Z"/><path class="cls-115" d="M232.65,115.39a.54.54,0,0,0-.05.11l.57-.14v0A3,3,0,0,1,232.65,115.39Z"/><path class="cls-116" d="M439.29,261.41A178.18,178.18,0,0,1,261.11,439.59c-98.39,0-178.17-79.78-178.17-178.18a178.18,178.18,0,0,1,356.35,0Z"/><path class="cls-1" d="M327.22,178.69c4-.52,8-6.54,8-6.54s6-8.64,19.48-7.85,16.73,5.23,17.47,8.11,5.25,3.66,10.74,3.4a10.25,10.25,0,0,1,8.49,4.19s4.74.78,8.24,1.57,0-3.14-.5-4.71a13.48,13.48,0,0,1-.75-6.54c.5-2.36,9.49,2.09,13.23,2.87s2.5-3.14,2.5-3.14l2.5-.52L409.09,158l-.5-.69-1.22,1.27-3.5-6.28-3-.26-2.25,2.88-2.25-2.62-3.49-1-4.75-3.67-3.74-4.44-1.75-1.05,1.75,4.71,4.49,4.19s1.75,3.66,1.75,4.7-4.24-.52-5.24-.78-5.75-4.45-5.75-4.45L375.41,146l-6-4.44s-12-7.59-13.48-7.59-12.24-3.66-12.24-3.66l3.74,3.66,8.25,4.71s7.74,2.62,10.73,3.92a15.35,15.35,0,0,1,5,3.67l-1.5.78,2.24,5.76-4.74-5.24s-7-4.44-11.23-4.44-10-3.67-11.49-4.19-6.24-4.19-6.24-2.62-4.5,1.57-8.74,3.41-.5,6.54-.5,6.54l-3,3.4L325,154.36l1.75,5.75,1,5.24-.75,5.49s-.25,1.83-3.74,2.09-6,3.4-6.25,4.71a.52.52,0,0,1-.06.15c.43.22,1.57.31,1.31.62a6.93,6.93,0,0,0-.77,1.07h0C319.23,179,323.23,179.21,327.22,178.69Z"/><path class="cls-1" d="M268.35,271.94a9.38,9.38,0,0,1-1.68-1.74,15.38,15.38,0,0,1-1.55-3.8c.44-6-1.89-10.29-4.48-13.84a2.44,2.44,0,0,0-2.12-1l-4.23-4.81a6.35,6.35,0,0,0-2.75,1,13.49,13.49,0,0,1-4.2,2.47s3.21,3.46,5.19,5.94S255,267.51,255,267.51l4.94,2.48s1.73,4.2,2.71,4.44,5.44-.74,6.67-.74c.9,0,3.33,1.55,4.62,2.41.45,0,.81-.07.95-.31l-.05,0Z"/><path class="cls-1" d="M408.62,157.24l0,0,.5.69Z"/><path class="cls-1" d="M316.92,177.79c-.15.25-.5.33-1,.32l.82.55-3.58.83,1.79,4.43s.74-3.89,2.47-4.44a6.93,6.93,0,0,1,.77-1.07C318.49,178.1,317.35,178,316.92,177.79Z"/><path class="cls-1" d="M316,178.11a14.48,14.48,0,0,1-3.72-1l1,2.37,3.58-.83Z"/><path class="cls-117" d="M440.7,261.18A179.7,179.7,0,1,1,261,81.48,179.69,179.69,0,0,1,440.7,261.18Z"/><path class="cls-118" d="M174.47,255c4,.63,6.57-1.44,9.39-2.59l5.31-2.77a3.53,3.53,0,0,1,4.19.87,3.49,3.49,0,0,0,4.18-1.44c.86-1.22,2.23-2,3.5-3.12a22.23,22.23,0,0,0,3.86-.47,21.25,21.25,0,0,1,11,6c5.36,1.93,9.59,5.33,14.45,8.13,4.73,1.41,9.31,3.11,12.05,6.33.93,3.06,3.88,4,7.51,4a52.16,52.16,0,0,1,8.33.37c2.28,1,4,2.76,6.8,3.78a33.16,33.16,0,0,1,6,.79c2.9,1.86,6.17,4.22,8.31,7.58a4.57,4.57,0,0,1-.13,2.92c-3.51,4.73-5.12,11.25-6.77,17.92A29.41,29.41,0,0,1,269,312c-1.23,1.92-3.36,2.88-5.2,4.19-2.76,2-6.15,3.4-8.08,5.77a138.88,138.88,0,0,0-6.49,20.69c-.42,1.75-2.52,2.6-4.7,2.46a9.41,9.41,0,0,0-8.24,7.86c-.56,2.53-2.4,3.85-4.75,4.61a4,4,0,0,0-2.67,3.92c-.1,2.14-.47,3.72-1.55,4.81a3,3,0,0,0-.7,3.09,22.81,22.81,0,0,1,3.77,9.24c-1.08,2.83,1.26,4.54,2.61,5.95a4.38,4.38,0,0,1,.94,4.48,6.9,6.9,0,0,1-2.95,1,17.76,17.76,0,0,1-7.48-.44c-2.5-.74-3.66-3.07-4.65-5.44-1.47-3.53-3.39-6.79-4.34-10.86,0-4.38-2.53-6.43-3.59-9.56a49.92,49.92,0,0,1-2.35-15.86,16.64,16.64,0,0,0-3.74-7.51,18.66,18.66,0,0,1-2.82-4.43,17.71,17.71,0,0,0-2.41-11.8l-1-9.09c-1.59-2.84-4.66-4-7.2-5.72a46.23,46.23,0,0,0-6.77-3.31c-3.16-2.33-4.44-6.39-5.9-10.32-1-2.68-2.64-4.73-3.93-7.09-.37-3.37.43-5.84.57-8.82.06-1.53.17-3.38.25-4.89,1.33-1.69,2.58-3.24,3-5.45.58-3.17-.39-5.67-2.08-7.09a4.43,4.43,0,0,0-2.57-.87c-4.9-.37-8.23-2.43-11.44-4.39a11.1,11.1,0,0,1-3-1.92,25.62,25.62,0,0,0-14-8.43c-4.71-3-10.73-4-15.66-6.41-3.56-1.73-5.24-5.46-6.52-9.72-.69-2.29-1.91-4.27-4.41-4.92-3.13-2.19-5.15-5.72-5.56-10.74-.8-2.65-2.54-4.31-3.53-6.69a4.88,4.88,0,0,1,0-3.35,22.52,22.52,0,0,0-.85-14.92,16.62,16.62,0,0,1,0-3.86c.66-4.57,1.48-8.45,3.72-11.36a6,6,0,0,0,.52-4.67,8.27,8.27,0,0,1,3.07-9.11,4.11,4.11,0,0,0,1.67-4.32c1.18-2.47,2-4.73,3.82-6.06.35-1.88,1.54-3.15,2.3-4.65,3.5-6.86,9-12.35,14.51-17.2,4.21-3.72,8.24-7.1,12.81-10.47l8.47-6.55,12.35-7.56a109.05,109.05,0,0,1,13.46-6.59,5.53,5.53,0,0,1,2.49-.28c.89,2.37,2.56,4.16,3.82,6.66a11.85,11.85,0,0,1,3.56.06,17.55,17.55,0,0,1,3.12,1.72c.58.28,1.45-.17,1.68.39a8.8,8.8,0,0,0,2.61,3.18,57.84,57.84,0,0,0,6.14,5.21c2.43,0,4.69.75,5.28,2.31a7.09,7.09,0,0,1,.43,1.39,18.87,18.87,0,0,1-2.69,12.1,1.55,1.55,0,0,1-1.7.61c-2.14-.41-3.27-2.12-4.1-3.85-.71-1.49-1.17-3.36-2.5-4.25a5.26,5.26,0,0,0-2.31-.71,2.61,2.61,0,0,0-2.6,2.12,3.39,3.39,0,0,1-.82,1.89c-1.17,1.07-3.21,1.11-4.47,2.08a3.7,3.7,0,0,0-1.23,3.28c-1,4-5,6.37-9.74,5.36a10.24,10.24,0,0,0-8.14,1.93c-.42,1.32.18,2.64-.17,3.87-.14.51-1.07,1.87-1.19,2.38-.19.75.61,1.17,1.19,1.4a37.6,37.6,0,0,0,3.54,1.45l2.87,3.51c.4.42,1.23.79,1.64.58,2.91-1.52,6.4-2.45,8.77-4.66,2.21-2.06,3.25-5.35,4.43-8.48.17-.46.73-1,1.07-1a26.58,26.58,0,0,0,8-.22,7.16,7.16,0,0,1,6,5.44c.53,2.12.15,4.93.77,6.92a31.3,31.3,0,0,0,4.1,4.32c.91.34,2.23.47,2.87,1.4,1.79,2.64,1.57,7.83-1.2,9.3a13.94,13.94,0,0,1-4.26,1.44c-1.65-.47-3.48-1.31-5.72-2.07a17.51,17.51,0,0,0-8.18,4.34c-.33.32-.65,1.23.08,1.44,1.46.43,2.57-.39,3.8-.85a5.35,5.35,0,0,1,3.52-.13,1.39,1.39,0,0,1,.9,1.31,8.1,8.1,0,0,1-1.88,4.86c-2.23,3.35-6,5.33-10,7-3.27,3.34-4.83,8.63-6.73,13.32-3.23,4.23-8.08,6.84-13.32,9.11a3.28,3.28,0,0,0-1.54,4.31,26.83,26.83,0,0,1,2.46,5.62,9.67,9.67,0,0,1-.14,3.08,1.78,1.78,0,0,1-1.3,1.16c-2.75,0-3.92-2-5.25-3.65s-2.82-3.66-5-4.7c-4.31-1-7.91.68-10.85,2.38-1.88.49-4.23.61-5.63,1.88a3.16,3.16,0,0,0-.65,2.18,18.18,18.18,0,0,1-2.08,7.77c-.56,1-.44,2.35-.52,3.6l0,3.85a5.79,5.79,0,0,0,1.24,2.56,2.23,2.23,0,0,0,2.66.28c1.81-1.51,3.07-3.84,5.86-4.48a6.26,6.26,0,0,0,2.81.28c1.66.25,2.25,1.53,2.75,2.6.87,1.88.14,4.06-.48,5.72-.18.51-.26,1.29.11,1.5.93.52,1.89.07,2.8-.06,1.89-.25,2.4,1.26,3.49,1.94"/><path class="cls-118" d="M282.69,419.73c4.41-.67,7.94.54,11.29,1.12,2.42-.79,4.06-1.75,6.29-2.19,7.6.09,13.09,2.41,18.67,4.5a57.74,57.74,0,0,1,8.33,4.22c-2.76,1.27-5.57,2.49-8.24,3.61-13.06,5.5-28.69,8.63-45.88,9.87a177.15,177.15,0,0,1-77.38-11.36,26.34,26.34,0,0,1-5.48-2.32,13.8,13.8,0,0,1,10.56-6l7.88-1.22c5.21-.19,9,1.28,13.15,2.26a25.65,25.65,0,0,1,6.45.62c5.09-.51,7.65-3.73,10.37-6.63a7.62,7.62,0,0,0,2.12-4.18c.67-3.74,3.23-6,6.24-7.51.29-.14,1.1.05.75,1-.42,1.19-1.54,2.87-2,4.74a3.22,3.22,0,0,0,.68,2.7c1.35,1.78,1.67,4.85,2.19,6.66a12.11,12.11,0,0,0,9.24,4.68c2.62.1,4.74,1,7.17,1.25.66.09,1.49.2,1.94-.22Z"/><path class="cls-118" d="M246.17,111.29a12.35,12.35,0,0,1,.87-2.86,4.87,4.87,0,0,0,.7-4.48,5.62,5.62,0,0,0-1.22-1.77c-1.36-1-3.22-1.68-4.11-3.22.09-1.69,1.16-2.87,1.75-4.32-2.52-1.58-5.08-3.17-6-6.11A.79.79,0,0,0,237.1,88c-.66-.6.12-1.43.25-2.18a4.51,4.51,0,0,1-2,.27c-.14,0-.41.36-.43.37-2.77.42-5.6.66-8,1a5.32,5.32,0,0,1-3.84.51,1.28,1.28,0,0,0-1.21.38c-1.87,2.16-2.79,5.23-3.7,8.36-.07.22-.29,1.11.42.74.56.4.66,1.16,1.29,1.38.42.14,1.84,0,2.29.08s1.18,0,1.07.55a5.43,5.43,0,0,1-1.13,2.51c-1.34,1.48-1.63,4.18-.93,6.46a6,6,0,0,1,.25,4.06,4.06,4.06,0,0,0,0,2.95c.52,1.28,1.56,2.22,2.21,3.39,1.06,1.8,2.14,3.76,4,4.56l9.9,3.13a1.37,1.37,0,0,0,1.31-.63c.84-1.39,1.71-3,2.75-4.44A55.41,55.41,0,0,0,246.17,111.29Z"/><path class="cls-118" d="M178.14,222.05c-1.72-.29-3.64-.88-5.43-.29a4.44,4.44,0,0,0-.61.22,8.88,8.88,0,0,0-4.12,4.39c.53,1.7,2.24,2.44,4,2.39l12.94-1.87c3.2.53,5.81,1.53,8.75,2.27a4.66,4.66,0,0,0,1.88-.21c.57-.11,1.28-.57,1.19-1.19a5.32,5.32,0,0,0-2.32-3.63c-2.57-.77-5.65-1.14-8.34-2.11Z"/><path class="cls-118" d="M251.65,117.69a2.91,2.91,0,0,1,1.16-.27,19.68,19.68,0,0,1,5.51,2.34c.64.39,1.24,1.44.51,2.06a13.08,13.08,0,0,1-2.88,1.65h-3.44a8.34,8.34,0,0,1-3.84-2.27A9.17,9.17,0,0,1,251.65,117.69Z"/><path class="cls-118" d="M440.41,244.75a216.09,216.09,0,0,0-3.77-24.89,328.58,328.58,0,0,0-11-33.5c-3.76-8.07-9.14-17.06-9.14-17.06l-2.5.52s1.25,3.92-2.5,3.14-12.73-5.23-13.23-2.88a13.46,13.46,0,0,0,.75,6.54c.5,1.57,4,5.5.5,4.71s-8.24-1.57-8.24-1.57a10.25,10.25,0,0,0-8.49-4.19c-5.49.27-10-.52-10.74-3.4s-4-7.32-17.47-8.11-19.48,7.85-19.48,7.85-4,6-8,6.54-8,.26-9.74.79h0c-1.57,2.65-1.93,6.59-2.37,10.45-1.53,3.3-3.49,6.2-3.31,11.15-.62,4.29-1.21,8.72-1.88,12.8-.56,3.34-.31,7.36-.23,11,.08,4.85,2.7,7.37,6.14,9.1l2.43,2.52c1.35,1.82,2.13,4.18,3.42,6,2.51,3.48,4.91,7.07,10.26,7.54a27.66,27.66,0,0,0,10.81-1.43,21.35,21.35,0,0,0,9.71-2.4c3.91-1.16,6.82-3.35,11.73-3.38a5,5,0,0,1,2,.72c3.37,1.6,4.3,5.72,5.37,9.62a13.75,13.75,0,0,0,3.95,8.65c1.81,4.23,2.4,9.59,3.59,14.47.71,2.92,1.88,7.39-.16,9.8a6.41,6.41,0,0,0-1.42,4.84l4.94,11.85c.15,3.43-1.13,6-1.71,8.32a98.21,98.21,0,0,0,1.94,15.56c-.23,3.68-1.58,6.11-2.22,9.3a2.28,2.28,0,0,0,1.07,2.7c6.42-.41,12.47-1.32,19.21-1.77a6.91,6.91,0,0,0,3.7-1.21c1.61-3.42,3.4-6.88,6.62-8.8a17,17,0,0,1,3.57-7.1c1.59-1.73,3.8-2.84,5.43-4.58,1.14-3.88,1.48-8.43,2.92-11.79,1.57-3.67,15.63-16.89,15.63-16.89C440.94,273.76,441.49,258.84,440.41,244.75Z"/><path class="cls-118" d="M296.16,98.36l6.42,2.47,3.21,1.23,4.7,2,1.72-1.23L309,100.09l-7.4-6.18-4.94-.74L292,90l-3.7-2,2.72-.25,6.42,3.21,9.87,3.46,4.94.5,3,2.47,3.46.25-1.49,2,5.68,5L319.62,106s-4.44-1.48-4.19,0-7.41,1.23-7.41,1.23l-2.23-1.73-.74-1.73-3.7-1-2.47,1,6.91,6.92-2.71,3.46.74,4-1.24,3.7-2,3-2.23,3a6.21,6.21,0,0,0-5.18,2c-2.47,2.47,1.23,2.47,7.41,4.2s12.84,12.36,12.84,12.36a50.32,50.32,0,0,1-7.16,1.24,65.59,65.59,0,0,0-10.09,1l-5,3.68c-1,.16,3.16,4.83,4.5,6.5,1.11,1.39,1.25,3,1.5,5,.33,2.66.33,4.47.49,4.7,1.62,2.21,5.1.69,4.94,3,.38,1.58,2.13,3.12,2.71,4.2.25.46,4.47-.38,4.68-.25l6.75,2.25.06,0a.39.39,0,0,0,.06-.15c.25-1.31,2.75-4.45,6.25-4.71s3.74-2.1,3.74-2.1l.75-5.49-1-5.23-1.75-5.76,1.25-4.71,3-3.4s-3.75-4.71.5-6.54,8.74-1.83,8.74-3.4,4.74,2.09,6.24,2.61,7.24,4.19,11.49,4.19,11.23,4.45,11.23,4.45l4.74,5.23-2.24-5.76,1.5-.78a15.25,15.25,0,0,0-5-3.66c-3-1.31-10.73-3.93-10.73-3.93l-8.24-4.71-3.75-3.66s10.74,3.66,12.24,3.66,13.48,7.59,13.48,7.59l6,4.45,4.24,4.45s4.75,4.18,5.75,4.44,5.24,1.84,5.24.79-1.75-4.71-1.75-4.71l-4.49-4.19-1.75-4.71,1.75,1.05,3.74,4.45,4.75,3.66,3.49,1.05,2.25,2.61,2.25-2.87,3,.26,3.5,6.28,1.22-1.28a147.51,147.51,0,0,0-22.41-25c-1-.85-1.73-2.24-3.1-2.64,0,0-12.92-11.19-13.37-11.6a51.18,51.18,0,0,0-5.5-4.4c-22.28-15.09-48.15-26.8-81.34-30.67a1.21,1.21,0,0,0-1.23.74c-.25.56.27,1,.28,1.17A16.21,16.21,0,0,1,280.37,93a1.72,1.72,0,0,0,.2,1.21c.71,1.24,1.52,2.39,2.33,3.53,2.37,1.4,4.92,2.65,6.35,3.31C292.46,102.56,296.16,98.36,296.16,98.36Z"/><polygon class="cls-118" points="369.83 152.5 364.61 153.03 365.13 155.91 372.19 157.74 372.71 155.64 369.83 152.5"/><polygon class="cls-118" points="347.02 150.88 351.47 156.64 355.13 157.69 354.87 154.54 350.16 149.57 347.81 149.31 347.02 150.88"/><polygon class="cls-118" points="342.15 143.06 345.29 146.99 347.12 146.99 344.24 142.54 342.15 143.06"/><polygon class="cls-118" points="290.87 127.39 296.22 123.92 300.31 122.36 298.89 120.45 297.95 119.06 294.64 118.54 290.55 116.8 287.56 115.24 285.67 115.06 284.88 112.29 281.89 112.29 279.38 110.9 278.12 112.63 280.95 114.72 281.89 116.97 283.15 118.19 285.51 117.67 288.35 118.02 289.61 119.93 287.25 119.58 289.29 121.49 289.29 123.22 291.65 124.09 290.87 127.39"/><polygon class="cls-118" points="281.94 118.74 284.29 120.25 286.47 121.93 287.31 123.78 283.79 125.96 280.6 125.79 280.6 123.11 278.92 122.27 278.41 120.92 279.42 120.58 279.42 119.24 281.94 118.74"/><polygon class="cls-118" points="204.02 226.87 204.02 229.55 197.98 230.9 202.68 232.24 210.06 232.24 215.43 234.25 212.07 228.88 209.39 225.53 204.02 226.87"/><path class="cls-119" d="M97.5,316.67c10.64-1.24,15.61-2.49,15.61-14.19V218.39c-9.93-12.23-12.77-12.78-15.08-12.78v-4.43h37.43L197,276.94h.35V223.18c0-10.64-2.13-16.5-16.49-17.57v-4.43H219v4.43c-12.77,1.61-13.85,5.69-13.85,14.19V324.3h-4.95l-78.95-96.15h-.36v71c0,12.77,3.73,16.14,16.86,17.56v4.44H97.5Z"/><path class="cls-119" d="M303.61,236.84c-3.2-12.42-13.84-32.82-34.77-32.82-9.22,0-19,5.32-19,16.85,0,9.58,3.37,13.48,18.28,20.93l26.08,12.95a36.75,36.75,0,0,1,19.52,32.65c0,15.61-11.37,37.08-44,37.08-16.86,0-24.84-6-30.34-6-3.73,0-4.62,3.19-5.32,6h-5.14V280.66h5.14c3.55,17.92,13.84,38,36.37,38,21.29,0,22.17-17.57,22.17-19.88,0-11.88-8.34-16.14-19.86-21.64l-11.89-5.68c-30.34-14.55-30.34-29.8-30.34-38,0-10.82,5.5-34.94,39.21-34.94,14.2,0,22.52,5.85,27.68,5.85,4.07,0,4.95-2.66,5.84-6h5.33v38.49Z"/><path class="cls-119" d="M324.17,201.18H424.74v35.66h-4.25c-3.9-18.45-8.69-29.62-39.21-29.62-9.58,0-12.77.7-12.77,8.33v41.16c22,.35,24.66-12.24,27.15-26.43h4.43v60h-4.43c-2-14.55-4.79-27.5-27.15-27.5v41.33c0,11.72,7.1,12.07,19.52,12.6v4.44H324.17v-4.44c10.11-1.06,15.6-1.6,15.6-12.6V218.21c0-11.7-7.27-12.05-15.6-12.6Z"/><path class="cls-2" d="M261.12,82a178.8,178.8,0,1,1-69.83,14.09A178.36,178.36,0,0,1,261.12,82m0-2.25c-100.32,0-181.65,81.32-181.65,181.64a181.65,181.65,0,0,0,363.3,0c0-100.32-81.33-181.64-181.65-181.64Z"/></g></g></svg>