<svg xmlns="http://www.w3.org/2000/svg" viewBox="0 0 350 350"><defs><style>.cls-1{fill:#0052a2;}.cls-2{fill:#abb6db;}.cls-3{fill:#ffd90f;}.cls-4{fill:#fff;}.cls-5{fill:#009d56;}</style></defs><g id="Layer_2" data-name="Layer 2"><g id="Layer_1-2" data-name="Layer 1"><g id="g3510"><path id="path37945" class="cls-1" d="M175,350l9-.23,8.87-.68,8.78-1.1,8.62-1.55,8.45-1.95,8.3-2.36,8.13-2.76,8-3.11,7.74-3.49,7.55-3.89,7.32-4.21,7.09-4.54,6.87-4.89,6.61-5.18,6.35-5.51,6.09-5.8,5.8-6.09,5.47-6.35,5.22-6.61,4.86-6.83,4.57-7.13,4.21-7.32,3.85-7.55,3.5-7.74,3.14-7.94,2.76-8.13,2.36-8.33,1.95-8.45,1.55-8.62,1.1-8.75.68-8.9.23-9A175,175,0,1,0,175,350Z"/><path id="path37947" class="cls-2" d="M175.19,299.85l6.45-.16,6.35-.49,6.25-.81,6.16-1.1,6.06-1.39,5.92-1.68,5.8-2,5.7-2.27,5.54-2.49,5.38-2.75,5.25-3,5-3.24L250,275l4.7-3.72,4.53-3.92,4.34-4.15,4.15-4.34,3.95-4.53,3.69-4.73,3.5-4.9,3.24-5.08,3-5.22L287.9,229l2.52-5.54,2.24-5.67L294.6,212l1.69-5.93,1.42-6.06,1.11-6.16.77-6.25.49-6.35.16-6.44a125,125,0,1,0-125,125Z"/><path id="path37949" class="cls-3" d="M225.08,278.34l-.06-2.4-.2-2.33-.32-2.33-.42-2.27-.58-2.23-.65-2.21-.78-2.13-.91-2.11-1-2-1.1-2-1.2-1.94-1.29-1.88-1.4-1.82-1.46-1.75-1.58-1.68-1.62-1.62-1.75-1.52L207,242.61l-1.88-1.36-1.95-1.3-2-1.2-2.11-1.13-2.14-1-2.2-.94-2.24-.81-2.33-.72-2.33-.61-2.4-.52-2.46-.39-2.5-.29-2.52-.16-2.53,0c-30,.16-50.92,20.6-50.37,49.17Z"/><path id="path37951" class="cls-3" d="M161.52,208v.16l0,.13,0,.16,0,.16,0,.23,0,.23.06.25,0,.3.07.32.06.36.07.35.06.39.07.39.09.42.17.91.16,1,.16,1,.19,1.07.2,1.1.19,1.14.42,2.3.39,2.3.2,1.13.19,1.1.2,1.07.19,1,.16,1,.16.91.07.42.1.39.06.39.07.38,0,.33.06.32.07.29,0,.26.06.23,0,.23,0,.19v.13l0,.13,0,.1v.06l2.92-.35-3.63-22.52Z"/><path id="path37953" class="cls-3" d="M215.2,252.23l.07-.06.19-.1.29-.23.42-.26.52-.39.62-.42.74-.48.81-.59.91-.61,1-.71,1.11-.75,1.16-.81,1.27-.84,1.32-.91,1.4-1,1.45-1,3.11-2.14,3.31-2.27,3.53-2.43,3.66-2.53,3.79-2.59,3.86-2.69,7.93-5.44,7.91-5.44,3.89-2.69,3.79-2.59,3.66-2.53,3.49-2.4,3.34-2.3,3.11-2.14,1.46-1,1.39-1L291,200l1.23-.84,1.17-.81,1.1-.75,1-.71.91-.61.84-.59.72-.48.64-.42.52-.36.39-.29.32-.23.17-.1.06-.06-2.17,8.36L216,254.4Z"/><path id="path37955" class="cls-3" d="M209.05,245.14h0l0,0h0l0,0,0-.06,0,0,.06,0,0-.06.07-.07,0-.06.07-.07.06-.09.07-.07.06-.1.1-.09.16-.2.16-.19.2-.23.16-.23.19-.22.2-.26.42-.49.42-.48.19-.23.2-.26.16-.23.19-.19.17-.23.16-.19.1-.07.06-.09.06-.1.07-.07.06-.06,0-.07.06-.06,0-.07.07-.06,0,0,0,0,0,0v0l0,0h0l1.81,2.17-5.08,4.37Z"/><path id="path37957" class="cls-3" d="M201.43,238.79h0v0l0,0,.06-.06,0-.07.07-.06.1-.1.06-.13.1-.1.1-.13.12-.16.1-.16.13-.16.16-.16.13-.2.17-.19.29-.42.35-.43.36-.48.39-.45.39-.52.39-.52.81-1,.81-1.07.38-.52.39-.48.39-.49.36-.45.35-.45.3-.43.16-.19.13-.16.16-.2.13-.16.1-.16.13-.13.09-.13.1-.13.07-.1.09-.09.07-.1,0-.07.06-.06,0,0v0h0l.19,3.17-7.06,9.17Z"/><path id="path37959" class="cls-3" d="M285.34,166.06v0l0,0,.07,0,.06-.06.1-.1.1-.13.12-.1.13-.16.17-.16.16-.16.19-.2.2-.19.22-.23.2-.23.26-.22.22-.26.55-.55.56-.55.58-.62.65-.65.64-.64.65-.68,1.33-1.36,1.36-1.37.65-.68.65-.64.61-.65.62-.62.55-.55.52-.55.26-.26.22-.22.23-.23.23-.23.19-.19.2-.2.16-.16.16-.16.13-.16.13-.13.1-.1.09-.1.07-.06.06-.07h0l0,0,1.07,7.26L288.51,170.3Z"/><path id="path37961" class="cls-3" d="M273.64,136.84h0l0-.07,0-.06.06-.1.1-.1.1-.16.13-.16.13-.19.16-.2.16-.26.2-.22.19-.3.19-.29.23-.29.23-.32.26-.33.52-.71.55-.78.58-.81.61-.84.62-.87.65-.91,1.33-1.82,1.32-1.84.65-.88.62-.87.61-.84.59-.81.55-.78.52-.71.22-.36.26-.29.2-.33.22-.29.2-.26.19-.26.16-.22.13-.23.16-.16.1-.2.13-.12.07-.13.06-.1.07-.07,0,0v0l-4-7.61L270,131.4Z"/><path id="path37963" class="cls-3" d="M157.34,234.8h0l0,0v0l0,0,0-.06,0-.06,0-.07,0-.1-.06-.09,0-.1-.06-.13-.07-.13-.06-.13-.07-.13-.06-.16-.1-.13-.16-.33-.16-.35-.2-.39-.19-.39-.2-.39-.19-.42-.42-.84-.42-.81-.2-.42-.19-.39-.2-.39-.19-.39-.16-.35-.16-.33-.07-.13-.1-.16-.06-.13-.06-.13-.07-.13,0-.13-.07-.1-.06-.09,0-.1,0-.06,0-.07,0-.06,0,0v-.06h0l1.81-2.82L159,234.45l-1.62.45Z"/><path id="path37965" class="cls-3" d="M148.27,234.45h0v0h0v0l0,0v0l0,0v0l0,.06,0,0,0,.06,0,.07,0,.06,0,.07,0,.06.06.13.07.16.09.16.07.17.1.16.09.19.2.36.16.36.1.19.09.16.1.16.07.17.06.16.1.16,0,.06,0,.07,0,0,0,.07V238l0,0,0,.07,0,0v0l0,0v0l0,0v0h0l-1.72,1-2.17-2.82Z"/><path id="path37967" class="cls-3" d="M139.36,239.53h0v0l0,0,0,0v0l0,.07,0,0,0,.06.06,0,0,.06,0,.07.06.06,0,.1.06.06.1.16.13.17.13.19.13.19.13.2.13.23.29.38.26.43.16.19.13.23.13.19.13.16.09.2.13.16,0,.06.06.07,0,.06,0,.07.06.06,0,.07,0,.06,0,0,0,.06,0,0v0l0,0h0l0,0h0l-1.56,1-4.69-4.37Z"/><path id="path37969" class="cls-3" d="M117.63,238.07h0l0,0,.06,0,.1.06.1.07.13.1.16.13.16.09.2.16.22.13.23.17.26.19.26.16.29.2.29.22.33.23.64.45.72.49.74.52.78.55.81.55.81.58,1.68,1.17,1.69,1.2.81.58.81.55.78.55.74.52.71.49.65.45.33.23.29.19.29.23.26.16.26.19.22.17.23.13.19.12.17.13.16.13.13.07.1.1.09.06.07,0,0,0h0l-1.46,2.26-18.43-12.7Z"/><path id="path37971" class="cls-3" d="M92.55,221v0l-.09-.06-.17-.1-.19-.16-.26-.16-.32-.23-.36-.23-.39-.29-.45-.32-.52-.33-.52-.39-.58-.38-.65-.43-.65-.45-.68-.49L86,216.5l-1.56-1.07L82.8,214.3l-1.71-1.2-1.82-1.27-1.88-1.29-1.94-1.33-3.92-2.72-3.92-2.69-1.91-1.33-1.88-1.29L62,199.91l-1.74-1.2-1.66-1.13-1.52-1.07-.74-.49-.68-.48-.65-.45-.65-.43-.55-.38-.55-.39-.52-.33-.45-.32L51.9,193l-.36-.23-.32-.23-.26-.16-.2-.16-.16-.1-.06-.06,0,0,1.07,7.28L94.4,227.55Z"/><path id="path37973" class="cls-3" d="M51.57,150.64h0l0,0,.06.1.1.1.13.12.16.13.2.2.19.19.23.23L53,152l.26.29.29.26.32.32.33.33.32.32.39.36.74.77.85.81.87.85.91.9.94.91.94.94,2,1.94,1.95,1.91,1,1,.94.9.9.91.88.84.81.81.78.75.35.35.36.36.32.32.33.3.29.29.26.26.26.26.22.22.2.2.16.16.16.16.13.13.1.1.1.06,0,.07h0L69.71,176,49.76,157.9Z"/><path id="path37975" class="cls-3" d="M62.1,116.88h0l0,.07,0,0,.06.1.1.09.06.13.13.13.13.17.13.16.16.19.17.23.16.23.19.22.2.26.19.26.23.29.45.58.52.65.52.68.55.72.55.71.58.74,1.2,1.53,1.17,1.52.58.74.58.75.55.68.52.68.49.65.48.58.2.29.23.26.19.26.19.23.17.22.16.23.16.2.13.16.13.16.1.16.09.1.1.1,0,.09.07.07,0,0h0l4-5.09L67.16,109.27Z"/><path id="path37977" class="cls-3" d="M247.24,100.62h.07l0,0h.19l.07,0h.06l.1,0h.1l.09,0h.1l.13,0h.13l.23-.07.26,0,.29-.06.29,0,.32-.06.3,0,.64-.13.62-.1.32-.06.29,0,.3-.06.29,0,.26-.07.26,0h.13l.09,0,.1,0h.1l.09,0h.2l.06,0h.07l.06,0H254l8-17.79-6.15-5.08L246,99.1Z"/><path id="path37979" class="cls-3" d="M223.56,57.37h-.1l0,0-.06,0h-.07l-.06,0-.1,0-.1,0-.09,0-.1,0-.1,0-.13,0-.13-.06-.13,0-.29-.09-.29-.1-.29-.1-.36-.1-.32-.12-.36-.13-.71-.23-.71-.23-.33-.13-.35-.09-.33-.13-.32-.1-.29-.1-.3-.1-.13,0-.09,0-.13-.07-.13,0-.1,0-.1,0-.09,0-.07,0h-.06l-.07,0-.06,0H216l0,0h0l-3.63,22.83,6.51.75Z"/><path id="path37981" class="cls-3" d="M89.31,82.06h0l0,0,0,.06,0,.1.07.13.09.13.1.16.1.2.09.19.13.23.13.26.17.26.16.29.16.29.16.32L91,85l.39.68.42.74.42.78.45.84.49.85.48.87,1,1.78,1,1.78.48.88.49.84.45.81.43.81.42.75.39.68.19.32.16.32.16.3.17.29.16.26.13.22.13.23.09.23.1.16.1.16.1.16.06.1,0,.1,0,.06,0,.07h0l6.38-1.72L98,74.8Z"/><path id="path37983" class="cls-3" d="M135.74,80.6h0v-.07l0-.09v-.1l0-.16-.06-.16,0-.2,0-.26-.06-.26-.07-.26-.06-.32-.07-.32-.06-.36-.1-.36-.06-.42-.1-.39-.2-.87-.19-.94-.23-1-.19-1L133.92,72l-.22-1.1-.49-2.24-.49-2.23-.22-1.07-.23-1.07-.23-1-.19-1-.2-.94-.19-.87-.1-.39-.06-.42-.1-.36-.06-.36-.07-.32-.06-.33-.07-.29-.06-.26,0-.22-.07-.2,0-.16,0-.16v-.13l0-.07v-.06h0l9.43-3.27,2.17,25.4Z"/><path id="path37985" class="cls-3" d="M179.28,47.59h0v1.68l0,.29v1.37l0,.77v.85l0,.9v.91l0,.94v1l0,2,0,2,0,1v1l0,.91v1.72l0,.77V67l0,.29V69l0,0-6.51,1.82V48Z"/><path id="path37987" class="cls-3" d="M201.08,214.49h0v.1l0,0v0l0,.07v0l0,.06v.07l0,.06v.1l0,.07,0,.09,0,.07,0,.19.06.2.07.22.06.23.07.23.06.22.13.46.13.48.07.23.06.23.06.22.07.2.06.19,0,.2,0,.09,0,.07v.1l0,.06,0,.06v.07l0,.06v.07l0,0v.1l0,0v0h0v0l7.75-14.06h-2.4l-5.61,10.69Z"/><path id="path37989" d="M81.86,124.66v-.49l0-.13v-.32l0-.29-.07-.33,0-.29,0-.29,0-.29c-.26-1.82,3-3.53,5.54-2.5,1,.42,1.58-2.1,3.33-2.85,1.53-.61-.65-3.69,1.62-4.69.91-.39,2.5.48,2.69-.81.07-.43-1.1-1-1.1-1.43,0-2.46-1.26-4.34-1.33-6.54-.1-2.43,2.59-2.14,4.8-2.3.51,0,.9-.62.71-1.33,1.68-.1,4.21-1,5.18.65.65-1.79,1.82-.55,1.46-2.08-.55-2.46-.36-1.16-.65-1.58-2.14-2.92.07-9.3,3.4-8.91,3.18.35,6,1.16,6.58,4.86,1.55-2.79,4.66-.68,6.35.74s1.36,3.4,1.39,5.61c0,1.81.88-.81,1.69-.75.09-2.49-.07-4.15,2.07-5,1.91-.68.42-3.82.94-5.28.84-2.36,1.55-3.59,4.11-4.89,2-1,3.44.55.33-.35,3.46,1,1.23-.33,2.69-2.69s4.95-2,8-2.14c-.2.71.45.39,1,.58s1.23,3.6,1.72,3.6c-.19,5.54-1.59,4.14,2.43,3.85,1.07-.06,2.33-1,2-1.36a5.49,5.49,0,0,1-1.2-5.21c.35-1.75,1.75-2,3.43-2.5,2-.55-1-2.75.19-4,1.75-1.81,2.6-4.12,4.38-5.73.81-.75,2.27-1.53,3.4-.75,2.79,1.94,3.34,5.51,5.54,7.42,2.66,2.36,3.92-2.82,6.93-3.86,1.43-.48,2.72-1,3.6.3,2.69-3,6.41-2,10-1.33s.62,4.66,1.23,7.38c.46,2,2.79-1.1,4,1.46,1.88-1.17,2.5-3.21,4.34-4.11,1.27-.62,2.76,1.2,3.4.94,2.66-1.14,3.28-5.67,6.09-6.45,4.54-1.17,7,4.11,7.84,8.26.36-.49,1-1.1,1.33-.62,2.08,3.08,3.53,1.95,6.64,2.3.78.07,1.46,1.24,2.17,2,2-4.05,7.91-2.43,9.62-.2,2.63,3.41,1.53,7.94-1.42,8.2.91,1,.55,1.68,1.26,2.88a1.38,1.38,0,0,1,1.46-.74c1.94.35,2.62,2.36,4.34,2.91.52-4.14,6.22-5.79,8-3.14,1.27,2,3,6.35.13,9.1-.06.07.65.94,1.27.52s1.16-1,1.29-.58c.33,1,1.78-.29,2.2.45,2.5-2,4.83-2.3,7.07-.16,2.07,2,4.18,7.1.35,9.07.49.49,1.23.91,1.33,1.46.39,2.3-1.46,4.57,1.59,4.89.45,0,.91-1.07,1.46-1.13,3-.36,6.35.35,7.06,3.53.49,2.27-2.07,3.37-1.26,5.77a4.86,4.86,0,0,0-3.63,1.45c.06.07.13.1.19.2Zm182.42,0,.13.09.13.13.16.1.13.13.13.13.13.13.13.13.13.16.1.13.13.16.09.13.13.16.1.13.1.17.06.16.07.16.06.16.07.16,0,.17,0,.16,0,.16v.42l0,.07v.09l0,.1,0,.07,0,.09,0,.07,0,.09,0,.1-.07.07,0,.09-.06.1-.07.07-.06.09-.07.07-.06.09-.1.1-.06.07c3.11,1.36,8.52.81,7.09,5.5-.32,1,1.85,2.17,1.88,3.31.13,4.27,3.4,3,5.41,5.8,1.07,1.46.29,3-.1,4.4-.91,3.27,2.79,7.84-.52,10.76,2.85,1.46.29,5.93,2.17,5.93s5.06,1.1,6.19,2.36c1.39,1.59.13,5.31-.91,6.48-2.26,2.59-.35,5.09-2.59,7.52a6.84,6.84,0,0,1-1.49,1.16H66.05a13.7,13.7,0,0,1,3.08-5.8c1.2-1.19-1.26-4.6,4.8-6.35,1.39-.38,1.65-1,1.19-1.84-.93-1.65-4-1.62-4-4.67,0,1.17.35-.09.61-.32s-2.3-.84-3.53-1.62c-4.11-2.59-4.5-5.15-3.4-7.81a6.51,6.51,0,0,1,4.83-3.85c2-.42,2.78.55,4.34.84.74.1.55-1,1-2.11.75-1.94,3.3.65,4.83-.81-1.46-1.45-3.24-2.69-4.18-4.43-1-1.95-.26-2.63,1.46-3.92-2-1.33-3.44-4.54-2.11-6.74,1.07-1.78,1.62-4,2.92-4.8s3.53-.52,3.92-2.65a5.4,5.4,0,0,0,.09-1.2Zm18.4,58.08-.16.13-.19.1-.17.1-.19.09-.16.1-.16.07-.13.09-.17.07-.16.06-.13.07-.29.16-.26.13-.29.13-.13.1-.1.06-.13.1-.13.09-.13.1-.12.13-.13.1-.1.13-.13.16-.13.13-.13.16-.13.2-.13.16-.1.22-.13.2-.13.23c4,1.75,4.41,8.81,2.47,11.72-1.62,2.37.32.39-.13,4.7-.36,3.21-3.44,5.51-6.71,2.46-1.13,3.24-1.81,7.81-5.54,8.94-1.65.52-3.92,1.17-5.7-.42-.91,1.33-3.56,2-3.21,2.69,1.62,3-.13,5-2,6.55-1.36,1.1-3.76-1.07-4.63-.23-2.37,2.33-5,2.3-4.12,6.06.39,1.45,1,3.46,0,5.15-.81,1.46,0,4.21-1.36,3.59-1.75-.74-4.57,1-5.67.1s-2.24-.58-2.95-1.78c-1.62.65-.94-.36-.75.35a13,13,0,0,1-4.53-1c-1.62-.68-2.17-1.42-2.11-3.37a.86.86,0,0,0-1.29-.68c-.59.33-1.36,1-1.3,1.36.42,3.6-2.78,4.35-3.85,6.26-1.53,2.62-4.12,5.31-7.23,5.21s-3-2.52-4.5-4.76c-.26-.39-1.75-2.17-1.81-2.36-2-6.19-3.31-9.79.32-14.74.55.12,2.46-2.34,1.65-3.37-2-2.66,1.39-5.61,3.47-8.1a2.51,2.51,0,0,0,0-2.59c-4.83-4.41-13-3.28-14.65,2.85-1.45,5.37,2.69,12,.81,17.2-3,8.32-9.16,14.45-12.66,22.68-1.27,3,.71,6.18,3.53,7.71,2.2,1.19,5.38.71,6.87,2.59,4.27,5.31,10.85,5.57,15.26,10.2,1.06,1.17,1.71,3.31,3.27,3.86,7.58,2.69,14.74,7.74,23.13,6.77-2.08,3.76-6.19,4.73-9.59,6.15-8,3.4-15.62,7.16-24.46,9.27-19.79,4.73-38.13,5.63-58.05,1.62-14.65-3-27.54-8.49-40-15.62.26-.22.49-.65.71-.61a25.14,25.14,0,0,0,7.88-.52c7.22-2.17,14.09-5.83,20.79-8.49,5.28-2.1,7.52-9.62,10-15.68.81-2,2.59-3.5,4.4-4.95,7.49-6.1,12.35-14.49,16.56-23,1.78-3.56,2.43-8.52.39-12.66-3.92-8.07-12.64-11.34-20.87-13.9-.68,4,1.88,7.55,1.75,11.63,0,.84,2.27.94,2.46,2.2.46,3.15.85,7.29-2.75,8.69a2.08,2.08,0,0,1,.55,2.81,19.61,19.61,0,0,1-13.38,11.28c-1.75.42-3.89,5.28-7.48,5.21-1.75,0-4.31-2.33-4.76-4-.68-2.59,1.36-4.86-1.79-4.8-2.26.07-5.37-.61-7.15,1.88,0,0,.38.39.61.65-2.1.94-2.79,4-5.09,4.11s-4.3-1.78-6.31-3c-.91-.51.71-3.14-1-3.85a26.56,26.56,0,0,0-6.38-2c-1.52-.26-4-1.56-4.08-3.24-.23-3-1.78-4.18-3.08-6.61-.52-.94.26-2.72-.39-3.34-2.43-2.43-3.27-4.95-2.56-8.16.13-.58.85-1,1.33-1.46-1.39-1.29-1.49-2.85-3.08-3.95-2.3,3.5-8.84,4.34-10.72,1.33-1.78-2.76-3-7.74,2.2-9-2.26-1.26-1-3-2.52-5-4.08-5.12-.16-6.41-2.08-9.36-.38-.55-2.26,1-2.65,1.26-1.33,1.07-4.38.72-5-.09a5.18,5.18,0,0,1-.78-4Z"/><path id="path37995" class="cls-4" d="M318.87,215h6.38v0l-5.15,3.83,2,6.09-.07,0L317,221.26,311.87,225l0,0,2-6.09-5.19-3.83v0h6.39l1.91-6h0Z"/><path id="path37997" class="cls-4" d="M35.25,215h6.41v0l-5.15,3.83,2,6.09,0,0-5.08-3.76L28.28,225l0,0,2-6.09L25,215.07v0h6.38l1.91-6h.07Z"/><path class="cls-3" d="M175,346.74h0A171.92,171.92,0,0,1,53.38,53.26,171.91,171.91,0,0,1,346.84,174.81l-.23,8.84-.65,8.77-1.1,8.55-1.52,8.51-1.91,8.26-2.31,8.16-2.71,8-3.09,7.85-3.43,7.58-3.78,7.41L322,264l-4.47,6.95-4.79,6.75-5.13,6.54-5.38,6.19-5.67,6-6,5.75-6.22,5.35-6.48,5.12L271,317.4l-6.94,4.44-7.2,4.14-7.41,3.79-7.6,3.42L234,336.31,226.09,339l-8.22,2.34-8.26,1.88-8.54,1.54-8.52,1.07-8.8.69Zm0-341.41c-93.45,0-169.48,76-169.48,169.48s76,169.49,169.46,169.5l8.73-.22,8.65-.68,8.43-1.06,8.39-1.52L217.3,339l8.07-2.29,7.85-2.66,7.71-3.06,7.5-3.38,7.3-3.74,7.1-4.08,6.86-4.39,6.65-4.75,6.4-5.05,6.16-5.29,5.9-5.65,5.6-5.88,5.32-6.13,5-6.42,4.73-6.66,4.41-6.86,4.08-7.1,3.73-7.3,3.39-7.5,3-7.72,2.67-7.88,2.28-8L341,209l1.48-8.36,1.09-8.47.65-8.61.22-8.76C344.41,81.36,268.38,5.33,174.94,5.33Z"/><path id="path38001" class="cls-3" d="M219.84,260.94l.06,0,.13-.06.26-.13.32-.16.42-.2.52-.26.62-.26.68-.32.74-.36.81-.39.91-.42,1-.45,1-.49,1.1-.51,1.13-.56,1.2-.58,2.56-1.2,2.72-1.29,2.88-1.36,3-1.43L245,249l3.2-1.52,6.52-3.08,6.51-3.07,3.17-1.53,3.11-1.45,3-1.43,2.89-1.36,2.72-1.3,2.56-1.2,1.2-.58L281,232l1.1-.52,1-.48,1-.46.87-.42.85-.39.74-.35.68-.33.59-.26.51-.26.43-.19.35-.16.23-.13.16-.07,0,0-2.52,6.19L220.29,262.4Z"/><path id="path38003" class="cls-3" d="M222.1,268.91h0l.12,0,.17,0,.22,0,.3-.07.35-.09.39-.07.45-.1.52-.13.59-.09.58-.17.68-.13.68-.12.74-.17.78-.19.84-.16,1.72-.36,1.88-.42,1.94-.42,2.08-.42,2.1-.46,2.17-.45,4.44-1,4.44-.94,2.17-.45,2.11-.46,2.07-.45,1.94-.42,1.88-.39,1.72-.39.81-.16.81-.16.71-.17.71-.16.65-.13.62-.13.58-.13.49-.09.48-.1.39-.1.36-.06.29-.07.23-.06.16,0h.09l0,0-4.34,4.73-42.83,7.26Z"/><path id="path38005" class="cls-3" d="M62.81,231.89v0h0l0,0h0l0,0,0,.07v0l0,.07.07.06,0,.07,0,.06,0,.06.06.07,0,.1.07.09.06.1.13.2.1.19.16.23.13.26.13.22.16.26.29.49.33.52.16.26.13.22.13.26.16.23.1.19.13.2.06.09.07.1,0,.1.07.06,0,.07,0,.06,0,.07.07.06,0,.07v0l0,.06,0,0h0l0,0h0l64,24.13.81-2.62Z"/><path id="path38007" class="cls-3" d="M80.89,259.39h0l.1,0,.16,0,.23,0,.29.06.33.07.42.09.45.1.52.1.55.1.61.13.65.12.68.17.75.13.78.16.81.16,1.71.36,1.85.39,1.94.38,2,.43,2.11.42,2.17.45,4.37.87,4.41.91,2.17.46,2.1.42,2,.42,1.94.39,1.85.38,1.71.33.81.19.78.13.75.16.68.13.64.17.62.09.55.13.52.1.45.1.39.06.36.1.29,0,.23.07.16,0,.09,0h0l-.62,2.43-43.18-8Z"/><path id="path38009" class="cls-4" d="M148.82,172.76h0l0,0,.06.06,0,0,0,.07.06.06,0,0,.07.06v0l0,0h0v0l0,0h0v0l0,0h0v0h.07l0,0h.06v0h0c.22,0,.48-.39.71-.65Z"/><path id="path38011" class="cls-4" d="M112.51,161.88v0h0l0,0v0l-.06,0-.07.06,0,0-.06,0-.07.06,0,0,0,0h0v0l0,0,0,0h0l0,0v0h0v0l0,0v0h0v.06h0c0,.26.39.49.62.75Z"/><path id="path38013" class="cls-5" d="M222.78,182l.1,0h.1l.06,0,.1,0,.1,0,.09,0,.13,0,.1,0,.1,0,.1-.07.12,0,.1-.06.2-.1.22-.1.1-.06.1-.07.09-.06.1-.07.1-.06.1-.07.09-.06.1-.1.07-.06.06-.07.1-.06.06-.1,0-.07.07-.06,0-.1.07-.06c.22-.49-1.2-2.46-3.57-4.25-1.84,1.53-5.15,9.27-3.3,8.75C221.52,183.94,221.52,182.22,222.78,182Z"/><path id="path38015" class="cls-5" d="M84.94,122.68H85l.06,0h.36l0,0h.06l0,0h.06l0,0,0,0h.06l0,0,0,0,0,0,.06,0,0,0,.1.07.07.06.09.06.07.1.06,0,0,0,0,0,.06,0c.62.39,1-.16.68-.32-1.1-.75-1.88-1.23-3.17-.49-4.15,2.43,13.73,11.34,11.14,9.2.29-1.13-2.17-2.23-3-2.69C87.56,126.37,86.69,123.72,84.94,122.68Z"/><path class="cls-3" d="M137.1,277.73c2.86-.83,9.68-3.47,11.11-10.31a6.57,6.57,0,0,1,.66-1.55,2.57,2.57,0,0,1,.15-.29c.59-1.09,1.08-2.22,1.55-3.31a19.06,19.06,0,0,1,3-5.38c1.66-1.91,4.79-5.06,6.86-7,.86-.8,1.68-1.61,2.47-2.43q-1.18,1.23-2.46,2.43c-2.08,1.94-5.21,5.08-6.87,7a19.5,19.5,0,0,0-3,5.37c-.47,1.09-1,2.22-1.55,3.31,0,.09-.1.19-.15.29a6.57,6.57,0,0,0-.66,1.55A11.83,11.83,0,0,1,144,274.2,19.14,19.14,0,0,1,137.1,277.73Zm29.51-34.58a66.37,66.37,0,0,0,7.48-12.92c3.14-6.94.71-15.86-5.67-20.76a42.83,42.83,0,0,0-15.68-8,34.76,34.76,0,0,1-5.24-2,32.29,32.29,0,0,0-6.06-2.22l-.26-.06-.23,0-.26,0h-1l-.45.07-.26,0-.68.2-.45.19-.26.1h0l.25-.1.46-.2.68-.19.26,0,.45-.07h1l.26,0,.23,0,.26.06a31.29,31.29,0,0,1,6.07,2.22,33.19,33.19,0,0,0,5.23,2,42.87,42.87,0,0,1,15.68,8,18.21,18.21,0,0,1,6.37,9.45,16.4,16.4,0,0,1-.7,11.31,69.89,69.89,0,0,1-5.77,10.54C167.77,241.58,167.2,242.38,166.61,243.15Z"/><path class="cls-3" d="M147.43,272.28a17.23,17.23,0,0,1,2.33-3.3,17.45,17.45,0,0,0,2.3-3.24l.18-.35a41.92,41.92,0,0,1,6.14-9.53c1.35-1.49,2.76-3,4.13-4.41,2.49-2.61,5.06-5.31,7.5-8.29a44.35,44.35,0,0,0,6.51-10.59c.49-1.24.9-2.42,1.23-3.53-.33,1.12-.74,2.3-1.23,3.53A44.35,44.35,0,0,1,170,243.16c-2.44,3-5,5.68-7.5,8.3-1.37,1.43-2.78,2.91-4.13,4.4a41.92,41.92,0,0,0-6.14,9.53l-.17.35a17.65,17.65,0,0,1-2.31,3.24A17.23,17.23,0,0,0,147.43,272.28ZM178.69,222a9.39,9.39,0,0,0-.32-1.69c-3.22-11.12-8.38-14.72-18-18.17l-.2-.07-.22-.09-.2-.07-.45-.19-.26-.1-.49-.19-.52-.2-.55-.19-.58-.2-.29-.06-.29-.1-.33-.06-.29-.07-.32,0-.33-.07-.32,0h-.36l-.32,0h-.36l-.35,0H153l-.36.07-.38.06-.36.07-.78.19-.39.13h0l.39-.13.78-.2.36-.06.38-.07.36-.06h.36l.35,0H154l.32,0h.36l.32,0,.33.07.32,0,.29.06.33.07.29.1.29.06.58.19.56.2.51.19.49.2.26.09.45.2.2.06.22.1.2.07A48,48,0,0,1,167,205a22.19,22.19,0,0,1,5,3.53c2.87,2.76,4.85,6.4,6.42,11.81A9.39,9.39,0,0,1,178.69,222Z"/><path id="path38021" class="cls-3" d="M148.53,272.83l.07-.09.06-.1.1-.1.06-.09.07-.1.06-.07.07-.09.1-.07.06-.1.07-.06.13-.13.12-.13.13-.13.1-.1.13-.09.13-.07.1-.1.13-.06.09,0,.1-.07.13,0,.1,0h.1l.13,0h.19l.13,0h.1l.09,0,.13,0,.1,0,.13.07.1,0,.13.07.13.06.13.07.09.09s2.47-5.18,6-.81c0,0,4.63-4.63,6.54,1.33,0,0,4.63-4.05,6.8,5.48,0,0-12.24-10.63-21.77-3.83Z"/><path id="path38023" class="cls-3" d="M151.74,274.52h0l.06,0,.1-.07.1-.1.16-.09.23-.1.22-.13.3-.13.29-.13.35-.13.43-.1.42-.13.48-.06.52-.1.58,0,.59,0h.64l.72,0,.74.07.78.09.42.07.42.09.42.1.46.1.45.13.45.13.49.13.52.16.48.19.52.2.52.19.55.23.55.23.59.26.55.29.61.29.58.29.62.32.65.36.61.36.68.39.65.42.68.42.72.45s-2.34,2.11-3.44-.32c0,0-4.89,3.4-5.83-1,0,0-5.18,2.33-6.8-2.18C156.57,275.68,155,279.44,151.74,274.52Z"/><path id="path38025" class="cls-3" d="M169.49,255.79l.1-.35.1-.36.13-.32.09-.33.1-.32.1-.29.13-.26.1-.26.12-.23.1-.22.13-.23.13-.2.13-.19.13-.16.16-.16.13-.17.16-.12.17-.13.16-.13.19-.1.2-.1.19-.1.2-.06.22-.07.23-.06.26-.06.26,0,.26,0,.26,0,.29,0,.32,0h.32c4.64-.16,5,6,5,6C180.25,258.26,168.84,258.06,169.49,255.79Z"/><path id="path38027" class="cls-3" d="M169.07,257.58h0l0,0,0,0-.06,0-.07,0-.09,0-.07.06-.09.07-.13.06-.1.07-.1.09-.13.07-.13.13-.13.1-.13.09-.13.13-.13.13-.13.16-.09.17-.13.16-.13.16-.1.19-.13.17-.1.22-.09.2-.07.22-.09.23,0,.13,0,.13,0,.13,0,.13v.13l0,.13,0,.13v.13c-.39,4.4,2.3,7.35,8.72,7.35s8-3.53,8-6.67a4.55,4.55,0,0,0-2.46-4.21,17.79,17.79,0,0,1-5.45.68A14.59,14.59,0,0,1,169.07,257.58Z"/><path d="M166.09,260.3a14.62,14.62,0,0,0,4.21-2.43h0A14.62,14.62,0,0,1,166.09,260.3Z"/><path d="M165.41,263.15a11.72,11.72,0,0,0,5.37-2.43,16.37,16.37,0,0,0,2.24-2h0a15.89,15.89,0,0,1-2.23,2A11.76,11.76,0,0,1,165.41,263.15Z"/><path d="M166.77,266.55c3.1-.07,5.63-2.17,7.2-3.92a20.58,20.58,0,0,0,2.71-3.82h0a20.58,20.58,0,0,1-2.71,3.82,14.21,14.21,0,0,1-3.13,2.66A8.19,8.19,0,0,1,166.77,266.55Z"/><path d="M171.11,268.62a9.51,9.51,0,0,0,7.26-5.58,15.08,15.08,0,0,0,1.33-4.65h0a14.38,14.38,0,0,1-1.33,4.65,10.53,10.53,0,0,1-2.58,3.46A9.12,9.12,0,0,1,171.11,268.62Z"/><path d="M176.85,268.88c3.58-2.11,4.79-4.77,5.17-6.63a8.21,8.21,0,0,0,0-3.57h0a8.21,8.21,0,0,1,0,3.57,8.91,8.91,0,0,1-1.44,3.32A11.86,11.86,0,0,1,176.85,268.88Z"/><path d="M183.39,260.85a10.56,10.56,0,0,1-3.95-2.46h0A10.56,10.56,0,0,0,183.39,260.85Z"/><path d="M183.65,263.31a9.29,9.29,0,0,1-5-2.52,11.9,11.9,0,0,1-1.82-2.11h0a11.9,11.9,0,0,0,1.82,2.11A9.36,9.36,0,0,0,183.65,263.31Z"/><path d="M182.42,266.29a7.88,7.88,0,0,1-4-1.22,12.27,12.27,0,0,1-2.9-2.57,17.58,17.58,0,0,1-2.39-3.69h0a17.87,17.87,0,0,0,2.39,3.69C177,264.19,179.32,266.22,182.42,266.29Z"/><path d="M179.28,268.88a8.82,8.82,0,0,1-4.66-2.18,10.87,10.87,0,0,1-2.57-3.59,15.91,15.91,0,0,1-1.33-4.85h0a16.26,16.26,0,0,0,1.33,4.85A9.49,9.49,0,0,0,179.28,268.88Z"/><path class="cls-3" d="M198.07,227.09v0a11.73,11.73,0,0,0-.49-7.09l-.2-.55-.19-.52-.16-.52-.2-.52-.32-1-.29-1L196,215l-.46-1.88-.38-1.81-.2-.94-.16-1-.16-.94-.13-1-.16-1-.17-1.07-.06-.55-.1-.58h0l.09.58.07.55.16,1.07.16,1,.13,1,.16.94.16,1,.2.94.39,1.81L196,215l.26.94.29,1,.33,1,.19.52.16.52.2.52.19.55A11.58,11.58,0,0,1,198.07,227.09Z"/><path class="cls-3" d="M224.63,281.81a33.6,33.6,0,0,1-6.35-.94,15.62,15.62,0,0,1-5.31-4.55,17,17,0,0,0-4.83-4.33,82.07,82.07,0,0,0-15.76-9.43c-1.2-.59-2.44-1.19-3.71-1.84a8.35,8.35,0,0,1-1.4-.88,9,9,0,0,0,1.4.88c1.27.64,2.51,1.25,3.71,1.84A82.07,82.07,0,0,1,208.14,272a17,17,0,0,1,4.83,4.33,15.83,15.83,0,0,0,5.31,4.55A34.43,34.43,0,0,0,224.63,281.81Zm-38.89-23.68a5.37,5.37,0,0,1-.54-1.25,9.82,9.82,0,0,1,.3-5.57,9.89,9.89,0,0,0-.3,5.57A5.37,5.37,0,0,0,185.74,258.13Zm1-10.07a80.53,80.53,0,0,1,3.8-7.3l.13-.19.29-.49L191,240l.1-.16.1-.13.1-.1.19-.26.19-.22.2-.26.1-.1.09-.13.1-.16.13-.13.1-.13.09-.16.13-.2.1-.16.26-.39.1-.22.13-.23.16-.26.13-.29.13-.26.06-.16.1-.16.13-.33.1-.19.06-.16h0l-.06.16-.1.19-.13.33-.09.16-.07.16-.13.26-.13.29-.16.26-.13.23-.1.22-.26.39-.09.17-.13.19-.1.16-.1.13-.13.13-.09.16-.1.13-.1.1-.19.26-.2.23-.19.25-.1.1-.1.13L191,240l-.1.13-.29.49-.13.19A80,80,0,0,0,186.72,248.06Z"/><path class="cls-3" d="M194.73,234.71a3.92,3.92,0,0,1-.88-.11,2.77,2.77,0,0,0,2.4-.38,9.89,9.89,0,0,0,3.17-3.69,23.46,23.46,0,0,0,1.59-5.84,7.63,7.63,0,0,0,.12-1.51,7.63,7.63,0,0,1-.12,1.51,23.8,23.8,0,0,1-1.58,5.84,10,10,0,0,1-3.18,3.69A2.44,2.44,0,0,1,194.73,234.71Zm-2.89-1.13-.35-.3ZM201,222a13.89,13.89,0,0,0-1-3.37,32.78,32.78,0,0,1-2-5.89c-.18-.64-.49-1.8-.59-2.43l0-.2,0-.22-.29-1.27-.26-.84-.1-.42-.13-.45-.1-.46,0-.22,0-.26,0-.23,0-.26,0-.23v-1.06l.1-.88.06-.32.07-.3h0l-.06.29-.07.32-.09.88v1.06l0,.23,0,.26,0,.23,0,.26,0,.22.09.46.13.45.1.42.26.84.29,1.27,0,.22,0,.2a24.43,24.43,0,0,0,.58,2.43,34.72,34.72,0,0,0,2,5.89,14.44,14.44,0,0,1,1,3Z"/><path class="cls-3" d="M195,231.37h-.11a1.52,1.52,0,0,1-.71-.31l-.36-.21a2.12,2.12,0,0,1,.36.21,1.52,1.52,0,0,0,.71.31H195a1.69,1.69,0,0,0,1.2-.69l.14-.16a3,3,0,0,0,1-2.94l0-.07v0l0-.13-.06-.1,0-.09-.06-.1,0-.1,0-.06,0,0,0-.07,0,0,0-.07,0,0,0-.06-.06,0-.07-.06,0-.07,0,0-.07,0-.06-.06-.07,0h0l-.06,0,0,0h0l0,0,.06,0h0l.07,0,.06.07.07,0,0,0,0,.07.07.06.06,0,0,.07,0,0,0,.07,0,0,0,.06,0,0,0,.06,0,.1.07.1,0,.09.06.1,0,.13v0l0,.07a3.06,3.06,0,0,1-1,2.95l-.15.15A1.71,1.71,0,0,1,195,231.37Z"/><path class="cls-3" d="M226.93,280.73a3.09,3.09,0,0,1-1-.15,18.6,18.6,0,0,0-3.95-1.14s.06,0,.07-.08,0-.06-.07-.08a8.79,8.79,0,0,1-2.95-1.16,7.05,7.05,0,0,1-1.75-1.57c-.18-.2-.36-.41-.55-.6a37.81,37.81,0,0,0-6.74-5.54l-.61-.43c-2.17-1.53-4-2.59-5.52-3.52a30.45,30.45,0,0,1-3.84-2.53l-.47-.42a7.93,7.93,0,0,0-1.7-1.27c-.86-.42-1.73-.78-2.58-1.14-2.29-1-4.45-1.85-6.14-3.68-2.07-2.26-1-6.08-.24-8.86,0-.1.06-.19.08-.28a18.44,18.44,0,0,1,2.3-4.13,38,38,0,0,0,2.46-4.1,6.46,6.46,0,0,1,1.09-1.75,4.85,4.85,0,0,0,.93-1.5h0s-.07,0-.13.14a8.8,8.8,0,0,1,.51-.8,4.89,4.89,0,0,0,.72-1.21l0,0v-.07l0-.06,0,0v-.07l0,0,0-.07,0,0,.06-.13,0,0,0-.06.09-.1.07-.1.1-.1.06-.09.1-.1.1-.07.06-.09.1-.1.1-.07.06-.09h0l-.06.1-.1.06-.1.1-.06.1-.1.06-.1.1-.06.1-.1.09-.06.1-.1.1,0,.06,0,0-.07.13,0,0,0,.06,0,0v.07l0,0,0,.06v.07l0,0a5.57,5.57,0,0,1-.73,1.22,7.63,7.63,0,0,0-.51.79c.06-.11.1-.13.13-.14h0l0-.06s0,0,0,.06a4.47,4.47,0,0,1-.93,1.5,6.29,6.29,0,0,0-1.08,1.75,39.82,39.82,0,0,1-2.47,4.1,19.29,19.29,0,0,0-2.3,4.13c0,.09-.05.18-.07.28-.78,2.78-1.83,6.6.24,8.85,1.69,1.83,3.84,2.74,6.13,3.69.85.35,1.72.72,2.58,1.14a7.39,7.39,0,0,1,1.7,1.27l.47.41a28.41,28.41,0,0,0,3.84,2.53c1.57.94,3.35,2,5.52,3.53l.62.43a38.93,38.93,0,0,1,6.74,5.53c.18.2.37.4.54.6a6.56,6.56,0,0,0,1.76,1.57,8.49,8.49,0,0,0,2.94,1.17.07.07,0,0,1,.07.08s0,.08-.07.08a18.86,18.86,0,0,1,4,1.14,4.28,4.28,0,0,0,1.64.12l.66,0-.66,0Z"/><path id="path38057" class="cls-3" d="M201.89,273h0v-.06l0,0v-.26l0-.07v-.16l0-.1v-.09l0-.07,0-.19,0-.2-.06-.22-.07-.2-.06-.19-.07-.23-.09-.19-.07-.1,0-.1-.06-.06-.07-.1-.06-.1-.07-.06-.06-.1-.07-.06-.06-.07-.1-.06-.07-.07-.09,0-.1,0-.1-.07-.09,0h-.1l-.1,0h-.35l-.1,0-.13,0-.16,0-.13.07-.13.06-.16.07-.13.06-.17.1-.16.1-.16.13-.19.13-.07.06-.1.1-.09.06-.1.1-.1.07-.1.09s-2.42-7.09-5.7-1.1c0,0-7.61-5.15-9,1.91,0,0-6.13-1.62-5.54,6.29C177.27,278,187.31,266.84,201.89,273Z"/><path id="path38059" class="cls-3" d="M203.25,274.45h0l-.07,0-.06,0-.1,0-.1,0-.29-.13-.32-.09-.42-.16-.49-.13-.55-.17-.58-.16-.65-.16-.71-.13-.75-.13-.81-.13-.84-.1-.91-.06-.91-.07h-1l-1,0-1,.06-1,.1-1.07.19-1.07.23-1.1.26-1.1.36-1.11.42-1.13.52-.58.25-.55.3-.55.32-.59.36-.55.35-.55.36-.58.42-.55.42-.55.45-.55.49-.55.52-.56.52s9,2.17,8.46-2.72c0,0,6,4.08,6.25-.3,0,0,3.7,3,5.87-.81C197.94,275.81,207.33,277.18,203.25,274.45Z"/><path id="path38061" class="cls-3" d="M174.94,285.63l.25.45.3.46.29.42.29.42.32.36.29.35.36.36.32.29.36.29.36.26.35.26.36.23.39.22.39.2.39.16.39.16.38.13.39.13.42.1.39.1.81.16.84.09.81,0h.81l.81,0,.81-.09.78-.1.75-.13.74-.16.71-.16.69-.17.61-.19.62-.19.55-.2.48-.19.46-.16.19-.1.19-.07.17-.09.16-.07.13-.06.13,0,.1-.06.09,0,.07,0,.06,0h0v0l-1.06-1.62c-23.17,9.95-18-17.43-18-17.43h-2.34S171.79,279.73,174.94,285.63Z"/><path d="M173,269.56a9.43,9.43,0,0,1-3.23-3.42,14.88,14.88,0,0,1-1.56-4.09,20.23,20.23,0,0,1-.52-4.86h0a20.23,20.23,0,0,0,.52,4.86C168.79,264.47,170.08,267.74,173,269.56Z"/><path id="path38065" class="cls-5" d="M81.28,130.46h0l0,0,0,.06,0,.1.06.13.1.13.06.16.13.16.1.2.13.22.29.49.33.58.38.65.39.71.46.75.52.81.51.87.55.91.62.94.62,1,.64,1,.68,1,.68,1,.75,1,.74,1,1.53,2.11.77,1,.81,1,.81,1,.81.94.81.94.85.91.81.84.84.81.81.75.84.71s-.26-12.18-3.82-7.06c0,0,2.17-14.19-3.27-9.82,0,0,.22-12.41-4.9-4.89C87.82,133.73,86.2,124.46,81.28,130.46Z"/><path id="path38067" class="cls-5" d="M78.56,130.46h0l0,0,0,.06,0,.1.06.1.1.1.06.16.1.16.13.19.13.2.26.45.32.52.36.58.42.65.42.68.49.75L82,136l.55.84.55.84.59.91.61.9.62.94.65,1,1.29,1.94,1.36,1.94,1.36,1.91.72.94.68.94.68.88.68.87.64.81.65.78.65.75.62.71s-5.45-7.1-10.89-3.27c0,0-9.26-10.37-3.27-11.44C80.73,139.17,73.47,136.58,78.56,130.46Z"/><path id="path38069" class="cls-5" d="M104.15,158.61h0l0-.07v-.06l0-.13,0-.16,0-.17-.06-.22-.07-.23,0-.26-.07-.32-.06-.29-.06-.36-.17-.78-.13-.84-.16-.94-.16-1-.13-1.06-.13-1.17-.13-1.2-.1-1.26-.09-1.3,0-1.33,0-1.33V142.7l.07-1.36.09-1.39.13-1.39.2-1.4.22-1.33.33-1.36.35-1.29.46-1.27.48-1.19.3-.62.29-.55.32-.58.36-.52.35-.55.39-.49.42-.52.43-.45L108,126l.48-.43s-2.75-3.82-4.92.52c0,0-8.16,2.21-3.27,11.44,0,0-4.89,4.89.55,11.43A57.19,57.19,0,0,1,104.15,158.61Z"/><path id="path38071" class="cls-5" d="M105.77,157.12h0v-.07l0-.06v-.13l0-.13,0-.16,0-.2,0-.22,0-.26,0-.29-.06-.3,0-.32-.1-.75-.1-.81-.13-.87-.09-1-.07-1-.1-1.07-.06-1.13-.07-1.2,0-1.2v-2.49l0-1.26.1-1.3.1-1.3.16-1.26.2-1.26.22-1.27.26-1.19.36-1.2.39-1.17.42-1.1.52-1,.25-.48.33-.49.29-.49.32-.42.36-.45.36-.39.39-.39.38-.39s4.35.55.56,8.72c0,0,6,5.44-1.11,9.26C109.59,144.61,115,145.71,105.77,157.12Z"/><path id="path38073" class="cls-5" d="M67,155h0l.07,0,.06,0,.1,0,.16.07.16.06.17.1.22.07.23.09.26.13.29.13.32.13.68.26.75.32.84.36.91.36,1,.39,1,.39,1.07.42,1.13.45,1.17.42,1.16.45,1.23.46,1.24.42,2.52.87,2.5.85,1.23.38,1.23.36,1.2.36,1.16.29,1.14.29,1.07.26,1,.19,1,.17.9.13.88.06s.52-6.51-3.82-6.51c0,0-3.83-8.16-10.37-5.44,0,0-5.44-6-7.61,0C75.29,152.78,66.86,150.19,67,155Z"/><path id="path38075" class="cls-5" d="M66.86,156.05h0l.07.06.1.07.09.1.2.12.19.17.26.16.29.23.36.22.39.26.45.26.49.29.55.29.61.33.68.35.72.36.81.39.84.39.94.39,1,.42,1,.42,1.13.42,1.23.45,1.27.46,1.36.45,1.46.45,1.52.46,1.62.48.81.23.87.23.88.26.9.22.91.23.94.26,1,.23,1,.22s-14.16,7.62-12.54.55c0,0-11.44.55-7.61-4.37C73.67,162.56,64.14,160.39,66.86,156.05Z"/><path id="path38077" class="cls-5" d="M81.41,171.27v0h-.07l-.09,0-.16,0-.17.07-.22.09-.23.1-.29.1-.29.16-.33.16-.35.16-.39.23-.39.23-.42.26-.46.32-.45.32-.45.36-.49.39-.48.42-.52.49-.52.52-.52.51-.52.59-.52.64-.51.68-.52.72-.52.74-.52.84-.52.85-.48.9-.26.49-.23.49-.26.51-.23.52s9.82-11.17,16.88-12.15l3.53-.38s-5.15,3.53,1.23,1.23a1.64,1.64,0,0,1,1.24-.55c.81,0-7.78,3.27-8,6.8,0,0,0,2.85-3.4,2.85a6.11,6.11,0,0,1-7.74,1.1S70,187,68.1,185.43c0,0-2.89-2.3,2.17-7.32,0,0,0-6.67,7.9-7.35C78.17,170.76,80.73,169.36,81.41,171.27Z"/><path id="path38079" class="cls-5" d="M82.64,185.43h0v0h0v0l0,0,0,0,0,.07,0,0,0,.06-.07.07,0,.06-.07.1-.06.06-.07.1-.06.1-.06.06-.13.23-.17.19-.16.23-.16.23-.19.26-.17.26-.39.48-.35.52-.2.26-.16.23-.16.22-.16.23-.16.23-.17.19-.06.1-.07.1-.06.06,0,.1-.07.06-.06.07,0,.06,0,.07-.06.06,0,0,0,.07v0h0v0h0s-.94,1.66.42,1.23c0,0,12.8-17.29,21.51-19.34,0,0,2.85-1.91,2.59.3,0,0,.68,3.66-2.59,2.72,0,0,2.3,6.93-6.41,7.48,0,0,2.88,7.35-6.81,6.93,0,0-2.3,4.38-5,1.79,0,0-4.37,4.76-5.6.12,0,0-.94-5.7,2.88-6.8,0,0,2.62-1.94,3.14-1.07A1,1,0,0,1,82.64,185.43Z"/><path id="path38081" class="cls-5" d="M79.66,196.19h0v0h0l0,0,0,0,0,0,0,0,0,0,.07.07,0,.06.06,0,.07.07.06.06.07.1.06.06.1.07.07.1.09.06.07.1.09.06.1.1.07.07.19.19.2.16.19.16.23.2.09.06.1.07s2.3-.52-.55,2.72c0,0-2.59,3.14-2.17,4.5l.81.55s3.14-5.57,5.31-6.54c0,0-.81,1.91,4.08,2.17,0,0,0,2.85-1.23,4,0,0-1.36-1.36-1.75-.26,0,0-1.91,4.47-7.64,3.53,0,0-3.79-4.89.42-7.35,0,0,2-2.3.55-2.59a1.37,1.37,0,0,1-1.23-1.62Z"/><path id="path38083" class="cls-5" d="M90.42,192.91H90l-.1,0h-.49l-.19,0h-.19l-.2,0-.23,0-.22,0-.23.06-.19,0-.23.07-.23.06-.19.07-.2.1-.09,0-.1.06-.1,0-.1.07-.06.06-.1.07-.06.06-.1.07-.06.06-.07.07,0,.06-.07.07-.06.1,0,.06,0,.1,0,.09,0,.1v.1l0,.1V195l0,.13v.1l0,.13,1.23.26s-2.17,1.78-.42,3.56c0,0,4.8,2.56,8.72-.55,0,0,1.78-2.59-.13-3.14,0,0,6.54,3.27,7,.42a4.84,4.84,0,0,0-.71-3.4s4.76-2.47,4.37-7c0,0,4-6.12,3-6.51,0,0-16.71,15.35-17.94,18.66h-1s1.53-3.69,4.09-5.31C94.21,192.4,90.8,192.91,90.42,192.91Z"/><path id="path38085" class="cls-5" d="M96.38,210l.16,0h.29l.13,0,.1,0,.13,0,.09.06.1.07.1.06.06.1.07.1.06.1.07.09.06.13,0,.13,0,.13,0,.13,0,.16,0,.16v1.24l0,.35-.06.39-.07.39-.06.42-.1.39-.07.39-.09.39-.1.35-.1.36-.09.32,0,.17-.06.16,0,.16,0,.13-.06.13,0,.13,0,.13,0,.1,0,.09,0,.1,0,.1,0,.06V218l0,.06v0l0,0v0h0c.94-1,2.17.81,2.17.81a4,4,0,0,1-3.53,3.4c-3.53-1.23-1.78-4.63-1.78-4.63-2-.55-2.17-2.3-2.17-4,0,0,1-2.59,1.78-2.72,0,0-3.57-2.59-3.15-3.53,0,0-.25-5,3-5.18,0,0,5.06,1.23,3,7.77Z"/><path id="path38087" class="cls-5" d="M129.48,231.3h0l0,0h0l0,0-.06,0,0,0h-.07l-.06,0,0,0-.07.06-.1,0-.06,0-.07.06-.09,0-.16.1-.17.13-.16.13-.19.13-.17.16-.16.16-.16.17-.16.16-.07.1-.09.06-.07.1-.06.09,0,.1-.06.1-.06.1,0,.09,0,.13,0,.1,0,.1,0,.09v.46l0,.1v.12l.06.1,0,.13.07.1,0,.13.1.1.06.13.1.12.1.1.13.13.13.13.13.1.16.13.16.13.19.13s-2,6.38,1.62,5.7c0,0,.42,2.46,1.91,2,0,0,.43-1.49-1.49-2.3,0,0,.94-2.46-1.36-5.31C128.93,236.49,131.23,232.83,129.48,231.3Z"/><path id="path38089" class="cls-5" d="M139.14,201.24h0l0,0,0,0,0,.09,0,.07-.07.13-.06.09-.07.17-.09.16-.1.16-.1.19-.09.2-.1.23-.13.22-.13.23-.13.26-.26.55-.26.58-.29.62-.29.65-.29.68-.29.68-.3.74-.29.71-.26.75-.26.74L135,211l-.23.74-.16.72-.13.71-.13.71-.06.65v.32l0,.33,0,.29v.29l0,.29,0,.29.07.26.06.26.1.23.1.26.12.19.13.2.17.19.16.2.16.16.23.13s-.16,9.13-5.74,6.41c0,0-1.62,6.51-5.7,6.38,0,0-.55,4.22-3,3.83,0,0,.16-13.64,16.36-34.57C137.52,200.43,139.14,198.91,139.14,201.24Z"/><path id="path38091" class="cls-5" d="M130.16,199.59h0v0h0l0,0,0,0,0,0,.07,0,0,0,.07,0,0-.06.06,0,.07-.06.1,0,.06-.07.07-.06.16-.1.19-.1.2-.13.16-.09.22-.1.2-.07.1,0,.09-.06h.13l.1,0,.1,0h.09l.13,0h.3l.09,0h.1l.1,0,.09,0,.1,0,.1.06.1,0,.09.09.07.07.09.06.07.1.06.13.07.1.1.13,0,.13.06.16.07.16,0,.16.07.2,0,.19,0,.2v.13l0,.09v.26l0,.1v.68s-5.32,4.63-7.36,10.88c0,0-5.86-3.92-2.72-6.64a4.55,4.55,0,0,1,4.63-.84,5.68,5.68,0,0,1,.13-3.79C130.16,199.33,130.16,199.59,130.16,199.59Z"/><path id="path38093" class="cls-5" d="M113.42,204.9l0,.07,0,.13,0,.19-.07.32-.09.36-.1.45-.1.55-.13.59-.09.68-.17.74-.13.78-.13.88-.12.93-.17,1-.13,1-.13,1.1-.13,1.14-.12,1.2-.1,1.26-.1,1.26-.1,1.33-.06,1.36-.07,1.4,0,1.42V228l0,1.52,0,1.56.09,1.55.1,1.59.16,1.59.16,1.62L111,237s-1.78-3.7-1.62-6.42c0,0,1.07-13.47-4.5-8.84a2.63,2.63,0,0,1,2.17,3.4s-.55,3.95-2.17,5.57c0,0-2.17,3.27,2.72,3.27,0,0,1.1,7,4.64,7.1a4.68,4.68,0,0,0,2.46-4s6.51-2.3,2.43-11.18c0,0,6.12,0,3.53-3.24,0,0-5.83-8.84-4.89-12.8C115.72,210,117.37,208.43,113.42,204.9Z"/><path id="path38095" class="cls-5" d="M142.8,190.36v0l-.07,0-.13,0-.12-.07-.2-.09-.19-.1-.26-.13-.29-.13-.33-.16-.32-.16-.39-.17-.39-.19-.42-.19-.45-.23-.49-.23-.49-.19-.48-.26-.55-.23-.52-.26-.55-.22-1.17-.52-1.16-.52-1.2-.52-1.23-.52-1.2-.48-1.2-.46-1.17-.45-.58-.23-.55-.19-.55-.2-.55-.16-.49-.16-.52-.16-.48-.13-.46-.13-.42-.1-.42-.1-.39-.06-.35,0-.33,0-.29,0-.26,0-.23,0-.22,0-.16.1-.1.09-.1.13,0,.17v.19l.06.19.07.26.16.29.19.3.23.32.16.19.13.2.17.19.19.2.19.22.23.23s-1.1,3.82,4.89,2.72C127,188.15,121.58,193.59,142.8,190.36Z"/><path id="path38097" class="cls-5" d="M116.14,182.16v0h0v0l0,.07-.06.06,0,.07-.13.23-.13.25-.17.3-.19.35-.19.39-.2.45-.23.52-.25.52-.23.58-.23.62-.22.65-.23.71-.23.71-.23.75-.19.81-.16.81-.16.84-.13.88-.13.87-.07.91-.06.94v.94l0,1,.06,1,.13,1,.17,1,.19,1,.29,1,.33,1s3.79-1.1,2.17-4.37c0,0,8.16,0,1.1-7.06,0,0,3.24-2.18.52-6Z"/><path id="path38099" class="cls-5" d="M110.7,189.8h0v0l0,0V190l0,.1v.06l0,.13v.1l0,.26-.07.32,0,.33,0,.39-.07.38,0,.46-.07.45,0,.49,0,.52,0,.55,0,.55,0,.55v2.4l0,.61,0,.62.06.61.07.62.06.58.1.62.13.58.13.55.13.58.19.52.2.52s-4.93,3.27-3.83-2.17c0,0-6,.55-.55-6.51Z"/><path id="path38101" class="cls-5" d="M102,199v0h-.06l0,0,0,0,0,0-.07.06-.06,0-.13.13-.16.17-.16.19-.2.19-.23.23-.19.26-.23.29-.22.33-.23.32-.23.36-.19.38-.2.43-.19.42-.16.45-.13.49-.13.48-.1.55,0,.26,0,.29,0,.26v.88l0,.32,0,.29,0,.33.07.32.06.33.07.32.09.36.1.32.13.36.13.35.13.36.16.36.16.35.2.39.19.36.23.39s6-2.73,3.27-6C103.6,206.13,105.77,205,102,199Z"/><path id="path38103" class="cls-5" d="M99.26,224.08v0h-.1l0,0h0l-.07,0h0l-.06,0,0,0-.06,0-.07,0-.06,0-.16.06-.13.07-.16.1-.17.09-.16.13-.16.1-.16.13-.13.16-.07.07-.06.06-.07.1-.06.06-.07.1,0,.06-.06.1,0,.1,0,.1,0,.09,0,.1v.1l0,.09v.2l0,.13v.1l0,.13,0,.09,0,.13.07.1.06.13.07.13.06.13.1.13.1.13.09.13.13.16.13.13.17.13.16.16.16.13.19.16.2.16s.55,5.45,4.34,2.72c0,0-3.24-9.81,1.65-16.32H102s-2.72,8.16-.55,11.95Z"/><path class="cls-3" d="M153.43,196.06l-.06-.08c-.72-1-1.6-2.24-2.68-3.61,1.1,1.39,2,2.64,2.68,3.61Zm-12.7-13.23c-.87-.6-1.77-1.17-2.73-1.71l-.48-.26-.49-.29-.55-.26L136,180l-.58-.26-.55-.29-1.2-.52-1.23-.55-1.26-.52-1.3-.51-1.33-.52-1.33-.49-1.29-.45-2.59-.84-1.27-.39-1.2-.36-1.16-.32-.55-.13-.52-.13h0l.52.12.55.13,1.17.33,1.19.35,1.27.39,2.59.85,1.29.45,1.33.49,1.33.51,1.3.52,1.26.52,1.23.55,1.2.52.55.29.58.26.52.29.55.26.49.29.48.26C138.93,181.64,139.83,182.21,140.73,182.83Z"/><path class="cls-3" d="M157.77,197.68c-.78-1.31-1.33-2.36-1.81-3.29a18.29,18.29,0,0,0-2.21-3.58A68.69,68.69,0,0,0,141.83,180l-.68-.49-.68-.45-1.36-.84-.72-.39-.71-.36-1.39-.68-1.46-.65-1.46-.58-1.46-.52-1.45-.48L129,174l-1.49-.45-3-.94-1.49-.49-1.5-.52-1.45-.55-1.46-.61h0l1.46.62,1.46.55,1.49.52,1.49.48,3,.94L129,174l1.49.48,1.45.49,1.46.52,1.46.58,1.46.65,1.39.68.71.35.72.39,1.36.85.68.45.68.49a68.33,68.33,0,0,1,11.92,10.85,17.85,17.85,0,0,1,2.22,3.58C156.45,195.32,157,196.37,157.77,197.68Z"/><path id="path38109" class="cls-5" d="M106.87,160.94h0V161l0,0v.06l0,.07,0,.06,0,.1,0,.06,0,.1,0,.13.06.1,0,.13.06.09,0,.13.07.13.13.3.16.25.13.26.19.3.17.25.09.1.1.13.13.13.1.1.09.1.13.09.1.07.13.09.13.07.13.06.13,0,.13,0,.13,0h.42l.16,0,.13-.07.16-.06.17-.07.16-.09.16-.13.16-.13.16-.16.17-.17.19-.19.06-.1.1-.13.1-.09.06-.13.1-.13.1-.13.09-.13.1-.16.07-.13.09-.17.1-.16.1-.19.1-.16.09-.2.1-.16.1-.23.09-.19.1-.2.1-.22.1-.23.09-.23.1-.22.1-.26.13-.26s8.16,2.2,5.44-8.68c0,0,3.79-4.38,7.06-4.38C126.47,146.23,116.69,144.06,106.87,160.94Z"/><path id="path38111" class="cls-5" d="M140.63,164.73h0v-.87l0-.23v-.49l0-.29,0-.29v-.32l.06-.68.1-.72L141,160l.13-.81.16-.84.23-.87.22-.91.29-.91.36-.87.39-.91.42-.84.49-.84.26-.43.29-.38.29-.39.29-.39.32-.36.36-.35.36-.36.39-.32.38-.3.43-.29.42-.26.45-.26.45-.22.49-.2.52-.19.52-.16.55-.13.58-.1.58-.1.62,0,.65,0h.64l.68,0,.72.1.71.09.78.13s-18-8.16-19.08,16.33c0,0-6.51-9.78-1.07-10.88,0,0,1.07-13.61,7.06-7.07,0,0,5.44-9.26,10.37-1.65,0,0,9.78-.55,8.68,5.44,0,0-1.07,3.83-10.89,2.73,0,0,6.55,4.89-6,6C145.52,158.22,149.34,161.49,140.63,164.73Z"/><path id="path38113" class="cls-5" d="M155.34,156.57v0h.38l.2,0h.26l.26,0,.32.07.33,0,.38.1.39.06.42.13.46.13.45.13.49.16.48.2.52.23.49.22.52.29.51.3.55.35.52.36.52.39.49.45.52.49.48.51.23.26.26.3.22.29.23.32.23.32.22.33.2.32.23.36.19.39.19.35.2.39.16.42c3.82,8.69-5.44-10.36-18.5-4.37,0,0,3.27,1.62-3.27,5.44,0,0,13.09,3.27,10.89-1.07,0,0,4.37,11.41,9.26,4.9,0,0,12,3.27,7.61-4.9,0,0,6.55-7.09-9.78-8.74,0,0,2.72-4.34-1.65-3.24C162.4,153.33,160.78,157.12,155.34,156.57Z"/><path class="cls-3" d="M151.26,139.43c-.22-.43-.29-.56-.32-.56h0l0,0s0,.05-.08.05h0c-.08,0-.22-.1-.42-.32a29.47,29.47,0,0,0-5.06-3.89,32.46,32.46,0,0,1-4.82-3.62l-.91-.91-1.68-1.95-.81-1-1.62-2.07-.84-1-.81-1-.88-1-.42-.45-.45-.46-.46-.42-.48-.39-.49-.42-.48-.36-.52-.35-.52-.33-1.1-.58-.55-.26-1.23-.39-.62-.16h0l.62.16,1.23.39.55.26,1.1.58.52.33.52.35.48.36.49.42.49.39.45.42.45.45.42.46.88,1,.81,1,.84,1,1.62,2.07.81,1,1.69,1.95.9.9a32.88,32.88,0,0,0,4.82,3.63,29,29,0,0,1,5.06,3.89c.2.21.34.32.42.32h0a.08.08,0,0,0,.07-.05l0,0S151,139,151.26,139.43Z"/><path class="cls-3" d="M155.05,141.6a16.51,16.51,0,0,0-1-2.49A16.19,16.19,0,0,1,155.05,141.6Zm-4.15-6.33a49.05,49.05,0,0,0-4.39-3.29l-1.8-1.26h0l1.8,1.27A47.65,47.65,0,0,1,150.9,135.27Z"/><path class="cls-3" d="M145.39,140.37a10.7,10.7,0,0,0-5.44-.71c-.68.09-1.34.18-2,.25l2-.25A10.7,10.7,0,0,1,145.39,140.37ZM122,138.79a25.65,25.65,0,0,1-5.76-2.76l-.52-.26h-.07l-.09,0-.07,0h-.06l-.26-.07h-.13l-.16,0-.26,0h-.13l-.16,0-.26-.06h0l.26.06.16,0h.13l.26,0,.16,0h.13l.26.06h.06l.07,0,.09,0h.07l.52.26A25.7,25.7,0,0,0,122,138.79Z"/><path class="cls-3" d="M130.23,143.61h-.71l-.36,0h-.32l-.68,0-.65-.07-1.23-.19-1.23-.26-.62-.16-1.23-.39L122,142l-.68-.26-.68-.29h0l.68.29.68.26,1.23.45,1.23.39.62.16,1.23.26,1.23.2.65.06.68,0h.32l.36,0h1.07l.38,0c1.63,0,3.18-.24,4.66-.42a28.88,28.88,0,0,1,5.94-.32,28.75,28.75,0,0,0-5.93.32c-1.49.19-3,.37-4.67.43l-.38,0Z"/><path class="cls-3" d="M183,168.42a5,5,0,0,0,.22-2.16,5.46,5.46,0,0,1,.13-1.89c.08-.21.15-.44.22-.65a8,8,0,0,1,.89-2,23.79,23.79,0,0,1,6-5.63c.13-.1.27-.19.41-.28,2.24-1.56,4.57-3.16,4.93-5.84-.36,2.68-2.68,4.29-4.93,5.84l-.41.28a23.66,23.66,0,0,0-6,5.64,7.48,7.48,0,0,0-.88,2l-.22.65a5.23,5.23,0,0,0-.14,1.89,4.82,4.82,0,0,1-.22,2.16c3.05-4.78,7.39-8.35,11.56-11.6a12.29,12.29,0,0,0,1.92-1.81,13.17,13.17,0,0,1-1.91,1.82C190.36,160.07,186,163.64,183,168.42Zm16.89-21.34a48.27,48.27,0,0,0,.41-8.88,17.27,17.27,0,0,0-1.46-6.29,7,7,0,0,0-.57-1,4.36,4.36,0,0,1-.73-1.64,10.69,10.69,0,0,0-.55-1.79c-.08-.21-.15-.41-.22-.61l-.07-.2-.1-.16-.13-.32-.19-.33-.16-.32-.39-.65-.2-.29-.22-.32-.2-.33-.19-.29-.58-1-.17-.36-.06-.16L194,122l-.06-.2-.07-.16h0l.06.16.07.2.09.16.07.16.16.36.58,1,.2.29.19.33.23.32.19.29.39.65.16.32.2.33.13.32.09.16.07.2.22.6a10,10,0,0,1,.56,1.8,4.34,4.34,0,0,0,.72,1.64,7,7,0,0,1,.57,1,17.27,17.27,0,0,1,1.46,6.29A47.26,47.26,0,0,1,199.86,147.08Z"/><path class="cls-3" d="M194.41,131.14a7.3,7.3,0,0,0-1.14-3.51c-.13-.25-.27-.51-.39-.77a37.36,37.36,0,0,0-4.83-6.83l0-.06A31.56,31.56,0,0,0,184.2,116a13.65,13.65,0,0,1-2.46-2.69c-.52-.76-1.09-1.48-1.64-2.17a13.9,13.9,0,0,1-3-5.12l-.32-1.16-.19-.55-.17-.59-.19-.55-.16-.55-.16-.58-.17-.55-.19-.88,0-.29-.07-.26-.06-.58v-.29l0-.29v-.3l0-.29V98l0-.29.06-.3.07-.32.06-.29h0l-.07.29-.06.33-.07.29,0,.29v.32l0,.29v.3l0,.29v.29l.07.58.06.26,0,.29.2.88.16.55.16.58.16.55.2.55.16.59.19.55.33,1.16a13.88,13.88,0,0,0,3,5.12c.55.69,1.12,1.4,1.64,2.17A13.65,13.65,0,0,0,184.2,116,30.87,30.87,0,0,1,188,120l.05,0a38.24,38.24,0,0,1,4.82,6.84l.4.77A7.4,7.4,0,0,1,194.41,131.14Z"/><path class="cls-3" d="M171.79,155.37a15.2,15.2,0,0,1-2.2-3.19c-.29-.51-.58-1-.91-1.54a13.52,13.52,0,0,1-1.88-7,12.78,12.78,0,0,1,1.67-6.17,18.81,18.81,0,0,1,4.07-5L173,132a6.8,6.8,0,0,1,3.43-2.13,5.34,5.34,0,0,0,2.17-1l.13-.08.13-.06.32-.2.2-.1.22-.09.23-.13.23-.1.25-.1.26-.13.26-.09.29-.13.26-.1.59-.23.61-.22.59-.23.61-.2.26-.12.29-.07.29-.1.52-.19.68-.2.2-.06.19,0,.16-.07.17,0h0l-.17,0-.16.06-.19,0-.2.07-.68.19-.52.2-.29.09-.29.07-.26.13-.61.19-.59.23-.61.23-.59.22-.25.1-.3.13-.25.1-.26.13-.26.09-.23.1-.23.13-.22.1-.2.09-.32.2-.13.06a.57.57,0,0,1-.13.08,5.34,5.34,0,0,1-2.17,1A6.75,6.75,0,0,0,173,132l-.49.45c-3.64,3.24-5.73,7.33-5.73,11.21a13.53,13.53,0,0,0,1.87,7c.33.5.63,1,.92,1.54A15.16,15.16,0,0,0,171.79,155.37Z"/><path class="cls-3" d="M170.72,153.72a11.24,11.24,0,0,0-2.48-2,8.4,8.4,0,0,1-2.73-2.44,12.16,12.16,0,0,1-1.17-2.51,12.16,12.16,0,0,0,1.17,2.51,8.51,8.51,0,0,0,2.73,2.44A11.24,11.24,0,0,1,170.72,153.72Zm-6.95-11.64a13.17,13.17,0,0,1,.51-2.75,12.61,12.61,0,0,1,.94-2.23,1.35,1.35,0,0,0,.05-.67.91.91,0,0,1,.08-.63l.09-.1v0l.07-.06,0-.07.06-.06v0l0,0v0l.06-.07v-.06l0,0v0l0-.07V135l0,0v-.32h0V135l0,0v.1l0,.07v0l0,0v.07l-.06.06v0l0,0v0l-.07.06,0,.07-.07.06v0l-.09.1a.91.91,0,0,0-.08.63,1.35,1.35,0,0,1-.05.67,12.61,12.61,0,0,0-.94,2.23A13.42,13.42,0,0,0,163.77,142.08Z"/><path class="cls-3" d="M210.65,187.78h-.47c.62-.6.68-.73.72-.83l0-.05a3.07,3.07,0,0,0,.27-1,3,3,0,0,1,.21-.8,26.06,26.06,0,0,0,2.85-14,26.06,26.06,0,0,1-2.85,14,3,3,0,0,0-.21.8,3.07,3.07,0,0,1-.27,1s0,0,0,.05-.1.23-.73.83h.46c1.24,0,2.43-.33,2.71-.79,2.64-4.35,3.11-9,3.6-13.88.23-2.23.46-4.53.91-6.86h0s.67-1.4,1.14-2.42c.31-.68.56-1.23.57-1.24h0a31.85,31.85,0,0,0,4-4.1,19.35,19.35,0,0,0,1.31-2.18c.21-.37.42-.76.64-1.13.38-.62.77-1.21,1.15-1.79s.92-1.4,1.37-2.16a20.41,20.41,0,0,0,1.82-3.69l.1-.2.06-.16.2-.32.09-.13.1-.16.13-.13.1-.13L231,146l.16-.1.13-.13.16-.1.13-.13.49-.29.16-.06.35-.2.36-.16.36-.13.35-.16.72-.26.38-.13h0l-.39.13-.72.26-.35.16-.36.13-.36.17-.35.19-.16.06-.49.3-.13.13-.16.09-.13.13-.16.1-.26.26-.1.13-.13.13-.09.16-.1.13-.2.32-.06.16-.1.2a21,21,0,0,1-1.81,3.69c-.46.76-.93,1.48-1.38,2.17s-.77,1.17-1.15,1.78c-.22.37-.43.76-.63,1.14a20.8,20.8,0,0,1-1.31,2.17,32.59,32.59,0,0,1-4,4.1h0s-.28.58-.58,1.24c-.63,1.38-1.12,2.43-1.14,2.43h0c-.45,2.33-.68,4.63-.91,6.86-.49,4.9-1,9.53-3.59,13.88C213.07,187.45,211.89,187.78,210.65,187.78Z"/><path class="cls-3" d="M200.92,206a7.49,7.49,0,0,1-.54-.8l-.4-.65c-.4-.53,1.31-2.44,1.68-2.76a36.69,36.69,0,0,1,5.7-4,37.68,37.68,0,0,0-5.7,4c-.37.32-2.08,2.22-1.68,2.75l.4.66a7.49,7.49,0,0,0,.54.8,3.13,3.13,0,0,1,.64-.42,2,2,0,0,0,.65-.49c3.07-3.06,5.59-4,9.46-5.24a17.93,17.93,0,0,1,6.4-.42c1,0,1.93.08,3,.08a21.73,21.73,0,0,0,7.3-1.12c4-1.41,7.89-5.75,11.33-9.58,1.14-1.27,2.22-2.47,3.22-3.48a15.2,15.2,0,0,1,7.85-4.14,9.77,9.77,0,0,1,8.19,1.94c-4.64-3.91-11.93-1.9-16,2.21-1,1-2.08,2.2-3.22,3.47-3.44,3.83-7.33,8.17-11.33,9.58a26,26,0,0,1-10.25,1,18,18,0,0,0-6.4.42c-3.87,1.26-6.39,2.18-9.46,5.25a2.1,2.1,0,0,1-.65.48A3.13,3.13,0,0,0,200.92,206Zm9.65-9.42a25.78,25.78,0,0,1,3.24-.43,35.6,35.6,0,0,1,5.43.1c3.6.27,6.71.5,10.77-2.3a52.85,52.85,0,0,0,6.37-6,50.1,50.1,0,0,1,6.81-6.32l.16-.13.17-.1.13-.09.12-.13.13-.1L244,181l.13-.1.33-.32.39-.46.22-.19.2-.19.09-.07.13-.1.1-.06.13-.1.1-.06.13,0,.26-.12.16,0,.13,0,.16,0h0l-.16,0-.13,0-.16,0-.26.13-.13,0-.1.06-.13.1-.09.07-.13.09-.1.07-.2.19-.22.2-.39.45-.32.32-.13.1-.13.13-.13.1-.13.13-.13.1-.17.09-.16.13a49.51,49.51,0,0,0-6.8,6.32,52.78,52.78,0,0,1-6.38,6c-4.06,2.8-7.17,2.57-10.77,2.3a34.43,34.43,0,0,0-5.43-.09A23.3,23.3,0,0,0,210.57,196.58Z"/><path id="path38135" class="cls-5" d="M218,212.13h0v0l0,0h0v0l-.07.07,0,0,0,.06-.07,0,0,.06-.06.07-.07.09-.06.07-.07.06-.06.1-.16.16-.17.2-.16.22-.16.2-.16.22-.16.23-.17.26-.16.23-.16.26-.16.26-.13.25-.13.26-.1.23-.13.26,0,.13,0,.13,0,.1,0,.13,0,.13v.09l0,.13v.29l0,.13v.1l0,.1,0,.06.06.1,0,.1.07.06.06.07.07.09.09.07,1.11,1.36s-8.46,7.61-4.12,9.23c0,0-2.43,8.17,1.91,6.84,0,0-1.36,6,2.72,5.44C217.11,241,215.49,223,218,212.13Z"/><path id="path38137" class="cls-5" d="M220.13,208.59h0v.13l0,.1v.29l0,.2v.19l0,.23V210l0,.58-.07.68,0,.78-.06.84-.07.91-.06,1-.07,1.07-.06,1.1,0,1.17-.06,1.23-.07,1.23-.06,1.3,0,1.33-.07,1.36,0,1.36-.1,2.78,0,2.82v4.12l0,1.36v1.29l.07,1.3,0,1.23.1,1.2s4.63-4.08,3-6.25c0,0,7.09-1.11,1.36-9.27,0,0,6.8-3-1.62-9.52C222,217,226.93,215.4,220.13,208.59Z"/><path id="path38139" class="cls-5" d="M224.47,209.11l0,0,0,0,.07.06.06.1.13.13.13.16.16.16.17.2.19.19.23.26.22.26.23.29.29.29.26.33.62.68.68.74.71.84.78.88.77.91.85,1,.87,1,.88,1,.9,1.07,1.82,2.17,1.81,2.17.91,1.1.84,1.07.88,1.07.81,1,.77,1,.72,1,.68.94.61.87.58.81.49.78.23.35.19.33.2.32.16.33s-1.62,3-4.6-1.11c0,0-8.72,1.92-6.29-5.18,0,0-6.25,3.57-7.06-1.07,0,0,4.08-3.56-1.36-10.07C226.12,217.57,228.58,215.66,224.47,209.11Z"/><path id="path38141" class="cls-5" d="M221.75,203.67l0,0h0l.13.1.23.19.32.23.36.29.48.36.52.39.59.48.64.55.72.59.74.64.81.72.84.78.91.81.91.87.94.94,1,1,1,1,1,1.1,1,1.13,1,1.17,1,1.26,1,1.27,1,1.32,1,1.36,1,1.43,1,1.46.94,1.52.91,1.52.87,1.59.81,1.62.81,1.68s1.72-.87-.84-5.18c0,0,4.37-5.44-2.43-7.87,0,0,1.88-10.37-9.27-10.08C233.73,210,236.19,203.41,221.75,203.67Z"/><path id="path38143" class="cls-5" d="M248.7,193.59v.07l0,.06v.49l0,.16v.42l0,.23v.26l0,.26,0,.29,0,.62.07.71.06.71.07.81.06.81.1.88.1.9.09.91.13.94.1,1,.16,1,.29,2,.17,1,.19.94.2,1,.22.91.2.91.26.84.22.84.29.78.26.71.29.68.33.62.16.26.16.29c2.3,3.56,1.07.26,1.07.26s-2.43-17.14-2.43-25c0,0-1.1-4.64-1.65-6.55-.36-1.29,4.89,3.53,5.18,5.74s-.81,2.17-.81,2.17,8.17,10.07,2.43,10.62c0,0,5.74,7.87.55,10.08,0,0,.26,10.56-3.53,6.8a12.63,12.63,0,0,1-2.46-3.56s.29,5.73-2.72,4.08c0,0-4.89-5.7-2.17-12.25,0,0-8.07,2.14-1.65-12,0,0-5.15-1.62-1.62-7.62a8.36,8.36,0,0,0,3-3.24C247.34,184.07,248.7,193.59,248.7,193.59Z"/><path id="path38145" class="cls-5" d="M257.71,188.7h0l0,0,0,0,0,0,.13.13.16.19.23.2.26.29.29.29.33.36.35.42.39.45.39.49.42.52.45.58.46.62.45.64.49.68.45.72.49.77.48.81.46.81.45.88.42.91.42.94.42,1,.39,1,.36,1,.32,1.06.29,1.07.26,1.11.2,1.13.19,1.17.1,1.19.81-1.1s1.65-10.07-9.23-20.67c0,0,1.62-4.89,5.15-.81a4.91,4.91,0,0,1,1.1,4.35s6.25.81,4.63,6.8c0,0,1.07,12.54-2.72,13.05,0,0-3.53,0-3-4.08,0,0-4.34,3.27-2.72-4.6C262.31,203.15,261.5,208.59,257.71,188.7Z"/><path id="path38147" class="cls-5" d="M264.51,184.62h0l.06,0,0,0,.13,0,.19.1.26.09.29.13.32.16.36.2.39.23.45.22.46.29.48.3.52.32.52.39.55.39.55.42.55.45.58.52.59.52.58.58.55.58.58.65.56.68.55.72.51.77.52.78.49.84.45.88.42.94.39.94.39,1,.32,1.07s1.37,4.6-1.36,4.08c0,0-4.37,1.07-2.72-9.26,0,0-3.82.26-4.63-5.45C269.4,189.25,268.85,191.42,264.51,184.62Z"/><path id="path38149" class="cls-5" d="M272.38,186.53h1.13l.23,0,.23,0,.26,0,.29,0,.26.07.29.06.29.07.29.09.26.13.29.13.29.13.3.16.26.2.13.1.12.13.13.09.13.13.13.1.1.13.13.13.1.16.09.13.1.16.1.16.1.17.09.19.07.16.1.2.06.19.06.2,0,.22.06.23,0,.19-.81,2.21s2.18-1.1,1.62,2.17l-.55.81Z"/><path id="path38151" class="cls-5" d="M285.47,173.48l-.07.22-.06.23-.1.23-.1.22-.09.23-.13.23-.1.22-.13.23-.16.23-.13.23-.16.22-.13.2-.16.22-.17.2-.13.19-.16.2-.16.16-.16.19-.13.16-.13.17-.16.13-.13.13-.1.13-.13.12-.1.1-.09.1-.07.06-.06.07,0,0h0l0,0,0,0h0v0h0c2.73,4.08-9.23,4.63-9.23,4.63.26,6-13.9-3.53-13.9-3.53s14.16,2.72,24.79-7.09l-4.89,1.1s-4.64,4.08-15.26,3.53c0,0,1.91-6.81,7.9-3.79,0,0,5.7-10.63,9.27-4.93,0,0,5.7-2.17,6.25,1.36l-.29,2.17Z"/><path id="path38153" class="cls-5" d="M260.69,177h-.36l-.07,0h-.58l-.23,0h-.51l-.29,0h-.59l-.29,0h-.32l-.62,0h-.32l-.29,0h-.62l-.26,0h-.78l-.09,0h-.85c-.84,0,15.49-5.7,20.41-21.77l-1.1-.55s-6.25,9.52-9.78,12.53-4.08-4.92-1.36-5.73c0,0-.55-8.71,3.53-7.35,0,0,7.61-14.16,11.43-7.07,0,0,2.17,6.26,1.36,9s-4.89,6.25-4.89,6.25,3,.84-.29,4.37c0,0-2.43,2.43-2.43,3.83C270.5,170.76,264.22,168.29,260.69,177Z"/><path id="path38155" class="cls-5" d="M264,144.61h0v0h0v-.13h0v-.06h0v0h0l0,0h0v.06h0v.16l0,0v.29l0,.09v.62l0,.1v2.17l0,.22s3.82,1.36-1.07,5.45l-4.34,3.53s4.34,1.36-1.11,6c0,0,2.18,1.36-4.92,7.1,0,0-1.88,4.6-1.88,5.7l-.84-3.27s10.92-19.31,10.63-25.86h-1.62s-4.64,12.8-6.55,15.78c0,0-5.44-2.17-2.17-6.8,0,0-7.64-7.32.26-10.34a2.63,2.63,0,0,1,3,1.62S259.88,140.53,264,144.61Z"/><path id="path38157" class="cls-5" d="M241.64,140.24h0l0,0h.06l.1-.07.1,0,.13-.06.16-.07.16-.06.2-.1.22-.1.23-.1.26-.09.55-.23.65-.23.68-.26.78-.29.81-.26.84-.29.91-.26,1-.29,1-.26,1-.26,1-.22,1.07-.2,1.07-.19,1.1-.16,1.1-.13,1.1-.07,1.1-.06,1.07,0,1.1,0,1.07.13,1,.16,1,.23,1,.29.45.16.49.2.45.22.46.23.45.26.42.26.26-1.36s-6.25-4.08-19.6-.81c0,0,4.37-9.82,6.8-4.63,0,0,9-5.19,7.65.55,0,0,9.23-.55,6,3.53,0,0,6.83,7.61,4.11,7.9,0,0-8.71,2.46-7.09-1.91a18.36,18.36,0,0,1-11.7-.55S254.43,146.78,241.64,140.24Z"/><path id="path38159" class="cls-5" d="M236.45,142.7h0v0l0,.07.06.1.07.09.06.1.2.32.22.39.26.46.3.55.35.61.36.68.35.75.39.81.42.87.43.94.42,1,.42,1,.39,1.1.42,1.14.39,1.16.35,1.2.36,1.26.32,1.3.29,1.33.23,1.33.23,1.39.16,1.39.13,1.43.06,1.42v1.46l-.06,1.46-.1,1.46-.19,1.49-.26,1.49s7.61-9.27,4.34-11.73-.81,0-.81,0,2.17-9-3-9c0,0,2.2-10.89-2.17-7.88C241.9,145.71,236.45,143.51,236.45,142.7Z"/><path id="path38161" class="cls-5" d="M235.35,143.25h0l0,0,0,.07,0,.1.06.13,0,.13.06.16.1.16.06.19.1.23.1.26.1.26.12.26.13.29.23.65.29.71.29.75.33.81.29.84.32.87.36.91.32,1,.33.94.61,2,.33,1,.29,1,.26,1,.23.93.22.94.2.94.16.88.13.84.09.81,0,.75v1l0,.29,0,.3-.06.29-.07.26-.09.22s-10.34-7.61-3-7.9c0,0-13.35-7.61-3.83-10.59C234.54,147.89,231.82,140,235.35,143.25Z"/><path id="path38163" class="cls-5" d="M224.76,162.3v0l.06,0,.13.09.17.13.16.16.22.23.26.23.3.29.29.32.32.36.32.42.36.45.36.49.35.52.36.58.39.59.36.68.35.68.33.74.32.78.32.81.29.87.26.91.26,1,.2,1,.19,1,.13,1.1.1,1.14,0,.61,0,.59v1.23l0,.65,0,.64,0,.65-.07.68s-6-5.18-2.72-6.28c0,0-9.52-4.08-4.63-7.07,0,0-6.51-3.27-2.72-6.25Z"/><path id="path38165" class="cls-5" d="M228.29,155.76v0h0l0,0v.07l0,0,0,.06v.07l0,.06,0,.07,0,.06,0,.1,0,.1,0,.09-.07.2-.06.23-.07.25-.09.26-.07.3,0,.29-.06.32,0,.29,0,.33,0,.32V160l0,.32.07.33,0,.16,0,.16,0,.16.07.17.06.16.07.16.06.16.07.13.09.16.1.17.1.13.1.13.12.12.13.17.13.09.13.13.17.13.16.1.16.13.16.1.2.09.19.1,2.2.55s-4.08,4.51,4.08,8.43c0,0-4.08,3.27,2.18,6,0,0,1.36-10.89-9.27-24.75Z"/><path id="path38167" class="cls-5" d="M227.74,183.81h0v0l0,0-.06,0,0,0-.07.07-.06.06-.1.07-.06.06-.1.1-.1.06-.26.2-.22.19-.3.23-.32.22-.32.26-.39.26-.39.26-.39.26-.42.26-.45.26-.46.26-.48.26-.49.26-.52.22-.48.2-.55.22-.52.17-.55.16-.52.13-.55.13-.55.06-.55.07h-.56l-.55,0h-.25l-.3,0-.26-.06-.25-.07c-5.74-1.36,13.6,10.08,11.95-.81C227.19,187.89,233.18,187.63,227.74,183.81Z"/><path id="path38169" class="cls-5" d="M208.69,175.36h0l0,0-.07,0-.06,0-.1-.07-.13-.06-.16-.07L208,175l-.39-.16-.49-.23-.55-.23-.61-.22-.72-.26-.74-.23-.81-.23-.88-.19-.94-.16-1-.17-1-.09-1.07-.07h-1.1l-1.14.07-1.13.13-1.2.19-1.2.29-.61.16-.62.2-.61.23-.65.22-.62.26-.61.33-.65.29-.62.35-.64.39-.62.42-.65.42-.61.49-.65.49-.62.55-.65.58-.61.58-.62.65-.61.68-.62.71-.61.75-.62.81-.61.84-.26-1.36s8.42-17.14,25.3-11.18c0,0-4-9.42-6.25-4.08,0,0-10.63-6-10.08,1.36,0,0-10.63-.81-7.9,6.26,0,0-8.69,4.11-3,8.74,0,0-1.62,5.41,4.37,2.43,0,0,6.8,3,8.16-4.34,0,0,6.26,1.91,7.87-3.82C197.51,177.82,197.81,181.64,208.69,175.36Z"/><path class="cls-3" d="M183,216.08a19.41,19.41,0,0,0-3.95-7.26,11.83,11.83,0,0,0-1.45-1.38,5.78,5.78,0,0,1-2.09-2.57,11.18,11.18,0,0,1-.45-2.43,8.63,8.63,0,0,0-.61-2.66,23,23,0,0,0-1.43-2.62,34.59,34.59,0,0,1-7-8.81,1.47,1.47,0,0,0-.33-.33c-.14-.1-.27-.2-.28-.29-.16-1.07-.36-1.85-2.76-5.57l-.13-.19,0-.13-.06-.1-.26-.52-.07-.16-.06-.13-.16-.29-.13-.33-.26-.58-.07-.16-.39-.78-.13-.19,0-.1-.06-.1,0-.06-.06-.07,0-.06h0l0,.06.07.07,0,.06.06.1,0,.1.13.19.39.78.06.16.26.58.13.33.16.29.07.13.06.16.26.52.06.09,0,.13.13.2c2.39,3.72,2.59,4.5,2.75,5.57,0,.08.14.18.28.29a1.79,1.79,0,0,1,.34.33,34.75,34.75,0,0,0,7,8.81,23,23,0,0,1,1.43,2.62,8.34,8.34,0,0,1,.61,2.66,10.71,10.71,0,0,0,.46,2.43,5.68,5.68,0,0,0,2.08,2.56,11.23,11.23,0,0,1,1.45,1.39,19.41,19.41,0,0,1,3.95,7.26,2.53,2.53,0,0,0,.87-1.32,2.31,2.31,0,0,1,1-1.41,6.1,6.1,0,0,1-1.23-2.25,6.84,6.84,0,0,0-.55-1.21,14.43,14.43,0,0,0-2.72-2.86c-1.37-1.18-2.55-2.21-3-4.36-.28-1.37-.39-2.37-.49-3.25a9,9,0,0,0-1.13-4,11.88,11.88,0,0,0-3-3,15.67,15.67,0,0,1-2.51-2.31,9.19,9.19,0,0,1-1.62-2.69,34.27,34.27,0,0,0-3.7-7.19c-.29-.45-.59-.89-.89-1.33a21.15,21.15,0,0,1-2.57-4.53A21,21,0,0,0,164,179l.89,1.33a34.42,34.42,0,0,1,3.69,7.19,9.55,9.55,0,0,0,1.62,2.69,15.34,15.34,0,0,0,2.52,2.31,12.22,12.22,0,0,1,3,3,9,9,0,0,1,1.12,4,31.4,31.4,0,0,0,.5,3.25c.46,2.15,1.64,3.17,3,4.36a13.89,13.89,0,0,1,2.72,2.86,6.52,6.52,0,0,1,.55,1.21,6.25,6.25,0,0,0,1.23,2.25,2.32,2.32,0,0,0-1,1.41A2.54,2.54,0,0,1,183,216.08Z"/><path id="path38173" class="cls-5" d="M194,184.36h0l0,0-.07,0-.06,0-.07,0-.09.07-.13,0-.13.06-.13.07-.13.1-.16.06-.16.1-.17.1-.19.09-.2.13-.38.23-.46.26-.45.26-.45.29-.49.29-.49.32-.52.33-.48.32L188,188l-.48.35-.46.36-.45.39-.42.36-.39.38-.36.36-.16.2-.16.19-.13.19-.13.2-.13.16-.13.19-.1.17-.06.19-.07.2-.06.16,0,.16,0,.19v.33l0,.16,0,.16.06.16.07.17s5.18-1.66,5.7,4.89c0,0,3-4.08,3-7.36,0,0,3.53,3.53,5.71-2.72,0,0,10.36.55,7.09-5.15,0,0,4.08-2.72,4.08-6A35.05,35.05,0,0,1,194,184.36Z"/><path id="path38175" class="cls-5" d="M205.42,144.06l0,0,.1-.13.13-.19.23-.26.25-.33.36-.39.39-.42.49-.45.51-.49.62-.51.68-.56.74-.55.81-.55.88-.58.94-.55,1-.55,1.1-.52,1.2-.49,1.23-.48,1.32-.42,1.43-.39,1.49-.33,1.56-.25,1.65-.23.87-.07.88-.06.87,0,.94,0h.91l1,0,1,.06,1,.07,1,.09,1,.1,1.07.16,1.1.16,1.1.23,1.14.23,1.13.26,1.2.29s3.53,3.79-5.19,3.27c0,0,1.62,4.08-8.16,1.36,0,0,.81,5.18-11.69.26C215.79,140.79,220.68,143.25,205.42,144.06Z"/><path id="path38177" class="cls-5" d="M212.48,136.45l0,0,.1-.07.13-.09.19-.13.23-.17.29-.16.36-.23.39-.22.45-.23.49-.26.55-.26.58-.26.65-.26.71-.25.75-.26.77-.26.85-.23.9-.23.94-.19,1-.2,1-.12,1.07-.13,1.14-.1,1.13,0h1.23l1.26,0,1.3.06,1.33.17,1.39.19,1.43.23.71.16.74.16.75.16.78.2s-1.92-5.15-6.55-2.43c0,0-2.39-9.53-9,.52-.13.22-.81.29-.81.29S217.11,124.72,212.48,136.45Z"/><path id="path38179" class="cls-5" d="M210.05,147.89h0l0,0,0,.09-.07.17-.09.22-.13.29-.17.36-.13.42-.19.46-.16.51-.16.55-.2.62-.19.68-.17.71-.16.75-.16.81-.13.84-.1.88-.09.9-.07.94-.06,1v1l0,1,.06,1.07.13,1.11.13,1.1.23,1.13.26,1.13.32,1.17.36,1.2.45,1.2.49,1.2.58,1.2a1,1,0,0,0,.81.55s9.27-18.24,2.46-16.62c0,0,12.25-9.79,2.18-11.41Z"/><path id="path38181" class="cls-5" d="M206,149.5h0v0l0,0v.06l0,.07v.1l0,.09,0,.1v.13l0,.13-.07.32-.06.36-.1.42-.06.45-.1.49-.07.52-.06.55-.1.58-.06.62-.07.65-.06.68,0,.68,0,.68,0,.71v1.43l0,.74.07.71.06.72.07.74.13.71.13.68.16.68.19.68.23.65.26.62.29.61s-11.73-5.73-5.18-8.71C201.34,158.22,200,142.15,206,149.5Z"/><path id="path38183" class="cls-5" d="M176.85,158l0,0h0l-.06,0,0-.07-.07-.06-.06-.07-.1-.1-.1-.09-.13-.13-.09-.1-.13-.16-.17-.13-.12-.16-.17-.17-.16-.16-.16-.19-.16-.16-.2-.2-.35-.42-.36-.45-.36-.46-.39-.45-.35-.49-.36-.51-.32-.49-.29-.52-.17-.26-.12-.22-.13-.26-.1-.26-.13-.23-.07-.26-.09-.23-.07-.25-.06-.23-.07-.23v-.23l0-.22v-.42l.07-.2,0-.19.06-.16.1-.2.1-.16.13-.16.16-.16.16-.13.19-.13.23-.13.23-.1.26-.1.29-.09.32-.07.33-.06.39,0s-7.65-11.43,2.72-11.43c0,0,7.06-10.08,10.07-3,0,0,4.89-6.52,6.25-.81,0,0-15,4.37-16.06,14.7,0,0-4.09,5.45,0,10.08Z"/><path id="path38185" class="cls-5" d="M181.19,141.08v0h0v0l0,0,0,0,.07-.06.06,0,.07-.1.13-.13.19-.2.23-.22.23-.23.29-.26.29-.26.32-.32.33-.29.39-.33.39-.32.42-.36.42-.35.45-.36.45-.36.49-.35.49-.33.51-.35.52-.36.55-.32.55-.33.56-.29.55-.29.58-.26.58-.26.55-.23.62-.19.58-.16.58-.16,1.07,5.47s-3.79,2.43-5.44.26c0,0-4.89-1.91-4.89,3.53,0,0-1.91,3.56-5.18,3.27Z"/><path id="path38187" class="cls-5" d="M178.76,155.76h0v0l0-.06,0,0,0-.1.1-.16.1-.2.13-.26.16-.29.2-.29.22-.35.26-.36.26-.39.29-.42.33-.42.38-.42.39-.46.39-.45.46-.42.48-.45.52-.46.55-.42.55-.42.62-.42.64-.39.69-.36.68-.32.74-.32.78-.3.81-.22.42-.13.42-.1.45-.1.42-.06.46-.07.48-.06.46,0,.48,0v-1.65s-10.36,1.65-13.34,6.84c0,0-.26-5.45,4.63-5.74,0,0,1.65-7.61,7.9-3.82,0,0,1.36-1.62,2.43-1.07,0,0,.85,5.44-1.32,9.23C193.47,149.76,191.55,158.48,178.76,155.76Z"/><path id="path38189" class="cls-5" d="M154.79,175.36H155l.13,0h.13l.2,0,.16,0,.23,0,.19,0,.23.1.26.06.22.1.26.13.23.13.26.13.26.19.22.2.13.12.1.1.13.13.1.13.13.13.1.16.09.13.1.16.1.17.09.19.1.19.07.17.09.22.07.2.06.22.07.23,0,.23.06.26,0,.26,0,.26,0,.25v.3l0,.29v.65l0,.32,0,.32,0,.36a25.46,25.46,0,0,1,7.09,15s-8.71-8.2-9-15l-1.33.29a13.84,13.84,0,0,0,3.79,10.59s-9.79-7.32-6.81-10.88c0,0-11.43-1.36-9.26-7.9s-.52-1.07-.52-1.07l5.44-1.91S151.8,175.65,154.79,175.36Z"/><path id="path38191" class="cls-5" d="M135.45,146h-.07l0,0h-.07l0,0h0l-.1.06-.1,0-.13.06-.13.07-.12.06-.13.1-.13.09-.17.1-.13.13-.13.13-.12.13-.13.16-.13.16,0,.1-.06.1,0,.1-.07.09,0,.1,0,.1,0,.09,0,.13,0,.1,0,.13v.1l0,.13V149l0,.13v.13l0,.16,0,.16,0,.13,0,.16.06.17,0,.19.07.16.1.16.06.2.1.19.1.2s-6.55,6.25,3.27,16.87c0,0-14.71-4.37-10.08-13.34,0,0,1.62-2.46,2.46-2.2C129.48,152.49,126.21,145.42,135.45,146Z"/><path id="path38193" class="cls-5" d="M126.76,148.14h0v0h0l0,0h0l0,0v0l0,0v0l0,0,0,.1,0,.06-.07.1,0,.13-.07.1,0,.13,0,.13,0,.13,0,.16,0,.13,0,.16v.13l0,.16v.16l0,.16v.07l0,.1v.06l0,.1,0,.06v.07l0,.1,0,.06.07.1,0,.06,0,.07.07.09,0,.07.06.06.07.1.06.07.1.06.07.07.09.06.07.06.09.1.1.07s-9,4.6.55,14.15c0,0-7.35-2.07-9-4.92l1.91-.81s3.79-6.25,1.62-9C122.39,151.42,124.3,148.14,126.76,148.14Z"/><path id="path38195" class="cls-5" d="M130,137.26h.52l.1,0h.78l.35,0h.42l.42,0H133l.48,0h1l.52,0h4.12l.48,0,.46,0h.42l.39,0,.38-.06.33,0,.16,0,.16,0H142l.13,0,.1,0,.13,0,.06,0,.1-.06s-3.27-5.7-8.71-4.89c0,0,2.39-9.33-6.81-4.34,0,0-2.46-13.35-8.16-5.48,0,0-3.27,4.92-.81,7.9s6.51,6.81,8.16,7.65S128.09,137.26,130,137.26Z"/><path id="path38197" class="cls-5" d="M119.12,118.76v0h-1.07l-.45,0h-1.11l-.68,0-.71,0-.74,0-.85,0-.87.07-.91.06-1,.07-1,.09-1,.1-1.07.13-1.1.13-1.1.16-1.13.16-1.14.16-1.16.23-1.17.23-1.2.23-1.17.25-1.16.3-1.17.32-1.16.36-1.14.35-1.13.39-1.1.42v-1.91s13-4.63,19.3-4.08c0,0-.25-7.1-3.82-7.35,0,0-3-1.07-3,3.82,0,0-6.25-4.89-7.06,2.46,0,0-5.73-1.91-4.93,3.53,0,0-7.64,2.92-1.36,6.8,0,0,3.83.81,5.74-1.65,0,0,4.08,4.89,9.23-3,0,0,5.18,3.82,9,.52A34.17,34.17,0,0,1,119.12,118.76Z"/><path id="path38199" class="cls-5" d="M128.93,106v-.23l0-.1v-.29l0-.19,0-.2v-.23l0-.22,0-.29.06-.55.1-.65.09-.72.13-.74.13-.81.13-.87.2-.91.19-.91.2-1,.22-1,.26-1,.29-1,.3-1,.32-1,.36-1,.38-1,.39-1,.46-.94.45-.94.49-.88.51-.87.59-.81.58-.75.62-.71.68-.61.32-.3.36-.29,1.91-.55s-15,23.13-2.72,38.13c0,0,1.36-5.44-.55-9.26,0,0,4.08-3.28,1.62-10.08,0,0,6-3.17,1.91-9.26l-.55-.81s5.18-4.9.84-10.08c0,0-5.18-1.36-6,1.91,0,0-1.66,2.17-.81,4.08,0,0-7.1-4.08-5.19,8.17C128.38,94.24,122.65,97.22,128.93,106Z"/><path id="path38201" class="cls-5" d="M126.21,115.75h0l-.06,0-.07,0-.16-.06-.16-.07-.2-.09-.26-.16-.26-.17-.32-.19-.36-.26-.39-.29-.42-.33-.45-.38-.49-.46-.51-.48-.59-.59-.58-.61-.65-.68-.65-.78-.71-.81-.71-.91-.39-.48-.39-.52-.39-.52-.42-.55-.39-.55-.42-.62-.42-.61-.45-.62-.46-.68-.45-.68-.45-.71-.46-.71-.48-.78-.49-.78-.49-.81-.48-.81-.52-.87-.52-.88-.52-.94L109,94.3l-.52-1-.55-1c-.13-.23-.55,1.36-.55,1.36s4.89,13.09,10.89,18.53c0,0-5.74-5.74-6.8-5.74s-4.9,0-1.11-2.72c0,0-7.87-.26-2.43-4.63,0,0-3.82-7.61-1.36-9.27,0,0,6,.3,6.51,5.19,0,0,4.09-3.53,5.19-.81,0,0,2.17,3.82-1.62,5.7,0,0,3.79-.26,2.17,3.82C118.86,103.76,119.93,98.61,126.21,115.75Z"/><path id="path38203" class="cls-5" d="M97.35,105.12h0l0,0,.07,0,0,.06.09.07.1.09.1.1.13.1.16.1.16.13.16.13.2.13.23.12.22.17.23.13.26.16.29.13.29.16.29.13.33.16.35.13.36.13.36.13.39.13.38.1.42.13.43.09.45.07.45.1.49.06.49,0,.48,0s-.81-5.71-3-4.35c0,0-3-4.37-4.63-1.65,0,0-6,0-2.17,5.19,0,0-1.91,3.82,4.63,1.91,0,0,.55.26.55,0l-4.63-3.28Z"/><path id="path38205" class="cls-5" d="M149.34,111.41h0v0l0,0,0,0v.06l-.1.13-.1.16-.1.2-.13.25-.16.26-.13.3-.16.32-.19.36-.17.35-.16.42-.19.42-.2.43-.16.48-.19.49-.16.52-.17.51-.16.55-.13.56-.16.55-.1.58-.09.61-.1.59-.07.61-.06.62v1.26l0,.65,0,.62.1.64.81-.55s4.92-19.89,14.45-21.22c0,0,4.08-1.1,4.89-.55s-1.36,15.78-4.34,6.81c0,0-3,13.6-6.28,5.7,0,0-3.54,12.54-6.26,7.61,0,0-1.1,9.27-3.82,5.18,0,0-4.08-5.18-.55-8.42C145,119.57,139.82,117.37,149.34,111.41Z"/><path id="path38207" class="cls-5" d="M161.33,85.26h0l0,0-.06,0-.1.06-.13.07-.13.1-.16.13-.19.09-.2.16-.22.13-.52.36-.59.42-.61.49-.71.52-.75.61-.81.62-.81.71-.87.75-.88.81-.91.84-.9.9-.88.94-.9,1-.91,1-.84,1.07-.88,1.1-.81,1.17-.74,1.2-.75,1.2-.65,1.26-.61,1.3-.55,1.32-.46,1.36-.38,1.4-.33,1.42-.1.72-.09.71-.07.74,0,.75s17.43-10.37,8.16-12.83c0,0,14.71-3.79,7.62-7.87,0,0,13.89-14.45-.55-8.72,0,0-4.09-2.43-7.07,4.64,0,0-6.8.26-5.73,8.16,0,0,10.88-10.08,15.52-11.7S161.33,85.26,161.33,85.26Z"/><path id="path38209" class="cls-5" d="M156.7,138.07v-.62l0-.22V137l0-.26,0-.32v-.29l0-.36.06-.36,0-.39.1-.81.16-.9.16-.94.23-1,.26-1,.29-1.07.36-1,.39-1.07.45-1.07.52-1,.58-1,.33-.49.32-.49.36-.45.39-.45.38-.42.39-.46L163,121l.46-.38.48-.36.49-.36.52-.32.52-.29L166,119l.58-.23.62-.23.61-.19.65-.16.68-.13.68-.1.74-.07.75,0,.78,0,.81,0,.84.09.84.13.91.17.91.22.93.26c.56.13-1.06,0-1.06,0l1.36-1.1s-6.26-2.72-12.25-1.1c0,0,7.61-11.44,11.15-4.08a3,3,0,0,1-.81,2.46s7.9-1.36,7.06,4.08c0,0,5.47,3.24-1.07,3.53,0,0,.26,4.34-5.7-.55,0,0,.26,4.89-7.91.81,0,0,4.63,2.2-8.71,9.82C159.42,132.63,157.77,133.18,156.7,138.07Z"/><path id="path38211" class="cls-5" d="M151.25,82.8h0l0,0v0l0,0v0l0,0,0-.06,0,0,0-.06,0-.07,0-.09,0-.07,0-.06,0-.1,0-.1-.1-.16-.07-.19-.06-.23-.1-.23,0-.19-.07-.23-.06-.26,0-.22v-.65l0-.13,0-.1v-.1l0-.09.07-.1,0-.1.07-.09,0-.1.06-.07.1-.09.07-.07.09-.06.1-.07.1-.06.13-.07.09,0,.13,0,.17,0,.12,0,.17,0,.19,0h.55l.23,0h.23s-2.47-6.8,1.62-5.7c0,0,2.17-8.46,5.18-1.1l.52,3.82a15.92,15.92,0,0,1,4.92,1.36,4.24,4.24,0,0,0-3.82,4.08s-2.43-1.1-3.53.29c0,0-.81-7.64.26-8.19H157s-1.62,7.09-1.07,8.71C155.89,81.44,152.87,80.34,151.25,82.8Z"/><path id="path38213" class="cls-5" d="M164.05,80.92h.1l.06,0,.07,0,.09,0,.07,0,.1,0,.09.06.1.07.13.06.1.06.09.1.1.1.13.13.1.1.1.13,0,.09,0,.07.07.06,0,.1,0,.06,0,.1,0,.1,0,.1,0,.09,0,.1,0,.1V83l0,.13v.1l0,.13V84l0,.16v.13l0,.16,0,.16,0,.17,0,.16,0,.16-.06.19S171.11,74.9,179,73.83l1.36.81s-18,7.61-11.7,25.85l1.62,3.82s3.53-5.18,1.62-6.54,5.74-8.68,0-9.23c0,0,10.37-2.17,5.74-8.2,0,0,7.61-3.24,6.8-8.42,0,0-3.27-2.72-5.44-1.07,0,0-3.53.52-4.89,2.43,0,0-3.28-2.43-6,4.08C168.13,77.36,164.86,78.17,164.05,80.92Z"/><path id="path38215" class="cls-5" d="M181.74,106.22v0l0,0,0,0-.06-.1-.07-.1-.09-.13-.1-.16-.1-.16-.13-.19-.13-.23-.13-.23-.16-.29-.16-.26-.16-.32-.16-.33-.17-.32-.19-.39-.2-.39-.19-.39-.16-.45-.2-.42-.19-.49-.19-.48-.2-.52-.19-.52-.2-.55-.19-.55-.16-.59-.2-.61-.16-.62-.16-.61-.16-.68s3-4.34.81-5.7c0,0,7.35-4.09,4.37-8.17,0,0,6.54-4.08,7.87.81,0,0,4.12-9.26,6.84-6,0,0,4.08-.26,1.88,5.18,0,0,3.27,4.08-3.79,7.62,0,0,7.32,3.82-6,10.88,0,0,3.82,4.08-4.63,12.8a43.07,43.07,0,0,1,11.18-32.95h-1.36S182.29,86.88,181.74,106.22Z"/><path id="path38217" class="cls-5" d="M204.06,129.61h0v-.09l0-.1v-1l0-.49v-4.44l0-.94,0-1,0-1-.07-1-.06-1.1-.07-1.11-.1-1.13-.09-1.17-.29-2.33-.13-1.16-.2-1.17-.19-1.17L202.6,108l-.23-1.17-.26-1.1-.29-1.1-.32-1-.36-1-.35-1h1.1s8.81,13.8,3.53,36.48c0,0,11.18-18.24,4.08-16.59,0,0,8.72-15.81-1.07-9.81,0,0,3.53-12.8-1.91-8.43,0,0-4.92-12-7.35-7.09,0,0-1.66,1.62,0,5.44,0,0-2.72-.55-1.36,4.08,0,0-7.91-1.1-2.17,7.65a18.3,18.3,0,0,0,2.72,3.53S191.26,119.57,204.06,129.61Z"/><path id="path38219" class="cls-5" d="M201.34,82.25h0v0h0v-.07l0,0v0l0-.06,0,0,0-.13,0-.13.07-.16.06-.16.07-.16,0-.2.06-.22.07-.2,0-.22.07-.26,0-.23,0-.26,0-.26,0-.26v-.55l0-.26v-.26l-.06-.29,0-.26-.1-.29-.07-.26-.06-.13-.07-.13-.06-.13-.07-.13-.06-.13-.07-.13-.09-.09-.07-.13-.09-.13-.1-.1s0-3,1.88-3c0,0,3.82-6.81,6.8,4.63,0,0,3.56,3.56.84,5.44A12.4,12.4,0,0,1,208.69,94s3.79,1.36.81,5.15c0,0-3-3-4.08-3.79,0,0,4.08-14.42.81-21.51h-1.07a44.92,44.92,0,0,1-1.65,20.41s-2.17-3.53-4.89-.55c0,0,2.72-3,0-4.89C198.62,88.8,204.06,84.45,201.34,82.25Z"/><path id="path38221" class="cls-5" d="M214.13,93.43h0v-.07l0,0V93.2l0-.06,0-.1v-.1l0-.09,0-.13,0-.13,0-.13,0-.13,0-.17,0-.16-.07-.32-.06-.36-.1-.35-.06-.39-.07-.42-.09-.42-.07-.43-.06-.42-.07-.42-.06-.42-.07-.42-.06-.42,0-.39,0-.39,0-.36v-.93l0-.13v-.13l0-.13,0-.1,0-.1,0-.1,0-.06,0-.06.06-.07,0,0,.07,0,.06,0s3.53-7.61,8.43-1.36c0,0,.81-3.27,3-3s4.34-.81,5.44,1.1,1.07,6-2.17,6.77c0,0,4.18,3.54-5.18,6,0,0,8.16,4.92-8.17,12.28a11.31,11.31,0,0,1-2.46-4.38S223.4,84.71,227.74,82.8L226.38,82S220.68,85.26,214.13,93.43Z"/><path id="path38223" class="cls-5" d="M236.45,98.61v0h0v0l0,0v-.06l0-.07,0-.06,0-.1,0-.06,0-.1,0-.1,0-.13-.06-.09,0-.13-.07-.13-.06-.13-.07-.13-.06-.13-.13-.29-.16-.29-.16-.3-.17-.25-.19-.3-.1-.13-.1-.13-.09-.13-.13-.12-.1-.1-.1-.13-.13-.1-.13-.1-.09-.06-.13-.1-.13-.06-.13-.07-.13-.06-.13,0-.13,0h-.16l-.13,0-.13,0h-.16l-.17,0-.13.06-.16.07-.16.06-.13.1-.16.13-.16.13-.16.13-.17.16-.16.19-.1.1-.09.1-.07.09-.1.13-.06.13-.1.13-.09.13-.07.13-.1.13-.09.16-.07.13-.1.16-.09.17-.1.16s-1.33,1.39,0,4.63c0,0-7.87-3.24-6,6.55,0,0,5.44,4.08,6.25,4.92,0,0,2.17-9.82,1.91-13.38h1.07s1.1,12.54-3,23.16c0,0,10.34-9.52,5.15-13.34,0,0,7.36-8.17.84-8.17Z"/><path id="path38225" class="cls-5" d="M238.92,96.15h0v0h0v-.07l0,0v0l0-.07v0l0-.06v-.07l0-.06,0-.07,0-.1,0-.16.07-.16.09-.19.07-.2.1-.19.06-.23.1-.23.13-.22.1-.23.13-.19.12-.23.13-.23.13-.19.13-.23.17-.16.16-.2.16-.16.06-.06.1-.1.07-.06.09-.07.1-.06.07,0,.09-.06.1,0,.1,0,.09,0,.1,0,.1,0h.39c2.17.26,2.72,3,1.62,7.09l-.81,2.72h1.91l-4.08,3.79s.81-4.63-.81-5.18l1.88-3.24-.81-.81-2.43,2.72Z"/><path id="path38227" class="cls-5" d="M235.64,125.56v0h0l0,0v-.1l0-.06,0-.1v-.06l0-.1,0-.13,0-.1,0-.13,0-.13,0-.13,0-.16,0-.16,0-.16,0-.16-.06-.33-.07-.36-.06-.35,0-.39-.07-.39,0-.36v-1.26l0-.16,0-.16v-.16l0-.17.06-.13,0-.16.07-.13,0-.09.07-.13.06-.1.1-.1.06-.1.1-.06.1-.07.13-.06.09,0,.13,0,.13,0h.16l.17,0h.16l.16,0,.16.06.2.07.22.09.2.1.13.07.09.06s-1.1-16.62,5.45-9.82c0,0,1.36-10.59,6.54-6.51,0,0,8.46-4.08,5.44,4.9,0,0,4.9,7.61-4.34,8.16,0,0,5.44,6.25-4.92,8.71,0,0,3.53,4.64-4.34,8.17,0,0-2.21-5.45-1.36-7.07s6.67-17.88,13.6-21l-1.1-1.07a51.3,51.3,0,0,0-15.22,24.24Z"/><path id="path38229" class="cls-5" d="M254.43,121.74h0l0,0h0v0l0,0v0l0,0v0l0,0,0,0v-.06l0,0,0-.07-.07-.13,0-.1-.07-.16-.06-.13,0-.16-.07-.16-.06-.16,0-.17,0-.19,0-.16,0-.2,0-.19v-.55l0-.07v-.09l0-.1,0-.1v-.06l0-.1,0-.06,0-.1.07-.07,0-.09L254,118l.07-.06,0-.07.06-.1.1-.06.07-.06.09-.07.07,0,.1-.07.09-.06c2.17-1.07,6.81.29,7.62-.52,0,0,7.35-3.53,1.91,5.15a6.35,6.35,0,0,0-2.17,4.63s-4.09.55-10.08,1.92c0,0,6.29-9,10.08-9.27l-1.07-.81S254.69,120.09,254.43,121.74Z"/><path id="path38231" class="cls-5" d="M219.58,110.57h0l0,0v0l0,.07v.06l0,.06,0,.1,0,.1.06.1,0,.13.09.29.13.32.1.39.13.39.13.45.13.49.16.52.13.51.13.59.13.58.1.62.13.61.09.65.07.65.09.68,0,.68,0,.68v1.36l0,.68-.1.68-.1.68-.13.65-.16.65-.19.64-.26.62-.29.58s8.45-4.89,4.92-8.13c0,0,4.34-5.18-7.09-11.17,0,0-3-1.11-3.28,1.61,0,0-1.07,3.83,1.36,3.83,0,0-5.7,6,0,9.23,0,0-3.53,2.75,1.11,5.18,0,0,4.08-3.53,1.1-17.13Z"/><path id="path38233" class="cls-5" d="M147.69,205.58h0l0,0v0l0,0,0,0v.07l0,.06.07.1,0,.09,0,.1.06.1,0,.1.06.13.07.13.06.13,0,.12.07.17.06.13.13.32.13.36.16.32.13.39.13.36.1.35.13.39.1.39.09.36.07.35.06.36,0,.19v.16l0,.17v.45l0,.16v.13l0,.13,0,.13,0,.13-.07.1,0,.13-.06.09-.1.07-.06.1-.1.06-.1.07-.1,0-.13,0-.13,0-.12,0h-.33s9.27,10.59,1.1,10.33c0,0,.55,12.54-6,8.16,0,0,1.36,5.74-4.34,5.74,0,0,4.89-5.44,3-11.44,0,0,5.7-4.92,3.27-13.9C145.26,212.38,148,211.32,147.69,205.58Z"/><path id="path38235" class="cls-5" d="M143.09,204.77h0v0l0,0v0l0,0v0l0,.07,0,.06,0,.07,0,.06,0,.07,0,.09,0,.07.07.19.06.2.07.22.06.23.07.23.06.26.07.26,0,.29,0,.26,0,.29v.29l0,.29,0,.29v.13l0,.13,0,.16,0,.13-.06.13,0,.17-.06.13-.07.13-.06.12-.1.13-.06.13-.1.13-.1.13-.09.13-.13.1-.13.13-.13.1-.13.09-.16.1-.17.1-.16.1-.19.09-.16.1-.23.06s5.73,10.34-2.17,13.61c0,0,1.65,9.27-1.91,10.63,0,0,.26,6-4.34,6,0,0-4.38-10.63-.56-13.9,0,0,7.62-.55,4.35-13.86,0,0,.29-8.46,4.37-12.54Z"/><path id="path38239" class="cls-4" d="M15.91,191.46h0v0h0v0l0,0h0v.07h0v.16l0,.1v.22l0,.1v.29l0,.2v.1l0,.09v.23l0,.1v.19h0v.07h0v0h0v0h0l-1.17,0-.45-9.94c-.36-8.46,6.58-12,12.44-12.22S39.59,174,40,182.48l.42,10-1.17,0-.42-2ZM38.65,186v0l0-.07v-.13l0,0v-.13l0-.06v-.17l0-.06V185l0-.06v-.56l0-.09v-.65l0-.19v-.26c-.19-4.25-2.62-7.33-12.08-6.9S15.1,180,15.29,184.23a8.65,8.65,0,0,0,.39,2.72Z"/><path id="path38241" class="cls-4" d="M42.18,151.9l-.07.07,0,.06,0,.07,0,.06-.07.07,0,.09,0,.07,0,.1,0,.09,0,.07,0,.09,0,.1,0,.1,0,.1,0,.13,0,.09-.07.23-.06.23,0,.22-.06.26,0,.26,0,.26-.06.26,0,.26-1.62,14.19-1.2-.16-.07-2-22.8-2.66-.52,2-1.17-.16,1.62-13.9a8.16,8.16,0,0,0-.16-3.47l7.68-.84.13,1.39c-4.47,1.46-6.48,3.18-7.13,8.59a5.68,5.68,0,0,0,.1,1.91l9.85,1.13.16-1.46c.29-2.56-.78-3.59-3.63-4.53l.13-1.17L32,155.14l-.17,1.2c-3,.23-4.3,1-4.6,3.56l-.16,1.46,11.79,1.36a4.94,4.94,0,0,0,.49-1.81c.62-5.35-1.49-7.94-5.73-10.5l.45-1.33Z"/><path id="path38245" class="cls-4" d="M19.15,139.88h0v0h0v0h0V140h0l0,0v0l0,0v.06l0,.07,0,.06,0,.1-.06.07,0,.09,0,.1-.06.16-.1.16,0,.1,0,.1,0,.06,0,.1,0,.07,0,.06v0l0,0v0l0,0v0h0l0,0v0h0v0h0v0h0l-1.14-.32,2.56-9.27c1.36-4.92,4.37-9.36,9.07-8.06,5.87,1.62,5.57,7.64,4.05,13.08l-.45,1.69,10.07,2.79.81-1.92,1.14.33-2.27,8.29L41,148.05l.26-2ZM31,138.46l0,0,0,0v0l0,0,0-.07,0,0,0-.06v0l.06-.09.07-.13,0-.1.06-.1.07-.13,0-.09.07-.13,0-.13,0-.1.07-.13,0-.13,0-.1c1-3.53,0-6.77-4-7.87-3.33-.94-6,.29-7,4.12a9.81,9.81,0,0,0-.33,2.52Z"/><path id="path38249" class="cls-4" d="M46,133.11h0v0h-.07v0h-.06l0,0h-.06l0,0,0,0h-.07l0,0-.13,0-.1-.07h0l-.07,0,0,0h-.06l0,0h0l0,0H45v0H44.9v0h0a4.55,4.55,0,0,0-1.81-4.6L28,114.81l-2.37,0,1.72-4.7,25.79,2.3,1.23-1.68,1.07.45-3.5,8.13-1.07-.49.39-2-6.9-.61-3.5,8.06,2.79,2.43a5,5,0,0,0,1.39.88c1.2.52,1.94-.62,2.75-1.59l1.1.45Zm-3.24-17.2H42.6l-.1,0h-.19l-.13,0h-.26l-.16,0h-.2l-.16,0-.23,0H41l-.23,0-.45,0-.49-.06-.51,0-.56-.07-.55,0-.58-.07-1.2-.12-1.16-.1-.59-.07-.55,0-.55-.06L33,115l-.48-.06-.46,0-.22,0-.23,0h-.19l-.17,0H31.1l-.16,0h-.13l-.16,0h-.33l-.06,0h-.13l0,.07,9.55,8.32Z"/><path id="path38253" class="cls-4" d="M36.09,96.25h0v0h0v0h0l0,0v0h0v0l0,0h0l0,0,0,0,0,.06-.07.07-.06.06-.07.07,0,.06-.06.06-.13.13-.13.17-.07.06-.06.07-.07.06,0,.07-.06.06-.07.06v0l0,0h0v0l0,0h0l0,0h0l0,0h0v0h0l-1-.61,5.12-7.94c2.63-4.11,6.42-8.16,11.37-5,2.72,1.75,3,5.51,1.82,8.16l13,1.14L66.44,92l1,.65-3.4,5.28L49.69,96.6,48.3,98.74l9.53,6.12,1.36-1.55,1,.65-4.63,7.22-1-.65.85-1.88ZM47.3,98.09h0v0h0l0,0h0v0l0,0h0l0,0v0h0l0-.07,0-.06,0,0,0-.07,0-.06,0-.07.1-.13.1-.13,0-.06,0-.07,0-.06L48,97,48,97l0,0v0l0,0h0v0l0,0h0v0h0v0h0l0,0h0c2.63-4.08,2-6.61-.94-8.52-3.3-2.11-6-.55-7.67,2.07-.39.59-.78,1.4-1.17,2.14Z"/><path id="path38255" class="cls-4" d="M58.12,64.3l.19-.19.16-.23.17-.19.16-.2L59,63.3l.13-.23.13-.19.13-.19.06-.07.07-.1.06-.09,0-.1.06-.1,0-.06,0-.1.07-.1,0-.06,0-.1,0-.06,0-.1,0-.07v-.09l0-.07,0-.06,6.93,4-.55,1.07c-3.53-1.17-6.93-1.81-9.69,1.33L74.12,83.13l1.56-1.33.87.78L70.88,89,70,88.25l1.14-1.72L53.68,71.11c-2.75,3.14-1.72,6.44-.1,9.81l-1,.68-4.8-6.41A7.81,7.81,0,0,0,50.47,73Z"/><path id="path38257" class="cls-4" d="M80.24,77.94h0v0h0v0h0l0,0h0l0,0h0l0,0,0-.06,0,0,0,0,0,0,0-.07-.06-.06-.07-.1,0,0,0-.06,0,0,0,0,0,0,0,0v0h0v0h0v0h0l0,0h0l0,0h0c1-1.52,1.62-2.49,0-4.63L67.8,56.63l-1.78,1-.74-.9,5.24-4.21,13.16,7.77L79.11,45.74l5.22-4.18.74.94L83.64,44l14.94,17.5,1.75-1,.74.91L94.3,66.77l-.74-.94L95,64.34,81.7,48.59l-.06,0L87,66.22l-.74.61-15.68-9.3-.07.07L81.05,71.5c1.33,1.81,2.79,1.91,4.44.77l.71.91Z"/><path id="path38259" class="cls-4" d="M118.57,52.74h-.23l-.06,0h-.17l-.09,0h-.1l-.1,0-.1,0h-.09l-.1,0-.1,0-.09,0-.1,0-.1,0-.13.07-.1,0-.22.1-.23.06-.23.13-.22.1-.23.09-.26.13-.22.13-12.57,6.74-.55-1,1.65-1.24L93,38.13,91,38.81l-.55-1,12.31-6.61A8.15,8.15,0,0,0,105.58,29l5,5.83-1.07.9c-3.76-2.81-6.28-3.49-11.11-.93A5.22,5.22,0,0,0,97,36l4.66,8.75,1.3-.71c2.27-1.2,2.53-2.69,1.65-5.58l1-.58,4.47,8.36-1,.58c-1.91-2.33-3.27-3-5.54-1.75l-1.29.71,5.57,10.44a5.54,5.54,0,0,0,1.81-.62c4.73-2.56,5.64-5.77,5.32-10.72l1.36-.39Z"/><path id="path38261" class="cls-4" d="M136.35,37.71h.07l-4.64-13.8c-.68-2-1.74-2-3.59-1.69l-.36-1.13,6.93-2.33.39,1.13a3,3,0,0,0-1.68,3.92l7.06,21-1.65.55-20-15.61h-.06L124,45.16c.65,1.91,2.3,2.36,4,2l.39,1.13-7.51,2.53-.36-1.14a3.37,3.37,0,0,0,1.85-4.37l-5.25-15.52A3.42,3.42,0,0,0,113,27.34l-.39-1.1,6.44-2.2Z"/><path id="path38263" class="cls-4" d="M154.59,15.26l.26,0,.26-.07.26,0,.26-.07.26-.06.22-.07.23-.06.23-.07.09,0,.1,0,.1,0,.1-.07.09,0,.1,0,.1,0,.09,0,.07-.06.1,0,.06,0,.07-.06.06,0,.07,0,.06-.06.07,0,2.88,7.48-1.14.49c-2-3.18-4.21-5.8-8.32-5.12l3.76,22.93,2.07,0,.19,1.17-8.48,1.39-.2-1.17,2-.61-3.79-22.94c-4.12.68-5.41,3.89-6.29,7.52l-1.2-.1.33-8a7.85,7.85,0,0,0,3.5,0Z"/><path id="path38267" class="cls-4" d="M172.8,26.63l.06-.58.07-.59.09-.58.13-.58.17-.59.16-.58.19-.58.23-.59.23-.55.25-.58.3-.55.32-.52.32-.55.33-.49.35-.51.39-.46.42-.45.39-.45.46-.43.45-.38.45-.36.49-.36.49-.29.48-.29.52-.23.55-.22.52-.2.55-.13.58-.13.55-.06.59,0h.61c6.9.38,10.53,6.9,10.14,14.12C194.28,34,189.29,41.08,183,40.72,176,40.36,172.41,33.82,172.8,26.63Zm16.94.94,0-.81,0-.81v-2.2l-.06-.65,0-.65-.07-.62-.09-.55-.07-.55-.13-.52-.1-.48-.13-.45-.16-.43-.16-.42-.16-.35-.2-.36-.19-.32-.19-.3-.23-.25-.23-.26-.22-.23-.26-.19-.26-.2-.26-.16-.29-.13-.3-.13-.32-.1-.29-.09-.32-.07-.36,0-.33,0c-3.17-.17-6.22,3.2-6.7,11.66C177.2,36,179.34,39,183,39.26,186.21,39.43,189.29,36.06,189.74,27.57Z"/><path id="path38269" class="cls-4" d="M194.83,41.08h0v0h0v0h0v0h0l0,0v0h0v-.07l0,0v-.1l0-.06v-.07l0-.1V40.4l0-.07v-.09l0-.07v-.1l0,0h0v0h0v0h0v0h0v0h0l2,.13,4.73-22.45-2-.71.23-1.17,13.15,2.76a8,8,0,0,0,3.5.16l.36,8.19-1.43,0c-1.39-4.47-2.59-7.2-7.55-8.26a7.13,7.13,0,0,0-1.91-.1l-2.1,10.07,2.13.46c2.37.51,3.5-1,4.28-3.08l1.13.26-1.91,9.17-1.16-.26c.19-2.56-.2-4.41-2.6-4.93l-2.13-.45L201.53,41l1.95.71-.26,1.17Z"/><path id="path38271" class="cls-4" d="M237,55.14l0-.07-.06-.06-.07-.07,0,0-.07-.06-.06-.07-.07-.06-.06-.07-.1-.06-.06,0-.07-.06-.1-.07-.06-.06-.1-.07-.09-.06-.1-.06-.1,0-.1-.06-.19-.13-.23-.13-.22-.13-.23-.1-.23-.13-.26-.09-.22-.13L221,47.49l.49-1.1,2,.55,9.27-21L231,24.85l.49-1.1,12.79,5.66a8.42,8.42,0,0,0,3.37.88l-1.46,7.58-1.39-.29c-.07-4.7-1.1-7.13-6.09-9.33a5,5,0,0,0-1.85-.49l-4,9.07,1.36.62c2.33,1,3.66.32,5.41-2.17l1.07.48-3.82,8.69L235.77,44c.65-3,.3-4.41-2-5.44l-1.36-.58-4.79,10.82a5.54,5.54,0,0,0,1.62,1c4.92,2.17,8,.91,11.69-2.4l1.17.85Z"/><path id="path38275" class="cls-4" d="M255,36.48h0v0h0l0,0h0l0,0h0l0,0h0v0l0,0h0l-.07-.06-.06-.07-.07,0-.06-.06-.07-.07-.06-.06-.13-.13-.16-.13L254,35.6l-.06-.06-.07-.07-.06,0-.07-.06-.06-.07h0l0,0,0,0h0v0h0l0,0h0l0,0h0l0,0h0l.65-1,8.36,5.44c7.09,4.64,5.89,12.28,2.69,17.24s-9.72,9.1-16.85,4.5L240,55.85l.65-1,1.88.87Zm-8.75,21.7,0,0,0,.07,0,0,.06,0,0,.07,0,0,.06.07,0,0,.07.06,0,0,.07.06.06,0,.07.07.06,0,.06.06.07.07.06.06.07,0,.06.06.07.07.1.06.06,0,.1.07.06.06.1.07.1.06.16.13.19.13.2.13c3.56,2.3,7.48,2.14,12.66-5.83s3.76-11.6.2-13.9a8.78,8.78,0,0,0-2.5-1.26Z"/><path id="path38277" class="cls-4" d="M282.52,54.75h0v0h0v0h0l0,0h0l0,0,0,0,0,0,0,0,0,0,0,0,0,.06-.07.07-.1.1,0,0,0,0,0,0,0,0,0,0,0,0v0h0v0h0v0h0v0h0v0h0L280,54.46,268.27,67.29a6,6,0,0,0,.29,8.35c2.56,2.34,6.06,2.59,8.71-.32L287,64.73c1.36-1.49,1-3.15-.19-4.47l.81-.88,5.83,5.38-.81.87c-1.4-1-3.08-1.29-4.44.2l-9.07,9.88c-3.05,3.33-7.26,5.18-12.38.48-4.11-3.75-5.67-7.74-1.81-12l11.76-12.83-1.3-1.59.78-.87Z"/><path id="path38279" class="cls-4" d="M293.08,94.43l-.39.13-.42.13-.42.13-.39.1L291,95l-.42.06-.42.07-.39,0-.42,0-.42,0h-.39l-.42,0-.39,0-.39,0-.42-.07-.39-.06-.39-.07-.36-.13-.38-.1-.36-.13-.39-.16-.36-.16-.35-.16-.33-.2-.32-.22-.36-.2-.29-.26-.32-.26-.29-.25-.29-.3-.3-.32-.26-.32c-4.14-5.19-2-11.8,3.5-16.2,5-4,13.32-6.06,17.66-.62a10.73,10.73,0,0,1,1.39,2.37,9.86,9.86,0,0,0,1,1.91,9,9,0,0,0,2.3,1.62l-5.15,6.41-1.14-.87c1.46-3.31,2.85-7.45.68-10.21-2.85-3.53-8.13-1.71-11.56,1-4.51,3.63-8.69,9.72-5.15,14.16,1.84,2.33,5.18,2.75,7.9,1.84Z"/><path id="path38283" class="cls-4" d="M286.93,97.64h0v0H287v0h.07v0h0l0,0,.07,0h0l0,0,.06,0,0,0,.09-.06.1,0,.07,0,0,0,0,0,.07,0h0l0,0h0v0h.07v0H288v0h0a4.43,4.43,0,0,0,4.76,1.33l19.67-4.14,1.42-1.88,2.69,4.21-17.26,19.24.61,2-1,.58-4.41-7.67,1-.59,1.39,1.52,4.66-5.11-4.37-7.65-3.6.78a5.6,5.6,0,0,0-1.55.58c-1.13.65-.65,1.91-.36,3.18l-1,.58Zm15.71,7.71h0l0,0v0l.07,0,0-.06.06-.07.1-.06.06-.1.1-.1.1-.13.1-.13.13-.12.13-.13.12-.13.13-.17.17-.16.32-.35.32-.36.36-.39.36-.39.39-.42.38-.45.78-.85.81-.87.39-.45.39-.42.36-.39.35-.39.33-.36.32-.35.13-.17.16-.16.13-.13.13-.13.1-.13.13-.13.09-.13.1-.09.07-.1.09-.07.07-.06,0-.07,0,0,0,0,0,0h0l0-.07-12.38,2.66Z"/><path id="path38285" class="cls-4" d="M328.2,123.1l.1.26.09.26.1.23.1.26.13.22.09.23.1.19.07.1.06.1.06.1,0,.09.06.1.07.1.06.06,0,.1.07.06.06.07.07.1,0,.06.07.07.06.06.07.07,0,0,.06.06.07,0-6.77,4.34-.68-1c2.69-2.59,4.82-5.28,3.3-9.2l-21.67,8.33.42,2-1.1.42-3.08-8,1.1-.42,1,1.82,21.7-8.33c-1.52-3.92-4.92-4.53-8.65-4.63l-.13-1.23,7.91-1.27a8.32,8.32,0,0,0,.71,3.4Z"/><path id="path38287" class="cls-4" d="M305.68,138h0v0h.13l0,0h.09l0,0H306l0,0h.07l.09,0,.13,0h.1l0,0h.07l0,0h.13v0h.1l.77,1.88,22.26-5.6-.19-2,1.13-.3L332.9,140l-1.14.29-.81-1.91L308.73,144l.19,2.07-1.13.29Z"/><path id="path38291" class="cls-4" d="M321.36,146.39l.59-.06.58,0h1.2l.61.06.62.07.58.06.62.13.61.13.59.16.58.2.58.19.58.23.56.26.55.26.55.29.52.32.51.33.49.35.45.36.46.39.39.42.42.42.35.45.33.46.32.48.26.52.26.52.19.52.17.55.16.58.06.59c.88,6.86-4.89,11.59-12.08,12.47-6.12.77-14-2.92-14.74-9.2C308.44,152,314.2,147.27,321.36,146.39Zm2.08,16.85.84-.13.78-.1.74-.13.75-.16.68-.13.64-.16.62-.16.58-.16.55-.17.52-.19.49-.19.45-.2.42-.23.39-.22.39-.23.32-.23.33-.22.26-.26.26-.26.22-.26.23-.26.16-.29.16-.29.13-.29.13-.3.07-.29.06-.32.07-.32v-.33l0-.32,0-.33,0-.35c-.38-3.15-4.27-5.54-12.66-4.51-9,1.11-11.66,3.76-11.21,7.46C311.16,161.85,315,164.24,323.44,163.24Z"/><path id="path38293" class="cls-4" d="M317.83,189.09h0v0h0v0h0l14.55.68c2.07.06,2.52-.91,2.85-2.76l1.2.07-.33,7.32-1.2-.07a3,3,0,0,0-3-3l-22.1-1,.1-1.75,21.77-13v-.09l-16.26-.72c-2-.09-3.05,1.3-3.3,3l-1.17-.07.32-7.9,1.2.06a3.43,3.43,0,0,0,3.44,3.31l16.32.71a3.38,3.38,0,0,0,3.76-3l1.2.06-.29,6.77Z"/><path id="path38295" class="cls-4" d="M55.27,246.76h0v0H55.2v0h0l0,0h0v0h0l0,0h0l-.07.06-.06,0h0l0,0h0l0,0,0,0h0l0,0h0v0h0l-.91-1.07-10,6.15a4,4,0,0,0-1.36,5.45,3.93,3.93,0,0,0,5.7,1.45l8.29-5.08a2.09,2.09,0,0,0,.72-2.92l.68-.42,2.81,4.57-.68.42a2.1,2.1,0,0,0-2.94-.71l-7.75,4.73c-2.62,1.58-5.67,2-8.13-2-1.94-3.21-2.23-6.09,1.07-8.1l10-6.12-.55-1.3.71-.42Z"/><path id="path38297" class="cls-4" d="M58.31,272.74h0l0,0h0l7.75-6.06c1.13-.84.9-1.55.29-2.65l.61-.49,3.08,3.92-.65.48a2,2,0,0,0-2.88-.19L54.75,277,54,276l5.47-16.23,0,0-8.68,6.77a2.11,2.11,0,0,0-.36,3l-.62.49-3.3-4.22.65-.51a2.23,2.23,0,0,0,3.17.22l8.72-6.83a2.28,2.28,0,0,0,.64-3.18l.62-.48,2.85,3.62Z"/><path id="path38299" class="cls-4" d="M58,280h0v0h0v0h0v0h0v0h0l0,0,0,0,0,0,0,0,.06-.06,0,0h0v0l0,0h0l0,0h0v0h0v0h0v0h0l1.1.88L71,269.76l-.78-1.14.59-.55,4,4.28-.58.52L73.08,272,61.71,282.52l.78,1.17-.58.55Z"/><path id="path38301" class="cls-4" d="M83.32,280.54l.13.13.13.1.16.13.13.1.13.13.13.09.13.1.13.07.06.06.07,0,.06,0,0,0,.06,0,.07,0,.06,0,.07,0,0,0,.06,0,.07,0h0l.07,0h0l.06,0h0l-2.78,4.63-.71-.39c.84-2.36,1.32-4.66-.75-6.57L70.36,291l.85,1.07-.52.58-4.28-3.92.55-.61,1.14.81,10.69-11.54c-2.08-1.91-4.31-1.26-6.61-.22l-.46-.72,4.41-3.11a6.12,6.12,0,0,0,1.46,1.85Z"/><path id="path38303" class="cls-4" d="M84.81,304.48l0-.06v0l0,0,0-.06,0,0,0-.07,0,0,0-.06,0,0,0-.06-.07-.07,0,0-.06-.06,0-.07-.07,0,0-.07-.07-.06-.06,0-.1-.13-.13-.1-.13-.13-.13-.1-.13-.13-.16-.09-.13-.13L75.51,297l.46-.62,1.23.65,9.33-12.37-1-1L86,283l7.55,5.7a6.08,6.08,0,0,0,2.07,1.1l-2.13,4.73-.85-.39c.68-3.11.36-4.86-2.56-7.06a3.78,3.78,0,0,0-1.13-.62l-4,5.35.81.58c1.36,1.07,2.33.81,3.86-.55l.64.49-3.85,5.11-.65-.48c.91-1.85.88-2.88-.49-3.92l-.81-.58-4.82,6.38a3,3,0,0,0,.9.9c2.89,2.21,5.12,1.85,8.07.26l.62.72Z"/><path id="path38307" class="cls-4" d="M98,293.05h0v0h0v0h0l0,0h0l0,0h0l-.06,0,0,0,0,0-.06-.06,0,0-.06,0-.1-.06-.09-.1,0,0-.06,0,0-.07-.07,0,0,0,0,0h0v0h0v0h0l0,0h0l0,0h0l.39-.68,5.77,3.47c4.92,3,4.31,8.13,2.27,11.57S99,312.91,94,310l-5.76-3.47.42-.68,1.26.55Zm-5.37,14.87,0,0,0,0v0l0,0h0l0,0,0,0,0,0,0,0,0,0,.06,0,0,0,0,.07.06,0,0,0,0,0,.06,0,0,0,.07,0,.06,0,0,0,.06.06.1.07.13.06.13.1L94,309l.13.1c2.46,1.46,5.11,1.27,8.39-4.24s2.26-7.94-.2-9.4a7.65,7.65,0,0,0-1.68-.81Z"/><path id="path38309" class="cls-4" d="M124.07,310.64h-.16l0,0h-.19l-.07,0h-.13l0,0h-.2v0h-.09c-.1-2.07-.42-5-2.69-5.93-1.65-.71-3.11-.19-3.69,1.23-1.92,4.54,7.61,6,4.92,12.38a5.19,5.19,0,0,1-7.06,2.65c-1.72-.71-2.69-2-3.47-2.33a5.66,5.66,0,0,0-1.62-.23l1.17-5.28.94.26c.09,2.69.94,5.64,3.53,6.74a3.15,3.15,0,0,0,4.08-1.59c1.81-4.34-7.45-6-4.73-12.44a4.66,4.66,0,0,1,6.22-2.36,5,5,0,0,1,1.49.91,4.38,4.38,0,0,0,1.17.77,3.24,3.24,0,0,0,1.81.2Z"/><path id="path38311" class="cls-4" d="M137.58,310l.2,0,.16.07.19,0,.17,0,.16.07.16,0,.16,0h.16l.07,0h.19l.1,0h.49l0,0h.1l-.52,5.37-.81,0c-.26-2.53-.81-4.79-3.5-5.6l-4.67,15,1.27.62-.26.78-5.54-1.72.26-.78,1.36.23,4.66-15c-2.69-.81-4.43.74-6,2.65l-.72-.42,2.63-4.73a5.56,5.56,0,0,0,2.1,1Z"/><path id="path38315" class="cls-4" d="M135,327.58h0v0h0v0h0v0h0v-.1l0,0v-.07l0-.1v-.13l0,0v-.1h0v0h0v0h0v0h0v0h0A3,3,0,0,0,138,325l6.71-11.76-.29-1.59,3.34.52,2,17.4,1.26.55-.16.78-5.83-1.2.16-.78,1.4,0-.52-4.67-5.8-1.2L139,325.19a2.52,2.52,0,0,0-.39,1c-.19.84.65,1.2,1.43,1.59l-.17.81ZM146,323.14h0v-.09l0-.07v-.19l0-.1v-.23l0-.09v-.26l0-.16v-.13l0-.33-.06-.32,0-.36,0-.35,0-.39,0-.39-.1-.81-.1-.78,0-.39,0-.39,0-.35,0-.36,0-.36,0-.29,0-.16v-.13l0-.13v-.13l0-.13v-.19l0-.1v-.26l0-.06v0h0L140.82,322Z"/><path id="path38317" class="cls-4" d="M163.6,314.66h.16l.19,0h.2l.16,0H165l.1,0h.26l.06,0h.13l.07,0h.06l0,0h.07l0,0h.07l0,0,.52,5.41-.81.09c-.71-2.39-1.69-4.53-4.51-4.86l-1.74,15.62,1.36.36-.1.81-5.77-.65.1-.81,1.39,0,1.75-15.62c-2.82-.32-4.24,1.56-5.47,3.76l-.78-.29,1.68-5.15a5.62,5.62,0,0,0,2.27.61Z"/><path id="path38319" class="cls-4" d="M179.44,333l0,0h-.07l0,0-.07,0h0l-.06,0h-.07l-.06,0h0l-.06,0h-.07l-.06,0h-.1l-.06,0h-.07l-.06,0h-.16l-.17,0H178l-.16,0h-.19l-.17,0h-.35l-9.66-.06v-.81l1.4-.2.09-15.48-1.36-.23V315l9.46.07a5.49,5.49,0,0,0,2.34-.33l1.1,5.09-.91.16c-1.3-2.88-2.59-4.11-6.28-4.14a3.5,3.5,0,0,0-1.27.22l-.06,6.68,1,0c1.72,0,2.37-.81,2.76-2.79h.81l0,6.42-.81,0c-.39-2-1-2.78-2.72-2.81h-1l-.07,8a4.32,4.32,0,0,0,1.3.22c3.59,0,5.18-1.62,6.57-4.63l.94.2Z"/><path id="path38321" class="cls-4" d="M193.3,318.9h-.09v0h-.07l0,0h0l0,0H193l-.07,0-.09,0,0,0h-.06l0,0h0l0,0h-.1v0h0c-1.07-1.78-2.72-4.21-5.15-4-1.81.16-2.82,1.26-2.72,2.82.45,4.92,9.56,1.75,10.17,8.61a5.25,5.25,0,0,1-5,5.67c-1.85.16-3.27-.52-4.15-.45a5.89,5.89,0,0,0-1.55.58l-1.39-5.21.9-.23c1.33,2.33,3.47,4.57,6.25,4.31a3.11,3.11,0,0,0,2.89-3.31c-.39-4.69-9.36-1.84-10-8.81a4.69,4.69,0,0,1,4.37-5,6.11,6.11,0,0,1,1.79.1,4.11,4.11,0,0,0,1.39.16,3.24,3.24,0,0,0,1.65-.68Z"/><path id="path38325" class="cls-4" d="M202,321.62l-.06-.35-.07-.43-.06-.38,0-.39v-.85l0-.38,0-.43,0-.42.07-.42.1-.39.09-.42.1-.39.13-.42.13-.39.16-.35.16-.39.2-.36.19-.35.23-.33.23-.32.25-.33.26-.29.26-.29.29-.26.33-.22.29-.23.36-.2.32-.19.36-.16.39-.13.38-.1c4.54-1.07,8.14,2.46,9.24,7.22.94,4.09-.94,9.59-5.12,10.57C206.68,329.91,203.09,326.38,202,321.62ZM213.13,319l-.13-.55-.13-.52-.16-.48-.13-.49-.13-.45-.16-.43-.16-.38-.17-.39-.16-.36-.16-.32-.16-.33-.16-.29-.17-.26-.19-.26-.16-.22-.2-.23-.16-.2-.19-.16-.2-.16-.19-.13-.2-.13-.19-.1-.23-.06-.19-.06-.2-.07-.22,0-.2,0H208l-.23,0-.23,0-.22,0c-2.08.52-3.4,3.27-2.11,8.85,1.4,6,3.37,7.58,5.8,7C213.1,327.39,214.43,324.63,213.13,319Z"/><path id="path38327" class="cls-4" d="M220.94,326h0v0h0l0,0h0v0h0v0l0,0v-.06l0,0v-.07l0-.06,0-.07v0l0,0v-.07l0,0v0h0v0h0v0h0v0h0v0h0l1.23-.65-5.06-14.64-1.36.26-.25-.78,8.58-3a5.12,5.12,0,0,0,2.07-1.1l3.05,4.6-.84.52c-2.34-2.11-4-3.27-7.23-2.17a5.16,5.16,0,0,0-1.13.61L222,315.5l1.39-.49c1.59-.52,1.68-1.81,1.42-3.27l.75-.23,2.07,6-.74.25c-.78-1.55-1.69-2.49-3.24-1.94l-1.4.45,2.53,7.36,1.36-.26.26.74Z"/><path id="path38331" class="cls-4" d="M238.85,319.45h0v0h0v0h0v0h0v0h0v0l0,0v0l0,0v0l0-.07,0-.06,0,0v0l0,0v0l0,0v0h0l0,0h0v0h0v0h0a3,3,0,0,0,1.06-3.18l-2.1-13.41-1.23-1,3-1.69,12.37,12.34,1.36-.32.36.68L248,314.85l-.35-.71,1.1-.91-3.34-3.3-5.31,2.69.42,2.46a3.71,3.71,0,0,0,.33,1.07c.42.77,1.26.48,2.13.35l.36.72Zm5.77-10.33h0l0,0,0,0,0,0,0-.07-.07,0-.06-.06-.07-.07-.06-.06-.07-.1-.09-.06-.1-.1-.1-.1-.09-.1-.1-.09-.23-.23-.23-.23-.25-.26-.26-.25-.26-.3-.26-.26-.59-.58-.55-.55-.29-.29-.26-.26-.26-.26-.25-.26-.23-.26-.23-.19-.1-.13-.09-.1-.1-.1-.1-.06-.06-.1-.1-.06-.06-.1-.07-.06-.06-.07,0,0,0-.07-.06,0,0,0h0l0,0h0l0,0,1.36,8.45Z"/><path id="path38333" class="cls-4" d="M254.3,311.61h0v0h0v0h0l0,0v0h0v0l0,0,0,0v0l0-.06-.07-.07v0h0v0l0,0,0,0v0h0v0h0v0h0v0h0c.75-1,1.23-1.58.26-3.11l-7-11.3-1.27.61-.45-.68,3.82-2.52,8.39,6-2.23-10.08,3.76-2.49.45.65-1.07.94,9,12.63,1.26-.58.42.65-4.86,3.24-.45-.65,1-.94L257,292l0,0,2.59,12.15-.55.35-10-7.15,0,0,6.28,10a1.92,1.92,0,0,0,2.95.77l.42.68Z"/><path id="path38335" class="cls-4" d="M281.09,292.27h0l-.06,0h0l-.07,0h0l-.07,0-.06,0h-.07l0,0-.06,0-.07,0-.06,0-.07,0-.06,0-.07,0-.06,0-.07.06-.06,0-.13.09-.13.1-.13.1-.16.1-.13.09-.16.13-.13.13-7.36,6.22-.52-.61.91-1-10-11.86-1.17.75-.51-.62,7.22-6.09a6.1,6.1,0,0,0,1.52-1.81l4.15,3.14-.55.75c-2.88-1.33-4.67-1.43-7.48.94a4,4,0,0,0-.85,1l4.34,5.12.75-.65c1.33-1.1,1.3-2.11.29-3.92l.62-.49,4.14,4.86-.61.52c-1.59-1.26-2.59-1.46-3.92-.36l-.75.65,5.15,6.12a3.18,3.18,0,0,0,1.14-.68c2.75-2.33,2.91-4.6,2-7.8l.85-.46Z"/><path id="path38339" class="cls-4" d="M273.06,276.72h0l0,0h0v0h0v0h0l0,0,0,0,0,0-.06,0,0,0-.06,0,0,0-.1.09-.13.07,0,.06-.07,0,0,0-.06,0,0,0,0,0,0,0h0v0h0l0,0h0l0,0h0l-.58-.55,4.4-4.6c2.27-2.39,5.31-4.6,8.2-1.84,1.55,1.52,1.26,4,.16,5.67l8.52,2.43,1.07-.88.58.55-2.91,3.08L282,278.7l-1.19,1.23,5.54,5.31,1.1-.87.55.55-4,4.21-.58-.55.81-1.14Zm7.19,2.66h0v0h0l0,0h0l0,0h0v0l0,0,0,0,0,0,0,0,0,0,0,0,.06-.06.07-.1,0,0,0,0,0,0,0,0,0,0,0,0h0v0h0l0,0h0l0,0h0v0h0c2.27-2.37,2.2-4.12.45-5.77-1.88-1.84-3.88-1.16-5.34.39a14.89,14.89,0,0,0-1,1.26Z"/><path id="path38341" class="cls-4" d="M295.32,277h0v0h0v0h0l0,0,0,0h0v0l0,0h0l-.07-.06-.06,0,0,0v0h0l0,0h0v0h0v0h0v0h0v0l.68-1.2-12-9.78-1,.94-.62-.52,3.66-4.5.62.51-.71,1.2,12,9.79,1-.94.62.52Z"/><path id="path38343" class="cls-4" d="M304.42,256.64l.19.26.13.22.17.23.16.26.13.26.13.26.09.26.13.22.1.26.1.29.06.26.07.26.06.26.07.26,0,.26,0,.29V261l0,.26v.26l0,.29,0,.26,0,.26,0,.26-.06.26-.06.26-.1.25-.1.26-.1.23-.09.26-.13.26-.17.23-.16.22c-2.56,3.7-7.25,3.6-11.14.88-3.56-2.46-6.51-7.45-3.82-11.31a6.34,6.34,0,0,1,1.23-1.36,6.19,6.19,0,0,0,1-1,5.2,5.2,0,0,0,.62-1.82l5.18,2.08-.35.9c-2.43-.29-5.38-.39-6.74,1.56-1.75,2.49.45,5.57,2.88,7.29,3.21,2.2,8,3.75,10.17.58a4.91,4.91,0,0,0-.35-5.48Z"/><path id="path38347" class="cls-4" d="M308.92,258.61h0l0,0h0v0h-.07v0h0l0,0h0l0,0-.06,0-.07,0,0,0h0l0,0h0l0,0h0l0,0h0l0,0h0a3.07,3.07,0,0,0-.91-3.2L298,245.1l-1.59-.16,1.49-3,17.2,3.24.91-1,.71.36-2.88,5.24-.72-.38.43-1.37-4.64-.87L306,252.3l1.72,1.81a4.35,4.35,0,0,0,.9.68c.75.42,1.33-.29,1.95-.91l.68.39Zm-1-11.79h-.17l-.06,0h-.07l-.09,0h-.07l-.09,0-.13,0h-.1l-.13,0-.13,0-.16,0-.13,0-.29,0-.36-.07-.32-.06-.39-.1-.36-.06-.39-.07-.78-.16-.81-.16-.35-.07-.39-.06-.36-.1-.35-.06-.33-.07-.32,0-.13,0-.13,0-.13,0-.13,0h-.13l-.1,0-.09,0h-.1l-.1,0h-.06l-.07,0h-.13l0,0,5.9,6.22Z"/><path class="cls-3" d="M175.31,303h0A128.47,128.47,0,1,1,303.76,174.58l-.17,6.63-.49,6.55-.81,6.34-1.12,6.41-1.44,6.21-1.72,6-2,6-2.31,5.87-2.56,5.64-2.84,5.53-3.11,5.44-3.34,5.21-3.56,5-3.82,4.88-4,4.64-4.3,4.53-4.44,4.21-4.64,4-4.89,3.86-5,3.53-5.19,3.34-5.42,3.13L231,290.4l-5.64,2.53-5.87,2.34-6,2-6,1.68-6.21,1.44-6.37,1.16-6.44.81-6.51.49Zm0-254.49a126,126,0,0,0,0,252.06l6.53-.16,6.38-.48,6.32-.8,6.22-1.13,6.1-1.41,5.94-1.66,5.87-2,5.73-2.29,5.57-2.5,5.45-2.78,5.28-3.07,5.11-3.27,4.95-3.49,4.76-3.76,4.56-3.95,4.38-4.16,4.19-4.41,3.94-4.56,3.76-4.78,3.51-4.92,3.27-5.1,3-5.32,2.79-5.43,2.52-5.55,2.26-5.74,2-5.87,1.69-5.94,1.41-6.1,1.1-6.25.79-6.26.48-6.42.17-6.51C301.33,105.08,244.79,48.55,175.29,48.55Z"/></g></g></g></svg>